M48
; DRILL file {KiCad 5.1.9-73d0e3b20d~88~ubuntu20.04.1} date Thu Apr 29 21:08:13 2021
; FORMAT={-:-/ absolute / metric / decimal}
; #@! TF.CreationDate,2021-04-29T21:08:13+02:00
; #@! TF.GenerationSoftware,Kicad,Pcbnew,5.1.9-73d0e3b20d~88~ubuntu20.04.1
; #@! TF.FileFunction,Plated,1,2,PTH
FMAT,2
METRIC
T1C0.400
T2C0.600
%
G90
G05
T1
X1.5Y8.25
X2.0Y44.7
X3.0Y36.0
X3.5Y41.0
X3.5Y28.5
X4.3Y20.5
X4.9Y36.5
X4.9Y34.6
X5.6Y9.9
X6.9Y39.0
X7.0Y17.0
X7.0Y16.0
X7.0Y15.0
X7.0Y14.0
X7.0Y13.0
X7.0Y12.0
X7.75Y1.25
X8.153Y27.053
X8.2Y5.6
X8.5Y48.5
X8.5Y33.5
X8.5Y21.0
X8.6Y30.9
X9.5Y44.9
X10.0Y43.0
X10.0Y29.0
X11.2Y44.9
X11.2Y27.1
X11.8Y30.9
X13.5Y34.8
X14.1Y14.6
X14.4Y23.1
X14.9Y11.6
X15.0Y15.5
X15.1Y37.2
X15.1Y34.5
X15.6Y18.5
X15.9Y24.5
X16.0Y48.5
X16.0Y28.0
X16.5Y37.6
X16.6Y32.9
X17.7Y28.5
X18.0Y3.0
X18.2Y37.8
X18.9Y34.7
X19.5Y31.5
X19.6Y28.5
X19.9Y20.5
X20.2Y16.5
X20.3Y18.5
X21.4Y7.0
X22.0Y12.0
X22.5Y45.65
X22.9Y4.2
X23.5Y6.0
X23.5Y2.7
X25.5Y45.2
X27.64Y8.168
X27.9Y54.4
X28.1Y44.2
X29.0Y39.5
X29.875Y10.925
X30.1Y2.8
X31.1Y44.1
X31.163Y9.493
X31.5Y38.6
X32.541Y10.541
X32.6Y8.4
X34.5Y39.25
X35.6Y54.45
X36.0Y7.4
X36.1Y44.8
X36.15Y39.35
X36.374Y5.398
X36.7Y1.7
X36.8Y4.2
X38.275Y39.444
X38.3Y12.7
X38.5Y8.5
X38.7Y34.1
X39.8Y54.4
X39.875Y22.5
X40.2Y28.5
X40.5Y16.5
X40.5Y15.3
X40.5Y14.0
X40.55Y12.5
X41.175Y18.538
X41.662Y26.488
X42.0Y3.0
X43.5Y48.5
X43.7Y29.7
X44.6Y33.0
X45.75Y39.25
X46.0Y23.5
X46.3Y19.4
X47.6Y37.5
X49.6Y32.1
X50.2Y4.9
X53.1Y13.9
X53.1Y12.7
X53.55Y22.4
X54.75Y27.3
X54.85Y21.4
X55.0Y13.0
X56.0Y53.5
X56.0Y35.7
X57.0Y45.0
T2
G00X25.68Y5.73
M15
G01X25.68Y6.83
M16
G05
G00X25.68Y1.71
M15
G01X25.68Y2.51
M16
G05
G00X34.32Y5.73
M15
G01X34.32Y6.83
M16
G05
G00X34.32Y1.71
M15
G01X34.32Y2.51
M16
G05
T0
M30
