%TF.GenerationSoftware,KiCad,Pcbnew,5.1.10-88a1d61d58~88~ubuntu20.04.1*%
%TF.CreationDate,2021-05-11T13:31:27+02:00*%
%TF.ProjectId,gamearino,67616d65-6172-4696-9e6f-2e6b69636164,v20.0.3*%
%TF.SameCoordinates,PX5f5e100PY5f5e100*%
%TF.FileFunction,Paste,Top*%
%TF.FilePolarity,Positive*%
%FSLAX46Y46*%
G04 Gerber Fmt 4.6, Leading zero omitted, Abs format (unit mm)*
G04 Created by KiCad (PCBNEW 5.1.10-88a1d61d58~88~ubuntu20.04.1) date 2021-05-11 13:31:27*
%MOMM*%
%LPD*%
G01*
G04 APERTURE LIST*
%ADD10R,0.940000X0.690000*%
%ADD11R,0.690000X0.940000*%
%ADD12C,0.520000*%
%ADD13O,1.400000X2.500000*%
%ADD14R,0.740000X0.840000*%
%ADD15R,1.940000X1.440000*%
%ADD16R,1.940000X3.740000*%
%ADD17R,2.440000X0.940000*%
%ADD18R,0.940000X1.740000*%
G04 APERTURE END LIST*
D10*
%TO.C,SW9*%
X18000000Y54875000D03*
X12000000Y51125000D03*
X18000000Y51125000D03*
X12000000Y54875000D03*
%TD*%
D11*
%TO.C,SW8*%
X55125000Y48000000D03*
X58875000Y42000000D03*
X58875000Y48000000D03*
X55125000Y42000000D03*
%TD*%
D10*
%TO.C,SW7*%
X48000000Y35875000D03*
X42000000Y32125000D03*
X48000000Y32125000D03*
X42000000Y35875000D03*
%TD*%
%TO.C,SW6*%
X45000000Y4875000D03*
X39000000Y1125000D03*
X45000000Y1125000D03*
X39000000Y4875000D03*
%TD*%
%TO.C,SW5*%
X21000000Y4875000D03*
X15000000Y1125000D03*
X21000000Y1125000D03*
X15000000Y4875000D03*
%TD*%
D11*
%TO.C,SW4*%
X15125000Y39000000D03*
X18875000Y33000000D03*
X18875000Y39000000D03*
X15125000Y33000000D03*
%TD*%
D10*
%TO.C,SW3*%
X7000000Y27125000D03*
X13000000Y30875000D03*
X7000000Y30875000D03*
X13000000Y27125000D03*
%TD*%
%TO.C,SW2*%
X13000000Y44875000D03*
X7000000Y41125000D03*
X13000000Y41125000D03*
X7000000Y44875000D03*
%TD*%
D11*
%TO.C,SW1*%
X1125000Y39000000D03*
X4875000Y33000000D03*
X4875000Y39000000D03*
X1125000Y33000000D03*
%TD*%
%TO.C,U4*%
G36*
G01*
X19630000Y47890000D02*
X19630000Y52610000D01*
G75*
G02*
X19740000Y52720000I110000J0D01*
G01*
X19960000Y52720000D01*
G75*
G02*
X20070000Y52610000I0J-110000D01*
G01*
X20070000Y47890000D01*
G75*
G02*
X19960000Y47780000I-110000J0D01*
G01*
X19740000Y47780000D01*
G75*
G02*
X19630000Y47890000I0J110000D01*
G01*
G37*
G36*
G01*
X21030000Y47890000D02*
X21030000Y52610000D01*
G75*
G02*
X21140000Y52720000I110000J0D01*
G01*
X21360000Y52720000D01*
G75*
G02*
X21470000Y52610000I0J-110000D01*
G01*
X21470000Y47890000D01*
G75*
G02*
X21360000Y47780000I-110000J0D01*
G01*
X21140000Y47780000D01*
G75*
G02*
X21030000Y47890000I0J110000D01*
G01*
G37*
G36*
G01*
X20330000Y47890000D02*
X20330000Y52610000D01*
G75*
G02*
X20440000Y52720000I110000J0D01*
G01*
X20660000Y52720000D01*
G75*
G02*
X20770000Y52610000I0J-110000D01*
G01*
X20770000Y47890000D01*
G75*
G02*
X20660000Y47780000I-110000J0D01*
G01*
X20440000Y47780000D01*
G75*
G02*
X20330000Y47890000I0J110000D01*
G01*
G37*
G36*
G01*
X21730000Y47890000D02*
X21730000Y52610000D01*
G75*
G02*
X21840000Y52720000I110000J0D01*
G01*
X22060000Y52720000D01*
G75*
G02*
X22170000Y52610000I0J-110000D01*
G01*
X22170000Y47890000D01*
G75*
G02*
X22060000Y47780000I-110000J0D01*
G01*
X21840000Y47780000D01*
G75*
G02*
X21730000Y47890000I0J110000D01*
G01*
G37*
G36*
G01*
X22430000Y47890000D02*
X22430000Y52610000D01*
G75*
G02*
X22540000Y52720000I110000J0D01*
G01*
X22760000Y52720000D01*
G75*
G02*
X22870000Y52610000I0J-110000D01*
G01*
X22870000Y47890000D01*
G75*
G02*
X22760000Y47780000I-110000J0D01*
G01*
X22540000Y47780000D01*
G75*
G02*
X22430000Y47890000I0J110000D01*
G01*
G37*
G36*
G01*
X23130000Y47890000D02*
X23130000Y52610000D01*
G75*
G02*
X23240000Y52720000I110000J0D01*
G01*
X23460000Y52720000D01*
G75*
G02*
X23570000Y52610000I0J-110000D01*
G01*
X23570000Y47890000D01*
G75*
G02*
X23460000Y47780000I-110000J0D01*
G01*
X23240000Y47780000D01*
G75*
G02*
X23130000Y47890000I0J110000D01*
G01*
G37*
G36*
G01*
X23830000Y47890000D02*
X23830000Y52610000D01*
G75*
G02*
X23940000Y52720000I110000J0D01*
G01*
X24160000Y52720000D01*
G75*
G02*
X24270000Y52610000I0J-110000D01*
G01*
X24270000Y47890000D01*
G75*
G02*
X24160000Y47780000I-110000J0D01*
G01*
X23940000Y47780000D01*
G75*
G02*
X23830000Y47890000I0J110000D01*
G01*
G37*
G36*
G01*
X24530000Y47890000D02*
X24530000Y52610000D01*
G75*
G02*
X24640000Y52720000I110000J0D01*
G01*
X24860000Y52720000D01*
G75*
G02*
X24970000Y52610000I0J-110000D01*
G01*
X24970000Y47890000D01*
G75*
G02*
X24860000Y47780000I-110000J0D01*
G01*
X24640000Y47780000D01*
G75*
G02*
X24530000Y47890000I0J110000D01*
G01*
G37*
G36*
G01*
X25230000Y47890000D02*
X25230000Y52610000D01*
G75*
G02*
X25340000Y52720000I110000J0D01*
G01*
X25560000Y52720000D01*
G75*
G02*
X25670000Y52610000I0J-110000D01*
G01*
X25670000Y47890000D01*
G75*
G02*
X25560000Y47780000I-110000J0D01*
G01*
X25340000Y47780000D01*
G75*
G02*
X25230000Y47890000I0J110000D01*
G01*
G37*
G36*
G01*
X25930000Y47890000D02*
X25930000Y52610000D01*
G75*
G02*
X26040000Y52720000I110000J0D01*
G01*
X26260000Y52720000D01*
G75*
G02*
X26370000Y52610000I0J-110000D01*
G01*
X26370000Y47890000D01*
G75*
G02*
X26260000Y47780000I-110000J0D01*
G01*
X26040000Y47780000D01*
G75*
G02*
X25930000Y47890000I0J110000D01*
G01*
G37*
G36*
G01*
X26630000Y47890000D02*
X26630000Y52610000D01*
G75*
G02*
X26740000Y52720000I110000J0D01*
G01*
X26960000Y52720000D01*
G75*
G02*
X27070000Y52610000I0J-110000D01*
G01*
X27070000Y47890000D01*
G75*
G02*
X26960000Y47780000I-110000J0D01*
G01*
X26740000Y47780000D01*
G75*
G02*
X26630000Y47890000I0J110000D01*
G01*
G37*
G36*
G01*
X27330000Y47890000D02*
X27330000Y52610000D01*
G75*
G02*
X27440000Y52720000I110000J0D01*
G01*
X27660000Y52720000D01*
G75*
G02*
X27770000Y52610000I0J-110000D01*
G01*
X27770000Y47890000D01*
G75*
G02*
X27660000Y47780000I-110000J0D01*
G01*
X27440000Y47780000D01*
G75*
G02*
X27330000Y47890000I0J110000D01*
G01*
G37*
G36*
G01*
X28030000Y47890000D02*
X28030000Y52610000D01*
G75*
G02*
X28140000Y52720000I110000J0D01*
G01*
X28360000Y52720000D01*
G75*
G02*
X28470000Y52610000I0J-110000D01*
G01*
X28470000Y47890000D01*
G75*
G02*
X28360000Y47780000I-110000J0D01*
G01*
X28140000Y47780000D01*
G75*
G02*
X28030000Y47890000I0J110000D01*
G01*
G37*
G36*
G01*
X28730000Y47890000D02*
X28730000Y52610000D01*
G75*
G02*
X28840000Y52720000I110000J0D01*
G01*
X29060000Y52720000D01*
G75*
G02*
X29170000Y52610000I0J-110000D01*
G01*
X29170000Y47890000D01*
G75*
G02*
X29060000Y47780000I-110000J0D01*
G01*
X28840000Y47780000D01*
G75*
G02*
X28730000Y47890000I0J110000D01*
G01*
G37*
G36*
G01*
X29430000Y47890000D02*
X29430000Y52610000D01*
G75*
G02*
X29540000Y52720000I110000J0D01*
G01*
X29760000Y52720000D01*
G75*
G02*
X29870000Y52610000I0J-110000D01*
G01*
X29870000Y47890000D01*
G75*
G02*
X29760000Y47780000I-110000J0D01*
G01*
X29540000Y47780000D01*
G75*
G02*
X29430000Y47890000I0J110000D01*
G01*
G37*
G36*
G01*
X30130000Y47890000D02*
X30130000Y52610000D01*
G75*
G02*
X30240000Y52720000I110000J0D01*
G01*
X30460000Y52720000D01*
G75*
G02*
X30570000Y52610000I0J-110000D01*
G01*
X30570000Y47890000D01*
G75*
G02*
X30460000Y47780000I-110000J0D01*
G01*
X30240000Y47780000D01*
G75*
G02*
X30130000Y47890000I0J110000D01*
G01*
G37*
G36*
G01*
X30830000Y47890000D02*
X30830000Y52610000D01*
G75*
G02*
X30940000Y52720000I110000J0D01*
G01*
X31160000Y52720000D01*
G75*
G02*
X31270000Y52610000I0J-110000D01*
G01*
X31270000Y47890000D01*
G75*
G02*
X31160000Y47780000I-110000J0D01*
G01*
X30940000Y47780000D01*
G75*
G02*
X30830000Y47890000I0J110000D01*
G01*
G37*
G36*
G01*
X31530000Y47890000D02*
X31530000Y52610000D01*
G75*
G02*
X31640000Y52720000I110000J0D01*
G01*
X31860000Y52720000D01*
G75*
G02*
X31970000Y52610000I0J-110000D01*
G01*
X31970000Y47890000D01*
G75*
G02*
X31860000Y47780000I-110000J0D01*
G01*
X31640000Y47780000D01*
G75*
G02*
X31530000Y47890000I0J110000D01*
G01*
G37*
G36*
G01*
X32230000Y47890000D02*
X32230000Y52610000D01*
G75*
G02*
X32340000Y52720000I110000J0D01*
G01*
X32560000Y52720000D01*
G75*
G02*
X32670000Y52610000I0J-110000D01*
G01*
X32670000Y47890000D01*
G75*
G02*
X32560000Y47780000I-110000J0D01*
G01*
X32340000Y47780000D01*
G75*
G02*
X32230000Y47890000I0J110000D01*
G01*
G37*
G36*
G01*
X32930000Y47890000D02*
X32930000Y52610000D01*
G75*
G02*
X33040000Y52720000I110000J0D01*
G01*
X33260000Y52720000D01*
G75*
G02*
X33370000Y52610000I0J-110000D01*
G01*
X33370000Y47890000D01*
G75*
G02*
X33260000Y47780000I-110000J0D01*
G01*
X33040000Y47780000D01*
G75*
G02*
X32930000Y47890000I0J110000D01*
G01*
G37*
G36*
G01*
X33630000Y47890000D02*
X33630000Y52610000D01*
G75*
G02*
X33740000Y52720000I110000J0D01*
G01*
X33960000Y52720000D01*
G75*
G02*
X34070000Y52610000I0J-110000D01*
G01*
X34070000Y47890000D01*
G75*
G02*
X33960000Y47780000I-110000J0D01*
G01*
X33740000Y47780000D01*
G75*
G02*
X33630000Y47890000I0J110000D01*
G01*
G37*
G36*
G01*
X34330000Y47890000D02*
X34330000Y52610000D01*
G75*
G02*
X34440000Y52720000I110000J0D01*
G01*
X34660000Y52720000D01*
G75*
G02*
X34770000Y52610000I0J-110000D01*
G01*
X34770000Y47890000D01*
G75*
G02*
X34660000Y47780000I-110000J0D01*
G01*
X34440000Y47780000D01*
G75*
G02*
X34330000Y47890000I0J110000D01*
G01*
G37*
G36*
G01*
X35030000Y47890000D02*
X35030000Y52610000D01*
G75*
G02*
X35140000Y52720000I110000J0D01*
G01*
X35360000Y52720000D01*
G75*
G02*
X35470000Y52610000I0J-110000D01*
G01*
X35470000Y47890000D01*
G75*
G02*
X35360000Y47780000I-110000J0D01*
G01*
X35140000Y47780000D01*
G75*
G02*
X35030000Y47890000I0J110000D01*
G01*
G37*
G36*
G01*
X35730000Y47890000D02*
X35730000Y52610000D01*
G75*
G02*
X35840000Y52720000I110000J0D01*
G01*
X36060000Y52720000D01*
G75*
G02*
X36170000Y52610000I0J-110000D01*
G01*
X36170000Y47890000D01*
G75*
G02*
X36060000Y47780000I-110000J0D01*
G01*
X35840000Y47780000D01*
G75*
G02*
X35730000Y47890000I0J110000D01*
G01*
G37*
G36*
G01*
X36430000Y47890000D02*
X36430000Y52610000D01*
G75*
G02*
X36540000Y52720000I110000J0D01*
G01*
X36760000Y52720000D01*
G75*
G02*
X36870000Y52610000I0J-110000D01*
G01*
X36870000Y47890000D01*
G75*
G02*
X36760000Y47780000I-110000J0D01*
G01*
X36540000Y47780000D01*
G75*
G02*
X36430000Y47890000I0J110000D01*
G01*
G37*
G36*
G01*
X37130000Y47890000D02*
X37130000Y52610000D01*
G75*
G02*
X37240000Y52720000I110000J0D01*
G01*
X37460000Y52720000D01*
G75*
G02*
X37570000Y52610000I0J-110000D01*
G01*
X37570000Y47890000D01*
G75*
G02*
X37460000Y47780000I-110000J0D01*
G01*
X37240000Y47780000D01*
G75*
G02*
X37130000Y47890000I0J110000D01*
G01*
G37*
G36*
G01*
X37830000Y47890000D02*
X37830000Y52610000D01*
G75*
G02*
X37940000Y52720000I110000J0D01*
G01*
X38160000Y52720000D01*
G75*
G02*
X38270000Y52610000I0J-110000D01*
G01*
X38270000Y47890000D01*
G75*
G02*
X38160000Y47780000I-110000J0D01*
G01*
X37940000Y47780000D01*
G75*
G02*
X37830000Y47890000I0J110000D01*
G01*
G37*
G36*
G01*
X38530000Y47890000D02*
X38530000Y52610000D01*
G75*
G02*
X38640000Y52720000I110000J0D01*
G01*
X38860000Y52720000D01*
G75*
G02*
X38970000Y52610000I0J-110000D01*
G01*
X38970000Y47890000D01*
G75*
G02*
X38860000Y47780000I-110000J0D01*
G01*
X38640000Y47780000D01*
G75*
G02*
X38530000Y47890000I0J110000D01*
G01*
G37*
G36*
G01*
X39230000Y47890000D02*
X39230000Y52610000D01*
G75*
G02*
X39340000Y52720000I110000J0D01*
G01*
X39560000Y52720000D01*
G75*
G02*
X39670000Y52610000I0J-110000D01*
G01*
X39670000Y47890000D01*
G75*
G02*
X39560000Y47780000I-110000J0D01*
G01*
X39340000Y47780000D01*
G75*
G02*
X39230000Y47890000I0J110000D01*
G01*
G37*
G36*
G01*
X39930000Y47890000D02*
X39930000Y52610000D01*
G75*
G02*
X40040000Y52720000I110000J0D01*
G01*
X40260000Y52720000D01*
G75*
G02*
X40370000Y52610000I0J-110000D01*
G01*
X40370000Y47890000D01*
G75*
G02*
X40260000Y47780000I-110000J0D01*
G01*
X40040000Y47780000D01*
G75*
G02*
X39930000Y47890000I0J110000D01*
G01*
G37*
%TD*%
%TO.C,C13*%
G36*
G01*
X17145000Y28735000D02*
X17145000Y28265000D01*
G75*
G02*
X16935000Y28055000I-210000J0D01*
G01*
X16515000Y28055000D01*
G75*
G02*
X16305000Y28265000I0J210000D01*
G01*
X16305000Y28735000D01*
G75*
G02*
X16515000Y28945000I210000J0D01*
G01*
X16935000Y28945000D01*
G75*
G02*
X17145000Y28735000I0J-210000D01*
G01*
G37*
G36*
G01*
X18695000Y28735000D02*
X18695000Y28265000D01*
G75*
G02*
X18485000Y28055000I-210000J0D01*
G01*
X18065000Y28055000D01*
G75*
G02*
X17855000Y28265000I0J210000D01*
G01*
X17855000Y28735000D01*
G75*
G02*
X18065000Y28945000I210000J0D01*
G01*
X18485000Y28945000D01*
G75*
G02*
X18695000Y28735000I0J-210000D01*
G01*
G37*
%TD*%
%TO.C,R20*%
G36*
G01*
X2241250Y47380000D02*
X1758750Y47380000D01*
G75*
G02*
X1555000Y47583750I0J203750D01*
G01*
X1555000Y47991250D01*
G75*
G02*
X1758750Y48195000I203750J0D01*
G01*
X2241250Y48195000D01*
G75*
G02*
X2445000Y47991250I0J-203750D01*
G01*
X2445000Y47583750D01*
G75*
G02*
X2241250Y47380000I-203750J0D01*
G01*
G37*
G36*
G01*
X2241250Y45805000D02*
X1758750Y45805000D01*
G75*
G02*
X1555000Y46008750I0J203750D01*
G01*
X1555000Y46416250D01*
G75*
G02*
X1758750Y46620000I203750J0D01*
G01*
X2241250Y46620000D01*
G75*
G02*
X2445000Y46416250I0J-203750D01*
G01*
X2445000Y46008750D01*
G75*
G02*
X2241250Y45805000I-203750J0D01*
G01*
G37*
%TD*%
%TO.C,D2*%
G36*
G01*
X9230000Y51477500D02*
X9230000Y51972500D01*
G75*
G02*
X9377500Y52120000I147500J0D01*
G01*
X9672500Y52120000D01*
G75*
G02*
X9820000Y51972500I0J-147500D01*
G01*
X9820000Y51477500D01*
G75*
G02*
X9672500Y51330000I-147500J0D01*
G01*
X9377500Y51330000D01*
G75*
G02*
X9230000Y51477500I0J147500D01*
G01*
G37*
G36*
G01*
X9230000Y50027500D02*
X9230000Y50522500D01*
G75*
G02*
X9377500Y50670000I147500J0D01*
G01*
X9672500Y50670000D01*
G75*
G02*
X9820000Y50522500I0J-147500D01*
G01*
X9820000Y50027500D01*
G75*
G02*
X9672500Y49880000I-147500J0D01*
G01*
X9377500Y49880000D01*
G75*
G02*
X9230000Y50027500I0J147500D01*
G01*
G37*
G36*
G01*
X10180000Y50027500D02*
X10180000Y50522500D01*
G75*
G02*
X10327500Y50670000I147500J0D01*
G01*
X10622500Y50670000D01*
G75*
G02*
X10770000Y50522500I0J-147500D01*
G01*
X10770000Y50027500D01*
G75*
G02*
X10622500Y49880000I-147500J0D01*
G01*
X10327500Y49880000D01*
G75*
G02*
X10180000Y50027500I0J147500D01*
G01*
G37*
G36*
G01*
X10180000Y51477500D02*
X10180000Y51972500D01*
G75*
G02*
X10327500Y52120000I147500J0D01*
G01*
X10622500Y52120000D01*
G75*
G02*
X10770000Y51972500I0J-147500D01*
G01*
X10770000Y51477500D01*
G75*
G02*
X10622500Y51330000I-147500J0D01*
G01*
X10327500Y51330000D01*
G75*
G02*
X10180000Y51477500I0J147500D01*
G01*
G37*
%TD*%
D12*
%TO.C,FID2*%
X55000000Y8000000D03*
%TD*%
%TO.C,FID1*%
X10000000Y53000000D03*
%TD*%
%TO.C,R10*%
G36*
G01*
X37441250Y8680000D02*
X36958750Y8680000D01*
G75*
G02*
X36755000Y8883750I0J203750D01*
G01*
X36755000Y9291250D01*
G75*
G02*
X36958750Y9495000I203750J0D01*
G01*
X37441250Y9495000D01*
G75*
G02*
X37645000Y9291250I0J-203750D01*
G01*
X37645000Y8883750D01*
G75*
G02*
X37441250Y8680000I-203750J0D01*
G01*
G37*
G36*
G01*
X37441250Y7105000D02*
X36958750Y7105000D01*
G75*
G02*
X36755000Y7308750I0J203750D01*
G01*
X36755000Y7716250D01*
G75*
G02*
X36958750Y7920000I203750J0D01*
G01*
X37441250Y7920000D01*
G75*
G02*
X37645000Y7716250I0J-203750D01*
G01*
X37645000Y7308750D01*
G75*
G02*
X37441250Y7105000I-203750J0D01*
G01*
G37*
%TD*%
%TO.C,R9*%
G36*
G01*
X23258750Y7620000D02*
X23741250Y7620000D01*
G75*
G02*
X23945000Y7416250I0J-203750D01*
G01*
X23945000Y7008750D01*
G75*
G02*
X23741250Y6805000I-203750J0D01*
G01*
X23258750Y6805000D01*
G75*
G02*
X23055000Y7008750I0J203750D01*
G01*
X23055000Y7416250D01*
G75*
G02*
X23258750Y7620000I203750J0D01*
G01*
G37*
G36*
G01*
X23258750Y9195000D02*
X23741250Y9195000D01*
G75*
G02*
X23945000Y8991250I0J-203750D01*
G01*
X23945000Y8583750D01*
G75*
G02*
X23741250Y8380000I-203750J0D01*
G01*
X23258750Y8380000D01*
G75*
G02*
X23055000Y8583750I0J203750D01*
G01*
X23055000Y8991250D01*
G75*
G02*
X23258750Y9195000I203750J0D01*
G01*
G37*
%TD*%
%TO.C,X1*%
G36*
G01*
X32940000Y6440000D02*
X32940000Y7280000D01*
G75*
G02*
X33070000Y7410000I130000J0D01*
G01*
X33330000Y7410000D01*
G75*
G02*
X33460000Y7280000I0J-130000D01*
G01*
X33460000Y6440000D01*
G75*
G02*
X33330000Y6310000I-130000J0D01*
G01*
X33070000Y6310000D01*
G75*
G02*
X32940000Y6440000I0J130000D01*
G01*
G37*
G36*
G01*
X32140000Y6440000D02*
X32140000Y7280000D01*
G75*
G02*
X32270000Y7410000I130000J0D01*
G01*
X32530000Y7410000D01*
G75*
G02*
X32660000Y7280000I0J-130000D01*
G01*
X32660000Y6440000D01*
G75*
G02*
X32530000Y6310000I-130000J0D01*
G01*
X32270000Y6310000D01*
G75*
G02*
X32140000Y6440000I0J130000D01*
G01*
G37*
G36*
G01*
X32940000Y6440000D02*
X32940000Y7280000D01*
G75*
G02*
X33070000Y7410000I130000J0D01*
G01*
X33330000Y7410000D01*
G75*
G02*
X33460000Y7280000I0J-130000D01*
G01*
X33460000Y6440000D01*
G75*
G02*
X33330000Y6310000I-130000J0D01*
G01*
X33070000Y6310000D01*
G75*
G02*
X32940000Y6440000I0J130000D01*
G01*
G37*
G36*
G01*
X32140000Y6440000D02*
X32140000Y7280000D01*
G75*
G02*
X32270000Y7410000I130000J0D01*
G01*
X32530000Y7410000D01*
G75*
G02*
X32660000Y7280000I0J-130000D01*
G01*
X32660000Y6440000D01*
G75*
G02*
X32530000Y6310000I-130000J0D01*
G01*
X32270000Y6310000D01*
G75*
G02*
X32140000Y6440000I0J130000D01*
G01*
G37*
G36*
G01*
X26540000Y6440000D02*
X26540000Y7280000D01*
G75*
G02*
X26670000Y7410000I130000J0D01*
G01*
X26930000Y7410000D01*
G75*
G02*
X27060000Y7280000I0J-130000D01*
G01*
X27060000Y6440000D01*
G75*
G02*
X26930000Y6310000I-130000J0D01*
G01*
X26670000Y6310000D01*
G75*
G02*
X26540000Y6440000I0J130000D01*
G01*
G37*
G36*
G01*
X26540000Y6440000D02*
X26540000Y7280000D01*
G75*
G02*
X26670000Y7410000I130000J0D01*
G01*
X26930000Y7410000D01*
G75*
G02*
X27060000Y7280000I0J-130000D01*
G01*
X27060000Y6440000D01*
G75*
G02*
X26930000Y6310000I-130000J0D01*
G01*
X26670000Y6310000D01*
G75*
G02*
X26540000Y6440000I0J130000D01*
G01*
G37*
G36*
G01*
X27340000Y6440000D02*
X27340000Y7280000D01*
G75*
G02*
X27470000Y7410000I130000J0D01*
G01*
X27730000Y7410000D01*
G75*
G02*
X27860000Y7280000I0J-130000D01*
G01*
X27860000Y6440000D01*
G75*
G02*
X27730000Y6310000I-130000J0D01*
G01*
X27470000Y6310000D01*
G75*
G02*
X27340000Y6440000I0J130000D01*
G01*
G37*
G36*
G01*
X27340000Y6440000D02*
X27340000Y7280000D01*
G75*
G02*
X27470000Y7410000I130000J0D01*
G01*
X27730000Y7410000D01*
G75*
G02*
X27860000Y7280000I0J-130000D01*
G01*
X27860000Y6440000D01*
G75*
G02*
X27730000Y6310000I-130000J0D01*
G01*
X27470000Y6310000D01*
G75*
G02*
X27340000Y6440000I0J130000D01*
G01*
G37*
G36*
G01*
X31860000Y7355000D02*
X31860000Y6365000D01*
G75*
G02*
X31805000Y6310000I-55000J0D01*
G01*
X31695000Y6310000D01*
G75*
G02*
X31640000Y6365000I0J55000D01*
G01*
X31640000Y7355000D01*
G75*
G02*
X31695000Y7410000I55000J0D01*
G01*
X31805000Y7410000D01*
G75*
G02*
X31860000Y7355000I0J-55000D01*
G01*
G37*
G36*
G01*
X30860000Y7355000D02*
X30860000Y6365000D01*
G75*
G02*
X30805000Y6310000I-55000J0D01*
G01*
X30695000Y6310000D01*
G75*
G02*
X30640000Y6365000I0J55000D01*
G01*
X30640000Y7355000D01*
G75*
G02*
X30695000Y7410000I55000J0D01*
G01*
X30805000Y7410000D01*
G75*
G02*
X30860000Y7355000I0J-55000D01*
G01*
G37*
G36*
G01*
X31360000Y7355000D02*
X31360000Y6365000D01*
G75*
G02*
X31305000Y6310000I-55000J0D01*
G01*
X31195000Y6310000D01*
G75*
G02*
X31140000Y6365000I0J55000D01*
G01*
X31140000Y7355000D01*
G75*
G02*
X31195000Y7410000I55000J0D01*
G01*
X31305000Y7410000D01*
G75*
G02*
X31360000Y7355000I0J-55000D01*
G01*
G37*
G36*
G01*
X28860000Y7355000D02*
X28860000Y6365000D01*
G75*
G02*
X28805000Y6310000I-55000J0D01*
G01*
X28695000Y6310000D01*
G75*
G02*
X28640000Y6365000I0J55000D01*
G01*
X28640000Y7355000D01*
G75*
G02*
X28695000Y7410000I55000J0D01*
G01*
X28805000Y7410000D01*
G75*
G02*
X28860000Y7355000I0J-55000D01*
G01*
G37*
G36*
G01*
X28360000Y7355000D02*
X28360000Y6365000D01*
G75*
G02*
X28305000Y6310000I-55000J0D01*
G01*
X28195000Y6310000D01*
G75*
G02*
X28140000Y6365000I0J55000D01*
G01*
X28140000Y7355000D01*
G75*
G02*
X28195000Y7410000I55000J0D01*
G01*
X28305000Y7410000D01*
G75*
G02*
X28360000Y7355000I0J-55000D01*
G01*
G37*
G36*
G01*
X30360000Y7355000D02*
X30360000Y6365000D01*
G75*
G02*
X30305000Y6310000I-55000J0D01*
G01*
X30195000Y6310000D01*
G75*
G02*
X30140000Y6365000I0J55000D01*
G01*
X30140000Y7355000D01*
G75*
G02*
X30195000Y7410000I55000J0D01*
G01*
X30305000Y7410000D01*
G75*
G02*
X30360000Y7355000I0J-55000D01*
G01*
G37*
G36*
G01*
X29860000Y7355000D02*
X29860000Y6365000D01*
G75*
G02*
X29805000Y6310000I-55000J0D01*
G01*
X29695000Y6310000D01*
G75*
G02*
X29640000Y6365000I0J55000D01*
G01*
X29640000Y7355000D01*
G75*
G02*
X29695000Y7410000I55000J0D01*
G01*
X29805000Y7410000D01*
G75*
G02*
X29860000Y7355000I0J-55000D01*
G01*
G37*
G36*
G01*
X29360000Y7355000D02*
X29360000Y6365000D01*
G75*
G02*
X29305000Y6310000I-55000J0D01*
G01*
X29195000Y6310000D01*
G75*
G02*
X29140000Y6365000I0J55000D01*
G01*
X29140000Y7355000D01*
G75*
G02*
X29195000Y7410000I55000J0D01*
G01*
X29305000Y7410000D01*
G75*
G02*
X29360000Y7355000I0J-55000D01*
G01*
G37*
D13*
X25430000Y6280000D03*
X25430000Y2100000D03*
X34570000Y2100000D03*
X34570000Y6250000D03*
%TD*%
%TO.C,C12*%
G36*
G01*
X44508750Y41120000D02*
X44991250Y41120000D01*
G75*
G02*
X45195000Y40916250I0J-203750D01*
G01*
X45195000Y40508750D01*
G75*
G02*
X44991250Y40305000I-203750J0D01*
G01*
X44508750Y40305000D01*
G75*
G02*
X44305000Y40508750I0J203750D01*
G01*
X44305000Y40916250D01*
G75*
G02*
X44508750Y41120000I203750J0D01*
G01*
G37*
G36*
G01*
X44508750Y42695000D02*
X44991250Y42695000D01*
G75*
G02*
X45195000Y42491250I0J-203750D01*
G01*
X45195000Y42083750D01*
G75*
G02*
X44991250Y41880000I-203750J0D01*
G01*
X44508750Y41880000D01*
G75*
G02*
X44305000Y42083750I0J203750D01*
G01*
X44305000Y42491250D01*
G75*
G02*
X44508750Y42695000I203750J0D01*
G01*
G37*
%TD*%
%TO.C,C11*%
G36*
G01*
X42758750Y41120000D02*
X43241250Y41120000D01*
G75*
G02*
X43445000Y40916250I0J-203750D01*
G01*
X43445000Y40508750D01*
G75*
G02*
X43241250Y40305000I-203750J0D01*
G01*
X42758750Y40305000D01*
G75*
G02*
X42555000Y40508750I0J203750D01*
G01*
X42555000Y40916250D01*
G75*
G02*
X42758750Y41120000I203750J0D01*
G01*
G37*
G36*
G01*
X42758750Y42695000D02*
X43241250Y42695000D01*
G75*
G02*
X43445000Y42491250I0J-203750D01*
G01*
X43445000Y42083750D01*
G75*
G02*
X43241250Y41880000I-203750J0D01*
G01*
X42758750Y41880000D01*
G75*
G02*
X42555000Y42083750I0J203750D01*
G01*
X42555000Y42491250D01*
G75*
G02*
X42758750Y42695000I203750J0D01*
G01*
G37*
%TD*%
%TO.C,C10*%
G36*
G01*
X40558750Y41020000D02*
X41441250Y41020000D01*
G75*
G02*
X41670000Y40791250I0J-228750D01*
G01*
X41670000Y40333750D01*
G75*
G02*
X41441250Y40105000I-228750J0D01*
G01*
X40558750Y40105000D01*
G75*
G02*
X40330000Y40333750I0J228750D01*
G01*
X40330000Y40791250D01*
G75*
G02*
X40558750Y41020000I228750J0D01*
G01*
G37*
G36*
G01*
X40558750Y42895000D02*
X41441250Y42895000D01*
G75*
G02*
X41670000Y42666250I0J-228750D01*
G01*
X41670000Y42208750D01*
G75*
G02*
X41441250Y41980000I-228750J0D01*
G01*
X40558750Y41980000D01*
G75*
G02*
X40330000Y42208750I0J228750D01*
G01*
X40330000Y42666250D01*
G75*
G02*
X40558750Y42895000I228750J0D01*
G01*
G37*
%TD*%
%TO.C,R8*%
G36*
G01*
X58491250Y23667500D02*
X58008750Y23667500D01*
G75*
G02*
X57805000Y23871250I0J203750D01*
G01*
X57805000Y24278750D01*
G75*
G02*
X58008750Y24482500I203750J0D01*
G01*
X58491250Y24482500D01*
G75*
G02*
X58695000Y24278750I0J-203750D01*
G01*
X58695000Y23871250D01*
G75*
G02*
X58491250Y23667500I-203750J0D01*
G01*
G37*
G36*
G01*
X58491250Y22092500D02*
X58008750Y22092500D01*
G75*
G02*
X57805000Y22296250I0J203750D01*
G01*
X57805000Y22703750D01*
G75*
G02*
X58008750Y22907500I203750J0D01*
G01*
X58491250Y22907500D01*
G75*
G02*
X58695000Y22703750I0J-203750D01*
G01*
X58695000Y22296250D01*
G75*
G02*
X58491250Y22092500I-203750J0D01*
G01*
G37*
%TD*%
%TO.C,R6*%
G36*
G01*
X51758750Y22870000D02*
X52241250Y22870000D01*
G75*
G02*
X52445000Y22666250I0J-203750D01*
G01*
X52445000Y22258750D01*
G75*
G02*
X52241250Y22055000I-203750J0D01*
G01*
X51758750Y22055000D01*
G75*
G02*
X51555000Y22258750I0J203750D01*
G01*
X51555000Y22666250D01*
G75*
G02*
X51758750Y22870000I203750J0D01*
G01*
G37*
G36*
G01*
X51758750Y24445000D02*
X52241250Y24445000D01*
G75*
G02*
X52445000Y24241250I0J-203750D01*
G01*
X52445000Y23833750D01*
G75*
G02*
X52241250Y23630000I-203750J0D01*
G01*
X51758750Y23630000D01*
G75*
G02*
X51555000Y23833750I0J203750D01*
G01*
X51555000Y24241250D01*
G75*
G02*
X51758750Y24445000I203750J0D01*
G01*
G37*
%TD*%
%TO.C,R7*%
G36*
G01*
X56008750Y22870000D02*
X56491250Y22870000D01*
G75*
G02*
X56695000Y22666250I0J-203750D01*
G01*
X56695000Y22258750D01*
G75*
G02*
X56491250Y22055000I-203750J0D01*
G01*
X56008750Y22055000D01*
G75*
G02*
X55805000Y22258750I0J203750D01*
G01*
X55805000Y22666250D01*
G75*
G02*
X56008750Y22870000I203750J0D01*
G01*
G37*
G36*
G01*
X56008750Y24445000D02*
X56491250Y24445000D01*
G75*
G02*
X56695000Y24241250I0J-203750D01*
G01*
X56695000Y23833750D01*
G75*
G02*
X56491250Y23630000I-203750J0D01*
G01*
X56008750Y23630000D01*
G75*
G02*
X55805000Y23833750I0J203750D01*
G01*
X55805000Y24241250D01*
G75*
G02*
X56008750Y24445000I203750J0D01*
G01*
G37*
%TD*%
D14*
%TO.C,Q1*%
X53000000Y27750000D03*
X53950000Y25750000D03*
X52050000Y25750000D03*
%TD*%
%TO.C,Q2*%
X57250000Y27750000D03*
X58200000Y25750000D03*
X56300000Y25750000D03*
%TD*%
%TO.C,C3*%
G36*
G01*
X12558750Y16020000D02*
X13441250Y16020000D01*
G75*
G02*
X13670000Y15791250I0J-228750D01*
G01*
X13670000Y15333750D01*
G75*
G02*
X13441250Y15105000I-228750J0D01*
G01*
X12558750Y15105000D01*
G75*
G02*
X12330000Y15333750I0J228750D01*
G01*
X12330000Y15791250D01*
G75*
G02*
X12558750Y16020000I228750J0D01*
G01*
G37*
G36*
G01*
X12558750Y17895000D02*
X13441250Y17895000D01*
G75*
G02*
X13670000Y17666250I0J-228750D01*
G01*
X13670000Y17208750D01*
G75*
G02*
X13441250Y16980000I-228750J0D01*
G01*
X12558750Y16980000D01*
G75*
G02*
X12330000Y17208750I0J228750D01*
G01*
X12330000Y17666250D01*
G75*
G02*
X12558750Y17895000I228750J0D01*
G01*
G37*
%TD*%
%TO.C,R13*%
G36*
G01*
X43130000Y13758750D02*
X43130000Y14241250D01*
G75*
G02*
X43333750Y14445000I203750J0D01*
G01*
X43741250Y14445000D01*
G75*
G02*
X43945000Y14241250I0J-203750D01*
G01*
X43945000Y13758750D01*
G75*
G02*
X43741250Y13555000I-203750J0D01*
G01*
X43333750Y13555000D01*
G75*
G02*
X43130000Y13758750I0J203750D01*
G01*
G37*
G36*
G01*
X41555000Y13758750D02*
X41555000Y14241250D01*
G75*
G02*
X41758750Y14445000I203750J0D01*
G01*
X42166250Y14445000D01*
G75*
G02*
X42370000Y14241250I0J-203750D01*
G01*
X42370000Y13758750D01*
G75*
G02*
X42166250Y13555000I-203750J0D01*
G01*
X41758750Y13555000D01*
G75*
G02*
X41555000Y13758750I0J203750D01*
G01*
G37*
%TD*%
%TO.C,R12*%
G36*
G01*
X42370000Y15741250D02*
X42370000Y15258750D01*
G75*
G02*
X42166250Y15055000I-203750J0D01*
G01*
X41758750Y15055000D01*
G75*
G02*
X41555000Y15258750I0J203750D01*
G01*
X41555000Y15741250D01*
G75*
G02*
X41758750Y15945000I203750J0D01*
G01*
X42166250Y15945000D01*
G75*
G02*
X42370000Y15741250I0J-203750D01*
G01*
G37*
G36*
G01*
X43945000Y15741250D02*
X43945000Y15258750D01*
G75*
G02*
X43741250Y15055000I-203750J0D01*
G01*
X43333750Y15055000D01*
G75*
G02*
X43130000Y15258750I0J203750D01*
G01*
X43130000Y15741250D01*
G75*
G02*
X43333750Y15945000I203750J0D01*
G01*
X43741250Y15945000D01*
G75*
G02*
X43945000Y15741250I0J-203750D01*
G01*
G37*
%TD*%
%TO.C,R5*%
G36*
G01*
X18380000Y16258750D02*
X18380000Y16741250D01*
G75*
G02*
X18583750Y16945000I203750J0D01*
G01*
X18991250Y16945000D01*
G75*
G02*
X19195000Y16741250I0J-203750D01*
G01*
X19195000Y16258750D01*
G75*
G02*
X18991250Y16055000I-203750J0D01*
G01*
X18583750Y16055000D01*
G75*
G02*
X18380000Y16258750I0J203750D01*
G01*
G37*
G36*
G01*
X16805000Y16258750D02*
X16805000Y16741250D01*
G75*
G02*
X17008750Y16945000I203750J0D01*
G01*
X17416250Y16945000D01*
G75*
G02*
X17620000Y16741250I0J-203750D01*
G01*
X17620000Y16258750D01*
G75*
G02*
X17416250Y16055000I-203750J0D01*
G01*
X17008750Y16055000D01*
G75*
G02*
X16805000Y16258750I0J203750D01*
G01*
G37*
%TD*%
%TO.C,R4*%
G36*
G01*
X18380000Y18258750D02*
X18380000Y18741250D01*
G75*
G02*
X18583750Y18945000I203750J0D01*
G01*
X18991250Y18945000D01*
G75*
G02*
X19195000Y18741250I0J-203750D01*
G01*
X19195000Y18258750D01*
G75*
G02*
X18991250Y18055000I-203750J0D01*
G01*
X18583750Y18055000D01*
G75*
G02*
X18380000Y18258750I0J203750D01*
G01*
G37*
G36*
G01*
X16805000Y18258750D02*
X16805000Y18741250D01*
G75*
G02*
X17008750Y18945000I203750J0D01*
G01*
X17416250Y18945000D01*
G75*
G02*
X17620000Y18741250I0J-203750D01*
G01*
X17620000Y18258750D01*
G75*
G02*
X17416250Y18055000I-203750J0D01*
G01*
X17008750Y18055000D01*
G75*
G02*
X16805000Y18258750I0J203750D01*
G01*
G37*
%TD*%
%TO.C,R3*%
G36*
G01*
X18380000Y22258750D02*
X18380000Y22741250D01*
G75*
G02*
X18583750Y22945000I203750J0D01*
G01*
X18991250Y22945000D01*
G75*
G02*
X19195000Y22741250I0J-203750D01*
G01*
X19195000Y22258750D01*
G75*
G02*
X18991250Y22055000I-203750J0D01*
G01*
X18583750Y22055000D01*
G75*
G02*
X18380000Y22258750I0J203750D01*
G01*
G37*
G36*
G01*
X16805000Y22258750D02*
X16805000Y22741250D01*
G75*
G02*
X17008750Y22945000I203750J0D01*
G01*
X17416250Y22945000D01*
G75*
G02*
X17620000Y22741250I0J-203750D01*
G01*
X17620000Y22258750D01*
G75*
G02*
X17416250Y22055000I-203750J0D01*
G01*
X17008750Y22055000D01*
G75*
G02*
X16805000Y22258750I0J203750D01*
G01*
G37*
%TD*%
%TO.C,R2*%
G36*
G01*
X45080000Y17758750D02*
X45080000Y18241250D01*
G75*
G02*
X45283750Y18445000I203750J0D01*
G01*
X45691250Y18445000D01*
G75*
G02*
X45895000Y18241250I0J-203750D01*
G01*
X45895000Y17758750D01*
G75*
G02*
X45691250Y17555000I-203750J0D01*
G01*
X45283750Y17555000D01*
G75*
G02*
X45080000Y17758750I0J203750D01*
G01*
G37*
G36*
G01*
X43505000Y17758750D02*
X43505000Y18241250D01*
G75*
G02*
X43708750Y18445000I203750J0D01*
G01*
X44116250Y18445000D01*
G75*
G02*
X44320000Y18241250I0J-203750D01*
G01*
X44320000Y17758750D01*
G75*
G02*
X44116250Y17555000I-203750J0D01*
G01*
X43708750Y17555000D01*
G75*
G02*
X43505000Y17758750I0J203750D01*
G01*
G37*
%TD*%
%TO.C,R1*%
G36*
G01*
X18392500Y24258750D02*
X18392500Y24741250D01*
G75*
G02*
X18596250Y24945000I203750J0D01*
G01*
X19003750Y24945000D01*
G75*
G02*
X19207500Y24741250I0J-203750D01*
G01*
X19207500Y24258750D01*
G75*
G02*
X19003750Y24055000I-203750J0D01*
G01*
X18596250Y24055000D01*
G75*
G02*
X18392500Y24258750I0J203750D01*
G01*
G37*
G36*
G01*
X16817500Y24258750D02*
X16817500Y24741250D01*
G75*
G02*
X17021250Y24945000I203750J0D01*
G01*
X17428750Y24945000D01*
G75*
G02*
X17632500Y24741250I0J-203750D01*
G01*
X17632500Y24258750D01*
G75*
G02*
X17428750Y24055000I-203750J0D01*
G01*
X17021250Y24055000D01*
G75*
G02*
X16817500Y24258750I0J203750D01*
G01*
G37*
%TD*%
D15*
%TO.C,U3*%
X10750000Y12200000D03*
X10750000Y16800000D03*
X10750000Y14500000D03*
D16*
X4450000Y14500000D03*
%TD*%
%TO.C,U2*%
G36*
G01*
X49530000Y16310000D02*
X49530000Y16580000D01*
G75*
G02*
X49665000Y16715000I135000J0D01*
G01*
X51285000Y16715000D01*
G75*
G02*
X51420000Y16580000I0J-135000D01*
G01*
X51420000Y16310000D01*
G75*
G02*
X51285000Y16175000I-135000J0D01*
G01*
X49665000Y16175000D01*
G75*
G02*
X49530000Y16310000I0J135000D01*
G01*
G37*
G36*
G01*
X49530000Y15040000D02*
X49530000Y15310000D01*
G75*
G02*
X49665000Y15445000I135000J0D01*
G01*
X51285000Y15445000D01*
G75*
G02*
X51420000Y15310000I0J-135000D01*
G01*
X51420000Y15040000D01*
G75*
G02*
X51285000Y14905000I-135000J0D01*
G01*
X49665000Y14905000D01*
G75*
G02*
X49530000Y15040000I0J135000D01*
G01*
G37*
G36*
G01*
X49530000Y13770000D02*
X49530000Y14040000D01*
G75*
G02*
X49665000Y14175000I135000J0D01*
G01*
X51285000Y14175000D01*
G75*
G02*
X51420000Y14040000I0J-135000D01*
G01*
X51420000Y13770000D01*
G75*
G02*
X51285000Y13635000I-135000J0D01*
G01*
X49665000Y13635000D01*
G75*
G02*
X49530000Y13770000I0J135000D01*
G01*
G37*
G36*
G01*
X49530000Y12500000D02*
X49530000Y12770000D01*
G75*
G02*
X49665000Y12905000I135000J0D01*
G01*
X51285000Y12905000D01*
G75*
G02*
X51420000Y12770000I0J-135000D01*
G01*
X51420000Y12500000D01*
G75*
G02*
X51285000Y12365000I-135000J0D01*
G01*
X49665000Y12365000D01*
G75*
G02*
X49530000Y12500000I0J135000D01*
G01*
G37*
G36*
G01*
X49530000Y11230000D02*
X49530000Y11500000D01*
G75*
G02*
X49665000Y11635000I135000J0D01*
G01*
X51285000Y11635000D01*
G75*
G02*
X51420000Y11500000I0J-135000D01*
G01*
X51420000Y11230000D01*
G75*
G02*
X51285000Y11095000I-135000J0D01*
G01*
X49665000Y11095000D01*
G75*
G02*
X49530000Y11230000I0J135000D01*
G01*
G37*
G36*
G01*
X49530000Y9960000D02*
X49530000Y10230000D01*
G75*
G02*
X49665000Y10365000I135000J0D01*
G01*
X51285000Y10365000D01*
G75*
G02*
X51420000Y10230000I0J-135000D01*
G01*
X51420000Y9960000D01*
G75*
G02*
X51285000Y9825000I-135000J0D01*
G01*
X49665000Y9825000D01*
G75*
G02*
X49530000Y9960000I0J135000D01*
G01*
G37*
G36*
G01*
X49530000Y8690000D02*
X49530000Y8960000D01*
G75*
G02*
X49665000Y9095000I135000J0D01*
G01*
X51285000Y9095000D01*
G75*
G02*
X51420000Y8960000I0J-135000D01*
G01*
X51420000Y8690000D01*
G75*
G02*
X51285000Y8555000I-135000J0D01*
G01*
X49665000Y8555000D01*
G75*
G02*
X49530000Y8690000I0J135000D01*
G01*
G37*
G36*
G01*
X49530000Y7420000D02*
X49530000Y7690000D01*
G75*
G02*
X49665000Y7825000I135000J0D01*
G01*
X51285000Y7825000D01*
G75*
G02*
X51420000Y7690000I0J-135000D01*
G01*
X51420000Y7420000D01*
G75*
G02*
X51285000Y7285000I-135000J0D01*
G01*
X49665000Y7285000D01*
G75*
G02*
X49530000Y7420000I0J135000D01*
G01*
G37*
G36*
G01*
X44580000Y7420000D02*
X44580000Y7690000D01*
G75*
G02*
X44715000Y7825000I135000J0D01*
G01*
X46335000Y7825000D01*
G75*
G02*
X46470000Y7690000I0J-135000D01*
G01*
X46470000Y7420000D01*
G75*
G02*
X46335000Y7285000I-135000J0D01*
G01*
X44715000Y7285000D01*
G75*
G02*
X44580000Y7420000I0J135000D01*
G01*
G37*
G36*
G01*
X44580000Y8690000D02*
X44580000Y8960000D01*
G75*
G02*
X44715000Y9095000I135000J0D01*
G01*
X46335000Y9095000D01*
G75*
G02*
X46470000Y8960000I0J-135000D01*
G01*
X46470000Y8690000D01*
G75*
G02*
X46335000Y8555000I-135000J0D01*
G01*
X44715000Y8555000D01*
G75*
G02*
X44580000Y8690000I0J135000D01*
G01*
G37*
G36*
G01*
X44580000Y9960000D02*
X44580000Y10230000D01*
G75*
G02*
X44715000Y10365000I135000J0D01*
G01*
X46335000Y10365000D01*
G75*
G02*
X46470000Y10230000I0J-135000D01*
G01*
X46470000Y9960000D01*
G75*
G02*
X46335000Y9825000I-135000J0D01*
G01*
X44715000Y9825000D01*
G75*
G02*
X44580000Y9960000I0J135000D01*
G01*
G37*
G36*
G01*
X44580000Y11230000D02*
X44580000Y11500000D01*
G75*
G02*
X44715000Y11635000I135000J0D01*
G01*
X46335000Y11635000D01*
G75*
G02*
X46470000Y11500000I0J-135000D01*
G01*
X46470000Y11230000D01*
G75*
G02*
X46335000Y11095000I-135000J0D01*
G01*
X44715000Y11095000D01*
G75*
G02*
X44580000Y11230000I0J135000D01*
G01*
G37*
G36*
G01*
X44580000Y12500000D02*
X44580000Y12770000D01*
G75*
G02*
X44715000Y12905000I135000J0D01*
G01*
X46335000Y12905000D01*
G75*
G02*
X46470000Y12770000I0J-135000D01*
G01*
X46470000Y12500000D01*
G75*
G02*
X46335000Y12365000I-135000J0D01*
G01*
X44715000Y12365000D01*
G75*
G02*
X44580000Y12500000I0J135000D01*
G01*
G37*
G36*
G01*
X44580000Y13770000D02*
X44580000Y14040000D01*
G75*
G02*
X44715000Y14175000I135000J0D01*
G01*
X46335000Y14175000D01*
G75*
G02*
X46470000Y14040000I0J-135000D01*
G01*
X46470000Y13770000D01*
G75*
G02*
X46335000Y13635000I-135000J0D01*
G01*
X44715000Y13635000D01*
G75*
G02*
X44580000Y13770000I0J135000D01*
G01*
G37*
G36*
G01*
X44580000Y15040000D02*
X44580000Y15310000D01*
G75*
G02*
X44715000Y15445000I135000J0D01*
G01*
X46335000Y15445000D01*
G75*
G02*
X46470000Y15310000I0J-135000D01*
G01*
X46470000Y15040000D01*
G75*
G02*
X46335000Y14905000I-135000J0D01*
G01*
X44715000Y14905000D01*
G75*
G02*
X44580000Y15040000I0J135000D01*
G01*
G37*
G36*
G01*
X44580000Y16310000D02*
X44580000Y16580000D01*
G75*
G02*
X44715000Y16715000I135000J0D01*
G01*
X46335000Y16715000D01*
G75*
G02*
X46470000Y16580000I0J-135000D01*
G01*
X46470000Y16310000D01*
G75*
G02*
X46335000Y16175000I-135000J0D01*
G01*
X44715000Y16175000D01*
G75*
G02*
X44580000Y16310000I0J135000D01*
G01*
G37*
%TD*%
D17*
%TO.C,U1*%
X37600000Y28500000D03*
X37600000Y26500000D03*
X37600000Y24500000D03*
X37600000Y22500000D03*
X37600000Y20500000D03*
X37600000Y18500000D03*
X37600000Y16500000D03*
X37600000Y14500000D03*
D18*
X35000000Y13000000D03*
X33000000Y13000000D03*
X31000000Y13000000D03*
X29000000Y13000000D03*
X27000000Y13000000D03*
X25000000Y13000000D03*
D17*
X22400000Y14500000D03*
X22400000Y16500000D03*
X22400000Y18500000D03*
X22400000Y20500000D03*
X22400000Y22500000D03*
X22400000Y24500000D03*
X22400000Y26500000D03*
X22400000Y28500000D03*
%TD*%
%TO.C,R11*%
G36*
G01*
X54380000Y15008750D02*
X54380000Y15491250D01*
G75*
G02*
X54583750Y15695000I203750J0D01*
G01*
X54991250Y15695000D01*
G75*
G02*
X55195000Y15491250I0J-203750D01*
G01*
X55195000Y15008750D01*
G75*
G02*
X54991250Y14805000I-203750J0D01*
G01*
X54583750Y14805000D01*
G75*
G02*
X54380000Y15008750I0J203750D01*
G01*
G37*
G36*
G01*
X52805000Y15008750D02*
X52805000Y15491250D01*
G75*
G02*
X53008750Y15695000I203750J0D01*
G01*
X53416250Y15695000D01*
G75*
G02*
X53620000Y15491250I0J-203750D01*
G01*
X53620000Y15008750D01*
G75*
G02*
X53416250Y14805000I-203750J0D01*
G01*
X53008750Y14805000D01*
G75*
G02*
X52805000Y15008750I0J203750D01*
G01*
G37*
%TD*%
%TO.C,R15*%
G36*
G01*
X30241250Y41880000D02*
X29758750Y41880000D01*
G75*
G02*
X29555000Y42083750I0J203750D01*
G01*
X29555000Y42491250D01*
G75*
G02*
X29758750Y42695000I203750J0D01*
G01*
X30241250Y42695000D01*
G75*
G02*
X30445000Y42491250I0J-203750D01*
G01*
X30445000Y42083750D01*
G75*
G02*
X30241250Y41880000I-203750J0D01*
G01*
G37*
G36*
G01*
X30241250Y40305000D02*
X29758750Y40305000D01*
G75*
G02*
X29555000Y40508750I0J203750D01*
G01*
X29555000Y40916250D01*
G75*
G02*
X29758750Y41120000I203750J0D01*
G01*
X30241250Y41120000D01*
G75*
G02*
X30445000Y40916250I0J-203750D01*
G01*
X30445000Y40508750D01*
G75*
G02*
X30241250Y40305000I-203750J0D01*
G01*
G37*
%TD*%
%TO.C,R16*%
G36*
G01*
X36758750Y41120000D02*
X37241250Y41120000D01*
G75*
G02*
X37445000Y40916250I0J-203750D01*
G01*
X37445000Y40508750D01*
G75*
G02*
X37241250Y40305000I-203750J0D01*
G01*
X36758750Y40305000D01*
G75*
G02*
X36555000Y40508750I0J203750D01*
G01*
X36555000Y40916250D01*
G75*
G02*
X36758750Y41120000I203750J0D01*
G01*
G37*
G36*
G01*
X36758750Y42695000D02*
X37241250Y42695000D01*
G75*
G02*
X37445000Y42491250I0J-203750D01*
G01*
X37445000Y42083750D01*
G75*
G02*
X37241250Y41880000I-203750J0D01*
G01*
X36758750Y41880000D01*
G75*
G02*
X36555000Y42083750I0J203750D01*
G01*
X36555000Y42491250D01*
G75*
G02*
X36758750Y42695000I203750J0D01*
G01*
G37*
%TD*%
%TO.C,R14*%
G36*
G01*
X35008750Y41120000D02*
X35491250Y41120000D01*
G75*
G02*
X35695000Y40916250I0J-203750D01*
G01*
X35695000Y40508750D01*
G75*
G02*
X35491250Y40305000I-203750J0D01*
G01*
X35008750Y40305000D01*
G75*
G02*
X34805000Y40508750I0J203750D01*
G01*
X34805000Y40916250D01*
G75*
G02*
X35008750Y41120000I203750J0D01*
G01*
G37*
G36*
G01*
X35008750Y42695000D02*
X35491250Y42695000D01*
G75*
G02*
X35695000Y42491250I0J-203750D01*
G01*
X35695000Y42083750D01*
G75*
G02*
X35491250Y41880000I-203750J0D01*
G01*
X35008750Y41880000D01*
G75*
G02*
X34805000Y42083750I0J203750D01*
G01*
X34805000Y42491250D01*
G75*
G02*
X35008750Y42695000I203750J0D01*
G01*
G37*
%TD*%
%TO.C,R19*%
G36*
G01*
X38991250Y41880000D02*
X38508750Y41880000D01*
G75*
G02*
X38305000Y42083750I0J203750D01*
G01*
X38305000Y42491250D01*
G75*
G02*
X38508750Y42695000I203750J0D01*
G01*
X38991250Y42695000D01*
G75*
G02*
X39195000Y42491250I0J-203750D01*
G01*
X39195000Y42083750D01*
G75*
G02*
X38991250Y41880000I-203750J0D01*
G01*
G37*
G36*
G01*
X38991250Y40305000D02*
X38508750Y40305000D01*
G75*
G02*
X38305000Y40508750I0J203750D01*
G01*
X38305000Y40916250D01*
G75*
G02*
X38508750Y41120000I203750J0D01*
G01*
X38991250Y41120000D01*
G75*
G02*
X39195000Y40916250I0J-203750D01*
G01*
X39195000Y40508750D01*
G75*
G02*
X38991250Y40305000I-203750J0D01*
G01*
G37*
%TD*%
D14*
%TO.C,D1*%
X27250000Y40250000D03*
X26300000Y42250000D03*
X28200000Y42250000D03*
%TD*%
%TO.C,C4*%
G36*
G01*
X12558750Y12020000D02*
X13441250Y12020000D01*
G75*
G02*
X13670000Y11791250I0J-228750D01*
G01*
X13670000Y11333750D01*
G75*
G02*
X13441250Y11105000I-228750J0D01*
G01*
X12558750Y11105000D01*
G75*
G02*
X12330000Y11333750I0J228750D01*
G01*
X12330000Y11791250D01*
G75*
G02*
X12558750Y12020000I228750J0D01*
G01*
G37*
G36*
G01*
X12558750Y13895000D02*
X13441250Y13895000D01*
G75*
G02*
X13670000Y13666250I0J-228750D01*
G01*
X13670000Y13208750D01*
G75*
G02*
X13441250Y12980000I-228750J0D01*
G01*
X12558750Y12980000D01*
G75*
G02*
X12330000Y13208750I0J228750D01*
G01*
X12330000Y13666250D01*
G75*
G02*
X12558750Y13895000I228750J0D01*
G01*
G37*
%TD*%
%TO.C,C2*%
G36*
G01*
X48380000Y17758750D02*
X48380000Y18241250D01*
G75*
G02*
X48583750Y18445000I203750J0D01*
G01*
X48991250Y18445000D01*
G75*
G02*
X49195000Y18241250I0J-203750D01*
G01*
X49195000Y17758750D01*
G75*
G02*
X48991250Y17555000I-203750J0D01*
G01*
X48583750Y17555000D01*
G75*
G02*
X48380000Y17758750I0J203750D01*
G01*
G37*
G36*
G01*
X46805000Y17758750D02*
X46805000Y18241250D01*
G75*
G02*
X47008750Y18445000I203750J0D01*
G01*
X47416250Y18445000D01*
G75*
G02*
X47620000Y18241250I0J-203750D01*
G01*
X47620000Y17758750D01*
G75*
G02*
X47416250Y17555000I-203750J0D01*
G01*
X47008750Y17555000D01*
G75*
G02*
X46805000Y17758750I0J203750D01*
G01*
G37*
%TD*%
%TO.C,C1*%
G36*
G01*
X42370000Y12741250D02*
X42370000Y12258750D01*
G75*
G02*
X42166250Y12055000I-203750J0D01*
G01*
X41758750Y12055000D01*
G75*
G02*
X41555000Y12258750I0J203750D01*
G01*
X41555000Y12741250D01*
G75*
G02*
X41758750Y12945000I203750J0D01*
G01*
X42166250Y12945000D01*
G75*
G02*
X42370000Y12741250I0J-203750D01*
G01*
G37*
G36*
G01*
X43945000Y12741250D02*
X43945000Y12258750D01*
G75*
G02*
X43741250Y12055000I-203750J0D01*
G01*
X43333750Y12055000D01*
G75*
G02*
X43130000Y12258750I0J203750D01*
G01*
X43130000Y12741250D01*
G75*
G02*
X43333750Y12945000I203750J0D01*
G01*
X43741250Y12945000D01*
G75*
G02*
X43945000Y12741250I0J-203750D01*
G01*
G37*
%TD*%
%TO.C,C5*%
G36*
G01*
X31508750Y41120000D02*
X31991250Y41120000D01*
G75*
G02*
X32195000Y40916250I0J-203750D01*
G01*
X32195000Y40508750D01*
G75*
G02*
X31991250Y40305000I-203750J0D01*
G01*
X31508750Y40305000D01*
G75*
G02*
X31305000Y40508750I0J203750D01*
G01*
X31305000Y40916250D01*
G75*
G02*
X31508750Y41120000I203750J0D01*
G01*
G37*
G36*
G01*
X31508750Y42695000D02*
X31991250Y42695000D01*
G75*
G02*
X32195000Y42491250I0J-203750D01*
G01*
X32195000Y42083750D01*
G75*
G02*
X31991250Y41880000I-203750J0D01*
G01*
X31508750Y41880000D01*
G75*
G02*
X31305000Y42083750I0J203750D01*
G01*
X31305000Y42491250D01*
G75*
G02*
X31508750Y42695000I203750J0D01*
G01*
G37*
%TD*%
%TO.C,C9*%
G36*
G01*
X19491250Y41880000D02*
X19008750Y41880000D01*
G75*
G02*
X18805000Y42083750I0J203750D01*
G01*
X18805000Y42491250D01*
G75*
G02*
X19008750Y42695000I203750J0D01*
G01*
X19491250Y42695000D01*
G75*
G02*
X19695000Y42491250I0J-203750D01*
G01*
X19695000Y42083750D01*
G75*
G02*
X19491250Y41880000I-203750J0D01*
G01*
G37*
G36*
G01*
X19491250Y40305000D02*
X19008750Y40305000D01*
G75*
G02*
X18805000Y40508750I0J203750D01*
G01*
X18805000Y40916250D01*
G75*
G02*
X19008750Y41120000I203750J0D01*
G01*
X19491250Y41120000D01*
G75*
G02*
X19695000Y40916250I0J-203750D01*
G01*
X19695000Y40508750D01*
G75*
G02*
X19491250Y40305000I-203750J0D01*
G01*
G37*
%TD*%
%TO.C,C8*%
G36*
G01*
X17741250Y41880000D02*
X17258750Y41880000D01*
G75*
G02*
X17055000Y42083750I0J203750D01*
G01*
X17055000Y42491250D01*
G75*
G02*
X17258750Y42695000I203750J0D01*
G01*
X17741250Y42695000D01*
G75*
G02*
X17945000Y42491250I0J-203750D01*
G01*
X17945000Y42083750D01*
G75*
G02*
X17741250Y41880000I-203750J0D01*
G01*
G37*
G36*
G01*
X17741250Y40305000D02*
X17258750Y40305000D01*
G75*
G02*
X17055000Y40508750I0J203750D01*
G01*
X17055000Y40916250D01*
G75*
G02*
X17258750Y41120000I203750J0D01*
G01*
X17741250Y41120000D01*
G75*
G02*
X17945000Y40916250I0J-203750D01*
G01*
X17945000Y40508750D01*
G75*
G02*
X17741250Y40305000I-203750J0D01*
G01*
G37*
%TD*%
%TO.C,C6*%
G36*
G01*
X24258750Y41120000D02*
X24741250Y41120000D01*
G75*
G02*
X24945000Y40916250I0J-203750D01*
G01*
X24945000Y40508750D01*
G75*
G02*
X24741250Y40305000I-203750J0D01*
G01*
X24258750Y40305000D01*
G75*
G02*
X24055000Y40508750I0J203750D01*
G01*
X24055000Y40916250D01*
G75*
G02*
X24258750Y41120000I203750J0D01*
G01*
G37*
G36*
G01*
X24258750Y42695000D02*
X24741250Y42695000D01*
G75*
G02*
X24945000Y42491250I0J-203750D01*
G01*
X24945000Y42083750D01*
G75*
G02*
X24741250Y41880000I-203750J0D01*
G01*
X24258750Y41880000D01*
G75*
G02*
X24055000Y42083750I0J203750D01*
G01*
X24055000Y42491250D01*
G75*
G02*
X24258750Y42695000I203750J0D01*
G01*
G37*
%TD*%
%TO.C,C7*%
G36*
G01*
X22508750Y41120000D02*
X22991250Y41120000D01*
G75*
G02*
X23195000Y40916250I0J-203750D01*
G01*
X23195000Y40508750D01*
G75*
G02*
X22991250Y40305000I-203750J0D01*
G01*
X22508750Y40305000D01*
G75*
G02*
X22305000Y40508750I0J203750D01*
G01*
X22305000Y40916250D01*
G75*
G02*
X22508750Y41120000I203750J0D01*
G01*
G37*
G36*
G01*
X22508750Y42695000D02*
X22991250Y42695000D01*
G75*
G02*
X23195000Y42491250I0J-203750D01*
G01*
X23195000Y42083750D01*
G75*
G02*
X22991250Y41880000I-203750J0D01*
G01*
X22508750Y41880000D01*
G75*
G02*
X22305000Y42083750I0J203750D01*
G01*
X22305000Y42491250D01*
G75*
G02*
X22508750Y42695000I203750J0D01*
G01*
G37*
%TD*%
M02*
