%TF.GenerationSoftware,KiCad,Pcbnew,5.1.10-88a1d61d58~88~ubuntu20.04.1*%
%TF.CreationDate,2021-05-11T13:31:27+02:00*%
%TF.ProjectId,gamearino,67616d65-6172-4696-9e6f-2e6b69636164,v20.0.3*%
%TF.SameCoordinates,PX5f5e100PY5f5e100*%
%TF.FileFunction,Soldermask,Top*%
%TF.FilePolarity,Negative*%
%FSLAX46Y46*%
G04 Gerber Fmt 4.6, Leading zero omitted, Abs format (unit mm)*
G04 Created by KiCad (PCBNEW 5.1.10-88a1d61d58~88~ubuntu20.04.1) date 2021-05-11 13:31:27*
%MOMM*%
%LPD*%
G01*
G04 APERTURE LIST*
%ADD10C,0.150000*%
%ADD11C,0.800000*%
%ADD12C,0.600000*%
%ADD13C,0.700000*%
%ADD14O,1.000000X1.800000*%
%ADD15O,1.000000X2.100000*%
%ADD16C,3.300000*%
%ADD17C,1.000000*%
G04 APERTURE END LIST*
D10*
X51809523Y33472620D02*
X51809523Y34472620D01*
X51809523Y33996429D02*
X52380952Y33996429D01*
X52380952Y33472620D02*
X52380952Y34472620D01*
X52714285Y34472620D02*
X53285714Y34472620D01*
X53000000Y33472620D02*
X53000000Y34472620D01*
X54095238Y33472620D02*
X53619047Y33472620D01*
X53619047Y34472620D01*
X55142857Y33520239D02*
X55285714Y33472620D01*
X55523809Y33472620D01*
X55619047Y33520239D01*
X55666666Y33567858D01*
X55714285Y33663096D01*
X55714285Y33758334D01*
X55666666Y33853572D01*
X55619047Y33901191D01*
X55523809Y33948810D01*
X55333333Y33996429D01*
X55238095Y34044048D01*
X55190476Y34091667D01*
X55142857Y34186905D01*
X55142857Y34282143D01*
X55190476Y34377381D01*
X55238095Y34425000D01*
X55333333Y34472620D01*
X55571428Y34472620D01*
X55714285Y34425000D01*
X56000000Y34472620D02*
X56571428Y34472620D01*
X56285714Y33472620D02*
X56285714Y34472620D01*
X56904761Y33996429D02*
X57238095Y33996429D01*
X57380952Y33472620D02*
X56904761Y33472620D01*
X56904761Y34472620D01*
X57380952Y34472620D01*
X58000000Y33948810D02*
X58000000Y33472620D01*
X57666666Y34472620D02*
X58000000Y33948810D01*
X58333333Y34472620D01*
X59238095Y33472620D02*
X58904761Y33948810D01*
X58666666Y33472620D02*
X58666666Y34472620D01*
X59047619Y34472620D01*
X59142857Y34425000D01*
X59190476Y34377381D01*
X59238095Y34282143D01*
X59238095Y34139286D01*
X59190476Y34044048D01*
X59142857Y33996429D01*
X59047619Y33948810D01*
X58666666Y33948810D01*
X53785714Y32727381D02*
X53833333Y32775000D01*
X53928571Y32822620D01*
X54166666Y32822620D01*
X54261904Y32775000D01*
X54309523Y32727381D01*
X54357142Y32632143D01*
X54357142Y32536905D01*
X54309523Y32394048D01*
X53738095Y31822620D01*
X54357142Y31822620D01*
X54976190Y32822620D02*
X55071428Y32822620D01*
X55166666Y32775000D01*
X55214285Y32727381D01*
X55261904Y32632143D01*
X55309523Y32441667D01*
X55309523Y32203572D01*
X55261904Y32013096D01*
X55214285Y31917858D01*
X55166666Y31870239D01*
X55071428Y31822620D01*
X54976190Y31822620D01*
X54880952Y31870239D01*
X54833333Y31917858D01*
X54785714Y32013096D01*
X54738095Y32203572D01*
X54738095Y32441667D01*
X54785714Y32632143D01*
X54833333Y32727381D01*
X54880952Y32775000D01*
X54976190Y32822620D01*
X55690476Y32727381D02*
X55738095Y32775000D01*
X55833333Y32822620D01*
X56071428Y32822620D01*
X56166666Y32775000D01*
X56214285Y32727381D01*
X56261904Y32632143D01*
X56261904Y32536905D01*
X56214285Y32394048D01*
X55642857Y31822620D01*
X56261904Y31822620D01*
X57214285Y31822620D02*
X56642857Y31822620D01*
X56928571Y31822620D02*
X56928571Y32822620D01*
X56833333Y32679762D01*
X56738095Y32584524D01*
X56642857Y32536905D01*
X57852380Y8785715D02*
X58852380Y9119048D01*
X57852380Y9452381D01*
X57947619Y9738096D02*
X57900000Y9785715D01*
X57852380Y9880953D01*
X57852380Y10119048D01*
X57900000Y10214286D01*
X57947619Y10261905D01*
X58042857Y10309524D01*
X58138095Y10309524D01*
X58280952Y10261905D01*
X58852380Y9690477D01*
X58852380Y10309524D01*
X57852380Y10928572D02*
X57852380Y11023810D01*
X57900000Y11119048D01*
X57947619Y11166667D01*
X58042857Y11214286D01*
X58233333Y11261905D01*
X58471428Y11261905D01*
X58661904Y11214286D01*
X58757142Y11166667D01*
X58804761Y11119048D01*
X58852380Y11023810D01*
X58852380Y10928572D01*
X58804761Y10833334D01*
X58757142Y10785715D01*
X58661904Y10738096D01*
X58471428Y10690477D01*
X58233333Y10690477D01*
X58042857Y10738096D01*
X57947619Y10785715D01*
X57900000Y10833334D01*
X57852380Y10928572D01*
X58757142Y11690477D02*
X58804761Y11738096D01*
X58852380Y11690477D01*
X58804761Y11642858D01*
X58757142Y11690477D01*
X58852380Y11690477D01*
X57852380Y12357143D02*
X57852380Y12452381D01*
X57900000Y12547620D01*
X57947619Y12595239D01*
X58042857Y12642858D01*
X58233333Y12690477D01*
X58471428Y12690477D01*
X58661904Y12642858D01*
X58757142Y12595239D01*
X58804761Y12547620D01*
X58852380Y12452381D01*
X58852380Y12357143D01*
X58804761Y12261905D01*
X58757142Y12214286D01*
X58661904Y12166667D01*
X58471428Y12119048D01*
X58233333Y12119048D01*
X58042857Y12166667D01*
X57947619Y12214286D01*
X57900000Y12261905D01*
X57852380Y12357143D01*
X58757142Y13119048D02*
X58804761Y13166667D01*
X58852380Y13119048D01*
X58804761Y13071429D01*
X58757142Y13119048D01*
X58852380Y13119048D01*
X57852380Y13500000D02*
X57852380Y14119048D01*
X58233333Y13785715D01*
X58233333Y13928572D01*
X58280952Y14023810D01*
X58328571Y14071429D01*
X58423809Y14119048D01*
X58661904Y14119048D01*
X58757142Y14071429D01*
X58804761Y14023810D01*
X58852380Y13928572D01*
X58852380Y13642858D01*
X58804761Y13547620D01*
X58757142Y13500000D01*
%TO.C,SW9*%
G36*
G01*
X17450000Y54500000D02*
X17450000Y55250000D01*
G75*
G02*
X17500000Y55300000I50000J0D01*
G01*
X18500000Y55300000D01*
G75*
G02*
X18550000Y55250000I0J-50000D01*
G01*
X18550000Y54500000D01*
G75*
G02*
X18500000Y54450000I-50000J0D01*
G01*
X17500000Y54450000D01*
G75*
G02*
X17450000Y54500000I0J50000D01*
G01*
G37*
G36*
G01*
X11450000Y50750000D02*
X11450000Y51500000D01*
G75*
G02*
X11500000Y51550000I50000J0D01*
G01*
X12500000Y51550000D01*
G75*
G02*
X12550000Y51500000I0J-50000D01*
G01*
X12550000Y50750000D01*
G75*
G02*
X12500000Y50700000I-50000J0D01*
G01*
X11500000Y50700000D01*
G75*
G02*
X11450000Y50750000I0J50000D01*
G01*
G37*
G36*
G01*
X17450000Y50750000D02*
X17450000Y51500000D01*
G75*
G02*
X17500000Y51550000I50000J0D01*
G01*
X18500000Y51550000D01*
G75*
G02*
X18550000Y51500000I0J-50000D01*
G01*
X18550000Y50750000D01*
G75*
G02*
X18500000Y50700000I-50000J0D01*
G01*
X17500000Y50700000D01*
G75*
G02*
X17450000Y50750000I0J50000D01*
G01*
G37*
G36*
G01*
X11450000Y54500000D02*
X11450000Y55250000D01*
G75*
G02*
X11500000Y55300000I50000J0D01*
G01*
X12500000Y55300000D01*
G75*
G02*
X12550000Y55250000I0J-50000D01*
G01*
X12550000Y54500000D01*
G75*
G02*
X12500000Y54450000I-50000J0D01*
G01*
X11500000Y54450000D01*
G75*
G02*
X11450000Y54500000I0J50000D01*
G01*
G37*
%TD*%
%TO.C,SW8*%
G36*
G01*
X55500000Y47450000D02*
X54750000Y47450000D01*
G75*
G02*
X54700000Y47500000I0J50000D01*
G01*
X54700000Y48500000D01*
G75*
G02*
X54750000Y48550000I50000J0D01*
G01*
X55500000Y48550000D01*
G75*
G02*
X55550000Y48500000I0J-50000D01*
G01*
X55550000Y47500000D01*
G75*
G02*
X55500000Y47450000I-50000J0D01*
G01*
G37*
G36*
G01*
X59250000Y41450000D02*
X58500000Y41450000D01*
G75*
G02*
X58450000Y41500000I0J50000D01*
G01*
X58450000Y42500000D01*
G75*
G02*
X58500000Y42550000I50000J0D01*
G01*
X59250000Y42550000D01*
G75*
G02*
X59300000Y42500000I0J-50000D01*
G01*
X59300000Y41500000D01*
G75*
G02*
X59250000Y41450000I-50000J0D01*
G01*
G37*
G36*
G01*
X59250000Y47450000D02*
X58500000Y47450000D01*
G75*
G02*
X58450000Y47500000I0J50000D01*
G01*
X58450000Y48500000D01*
G75*
G02*
X58500000Y48550000I50000J0D01*
G01*
X59250000Y48550000D01*
G75*
G02*
X59300000Y48500000I0J-50000D01*
G01*
X59300000Y47500000D01*
G75*
G02*
X59250000Y47450000I-50000J0D01*
G01*
G37*
G36*
G01*
X55500000Y41450000D02*
X54750000Y41450000D01*
G75*
G02*
X54700000Y41500000I0J50000D01*
G01*
X54700000Y42500000D01*
G75*
G02*
X54750000Y42550000I50000J0D01*
G01*
X55500000Y42550000D01*
G75*
G02*
X55550000Y42500000I0J-50000D01*
G01*
X55550000Y41500000D01*
G75*
G02*
X55500000Y41450000I-50000J0D01*
G01*
G37*
%TD*%
%TO.C,SW7*%
G36*
G01*
X47450000Y35500000D02*
X47450000Y36250000D01*
G75*
G02*
X47500000Y36300000I50000J0D01*
G01*
X48500000Y36300000D01*
G75*
G02*
X48550000Y36250000I0J-50000D01*
G01*
X48550000Y35500000D01*
G75*
G02*
X48500000Y35450000I-50000J0D01*
G01*
X47500000Y35450000D01*
G75*
G02*
X47450000Y35500000I0J50000D01*
G01*
G37*
G36*
G01*
X41450000Y31750000D02*
X41450000Y32500000D01*
G75*
G02*
X41500000Y32550000I50000J0D01*
G01*
X42500000Y32550000D01*
G75*
G02*
X42550000Y32500000I0J-50000D01*
G01*
X42550000Y31750000D01*
G75*
G02*
X42500000Y31700000I-50000J0D01*
G01*
X41500000Y31700000D01*
G75*
G02*
X41450000Y31750000I0J50000D01*
G01*
G37*
G36*
G01*
X47450000Y31750000D02*
X47450000Y32500000D01*
G75*
G02*
X47500000Y32550000I50000J0D01*
G01*
X48500000Y32550000D01*
G75*
G02*
X48550000Y32500000I0J-50000D01*
G01*
X48550000Y31750000D01*
G75*
G02*
X48500000Y31700000I-50000J0D01*
G01*
X47500000Y31700000D01*
G75*
G02*
X47450000Y31750000I0J50000D01*
G01*
G37*
G36*
G01*
X41450000Y35500000D02*
X41450000Y36250000D01*
G75*
G02*
X41500000Y36300000I50000J0D01*
G01*
X42500000Y36300000D01*
G75*
G02*
X42550000Y36250000I0J-50000D01*
G01*
X42550000Y35500000D01*
G75*
G02*
X42500000Y35450000I-50000J0D01*
G01*
X41500000Y35450000D01*
G75*
G02*
X41450000Y35500000I0J50000D01*
G01*
G37*
%TD*%
%TO.C,SW6*%
G36*
G01*
X44450000Y4500000D02*
X44450000Y5250000D01*
G75*
G02*
X44500000Y5300000I50000J0D01*
G01*
X45500000Y5300000D01*
G75*
G02*
X45550000Y5250000I0J-50000D01*
G01*
X45550000Y4500000D01*
G75*
G02*
X45500000Y4450000I-50000J0D01*
G01*
X44500000Y4450000D01*
G75*
G02*
X44450000Y4500000I0J50000D01*
G01*
G37*
G36*
G01*
X38450000Y750000D02*
X38450000Y1500000D01*
G75*
G02*
X38500000Y1550000I50000J0D01*
G01*
X39500000Y1550000D01*
G75*
G02*
X39550000Y1500000I0J-50000D01*
G01*
X39550000Y750000D01*
G75*
G02*
X39500000Y700000I-50000J0D01*
G01*
X38500000Y700000D01*
G75*
G02*
X38450000Y750000I0J50000D01*
G01*
G37*
G36*
G01*
X44450000Y750000D02*
X44450000Y1500000D01*
G75*
G02*
X44500000Y1550000I50000J0D01*
G01*
X45500000Y1550000D01*
G75*
G02*
X45550000Y1500000I0J-50000D01*
G01*
X45550000Y750000D01*
G75*
G02*
X45500000Y700000I-50000J0D01*
G01*
X44500000Y700000D01*
G75*
G02*
X44450000Y750000I0J50000D01*
G01*
G37*
G36*
G01*
X38450000Y4500000D02*
X38450000Y5250000D01*
G75*
G02*
X38500000Y5300000I50000J0D01*
G01*
X39500000Y5300000D01*
G75*
G02*
X39550000Y5250000I0J-50000D01*
G01*
X39550000Y4500000D01*
G75*
G02*
X39500000Y4450000I-50000J0D01*
G01*
X38500000Y4450000D01*
G75*
G02*
X38450000Y4500000I0J50000D01*
G01*
G37*
%TD*%
%TO.C,SW5*%
G36*
G01*
X20450000Y4500000D02*
X20450000Y5250000D01*
G75*
G02*
X20500000Y5300000I50000J0D01*
G01*
X21500000Y5300000D01*
G75*
G02*
X21550000Y5250000I0J-50000D01*
G01*
X21550000Y4500000D01*
G75*
G02*
X21500000Y4450000I-50000J0D01*
G01*
X20500000Y4450000D01*
G75*
G02*
X20450000Y4500000I0J50000D01*
G01*
G37*
G36*
G01*
X14450000Y750000D02*
X14450000Y1500000D01*
G75*
G02*
X14500000Y1550000I50000J0D01*
G01*
X15500000Y1550000D01*
G75*
G02*
X15550000Y1500000I0J-50000D01*
G01*
X15550000Y750000D01*
G75*
G02*
X15500000Y700000I-50000J0D01*
G01*
X14500000Y700000D01*
G75*
G02*
X14450000Y750000I0J50000D01*
G01*
G37*
G36*
G01*
X20450000Y750000D02*
X20450000Y1500000D01*
G75*
G02*
X20500000Y1550000I50000J0D01*
G01*
X21500000Y1550000D01*
G75*
G02*
X21550000Y1500000I0J-50000D01*
G01*
X21550000Y750000D01*
G75*
G02*
X21500000Y700000I-50000J0D01*
G01*
X20500000Y700000D01*
G75*
G02*
X20450000Y750000I0J50000D01*
G01*
G37*
G36*
G01*
X14450000Y4500000D02*
X14450000Y5250000D01*
G75*
G02*
X14500000Y5300000I50000J0D01*
G01*
X15500000Y5300000D01*
G75*
G02*
X15550000Y5250000I0J-50000D01*
G01*
X15550000Y4500000D01*
G75*
G02*
X15500000Y4450000I-50000J0D01*
G01*
X14500000Y4450000D01*
G75*
G02*
X14450000Y4500000I0J50000D01*
G01*
G37*
%TD*%
%TO.C,SW4*%
G36*
G01*
X15500000Y38450000D02*
X14750000Y38450000D01*
G75*
G02*
X14700000Y38500000I0J50000D01*
G01*
X14700000Y39500000D01*
G75*
G02*
X14750000Y39550000I50000J0D01*
G01*
X15500000Y39550000D01*
G75*
G02*
X15550000Y39500000I0J-50000D01*
G01*
X15550000Y38500000D01*
G75*
G02*
X15500000Y38450000I-50000J0D01*
G01*
G37*
G36*
G01*
X19250000Y32450000D02*
X18500000Y32450000D01*
G75*
G02*
X18450000Y32500000I0J50000D01*
G01*
X18450000Y33500000D01*
G75*
G02*
X18500000Y33550000I50000J0D01*
G01*
X19250000Y33550000D01*
G75*
G02*
X19300000Y33500000I0J-50000D01*
G01*
X19300000Y32500000D01*
G75*
G02*
X19250000Y32450000I-50000J0D01*
G01*
G37*
G36*
G01*
X19250000Y38450000D02*
X18500000Y38450000D01*
G75*
G02*
X18450000Y38500000I0J50000D01*
G01*
X18450000Y39500000D01*
G75*
G02*
X18500000Y39550000I50000J0D01*
G01*
X19250000Y39550000D01*
G75*
G02*
X19300000Y39500000I0J-50000D01*
G01*
X19300000Y38500000D01*
G75*
G02*
X19250000Y38450000I-50000J0D01*
G01*
G37*
G36*
G01*
X15500000Y32450000D02*
X14750000Y32450000D01*
G75*
G02*
X14700000Y32500000I0J50000D01*
G01*
X14700000Y33500000D01*
G75*
G02*
X14750000Y33550000I50000J0D01*
G01*
X15500000Y33550000D01*
G75*
G02*
X15550000Y33500000I0J-50000D01*
G01*
X15550000Y32500000D01*
G75*
G02*
X15500000Y32450000I-50000J0D01*
G01*
G37*
%TD*%
%TO.C,SW3*%
G36*
G01*
X7550000Y27500000D02*
X7550000Y26750000D01*
G75*
G02*
X7500000Y26700000I-50000J0D01*
G01*
X6500000Y26700000D01*
G75*
G02*
X6450000Y26750000I0J50000D01*
G01*
X6450000Y27500000D01*
G75*
G02*
X6500000Y27550000I50000J0D01*
G01*
X7500000Y27550000D01*
G75*
G02*
X7550000Y27500000I0J-50000D01*
G01*
G37*
G36*
G01*
X13550000Y31250000D02*
X13550000Y30500000D01*
G75*
G02*
X13500000Y30450000I-50000J0D01*
G01*
X12500000Y30450000D01*
G75*
G02*
X12450000Y30500000I0J50000D01*
G01*
X12450000Y31250000D01*
G75*
G02*
X12500000Y31300000I50000J0D01*
G01*
X13500000Y31300000D01*
G75*
G02*
X13550000Y31250000I0J-50000D01*
G01*
G37*
G36*
G01*
X7550000Y31250000D02*
X7550000Y30500000D01*
G75*
G02*
X7500000Y30450000I-50000J0D01*
G01*
X6500000Y30450000D01*
G75*
G02*
X6450000Y30500000I0J50000D01*
G01*
X6450000Y31250000D01*
G75*
G02*
X6500000Y31300000I50000J0D01*
G01*
X7500000Y31300000D01*
G75*
G02*
X7550000Y31250000I0J-50000D01*
G01*
G37*
G36*
G01*
X13550000Y27500000D02*
X13550000Y26750000D01*
G75*
G02*
X13500000Y26700000I-50000J0D01*
G01*
X12500000Y26700000D01*
G75*
G02*
X12450000Y26750000I0J50000D01*
G01*
X12450000Y27500000D01*
G75*
G02*
X12500000Y27550000I50000J0D01*
G01*
X13500000Y27550000D01*
G75*
G02*
X13550000Y27500000I0J-50000D01*
G01*
G37*
%TD*%
%TO.C,SW2*%
G36*
G01*
X12450000Y44500000D02*
X12450000Y45250000D01*
G75*
G02*
X12500000Y45300000I50000J0D01*
G01*
X13500000Y45300000D01*
G75*
G02*
X13550000Y45250000I0J-50000D01*
G01*
X13550000Y44500000D01*
G75*
G02*
X13500000Y44450000I-50000J0D01*
G01*
X12500000Y44450000D01*
G75*
G02*
X12450000Y44500000I0J50000D01*
G01*
G37*
G36*
G01*
X6450000Y40750000D02*
X6450000Y41500000D01*
G75*
G02*
X6500000Y41550000I50000J0D01*
G01*
X7500000Y41550000D01*
G75*
G02*
X7550000Y41500000I0J-50000D01*
G01*
X7550000Y40750000D01*
G75*
G02*
X7500000Y40700000I-50000J0D01*
G01*
X6500000Y40700000D01*
G75*
G02*
X6450000Y40750000I0J50000D01*
G01*
G37*
G36*
G01*
X12450000Y40750000D02*
X12450000Y41500000D01*
G75*
G02*
X12500000Y41550000I50000J0D01*
G01*
X13500000Y41550000D01*
G75*
G02*
X13550000Y41500000I0J-50000D01*
G01*
X13550000Y40750000D01*
G75*
G02*
X13500000Y40700000I-50000J0D01*
G01*
X12500000Y40700000D01*
G75*
G02*
X12450000Y40750000I0J50000D01*
G01*
G37*
G36*
G01*
X6450000Y44500000D02*
X6450000Y45250000D01*
G75*
G02*
X6500000Y45300000I50000J0D01*
G01*
X7500000Y45300000D01*
G75*
G02*
X7550000Y45250000I0J-50000D01*
G01*
X7550000Y44500000D01*
G75*
G02*
X7500000Y44450000I-50000J0D01*
G01*
X6500000Y44450000D01*
G75*
G02*
X6450000Y44500000I0J50000D01*
G01*
G37*
%TD*%
%TO.C,SW1*%
G36*
G01*
X1500000Y38450000D02*
X750000Y38450000D01*
G75*
G02*
X700000Y38500000I0J50000D01*
G01*
X700000Y39500000D01*
G75*
G02*
X750000Y39550000I50000J0D01*
G01*
X1500000Y39550000D01*
G75*
G02*
X1550000Y39500000I0J-50000D01*
G01*
X1550000Y38500000D01*
G75*
G02*
X1500000Y38450000I-50000J0D01*
G01*
G37*
G36*
G01*
X5250000Y32450000D02*
X4500000Y32450000D01*
G75*
G02*
X4450000Y32500000I0J50000D01*
G01*
X4450000Y33500000D01*
G75*
G02*
X4500000Y33550000I50000J0D01*
G01*
X5250000Y33550000D01*
G75*
G02*
X5300000Y33500000I0J-50000D01*
G01*
X5300000Y32500000D01*
G75*
G02*
X5250000Y32450000I-50000J0D01*
G01*
G37*
G36*
G01*
X5250000Y38450000D02*
X4500000Y38450000D01*
G75*
G02*
X4450000Y38500000I0J50000D01*
G01*
X4450000Y39500000D01*
G75*
G02*
X4500000Y39550000I50000J0D01*
G01*
X5250000Y39550000D01*
G75*
G02*
X5300000Y39500000I0J-50000D01*
G01*
X5300000Y38500000D01*
G75*
G02*
X5250000Y38450000I-50000J0D01*
G01*
G37*
G36*
G01*
X1500000Y32450000D02*
X750000Y32450000D01*
G75*
G02*
X700000Y32500000I0J50000D01*
G01*
X700000Y33500000D01*
G75*
G02*
X750000Y33550000I50000J0D01*
G01*
X1500000Y33550000D01*
G75*
G02*
X1550000Y33500000I0J-50000D01*
G01*
X1550000Y32500000D01*
G75*
G02*
X1500000Y32450000I-50000J0D01*
G01*
G37*
%TD*%
%TO.C,U4*%
G36*
G01*
X19550000Y47850000D02*
X19550000Y52650000D01*
G75*
G02*
X19700000Y52800000I150000J0D01*
G01*
X20000000Y52800000D01*
G75*
G02*
X20150000Y52650000I0J-150000D01*
G01*
X20150000Y47850000D01*
G75*
G02*
X20000000Y47700000I-150000J0D01*
G01*
X19700000Y47700000D01*
G75*
G02*
X19550000Y47850000I0J150000D01*
G01*
G37*
G36*
G01*
X20950000Y47850000D02*
X20950000Y52650000D01*
G75*
G02*
X21100000Y52800000I150000J0D01*
G01*
X21400000Y52800000D01*
G75*
G02*
X21550000Y52650000I0J-150000D01*
G01*
X21550000Y47850000D01*
G75*
G02*
X21400000Y47700000I-150000J0D01*
G01*
X21100000Y47700000D01*
G75*
G02*
X20950000Y47850000I0J150000D01*
G01*
G37*
G36*
G01*
X20250000Y47850000D02*
X20250000Y52650000D01*
G75*
G02*
X20400000Y52800000I150000J0D01*
G01*
X20700000Y52800000D01*
G75*
G02*
X20850000Y52650000I0J-150000D01*
G01*
X20850000Y47850000D01*
G75*
G02*
X20700000Y47700000I-150000J0D01*
G01*
X20400000Y47700000D01*
G75*
G02*
X20250000Y47850000I0J150000D01*
G01*
G37*
G36*
G01*
X21650000Y47850000D02*
X21650000Y52650000D01*
G75*
G02*
X21800000Y52800000I150000J0D01*
G01*
X22100000Y52800000D01*
G75*
G02*
X22250000Y52650000I0J-150000D01*
G01*
X22250000Y47850000D01*
G75*
G02*
X22100000Y47700000I-150000J0D01*
G01*
X21800000Y47700000D01*
G75*
G02*
X21650000Y47850000I0J150000D01*
G01*
G37*
G36*
G01*
X22350000Y47850000D02*
X22350000Y52650000D01*
G75*
G02*
X22500000Y52800000I150000J0D01*
G01*
X22800000Y52800000D01*
G75*
G02*
X22950000Y52650000I0J-150000D01*
G01*
X22950000Y47850000D01*
G75*
G02*
X22800000Y47700000I-150000J0D01*
G01*
X22500000Y47700000D01*
G75*
G02*
X22350000Y47850000I0J150000D01*
G01*
G37*
G36*
G01*
X23050000Y47850000D02*
X23050000Y52650000D01*
G75*
G02*
X23200000Y52800000I150000J0D01*
G01*
X23500000Y52800000D01*
G75*
G02*
X23650000Y52650000I0J-150000D01*
G01*
X23650000Y47850000D01*
G75*
G02*
X23500000Y47700000I-150000J0D01*
G01*
X23200000Y47700000D01*
G75*
G02*
X23050000Y47850000I0J150000D01*
G01*
G37*
G36*
G01*
X23750000Y47850000D02*
X23750000Y52650000D01*
G75*
G02*
X23900000Y52800000I150000J0D01*
G01*
X24200000Y52800000D01*
G75*
G02*
X24350000Y52650000I0J-150000D01*
G01*
X24350000Y47850000D01*
G75*
G02*
X24200000Y47700000I-150000J0D01*
G01*
X23900000Y47700000D01*
G75*
G02*
X23750000Y47850000I0J150000D01*
G01*
G37*
G36*
G01*
X24450000Y47850000D02*
X24450000Y52650000D01*
G75*
G02*
X24600000Y52800000I150000J0D01*
G01*
X24900000Y52800000D01*
G75*
G02*
X25050000Y52650000I0J-150000D01*
G01*
X25050000Y47850000D01*
G75*
G02*
X24900000Y47700000I-150000J0D01*
G01*
X24600000Y47700000D01*
G75*
G02*
X24450000Y47850000I0J150000D01*
G01*
G37*
G36*
G01*
X25150000Y47850000D02*
X25150000Y52650000D01*
G75*
G02*
X25300000Y52800000I150000J0D01*
G01*
X25600000Y52800000D01*
G75*
G02*
X25750000Y52650000I0J-150000D01*
G01*
X25750000Y47850000D01*
G75*
G02*
X25600000Y47700000I-150000J0D01*
G01*
X25300000Y47700000D01*
G75*
G02*
X25150000Y47850000I0J150000D01*
G01*
G37*
G36*
G01*
X25850000Y47850000D02*
X25850000Y52650000D01*
G75*
G02*
X26000000Y52800000I150000J0D01*
G01*
X26300000Y52800000D01*
G75*
G02*
X26450000Y52650000I0J-150000D01*
G01*
X26450000Y47850000D01*
G75*
G02*
X26300000Y47700000I-150000J0D01*
G01*
X26000000Y47700000D01*
G75*
G02*
X25850000Y47850000I0J150000D01*
G01*
G37*
G36*
G01*
X26550000Y47850000D02*
X26550000Y52650000D01*
G75*
G02*
X26700000Y52800000I150000J0D01*
G01*
X27000000Y52800000D01*
G75*
G02*
X27150000Y52650000I0J-150000D01*
G01*
X27150000Y47850000D01*
G75*
G02*
X27000000Y47700000I-150000J0D01*
G01*
X26700000Y47700000D01*
G75*
G02*
X26550000Y47850000I0J150000D01*
G01*
G37*
G36*
G01*
X27250000Y47850000D02*
X27250000Y52650000D01*
G75*
G02*
X27400000Y52800000I150000J0D01*
G01*
X27700000Y52800000D01*
G75*
G02*
X27850000Y52650000I0J-150000D01*
G01*
X27850000Y47850000D01*
G75*
G02*
X27700000Y47700000I-150000J0D01*
G01*
X27400000Y47700000D01*
G75*
G02*
X27250000Y47850000I0J150000D01*
G01*
G37*
G36*
G01*
X27950000Y47850000D02*
X27950000Y52650000D01*
G75*
G02*
X28100000Y52800000I150000J0D01*
G01*
X28400000Y52800000D01*
G75*
G02*
X28550000Y52650000I0J-150000D01*
G01*
X28550000Y47850000D01*
G75*
G02*
X28400000Y47700000I-150000J0D01*
G01*
X28100000Y47700000D01*
G75*
G02*
X27950000Y47850000I0J150000D01*
G01*
G37*
G36*
G01*
X28650000Y47850000D02*
X28650000Y52650000D01*
G75*
G02*
X28800000Y52800000I150000J0D01*
G01*
X29100000Y52800000D01*
G75*
G02*
X29250000Y52650000I0J-150000D01*
G01*
X29250000Y47850000D01*
G75*
G02*
X29100000Y47700000I-150000J0D01*
G01*
X28800000Y47700000D01*
G75*
G02*
X28650000Y47850000I0J150000D01*
G01*
G37*
G36*
G01*
X29350000Y47850000D02*
X29350000Y52650000D01*
G75*
G02*
X29500000Y52800000I150000J0D01*
G01*
X29800000Y52800000D01*
G75*
G02*
X29950000Y52650000I0J-150000D01*
G01*
X29950000Y47850000D01*
G75*
G02*
X29800000Y47700000I-150000J0D01*
G01*
X29500000Y47700000D01*
G75*
G02*
X29350000Y47850000I0J150000D01*
G01*
G37*
G36*
G01*
X30050000Y47850000D02*
X30050000Y52650000D01*
G75*
G02*
X30200000Y52800000I150000J0D01*
G01*
X30500000Y52800000D01*
G75*
G02*
X30650000Y52650000I0J-150000D01*
G01*
X30650000Y47850000D01*
G75*
G02*
X30500000Y47700000I-150000J0D01*
G01*
X30200000Y47700000D01*
G75*
G02*
X30050000Y47850000I0J150000D01*
G01*
G37*
G36*
G01*
X30750000Y47850000D02*
X30750000Y52650000D01*
G75*
G02*
X30900000Y52800000I150000J0D01*
G01*
X31200000Y52800000D01*
G75*
G02*
X31350000Y52650000I0J-150000D01*
G01*
X31350000Y47850000D01*
G75*
G02*
X31200000Y47700000I-150000J0D01*
G01*
X30900000Y47700000D01*
G75*
G02*
X30750000Y47850000I0J150000D01*
G01*
G37*
G36*
G01*
X31450000Y47850000D02*
X31450000Y52650000D01*
G75*
G02*
X31600000Y52800000I150000J0D01*
G01*
X31900000Y52800000D01*
G75*
G02*
X32050000Y52650000I0J-150000D01*
G01*
X32050000Y47850000D01*
G75*
G02*
X31900000Y47700000I-150000J0D01*
G01*
X31600000Y47700000D01*
G75*
G02*
X31450000Y47850000I0J150000D01*
G01*
G37*
G36*
G01*
X32150000Y47850000D02*
X32150000Y52650000D01*
G75*
G02*
X32300000Y52800000I150000J0D01*
G01*
X32600000Y52800000D01*
G75*
G02*
X32750000Y52650000I0J-150000D01*
G01*
X32750000Y47850000D01*
G75*
G02*
X32600000Y47700000I-150000J0D01*
G01*
X32300000Y47700000D01*
G75*
G02*
X32150000Y47850000I0J150000D01*
G01*
G37*
G36*
G01*
X32850000Y47850000D02*
X32850000Y52650000D01*
G75*
G02*
X33000000Y52800000I150000J0D01*
G01*
X33300000Y52800000D01*
G75*
G02*
X33450000Y52650000I0J-150000D01*
G01*
X33450000Y47850000D01*
G75*
G02*
X33300000Y47700000I-150000J0D01*
G01*
X33000000Y47700000D01*
G75*
G02*
X32850000Y47850000I0J150000D01*
G01*
G37*
G36*
G01*
X33550000Y47850000D02*
X33550000Y52650000D01*
G75*
G02*
X33700000Y52800000I150000J0D01*
G01*
X34000000Y52800000D01*
G75*
G02*
X34150000Y52650000I0J-150000D01*
G01*
X34150000Y47850000D01*
G75*
G02*
X34000000Y47700000I-150000J0D01*
G01*
X33700000Y47700000D01*
G75*
G02*
X33550000Y47850000I0J150000D01*
G01*
G37*
G36*
G01*
X34250000Y47850000D02*
X34250000Y52650000D01*
G75*
G02*
X34400000Y52800000I150000J0D01*
G01*
X34700000Y52800000D01*
G75*
G02*
X34850000Y52650000I0J-150000D01*
G01*
X34850000Y47850000D01*
G75*
G02*
X34700000Y47700000I-150000J0D01*
G01*
X34400000Y47700000D01*
G75*
G02*
X34250000Y47850000I0J150000D01*
G01*
G37*
G36*
G01*
X34950000Y47850000D02*
X34950000Y52650000D01*
G75*
G02*
X35100000Y52800000I150000J0D01*
G01*
X35400000Y52800000D01*
G75*
G02*
X35550000Y52650000I0J-150000D01*
G01*
X35550000Y47850000D01*
G75*
G02*
X35400000Y47700000I-150000J0D01*
G01*
X35100000Y47700000D01*
G75*
G02*
X34950000Y47850000I0J150000D01*
G01*
G37*
G36*
G01*
X35650000Y47850000D02*
X35650000Y52650000D01*
G75*
G02*
X35800000Y52800000I150000J0D01*
G01*
X36100000Y52800000D01*
G75*
G02*
X36250000Y52650000I0J-150000D01*
G01*
X36250000Y47850000D01*
G75*
G02*
X36100000Y47700000I-150000J0D01*
G01*
X35800000Y47700000D01*
G75*
G02*
X35650000Y47850000I0J150000D01*
G01*
G37*
G36*
G01*
X36350000Y47850000D02*
X36350000Y52650000D01*
G75*
G02*
X36500000Y52800000I150000J0D01*
G01*
X36800000Y52800000D01*
G75*
G02*
X36950000Y52650000I0J-150000D01*
G01*
X36950000Y47850000D01*
G75*
G02*
X36800000Y47700000I-150000J0D01*
G01*
X36500000Y47700000D01*
G75*
G02*
X36350000Y47850000I0J150000D01*
G01*
G37*
G36*
G01*
X37050000Y47850000D02*
X37050000Y52650000D01*
G75*
G02*
X37200000Y52800000I150000J0D01*
G01*
X37500000Y52800000D01*
G75*
G02*
X37650000Y52650000I0J-150000D01*
G01*
X37650000Y47850000D01*
G75*
G02*
X37500000Y47700000I-150000J0D01*
G01*
X37200000Y47700000D01*
G75*
G02*
X37050000Y47850000I0J150000D01*
G01*
G37*
G36*
G01*
X37750000Y47850000D02*
X37750000Y52650000D01*
G75*
G02*
X37900000Y52800000I150000J0D01*
G01*
X38200000Y52800000D01*
G75*
G02*
X38350000Y52650000I0J-150000D01*
G01*
X38350000Y47850000D01*
G75*
G02*
X38200000Y47700000I-150000J0D01*
G01*
X37900000Y47700000D01*
G75*
G02*
X37750000Y47850000I0J150000D01*
G01*
G37*
G36*
G01*
X38450000Y47850000D02*
X38450000Y52650000D01*
G75*
G02*
X38600000Y52800000I150000J0D01*
G01*
X38900000Y52800000D01*
G75*
G02*
X39050000Y52650000I0J-150000D01*
G01*
X39050000Y47850000D01*
G75*
G02*
X38900000Y47700000I-150000J0D01*
G01*
X38600000Y47700000D01*
G75*
G02*
X38450000Y47850000I0J150000D01*
G01*
G37*
G36*
G01*
X39150000Y47850000D02*
X39150000Y52650000D01*
G75*
G02*
X39300000Y52800000I150000J0D01*
G01*
X39600000Y52800000D01*
G75*
G02*
X39750000Y52650000I0J-150000D01*
G01*
X39750000Y47850000D01*
G75*
G02*
X39600000Y47700000I-150000J0D01*
G01*
X39300000Y47700000D01*
G75*
G02*
X39150000Y47850000I0J150000D01*
G01*
G37*
G36*
G01*
X39850000Y47850000D02*
X39850000Y52650000D01*
G75*
G02*
X40000000Y52800000I150000J0D01*
G01*
X40300000Y52800000D01*
G75*
G02*
X40450000Y52650000I0J-150000D01*
G01*
X40450000Y47850000D01*
G75*
G02*
X40300000Y47700000I-150000J0D01*
G01*
X40000000Y47700000D01*
G75*
G02*
X39850000Y47850000I0J150000D01*
G01*
G37*
D11*
X21950000Y54500000D03*
X37950000Y54500000D03*
%TD*%
%TO.C,C13*%
G36*
G01*
X17225000Y28775000D02*
X17225000Y28225000D01*
G75*
G02*
X16975000Y27975000I-250000J0D01*
G01*
X16475000Y27975000D01*
G75*
G02*
X16225000Y28225000I0J250000D01*
G01*
X16225000Y28775000D01*
G75*
G02*
X16475000Y29025000I250000J0D01*
G01*
X16975000Y29025000D01*
G75*
G02*
X17225000Y28775000I0J-250000D01*
G01*
G37*
G36*
G01*
X18775000Y28775000D02*
X18775000Y28225000D01*
G75*
G02*
X18525000Y27975000I-250000J0D01*
G01*
X18025000Y27975000D01*
G75*
G02*
X17775000Y28225000I0J250000D01*
G01*
X17775000Y28775000D01*
G75*
G02*
X18025000Y29025000I250000J0D01*
G01*
X18525000Y29025000D01*
G75*
G02*
X18775000Y28775000I0J-250000D01*
G01*
G37*
%TD*%
%TO.C,R20*%
G36*
G01*
X2281250Y47300000D02*
X1718750Y47300000D01*
G75*
G02*
X1475000Y47543750I0J243750D01*
G01*
X1475000Y48031250D01*
G75*
G02*
X1718750Y48275000I243750J0D01*
G01*
X2281250Y48275000D01*
G75*
G02*
X2525000Y48031250I0J-243750D01*
G01*
X2525000Y47543750D01*
G75*
G02*
X2281250Y47300000I-243750J0D01*
G01*
G37*
G36*
G01*
X2281250Y45725000D02*
X1718750Y45725000D01*
G75*
G02*
X1475000Y45968750I0J243750D01*
G01*
X1475000Y46456250D01*
G75*
G02*
X1718750Y46700000I243750J0D01*
G01*
X2281250Y46700000D01*
G75*
G02*
X2525000Y46456250I0J-243750D01*
G01*
X2525000Y45968750D01*
G75*
G02*
X2281250Y45725000I-243750J0D01*
G01*
G37*
%TD*%
%TO.C,D2*%
G36*
G01*
X9150000Y51437500D02*
X9150000Y52012500D01*
G75*
G02*
X9337500Y52200000I187500J0D01*
G01*
X9712500Y52200000D01*
G75*
G02*
X9900000Y52012500I0J-187500D01*
G01*
X9900000Y51437500D01*
G75*
G02*
X9712500Y51250000I-187500J0D01*
G01*
X9337500Y51250000D01*
G75*
G02*
X9150000Y51437500I0J187500D01*
G01*
G37*
G36*
G01*
X9150000Y49987500D02*
X9150000Y50562500D01*
G75*
G02*
X9337500Y50750000I187500J0D01*
G01*
X9712500Y50750000D01*
G75*
G02*
X9900000Y50562500I0J-187500D01*
G01*
X9900000Y49987500D01*
G75*
G02*
X9712500Y49800000I-187500J0D01*
G01*
X9337500Y49800000D01*
G75*
G02*
X9150000Y49987500I0J187500D01*
G01*
G37*
G36*
G01*
X10100000Y49987500D02*
X10100000Y50562500D01*
G75*
G02*
X10287500Y50750000I187500J0D01*
G01*
X10662500Y50750000D01*
G75*
G02*
X10850000Y50562500I0J-187500D01*
G01*
X10850000Y49987500D01*
G75*
G02*
X10662500Y49800000I-187500J0D01*
G01*
X10287500Y49800000D01*
G75*
G02*
X10100000Y49987500I0J187500D01*
G01*
G37*
G36*
G01*
X10100000Y51437500D02*
X10100000Y52012500D01*
G75*
G02*
X10287500Y52200000I187500J0D01*
G01*
X10662500Y52200000D01*
G75*
G02*
X10850000Y52012500I0J-187500D01*
G01*
X10850000Y51437500D01*
G75*
G02*
X10662500Y51250000I-187500J0D01*
G01*
X10287500Y51250000D01*
G75*
G02*
X10100000Y51437500I0J187500D01*
G01*
G37*
%TD*%
D12*
%TO.C,FID2*%
X55000000Y8000000D03*
%TD*%
%TO.C,FID1*%
X10000000Y53000000D03*
%TD*%
%TO.C,R10*%
G36*
G01*
X37481250Y8600000D02*
X36918750Y8600000D01*
G75*
G02*
X36675000Y8843750I0J243750D01*
G01*
X36675000Y9331250D01*
G75*
G02*
X36918750Y9575000I243750J0D01*
G01*
X37481250Y9575000D01*
G75*
G02*
X37725000Y9331250I0J-243750D01*
G01*
X37725000Y8843750D01*
G75*
G02*
X37481250Y8600000I-243750J0D01*
G01*
G37*
G36*
G01*
X37481250Y7025000D02*
X36918750Y7025000D01*
G75*
G02*
X36675000Y7268750I0J243750D01*
G01*
X36675000Y7756250D01*
G75*
G02*
X36918750Y8000000I243750J0D01*
G01*
X37481250Y8000000D01*
G75*
G02*
X37725000Y7756250I0J-243750D01*
G01*
X37725000Y7268750D01*
G75*
G02*
X37481250Y7025000I-243750J0D01*
G01*
G37*
%TD*%
%TO.C,R9*%
G36*
G01*
X23218750Y7700000D02*
X23781250Y7700000D01*
G75*
G02*
X24025000Y7456250I0J-243750D01*
G01*
X24025000Y6968750D01*
G75*
G02*
X23781250Y6725000I-243750J0D01*
G01*
X23218750Y6725000D01*
G75*
G02*
X22975000Y6968750I0J243750D01*
G01*
X22975000Y7456250D01*
G75*
G02*
X23218750Y7700000I243750J0D01*
G01*
G37*
G36*
G01*
X23218750Y9275000D02*
X23781250Y9275000D01*
G75*
G02*
X24025000Y9031250I0J-243750D01*
G01*
X24025000Y8543750D01*
G75*
G02*
X23781250Y8300000I-243750J0D01*
G01*
X23218750Y8300000D01*
G75*
G02*
X22975000Y8543750I0J243750D01*
G01*
X22975000Y9031250D01*
G75*
G02*
X23218750Y9275000I243750J0D01*
G01*
G37*
%TD*%
%TO.C,X1*%
G36*
G01*
X32860000Y6400000D02*
X32860000Y7320000D01*
G75*
G02*
X33030000Y7490000I170000J0D01*
G01*
X33370000Y7490000D01*
G75*
G02*
X33540000Y7320000I0J-170000D01*
G01*
X33540000Y6400000D01*
G75*
G02*
X33370000Y6230000I-170000J0D01*
G01*
X33030000Y6230000D01*
G75*
G02*
X32860000Y6400000I0J170000D01*
G01*
G37*
G36*
G01*
X32060000Y6400000D02*
X32060000Y7320000D01*
G75*
G02*
X32230000Y7490000I170000J0D01*
G01*
X32570000Y7490000D01*
G75*
G02*
X32740000Y7320000I0J-170000D01*
G01*
X32740000Y6400000D01*
G75*
G02*
X32570000Y6230000I-170000J0D01*
G01*
X32230000Y6230000D01*
G75*
G02*
X32060000Y6400000I0J170000D01*
G01*
G37*
G36*
G01*
X32860000Y6400000D02*
X32860000Y7320000D01*
G75*
G02*
X33030000Y7490000I170000J0D01*
G01*
X33370000Y7490000D01*
G75*
G02*
X33540000Y7320000I0J-170000D01*
G01*
X33540000Y6400000D01*
G75*
G02*
X33370000Y6230000I-170000J0D01*
G01*
X33030000Y6230000D01*
G75*
G02*
X32860000Y6400000I0J170000D01*
G01*
G37*
G36*
G01*
X32060000Y6400000D02*
X32060000Y7320000D01*
G75*
G02*
X32230000Y7490000I170000J0D01*
G01*
X32570000Y7490000D01*
G75*
G02*
X32740000Y7320000I0J-170000D01*
G01*
X32740000Y6400000D01*
G75*
G02*
X32570000Y6230000I-170000J0D01*
G01*
X32230000Y6230000D01*
G75*
G02*
X32060000Y6400000I0J170000D01*
G01*
G37*
G36*
G01*
X26460000Y6400000D02*
X26460000Y7320000D01*
G75*
G02*
X26630000Y7490000I170000J0D01*
G01*
X26970000Y7490000D01*
G75*
G02*
X27140000Y7320000I0J-170000D01*
G01*
X27140000Y6400000D01*
G75*
G02*
X26970000Y6230000I-170000J0D01*
G01*
X26630000Y6230000D01*
G75*
G02*
X26460000Y6400000I0J170000D01*
G01*
G37*
G36*
G01*
X26460000Y6400000D02*
X26460000Y7320000D01*
G75*
G02*
X26630000Y7490000I170000J0D01*
G01*
X26970000Y7490000D01*
G75*
G02*
X27140000Y7320000I0J-170000D01*
G01*
X27140000Y6400000D01*
G75*
G02*
X26970000Y6230000I-170000J0D01*
G01*
X26630000Y6230000D01*
G75*
G02*
X26460000Y6400000I0J170000D01*
G01*
G37*
G36*
G01*
X27260000Y6400000D02*
X27260000Y7320000D01*
G75*
G02*
X27430000Y7490000I170000J0D01*
G01*
X27770000Y7490000D01*
G75*
G02*
X27940000Y7320000I0J-170000D01*
G01*
X27940000Y6400000D01*
G75*
G02*
X27770000Y6230000I-170000J0D01*
G01*
X27430000Y6230000D01*
G75*
G02*
X27260000Y6400000I0J170000D01*
G01*
G37*
G36*
G01*
X27260000Y6400000D02*
X27260000Y7320000D01*
G75*
G02*
X27430000Y7490000I170000J0D01*
G01*
X27770000Y7490000D01*
G75*
G02*
X27940000Y7320000I0J-170000D01*
G01*
X27940000Y6400000D01*
G75*
G02*
X27770000Y6230000I-170000J0D01*
G01*
X27430000Y6230000D01*
G75*
G02*
X27260000Y6400000I0J170000D01*
G01*
G37*
D13*
X27110000Y5800000D03*
X32890000Y5800000D03*
G36*
G01*
X31940000Y7395000D02*
X31940000Y6325000D01*
G75*
G02*
X31845000Y6230000I-95000J0D01*
G01*
X31655000Y6230000D01*
G75*
G02*
X31560000Y6325000I0J95000D01*
G01*
X31560000Y7395000D01*
G75*
G02*
X31655000Y7490000I95000J0D01*
G01*
X31845000Y7490000D01*
G75*
G02*
X31940000Y7395000I0J-95000D01*
G01*
G37*
G36*
G01*
X30940000Y7395000D02*
X30940000Y6325000D01*
G75*
G02*
X30845000Y6230000I-95000J0D01*
G01*
X30655000Y6230000D01*
G75*
G02*
X30560000Y6325000I0J95000D01*
G01*
X30560000Y7395000D01*
G75*
G02*
X30655000Y7490000I95000J0D01*
G01*
X30845000Y7490000D01*
G75*
G02*
X30940000Y7395000I0J-95000D01*
G01*
G37*
G36*
G01*
X31440000Y7395000D02*
X31440000Y6325000D01*
G75*
G02*
X31345000Y6230000I-95000J0D01*
G01*
X31155000Y6230000D01*
G75*
G02*
X31060000Y6325000I0J95000D01*
G01*
X31060000Y7395000D01*
G75*
G02*
X31155000Y7490000I95000J0D01*
G01*
X31345000Y7490000D01*
G75*
G02*
X31440000Y7395000I0J-95000D01*
G01*
G37*
G36*
G01*
X28940000Y7395000D02*
X28940000Y6325000D01*
G75*
G02*
X28845000Y6230000I-95000J0D01*
G01*
X28655000Y6230000D01*
G75*
G02*
X28560000Y6325000I0J95000D01*
G01*
X28560000Y7395000D01*
G75*
G02*
X28655000Y7490000I95000J0D01*
G01*
X28845000Y7490000D01*
G75*
G02*
X28940000Y7395000I0J-95000D01*
G01*
G37*
G36*
G01*
X28440000Y7395000D02*
X28440000Y6325000D01*
G75*
G02*
X28345000Y6230000I-95000J0D01*
G01*
X28155000Y6230000D01*
G75*
G02*
X28060000Y6325000I0J95000D01*
G01*
X28060000Y7395000D01*
G75*
G02*
X28155000Y7490000I95000J0D01*
G01*
X28345000Y7490000D01*
G75*
G02*
X28440000Y7395000I0J-95000D01*
G01*
G37*
G36*
G01*
X30440000Y7395000D02*
X30440000Y6325000D01*
G75*
G02*
X30345000Y6230000I-95000J0D01*
G01*
X30155000Y6230000D01*
G75*
G02*
X30060000Y6325000I0J95000D01*
G01*
X30060000Y7395000D01*
G75*
G02*
X30155000Y7490000I95000J0D01*
G01*
X30345000Y7490000D01*
G75*
G02*
X30440000Y7395000I0J-95000D01*
G01*
G37*
G36*
G01*
X29940000Y7395000D02*
X29940000Y6325000D01*
G75*
G02*
X29845000Y6230000I-95000J0D01*
G01*
X29655000Y6230000D01*
G75*
G02*
X29560000Y6325000I0J95000D01*
G01*
X29560000Y7395000D01*
G75*
G02*
X29655000Y7490000I95000J0D01*
G01*
X29845000Y7490000D01*
G75*
G02*
X29940000Y7395000I0J-95000D01*
G01*
G37*
G36*
G01*
X29440000Y7395000D02*
X29440000Y6325000D01*
G75*
G02*
X29345000Y6230000I-95000J0D01*
G01*
X29155000Y6230000D01*
G75*
G02*
X29060000Y6325000I0J95000D01*
G01*
X29060000Y7395000D01*
G75*
G02*
X29155000Y7490000I95000J0D01*
G01*
X29345000Y7490000D01*
G75*
G02*
X29440000Y7395000I0J-95000D01*
G01*
G37*
D14*
X34320000Y2110000D03*
X25680000Y2110000D03*
D15*
X34320000Y6280000D03*
X25680000Y6280000D03*
%TD*%
%TO.C,C12*%
G36*
G01*
X44468750Y41200000D02*
X45031250Y41200000D01*
G75*
G02*
X45275000Y40956250I0J-243750D01*
G01*
X45275000Y40468750D01*
G75*
G02*
X45031250Y40225000I-243750J0D01*
G01*
X44468750Y40225000D01*
G75*
G02*
X44225000Y40468750I0J243750D01*
G01*
X44225000Y40956250D01*
G75*
G02*
X44468750Y41200000I243750J0D01*
G01*
G37*
G36*
G01*
X44468750Y42775000D02*
X45031250Y42775000D01*
G75*
G02*
X45275000Y42531250I0J-243750D01*
G01*
X45275000Y42043750D01*
G75*
G02*
X45031250Y41800000I-243750J0D01*
G01*
X44468750Y41800000D01*
G75*
G02*
X44225000Y42043750I0J243750D01*
G01*
X44225000Y42531250D01*
G75*
G02*
X44468750Y42775000I243750J0D01*
G01*
G37*
%TD*%
%TO.C,C11*%
G36*
G01*
X42718750Y41200000D02*
X43281250Y41200000D01*
G75*
G02*
X43525000Y40956250I0J-243750D01*
G01*
X43525000Y40468750D01*
G75*
G02*
X43281250Y40225000I-243750J0D01*
G01*
X42718750Y40225000D01*
G75*
G02*
X42475000Y40468750I0J243750D01*
G01*
X42475000Y40956250D01*
G75*
G02*
X42718750Y41200000I243750J0D01*
G01*
G37*
G36*
G01*
X42718750Y42775000D02*
X43281250Y42775000D01*
G75*
G02*
X43525000Y42531250I0J-243750D01*
G01*
X43525000Y42043750D01*
G75*
G02*
X43281250Y41800000I-243750J0D01*
G01*
X42718750Y41800000D01*
G75*
G02*
X42475000Y42043750I0J243750D01*
G01*
X42475000Y42531250D01*
G75*
G02*
X42718750Y42775000I243750J0D01*
G01*
G37*
%TD*%
%TO.C,C10*%
G36*
G01*
X40518750Y41100000D02*
X41481250Y41100000D01*
G75*
G02*
X41750000Y40831250I0J-268750D01*
G01*
X41750000Y40293750D01*
G75*
G02*
X41481250Y40025000I-268750J0D01*
G01*
X40518750Y40025000D01*
G75*
G02*
X40250000Y40293750I0J268750D01*
G01*
X40250000Y40831250D01*
G75*
G02*
X40518750Y41100000I268750J0D01*
G01*
G37*
G36*
G01*
X40518750Y42975000D02*
X41481250Y42975000D01*
G75*
G02*
X41750000Y42706250I0J-268750D01*
G01*
X41750000Y42168750D01*
G75*
G02*
X41481250Y41900000I-268750J0D01*
G01*
X40518750Y41900000D01*
G75*
G02*
X40250000Y42168750I0J268750D01*
G01*
X40250000Y42706250D01*
G75*
G02*
X40518750Y42975000I268750J0D01*
G01*
G37*
%TD*%
%TO.C,R8*%
G36*
G01*
X58531250Y23587500D02*
X57968750Y23587500D01*
G75*
G02*
X57725000Y23831250I0J243750D01*
G01*
X57725000Y24318750D01*
G75*
G02*
X57968750Y24562500I243750J0D01*
G01*
X58531250Y24562500D01*
G75*
G02*
X58775000Y24318750I0J-243750D01*
G01*
X58775000Y23831250D01*
G75*
G02*
X58531250Y23587500I-243750J0D01*
G01*
G37*
G36*
G01*
X58531250Y22012500D02*
X57968750Y22012500D01*
G75*
G02*
X57725000Y22256250I0J243750D01*
G01*
X57725000Y22743750D01*
G75*
G02*
X57968750Y22987500I243750J0D01*
G01*
X58531250Y22987500D01*
G75*
G02*
X58775000Y22743750I0J-243750D01*
G01*
X58775000Y22256250D01*
G75*
G02*
X58531250Y22012500I-243750J0D01*
G01*
G37*
%TD*%
%TO.C,R6*%
G36*
G01*
X51718750Y22950000D02*
X52281250Y22950000D01*
G75*
G02*
X52525000Y22706250I0J-243750D01*
G01*
X52525000Y22218750D01*
G75*
G02*
X52281250Y21975000I-243750J0D01*
G01*
X51718750Y21975000D01*
G75*
G02*
X51475000Y22218750I0J243750D01*
G01*
X51475000Y22706250D01*
G75*
G02*
X51718750Y22950000I243750J0D01*
G01*
G37*
G36*
G01*
X51718750Y24525000D02*
X52281250Y24525000D01*
G75*
G02*
X52525000Y24281250I0J-243750D01*
G01*
X52525000Y23793750D01*
G75*
G02*
X52281250Y23550000I-243750J0D01*
G01*
X51718750Y23550000D01*
G75*
G02*
X51475000Y23793750I0J243750D01*
G01*
X51475000Y24281250D01*
G75*
G02*
X51718750Y24525000I243750J0D01*
G01*
G37*
%TD*%
%TO.C,R7*%
G36*
G01*
X55968750Y22950000D02*
X56531250Y22950000D01*
G75*
G02*
X56775000Y22706250I0J-243750D01*
G01*
X56775000Y22218750D01*
G75*
G02*
X56531250Y21975000I-243750J0D01*
G01*
X55968750Y21975000D01*
G75*
G02*
X55725000Y22218750I0J243750D01*
G01*
X55725000Y22706250D01*
G75*
G02*
X55968750Y22950000I243750J0D01*
G01*
G37*
G36*
G01*
X55968750Y24525000D02*
X56531250Y24525000D01*
G75*
G02*
X56775000Y24281250I0J-243750D01*
G01*
X56775000Y23793750D01*
G75*
G02*
X56531250Y23550000I-243750J0D01*
G01*
X55968750Y23550000D01*
G75*
G02*
X55725000Y23793750I0J243750D01*
G01*
X55725000Y24281250D01*
G75*
G02*
X55968750Y24525000I243750J0D01*
G01*
G37*
%TD*%
%TO.C,Q1*%
G36*
G01*
X53400000Y27250000D02*
X52600000Y27250000D01*
G75*
G02*
X52550000Y27300000I0J50000D01*
G01*
X52550000Y28200000D01*
G75*
G02*
X52600000Y28250000I50000J0D01*
G01*
X53400000Y28250000D01*
G75*
G02*
X53450000Y28200000I0J-50000D01*
G01*
X53450000Y27300000D01*
G75*
G02*
X53400000Y27250000I-50000J0D01*
G01*
G37*
G36*
G01*
X54350000Y25250000D02*
X53550000Y25250000D01*
G75*
G02*
X53500000Y25300000I0J50000D01*
G01*
X53500000Y26200000D01*
G75*
G02*
X53550000Y26250000I50000J0D01*
G01*
X54350000Y26250000D01*
G75*
G02*
X54400000Y26200000I0J-50000D01*
G01*
X54400000Y25300000D01*
G75*
G02*
X54350000Y25250000I-50000J0D01*
G01*
G37*
G36*
G01*
X52450000Y25250000D02*
X51650000Y25250000D01*
G75*
G02*
X51600000Y25300000I0J50000D01*
G01*
X51600000Y26200000D01*
G75*
G02*
X51650000Y26250000I50000J0D01*
G01*
X52450000Y26250000D01*
G75*
G02*
X52500000Y26200000I0J-50000D01*
G01*
X52500000Y25300000D01*
G75*
G02*
X52450000Y25250000I-50000J0D01*
G01*
G37*
%TD*%
%TO.C,Q2*%
G36*
G01*
X57650000Y27250000D02*
X56850000Y27250000D01*
G75*
G02*
X56800000Y27300000I0J50000D01*
G01*
X56800000Y28200000D01*
G75*
G02*
X56850000Y28250000I50000J0D01*
G01*
X57650000Y28250000D01*
G75*
G02*
X57700000Y28200000I0J-50000D01*
G01*
X57700000Y27300000D01*
G75*
G02*
X57650000Y27250000I-50000J0D01*
G01*
G37*
G36*
G01*
X58600000Y25250000D02*
X57800000Y25250000D01*
G75*
G02*
X57750000Y25300000I0J50000D01*
G01*
X57750000Y26200000D01*
G75*
G02*
X57800000Y26250000I50000J0D01*
G01*
X58600000Y26250000D01*
G75*
G02*
X58650000Y26200000I0J-50000D01*
G01*
X58650000Y25300000D01*
G75*
G02*
X58600000Y25250000I-50000J0D01*
G01*
G37*
G36*
G01*
X56700000Y25250000D02*
X55900000Y25250000D01*
G75*
G02*
X55850000Y25300000I0J50000D01*
G01*
X55850000Y26200000D01*
G75*
G02*
X55900000Y26250000I50000J0D01*
G01*
X56700000Y26250000D01*
G75*
G02*
X56750000Y26200000I0J-50000D01*
G01*
X56750000Y25300000D01*
G75*
G02*
X56700000Y25250000I-50000J0D01*
G01*
G37*
%TD*%
D16*
%TO.C,H4*%
X4000000Y4000000D03*
%TD*%
%TO.C,H3*%
X56000000Y4000000D03*
%TD*%
%TO.C,H2*%
X4000000Y52000000D03*
%TD*%
%TO.C,H1*%
X49000000Y52000000D03*
%TD*%
%TO.C,C3*%
G36*
G01*
X12518750Y16100000D02*
X13481250Y16100000D01*
G75*
G02*
X13750000Y15831250I0J-268750D01*
G01*
X13750000Y15293750D01*
G75*
G02*
X13481250Y15025000I-268750J0D01*
G01*
X12518750Y15025000D01*
G75*
G02*
X12250000Y15293750I0J268750D01*
G01*
X12250000Y15831250D01*
G75*
G02*
X12518750Y16100000I268750J0D01*
G01*
G37*
G36*
G01*
X12518750Y17975000D02*
X13481250Y17975000D01*
G75*
G02*
X13750000Y17706250I0J-268750D01*
G01*
X13750000Y17168750D01*
G75*
G02*
X13481250Y16900000I-268750J0D01*
G01*
X12518750Y16900000D01*
G75*
G02*
X12250000Y17168750I0J268750D01*
G01*
X12250000Y17706250D01*
G75*
G02*
X12518750Y17975000I268750J0D01*
G01*
G37*
%TD*%
%TO.C,R13*%
G36*
G01*
X43050000Y13718750D02*
X43050000Y14281250D01*
G75*
G02*
X43293750Y14525000I243750J0D01*
G01*
X43781250Y14525000D01*
G75*
G02*
X44025000Y14281250I0J-243750D01*
G01*
X44025000Y13718750D01*
G75*
G02*
X43781250Y13475000I-243750J0D01*
G01*
X43293750Y13475000D01*
G75*
G02*
X43050000Y13718750I0J243750D01*
G01*
G37*
G36*
G01*
X41475000Y13718750D02*
X41475000Y14281250D01*
G75*
G02*
X41718750Y14525000I243750J0D01*
G01*
X42206250Y14525000D01*
G75*
G02*
X42450000Y14281250I0J-243750D01*
G01*
X42450000Y13718750D01*
G75*
G02*
X42206250Y13475000I-243750J0D01*
G01*
X41718750Y13475000D01*
G75*
G02*
X41475000Y13718750I0J243750D01*
G01*
G37*
%TD*%
%TO.C,R12*%
G36*
G01*
X42450000Y15781250D02*
X42450000Y15218750D01*
G75*
G02*
X42206250Y14975000I-243750J0D01*
G01*
X41718750Y14975000D01*
G75*
G02*
X41475000Y15218750I0J243750D01*
G01*
X41475000Y15781250D01*
G75*
G02*
X41718750Y16025000I243750J0D01*
G01*
X42206250Y16025000D01*
G75*
G02*
X42450000Y15781250I0J-243750D01*
G01*
G37*
G36*
G01*
X44025000Y15781250D02*
X44025000Y15218750D01*
G75*
G02*
X43781250Y14975000I-243750J0D01*
G01*
X43293750Y14975000D01*
G75*
G02*
X43050000Y15218750I0J243750D01*
G01*
X43050000Y15781250D01*
G75*
G02*
X43293750Y16025000I243750J0D01*
G01*
X43781250Y16025000D01*
G75*
G02*
X44025000Y15781250I0J-243750D01*
G01*
G37*
%TD*%
%TO.C,R5*%
G36*
G01*
X18300000Y16218750D02*
X18300000Y16781250D01*
G75*
G02*
X18543750Y17025000I243750J0D01*
G01*
X19031250Y17025000D01*
G75*
G02*
X19275000Y16781250I0J-243750D01*
G01*
X19275000Y16218750D01*
G75*
G02*
X19031250Y15975000I-243750J0D01*
G01*
X18543750Y15975000D01*
G75*
G02*
X18300000Y16218750I0J243750D01*
G01*
G37*
G36*
G01*
X16725000Y16218750D02*
X16725000Y16781250D01*
G75*
G02*
X16968750Y17025000I243750J0D01*
G01*
X17456250Y17025000D01*
G75*
G02*
X17700000Y16781250I0J-243750D01*
G01*
X17700000Y16218750D01*
G75*
G02*
X17456250Y15975000I-243750J0D01*
G01*
X16968750Y15975000D01*
G75*
G02*
X16725000Y16218750I0J243750D01*
G01*
G37*
%TD*%
%TO.C,R4*%
G36*
G01*
X18300000Y18218750D02*
X18300000Y18781250D01*
G75*
G02*
X18543750Y19025000I243750J0D01*
G01*
X19031250Y19025000D01*
G75*
G02*
X19275000Y18781250I0J-243750D01*
G01*
X19275000Y18218750D01*
G75*
G02*
X19031250Y17975000I-243750J0D01*
G01*
X18543750Y17975000D01*
G75*
G02*
X18300000Y18218750I0J243750D01*
G01*
G37*
G36*
G01*
X16725000Y18218750D02*
X16725000Y18781250D01*
G75*
G02*
X16968750Y19025000I243750J0D01*
G01*
X17456250Y19025000D01*
G75*
G02*
X17700000Y18781250I0J-243750D01*
G01*
X17700000Y18218750D01*
G75*
G02*
X17456250Y17975000I-243750J0D01*
G01*
X16968750Y17975000D01*
G75*
G02*
X16725000Y18218750I0J243750D01*
G01*
G37*
%TD*%
%TO.C,R3*%
G36*
G01*
X18300000Y22218750D02*
X18300000Y22781250D01*
G75*
G02*
X18543750Y23025000I243750J0D01*
G01*
X19031250Y23025000D01*
G75*
G02*
X19275000Y22781250I0J-243750D01*
G01*
X19275000Y22218750D01*
G75*
G02*
X19031250Y21975000I-243750J0D01*
G01*
X18543750Y21975000D01*
G75*
G02*
X18300000Y22218750I0J243750D01*
G01*
G37*
G36*
G01*
X16725000Y22218750D02*
X16725000Y22781250D01*
G75*
G02*
X16968750Y23025000I243750J0D01*
G01*
X17456250Y23025000D01*
G75*
G02*
X17700000Y22781250I0J-243750D01*
G01*
X17700000Y22218750D01*
G75*
G02*
X17456250Y21975000I-243750J0D01*
G01*
X16968750Y21975000D01*
G75*
G02*
X16725000Y22218750I0J243750D01*
G01*
G37*
%TD*%
%TO.C,R2*%
G36*
G01*
X45000000Y17718750D02*
X45000000Y18281250D01*
G75*
G02*
X45243750Y18525000I243750J0D01*
G01*
X45731250Y18525000D01*
G75*
G02*
X45975000Y18281250I0J-243750D01*
G01*
X45975000Y17718750D01*
G75*
G02*
X45731250Y17475000I-243750J0D01*
G01*
X45243750Y17475000D01*
G75*
G02*
X45000000Y17718750I0J243750D01*
G01*
G37*
G36*
G01*
X43425000Y17718750D02*
X43425000Y18281250D01*
G75*
G02*
X43668750Y18525000I243750J0D01*
G01*
X44156250Y18525000D01*
G75*
G02*
X44400000Y18281250I0J-243750D01*
G01*
X44400000Y17718750D01*
G75*
G02*
X44156250Y17475000I-243750J0D01*
G01*
X43668750Y17475000D01*
G75*
G02*
X43425000Y17718750I0J243750D01*
G01*
G37*
%TD*%
%TO.C,R1*%
G36*
G01*
X18312500Y24218750D02*
X18312500Y24781250D01*
G75*
G02*
X18556250Y25025000I243750J0D01*
G01*
X19043750Y25025000D01*
G75*
G02*
X19287500Y24781250I0J-243750D01*
G01*
X19287500Y24218750D01*
G75*
G02*
X19043750Y23975000I-243750J0D01*
G01*
X18556250Y23975000D01*
G75*
G02*
X18312500Y24218750I0J243750D01*
G01*
G37*
G36*
G01*
X16737500Y24218750D02*
X16737500Y24781250D01*
G75*
G02*
X16981250Y25025000I243750J0D01*
G01*
X17468750Y25025000D01*
G75*
G02*
X17712500Y24781250I0J-243750D01*
G01*
X17712500Y24218750D01*
G75*
G02*
X17468750Y23975000I-243750J0D01*
G01*
X16981250Y23975000D01*
G75*
G02*
X16737500Y24218750I0J243750D01*
G01*
G37*
%TD*%
%TO.C,U3*%
G36*
G01*
X11800000Y12950000D02*
X11800000Y11450000D01*
G75*
G02*
X11750000Y11400000I-50000J0D01*
G01*
X9750000Y11400000D01*
G75*
G02*
X9700000Y11450000I0J50000D01*
G01*
X9700000Y12950000D01*
G75*
G02*
X9750000Y13000000I50000J0D01*
G01*
X11750000Y13000000D01*
G75*
G02*
X11800000Y12950000I0J-50000D01*
G01*
G37*
G36*
G01*
X11800000Y17550000D02*
X11800000Y16050000D01*
G75*
G02*
X11750000Y16000000I-50000J0D01*
G01*
X9750000Y16000000D01*
G75*
G02*
X9700000Y16050000I0J50000D01*
G01*
X9700000Y17550000D01*
G75*
G02*
X9750000Y17600000I50000J0D01*
G01*
X11750000Y17600000D01*
G75*
G02*
X11800000Y17550000I0J-50000D01*
G01*
G37*
G36*
G01*
X11800000Y15250000D02*
X11800000Y13750000D01*
G75*
G02*
X11750000Y13700000I-50000J0D01*
G01*
X9750000Y13700000D01*
G75*
G02*
X9700000Y13750000I0J50000D01*
G01*
X9700000Y15250000D01*
G75*
G02*
X9750000Y15300000I50000J0D01*
G01*
X11750000Y15300000D01*
G75*
G02*
X11800000Y15250000I0J-50000D01*
G01*
G37*
G36*
G01*
X5500000Y16400000D02*
X5500000Y12600000D01*
G75*
G02*
X5450000Y12550000I-50000J0D01*
G01*
X3450000Y12550000D01*
G75*
G02*
X3400000Y12600000I0J50000D01*
G01*
X3400000Y16400000D01*
G75*
G02*
X3450000Y16450000I50000J0D01*
G01*
X5450000Y16450000D01*
G75*
G02*
X5500000Y16400000I0J-50000D01*
G01*
G37*
%TD*%
%TO.C,U2*%
G36*
G01*
X49450000Y16270000D02*
X49450000Y16620000D01*
G75*
G02*
X49625000Y16795000I175000J0D01*
G01*
X51325000Y16795000D01*
G75*
G02*
X51500000Y16620000I0J-175000D01*
G01*
X51500000Y16270000D01*
G75*
G02*
X51325000Y16095000I-175000J0D01*
G01*
X49625000Y16095000D01*
G75*
G02*
X49450000Y16270000I0J175000D01*
G01*
G37*
G36*
G01*
X49450000Y15000000D02*
X49450000Y15350000D01*
G75*
G02*
X49625000Y15525000I175000J0D01*
G01*
X51325000Y15525000D01*
G75*
G02*
X51500000Y15350000I0J-175000D01*
G01*
X51500000Y15000000D01*
G75*
G02*
X51325000Y14825000I-175000J0D01*
G01*
X49625000Y14825000D01*
G75*
G02*
X49450000Y15000000I0J175000D01*
G01*
G37*
G36*
G01*
X49450000Y13730000D02*
X49450000Y14080000D01*
G75*
G02*
X49625000Y14255000I175000J0D01*
G01*
X51325000Y14255000D01*
G75*
G02*
X51500000Y14080000I0J-175000D01*
G01*
X51500000Y13730000D01*
G75*
G02*
X51325000Y13555000I-175000J0D01*
G01*
X49625000Y13555000D01*
G75*
G02*
X49450000Y13730000I0J175000D01*
G01*
G37*
G36*
G01*
X49450000Y12460000D02*
X49450000Y12810000D01*
G75*
G02*
X49625000Y12985000I175000J0D01*
G01*
X51325000Y12985000D01*
G75*
G02*
X51500000Y12810000I0J-175000D01*
G01*
X51500000Y12460000D01*
G75*
G02*
X51325000Y12285000I-175000J0D01*
G01*
X49625000Y12285000D01*
G75*
G02*
X49450000Y12460000I0J175000D01*
G01*
G37*
G36*
G01*
X49450000Y11190000D02*
X49450000Y11540000D01*
G75*
G02*
X49625000Y11715000I175000J0D01*
G01*
X51325000Y11715000D01*
G75*
G02*
X51500000Y11540000I0J-175000D01*
G01*
X51500000Y11190000D01*
G75*
G02*
X51325000Y11015000I-175000J0D01*
G01*
X49625000Y11015000D01*
G75*
G02*
X49450000Y11190000I0J175000D01*
G01*
G37*
G36*
G01*
X49450000Y9920000D02*
X49450000Y10270000D01*
G75*
G02*
X49625000Y10445000I175000J0D01*
G01*
X51325000Y10445000D01*
G75*
G02*
X51500000Y10270000I0J-175000D01*
G01*
X51500000Y9920000D01*
G75*
G02*
X51325000Y9745000I-175000J0D01*
G01*
X49625000Y9745000D01*
G75*
G02*
X49450000Y9920000I0J175000D01*
G01*
G37*
G36*
G01*
X49450000Y8650000D02*
X49450000Y9000000D01*
G75*
G02*
X49625000Y9175000I175000J0D01*
G01*
X51325000Y9175000D01*
G75*
G02*
X51500000Y9000000I0J-175000D01*
G01*
X51500000Y8650000D01*
G75*
G02*
X51325000Y8475000I-175000J0D01*
G01*
X49625000Y8475000D01*
G75*
G02*
X49450000Y8650000I0J175000D01*
G01*
G37*
G36*
G01*
X49450000Y7380000D02*
X49450000Y7730000D01*
G75*
G02*
X49625000Y7905000I175000J0D01*
G01*
X51325000Y7905000D01*
G75*
G02*
X51500000Y7730000I0J-175000D01*
G01*
X51500000Y7380000D01*
G75*
G02*
X51325000Y7205000I-175000J0D01*
G01*
X49625000Y7205000D01*
G75*
G02*
X49450000Y7380000I0J175000D01*
G01*
G37*
G36*
G01*
X44500000Y7380000D02*
X44500000Y7730000D01*
G75*
G02*
X44675000Y7905000I175000J0D01*
G01*
X46375000Y7905000D01*
G75*
G02*
X46550000Y7730000I0J-175000D01*
G01*
X46550000Y7380000D01*
G75*
G02*
X46375000Y7205000I-175000J0D01*
G01*
X44675000Y7205000D01*
G75*
G02*
X44500000Y7380000I0J175000D01*
G01*
G37*
G36*
G01*
X44500000Y8650000D02*
X44500000Y9000000D01*
G75*
G02*
X44675000Y9175000I175000J0D01*
G01*
X46375000Y9175000D01*
G75*
G02*
X46550000Y9000000I0J-175000D01*
G01*
X46550000Y8650000D01*
G75*
G02*
X46375000Y8475000I-175000J0D01*
G01*
X44675000Y8475000D01*
G75*
G02*
X44500000Y8650000I0J175000D01*
G01*
G37*
G36*
G01*
X44500000Y9920000D02*
X44500000Y10270000D01*
G75*
G02*
X44675000Y10445000I175000J0D01*
G01*
X46375000Y10445000D01*
G75*
G02*
X46550000Y10270000I0J-175000D01*
G01*
X46550000Y9920000D01*
G75*
G02*
X46375000Y9745000I-175000J0D01*
G01*
X44675000Y9745000D01*
G75*
G02*
X44500000Y9920000I0J175000D01*
G01*
G37*
G36*
G01*
X44500000Y11190000D02*
X44500000Y11540000D01*
G75*
G02*
X44675000Y11715000I175000J0D01*
G01*
X46375000Y11715000D01*
G75*
G02*
X46550000Y11540000I0J-175000D01*
G01*
X46550000Y11190000D01*
G75*
G02*
X46375000Y11015000I-175000J0D01*
G01*
X44675000Y11015000D01*
G75*
G02*
X44500000Y11190000I0J175000D01*
G01*
G37*
G36*
G01*
X44500000Y12460000D02*
X44500000Y12810000D01*
G75*
G02*
X44675000Y12985000I175000J0D01*
G01*
X46375000Y12985000D01*
G75*
G02*
X46550000Y12810000I0J-175000D01*
G01*
X46550000Y12460000D01*
G75*
G02*
X46375000Y12285000I-175000J0D01*
G01*
X44675000Y12285000D01*
G75*
G02*
X44500000Y12460000I0J175000D01*
G01*
G37*
G36*
G01*
X44500000Y13730000D02*
X44500000Y14080000D01*
G75*
G02*
X44675000Y14255000I175000J0D01*
G01*
X46375000Y14255000D01*
G75*
G02*
X46550000Y14080000I0J-175000D01*
G01*
X46550000Y13730000D01*
G75*
G02*
X46375000Y13555000I-175000J0D01*
G01*
X44675000Y13555000D01*
G75*
G02*
X44500000Y13730000I0J175000D01*
G01*
G37*
G36*
G01*
X44500000Y15000000D02*
X44500000Y15350000D01*
G75*
G02*
X44675000Y15525000I175000J0D01*
G01*
X46375000Y15525000D01*
G75*
G02*
X46550000Y15350000I0J-175000D01*
G01*
X46550000Y15000000D01*
G75*
G02*
X46375000Y14825000I-175000J0D01*
G01*
X44675000Y14825000D01*
G75*
G02*
X44500000Y15000000I0J175000D01*
G01*
G37*
G36*
G01*
X44500000Y16270000D02*
X44500000Y16620000D01*
G75*
G02*
X44675000Y16795000I175000J0D01*
G01*
X46375000Y16795000D01*
G75*
G02*
X46550000Y16620000I0J-175000D01*
G01*
X46550000Y16270000D01*
G75*
G02*
X46375000Y16095000I-175000J0D01*
G01*
X44675000Y16095000D01*
G75*
G02*
X44500000Y16270000I0J175000D01*
G01*
G37*
%TD*%
%TO.C,U1*%
G36*
G01*
X36300000Y28000000D02*
X36300000Y29000000D01*
G75*
G02*
X36350000Y29050000I50000J0D01*
G01*
X38850000Y29050000D01*
G75*
G02*
X38900000Y29000000I0J-50000D01*
G01*
X38900000Y28000000D01*
G75*
G02*
X38850000Y27950000I-50000J0D01*
G01*
X36350000Y27950000D01*
G75*
G02*
X36300000Y28000000I0J50000D01*
G01*
G37*
G36*
G01*
X36300000Y26000000D02*
X36300000Y27000000D01*
G75*
G02*
X36350000Y27050000I50000J0D01*
G01*
X38850000Y27050000D01*
G75*
G02*
X38900000Y27000000I0J-50000D01*
G01*
X38900000Y26000000D01*
G75*
G02*
X38850000Y25950000I-50000J0D01*
G01*
X36350000Y25950000D01*
G75*
G02*
X36300000Y26000000I0J50000D01*
G01*
G37*
G36*
G01*
X36300000Y24000000D02*
X36300000Y25000000D01*
G75*
G02*
X36350000Y25050000I50000J0D01*
G01*
X38850000Y25050000D01*
G75*
G02*
X38900000Y25000000I0J-50000D01*
G01*
X38900000Y24000000D01*
G75*
G02*
X38850000Y23950000I-50000J0D01*
G01*
X36350000Y23950000D01*
G75*
G02*
X36300000Y24000000I0J50000D01*
G01*
G37*
G36*
G01*
X36300000Y22000000D02*
X36300000Y23000000D01*
G75*
G02*
X36350000Y23050000I50000J0D01*
G01*
X38850000Y23050000D01*
G75*
G02*
X38900000Y23000000I0J-50000D01*
G01*
X38900000Y22000000D01*
G75*
G02*
X38850000Y21950000I-50000J0D01*
G01*
X36350000Y21950000D01*
G75*
G02*
X36300000Y22000000I0J50000D01*
G01*
G37*
G36*
G01*
X36300000Y20000000D02*
X36300000Y21000000D01*
G75*
G02*
X36350000Y21050000I50000J0D01*
G01*
X38850000Y21050000D01*
G75*
G02*
X38900000Y21000000I0J-50000D01*
G01*
X38900000Y20000000D01*
G75*
G02*
X38850000Y19950000I-50000J0D01*
G01*
X36350000Y19950000D01*
G75*
G02*
X36300000Y20000000I0J50000D01*
G01*
G37*
G36*
G01*
X36300000Y18000000D02*
X36300000Y19000000D01*
G75*
G02*
X36350000Y19050000I50000J0D01*
G01*
X38850000Y19050000D01*
G75*
G02*
X38900000Y19000000I0J-50000D01*
G01*
X38900000Y18000000D01*
G75*
G02*
X38850000Y17950000I-50000J0D01*
G01*
X36350000Y17950000D01*
G75*
G02*
X36300000Y18000000I0J50000D01*
G01*
G37*
G36*
G01*
X36300000Y16000000D02*
X36300000Y17000000D01*
G75*
G02*
X36350000Y17050000I50000J0D01*
G01*
X38850000Y17050000D01*
G75*
G02*
X38900000Y17000000I0J-50000D01*
G01*
X38900000Y16000000D01*
G75*
G02*
X38850000Y15950000I-50000J0D01*
G01*
X36350000Y15950000D01*
G75*
G02*
X36300000Y16000000I0J50000D01*
G01*
G37*
G36*
G01*
X36300000Y14000000D02*
X36300000Y15000000D01*
G75*
G02*
X36350000Y15050000I50000J0D01*
G01*
X38850000Y15050000D01*
G75*
G02*
X38900000Y15000000I0J-50000D01*
G01*
X38900000Y14000000D01*
G75*
G02*
X38850000Y13950000I-50000J0D01*
G01*
X36350000Y13950000D01*
G75*
G02*
X36300000Y14000000I0J50000D01*
G01*
G37*
G36*
G01*
X34450000Y12100000D02*
X34450000Y13900000D01*
G75*
G02*
X34500000Y13950000I50000J0D01*
G01*
X35500000Y13950000D01*
G75*
G02*
X35550000Y13900000I0J-50000D01*
G01*
X35550000Y12100000D01*
G75*
G02*
X35500000Y12050000I-50000J0D01*
G01*
X34500000Y12050000D01*
G75*
G02*
X34450000Y12100000I0J50000D01*
G01*
G37*
G36*
G01*
X32450000Y12100000D02*
X32450000Y13900000D01*
G75*
G02*
X32500000Y13950000I50000J0D01*
G01*
X33500000Y13950000D01*
G75*
G02*
X33550000Y13900000I0J-50000D01*
G01*
X33550000Y12100000D01*
G75*
G02*
X33500000Y12050000I-50000J0D01*
G01*
X32500000Y12050000D01*
G75*
G02*
X32450000Y12100000I0J50000D01*
G01*
G37*
G36*
G01*
X30450000Y12100000D02*
X30450000Y13900000D01*
G75*
G02*
X30500000Y13950000I50000J0D01*
G01*
X31500000Y13950000D01*
G75*
G02*
X31550000Y13900000I0J-50000D01*
G01*
X31550000Y12100000D01*
G75*
G02*
X31500000Y12050000I-50000J0D01*
G01*
X30500000Y12050000D01*
G75*
G02*
X30450000Y12100000I0J50000D01*
G01*
G37*
G36*
G01*
X28450000Y12100000D02*
X28450000Y13900000D01*
G75*
G02*
X28500000Y13950000I50000J0D01*
G01*
X29500000Y13950000D01*
G75*
G02*
X29550000Y13900000I0J-50000D01*
G01*
X29550000Y12100000D01*
G75*
G02*
X29500000Y12050000I-50000J0D01*
G01*
X28500000Y12050000D01*
G75*
G02*
X28450000Y12100000I0J50000D01*
G01*
G37*
G36*
G01*
X26450000Y12100000D02*
X26450000Y13900000D01*
G75*
G02*
X26500000Y13950000I50000J0D01*
G01*
X27500000Y13950000D01*
G75*
G02*
X27550000Y13900000I0J-50000D01*
G01*
X27550000Y12100000D01*
G75*
G02*
X27500000Y12050000I-50000J0D01*
G01*
X26500000Y12050000D01*
G75*
G02*
X26450000Y12100000I0J50000D01*
G01*
G37*
G36*
G01*
X24450000Y12100000D02*
X24450000Y13900000D01*
G75*
G02*
X24500000Y13950000I50000J0D01*
G01*
X25500000Y13950000D01*
G75*
G02*
X25550000Y13900000I0J-50000D01*
G01*
X25550000Y12100000D01*
G75*
G02*
X25500000Y12050000I-50000J0D01*
G01*
X24500000Y12050000D01*
G75*
G02*
X24450000Y12100000I0J50000D01*
G01*
G37*
G36*
G01*
X21100000Y14000000D02*
X21100000Y15000000D01*
G75*
G02*
X21150000Y15050000I50000J0D01*
G01*
X23650000Y15050000D01*
G75*
G02*
X23700000Y15000000I0J-50000D01*
G01*
X23700000Y14000000D01*
G75*
G02*
X23650000Y13950000I-50000J0D01*
G01*
X21150000Y13950000D01*
G75*
G02*
X21100000Y14000000I0J50000D01*
G01*
G37*
G36*
G01*
X21100000Y16000000D02*
X21100000Y17000000D01*
G75*
G02*
X21150000Y17050000I50000J0D01*
G01*
X23650000Y17050000D01*
G75*
G02*
X23700000Y17000000I0J-50000D01*
G01*
X23700000Y16000000D01*
G75*
G02*
X23650000Y15950000I-50000J0D01*
G01*
X21150000Y15950000D01*
G75*
G02*
X21100000Y16000000I0J50000D01*
G01*
G37*
G36*
G01*
X21100000Y18000000D02*
X21100000Y19000000D01*
G75*
G02*
X21150000Y19050000I50000J0D01*
G01*
X23650000Y19050000D01*
G75*
G02*
X23700000Y19000000I0J-50000D01*
G01*
X23700000Y18000000D01*
G75*
G02*
X23650000Y17950000I-50000J0D01*
G01*
X21150000Y17950000D01*
G75*
G02*
X21100000Y18000000I0J50000D01*
G01*
G37*
G36*
G01*
X21100000Y20000000D02*
X21100000Y21000000D01*
G75*
G02*
X21150000Y21050000I50000J0D01*
G01*
X23650000Y21050000D01*
G75*
G02*
X23700000Y21000000I0J-50000D01*
G01*
X23700000Y20000000D01*
G75*
G02*
X23650000Y19950000I-50000J0D01*
G01*
X21150000Y19950000D01*
G75*
G02*
X21100000Y20000000I0J50000D01*
G01*
G37*
G36*
G01*
X21100000Y22000000D02*
X21100000Y23000000D01*
G75*
G02*
X21150000Y23050000I50000J0D01*
G01*
X23650000Y23050000D01*
G75*
G02*
X23700000Y23000000I0J-50000D01*
G01*
X23700000Y22000000D01*
G75*
G02*
X23650000Y21950000I-50000J0D01*
G01*
X21150000Y21950000D01*
G75*
G02*
X21100000Y22000000I0J50000D01*
G01*
G37*
G36*
G01*
X21100000Y24000000D02*
X21100000Y25000000D01*
G75*
G02*
X21150000Y25050000I50000J0D01*
G01*
X23650000Y25050000D01*
G75*
G02*
X23700000Y25000000I0J-50000D01*
G01*
X23700000Y24000000D01*
G75*
G02*
X23650000Y23950000I-50000J0D01*
G01*
X21150000Y23950000D01*
G75*
G02*
X21100000Y24000000I0J50000D01*
G01*
G37*
G36*
G01*
X21100000Y26000000D02*
X21100000Y27000000D01*
G75*
G02*
X21150000Y27050000I50000J0D01*
G01*
X23650000Y27050000D01*
G75*
G02*
X23700000Y27000000I0J-50000D01*
G01*
X23700000Y26000000D01*
G75*
G02*
X23650000Y25950000I-50000J0D01*
G01*
X21150000Y25950000D01*
G75*
G02*
X21100000Y26000000I0J50000D01*
G01*
G37*
G36*
G01*
X21100000Y28000000D02*
X21100000Y29000000D01*
G75*
G02*
X21150000Y29050000I50000J0D01*
G01*
X23650000Y29050000D01*
G75*
G02*
X23700000Y29000000I0J-50000D01*
G01*
X23700000Y28000000D01*
G75*
G02*
X23650000Y27950000I-50000J0D01*
G01*
X21150000Y27950000D01*
G75*
G02*
X21100000Y28000000I0J50000D01*
G01*
G37*
%TD*%
%TO.C,R11*%
G36*
G01*
X54300000Y14968750D02*
X54300000Y15531250D01*
G75*
G02*
X54543750Y15775000I243750J0D01*
G01*
X55031250Y15775000D01*
G75*
G02*
X55275000Y15531250I0J-243750D01*
G01*
X55275000Y14968750D01*
G75*
G02*
X55031250Y14725000I-243750J0D01*
G01*
X54543750Y14725000D01*
G75*
G02*
X54300000Y14968750I0J243750D01*
G01*
G37*
G36*
G01*
X52725000Y14968750D02*
X52725000Y15531250D01*
G75*
G02*
X52968750Y15775000I243750J0D01*
G01*
X53456250Y15775000D01*
G75*
G02*
X53700000Y15531250I0J-243750D01*
G01*
X53700000Y14968750D01*
G75*
G02*
X53456250Y14725000I-243750J0D01*
G01*
X52968750Y14725000D01*
G75*
G02*
X52725000Y14968750I0J243750D01*
G01*
G37*
%TD*%
%TO.C,R15*%
G36*
G01*
X30281250Y41800000D02*
X29718750Y41800000D01*
G75*
G02*
X29475000Y42043750I0J243750D01*
G01*
X29475000Y42531250D01*
G75*
G02*
X29718750Y42775000I243750J0D01*
G01*
X30281250Y42775000D01*
G75*
G02*
X30525000Y42531250I0J-243750D01*
G01*
X30525000Y42043750D01*
G75*
G02*
X30281250Y41800000I-243750J0D01*
G01*
G37*
G36*
G01*
X30281250Y40225000D02*
X29718750Y40225000D01*
G75*
G02*
X29475000Y40468750I0J243750D01*
G01*
X29475000Y40956250D01*
G75*
G02*
X29718750Y41200000I243750J0D01*
G01*
X30281250Y41200000D01*
G75*
G02*
X30525000Y40956250I0J-243750D01*
G01*
X30525000Y40468750D01*
G75*
G02*
X30281250Y40225000I-243750J0D01*
G01*
G37*
%TD*%
%TO.C,R16*%
G36*
G01*
X36718750Y41200000D02*
X37281250Y41200000D01*
G75*
G02*
X37525000Y40956250I0J-243750D01*
G01*
X37525000Y40468750D01*
G75*
G02*
X37281250Y40225000I-243750J0D01*
G01*
X36718750Y40225000D01*
G75*
G02*
X36475000Y40468750I0J243750D01*
G01*
X36475000Y40956250D01*
G75*
G02*
X36718750Y41200000I243750J0D01*
G01*
G37*
G36*
G01*
X36718750Y42775000D02*
X37281250Y42775000D01*
G75*
G02*
X37525000Y42531250I0J-243750D01*
G01*
X37525000Y42043750D01*
G75*
G02*
X37281250Y41800000I-243750J0D01*
G01*
X36718750Y41800000D01*
G75*
G02*
X36475000Y42043750I0J243750D01*
G01*
X36475000Y42531250D01*
G75*
G02*
X36718750Y42775000I243750J0D01*
G01*
G37*
%TD*%
%TO.C,R14*%
G36*
G01*
X34968750Y41200000D02*
X35531250Y41200000D01*
G75*
G02*
X35775000Y40956250I0J-243750D01*
G01*
X35775000Y40468750D01*
G75*
G02*
X35531250Y40225000I-243750J0D01*
G01*
X34968750Y40225000D01*
G75*
G02*
X34725000Y40468750I0J243750D01*
G01*
X34725000Y40956250D01*
G75*
G02*
X34968750Y41200000I243750J0D01*
G01*
G37*
G36*
G01*
X34968750Y42775000D02*
X35531250Y42775000D01*
G75*
G02*
X35775000Y42531250I0J-243750D01*
G01*
X35775000Y42043750D01*
G75*
G02*
X35531250Y41800000I-243750J0D01*
G01*
X34968750Y41800000D01*
G75*
G02*
X34725000Y42043750I0J243750D01*
G01*
X34725000Y42531250D01*
G75*
G02*
X34968750Y42775000I243750J0D01*
G01*
G37*
%TD*%
%TO.C,R19*%
G36*
G01*
X39031250Y41800000D02*
X38468750Y41800000D01*
G75*
G02*
X38225000Y42043750I0J243750D01*
G01*
X38225000Y42531250D01*
G75*
G02*
X38468750Y42775000I243750J0D01*
G01*
X39031250Y42775000D01*
G75*
G02*
X39275000Y42531250I0J-243750D01*
G01*
X39275000Y42043750D01*
G75*
G02*
X39031250Y41800000I-243750J0D01*
G01*
G37*
G36*
G01*
X39031250Y40225000D02*
X38468750Y40225000D01*
G75*
G02*
X38225000Y40468750I0J243750D01*
G01*
X38225000Y40956250D01*
G75*
G02*
X38468750Y41200000I243750J0D01*
G01*
X39031250Y41200000D01*
G75*
G02*
X39275000Y40956250I0J-243750D01*
G01*
X39275000Y40468750D01*
G75*
G02*
X39031250Y40225000I-243750J0D01*
G01*
G37*
%TD*%
%TO.C,D1*%
G36*
G01*
X26850000Y40750000D02*
X27650000Y40750000D01*
G75*
G02*
X27700000Y40700000I0J-50000D01*
G01*
X27700000Y39800000D01*
G75*
G02*
X27650000Y39750000I-50000J0D01*
G01*
X26850000Y39750000D01*
G75*
G02*
X26800000Y39800000I0J50000D01*
G01*
X26800000Y40700000D01*
G75*
G02*
X26850000Y40750000I50000J0D01*
G01*
G37*
G36*
G01*
X25900000Y42750000D02*
X26700000Y42750000D01*
G75*
G02*
X26750000Y42700000I0J-50000D01*
G01*
X26750000Y41800000D01*
G75*
G02*
X26700000Y41750000I-50000J0D01*
G01*
X25900000Y41750000D01*
G75*
G02*
X25850000Y41800000I0J50000D01*
G01*
X25850000Y42700000D01*
G75*
G02*
X25900000Y42750000I50000J0D01*
G01*
G37*
G36*
G01*
X27800000Y42750000D02*
X28600000Y42750000D01*
G75*
G02*
X28650000Y42700000I0J-50000D01*
G01*
X28650000Y41800000D01*
G75*
G02*
X28600000Y41750000I-50000J0D01*
G01*
X27800000Y41750000D01*
G75*
G02*
X27750000Y41800000I0J50000D01*
G01*
X27750000Y42700000D01*
G75*
G02*
X27800000Y42750000I50000J0D01*
G01*
G37*
%TD*%
%TO.C,C4*%
G36*
G01*
X12518750Y12100000D02*
X13481250Y12100000D01*
G75*
G02*
X13750000Y11831250I0J-268750D01*
G01*
X13750000Y11293750D01*
G75*
G02*
X13481250Y11025000I-268750J0D01*
G01*
X12518750Y11025000D01*
G75*
G02*
X12250000Y11293750I0J268750D01*
G01*
X12250000Y11831250D01*
G75*
G02*
X12518750Y12100000I268750J0D01*
G01*
G37*
G36*
G01*
X12518750Y13975000D02*
X13481250Y13975000D01*
G75*
G02*
X13750000Y13706250I0J-268750D01*
G01*
X13750000Y13168750D01*
G75*
G02*
X13481250Y12900000I-268750J0D01*
G01*
X12518750Y12900000D01*
G75*
G02*
X12250000Y13168750I0J268750D01*
G01*
X12250000Y13706250D01*
G75*
G02*
X12518750Y13975000I268750J0D01*
G01*
G37*
%TD*%
%TO.C,C2*%
G36*
G01*
X48300000Y17718750D02*
X48300000Y18281250D01*
G75*
G02*
X48543750Y18525000I243750J0D01*
G01*
X49031250Y18525000D01*
G75*
G02*
X49275000Y18281250I0J-243750D01*
G01*
X49275000Y17718750D01*
G75*
G02*
X49031250Y17475000I-243750J0D01*
G01*
X48543750Y17475000D01*
G75*
G02*
X48300000Y17718750I0J243750D01*
G01*
G37*
G36*
G01*
X46725000Y17718750D02*
X46725000Y18281250D01*
G75*
G02*
X46968750Y18525000I243750J0D01*
G01*
X47456250Y18525000D01*
G75*
G02*
X47700000Y18281250I0J-243750D01*
G01*
X47700000Y17718750D01*
G75*
G02*
X47456250Y17475000I-243750J0D01*
G01*
X46968750Y17475000D01*
G75*
G02*
X46725000Y17718750I0J243750D01*
G01*
G37*
%TD*%
%TO.C,C1*%
G36*
G01*
X42450000Y12781250D02*
X42450000Y12218750D01*
G75*
G02*
X42206250Y11975000I-243750J0D01*
G01*
X41718750Y11975000D01*
G75*
G02*
X41475000Y12218750I0J243750D01*
G01*
X41475000Y12781250D01*
G75*
G02*
X41718750Y13025000I243750J0D01*
G01*
X42206250Y13025000D01*
G75*
G02*
X42450000Y12781250I0J-243750D01*
G01*
G37*
G36*
G01*
X44025000Y12781250D02*
X44025000Y12218750D01*
G75*
G02*
X43781250Y11975000I-243750J0D01*
G01*
X43293750Y11975000D01*
G75*
G02*
X43050000Y12218750I0J243750D01*
G01*
X43050000Y12781250D01*
G75*
G02*
X43293750Y13025000I243750J0D01*
G01*
X43781250Y13025000D01*
G75*
G02*
X44025000Y12781250I0J-243750D01*
G01*
G37*
%TD*%
%TO.C,C5*%
G36*
G01*
X31468750Y41200000D02*
X32031250Y41200000D01*
G75*
G02*
X32275000Y40956250I0J-243750D01*
G01*
X32275000Y40468750D01*
G75*
G02*
X32031250Y40225000I-243750J0D01*
G01*
X31468750Y40225000D01*
G75*
G02*
X31225000Y40468750I0J243750D01*
G01*
X31225000Y40956250D01*
G75*
G02*
X31468750Y41200000I243750J0D01*
G01*
G37*
G36*
G01*
X31468750Y42775000D02*
X32031250Y42775000D01*
G75*
G02*
X32275000Y42531250I0J-243750D01*
G01*
X32275000Y42043750D01*
G75*
G02*
X32031250Y41800000I-243750J0D01*
G01*
X31468750Y41800000D01*
G75*
G02*
X31225000Y42043750I0J243750D01*
G01*
X31225000Y42531250D01*
G75*
G02*
X31468750Y42775000I243750J0D01*
G01*
G37*
%TD*%
%TO.C,C9*%
G36*
G01*
X19531250Y41800000D02*
X18968750Y41800000D01*
G75*
G02*
X18725000Y42043750I0J243750D01*
G01*
X18725000Y42531250D01*
G75*
G02*
X18968750Y42775000I243750J0D01*
G01*
X19531250Y42775000D01*
G75*
G02*
X19775000Y42531250I0J-243750D01*
G01*
X19775000Y42043750D01*
G75*
G02*
X19531250Y41800000I-243750J0D01*
G01*
G37*
G36*
G01*
X19531250Y40225000D02*
X18968750Y40225000D01*
G75*
G02*
X18725000Y40468750I0J243750D01*
G01*
X18725000Y40956250D01*
G75*
G02*
X18968750Y41200000I243750J0D01*
G01*
X19531250Y41200000D01*
G75*
G02*
X19775000Y40956250I0J-243750D01*
G01*
X19775000Y40468750D01*
G75*
G02*
X19531250Y40225000I-243750J0D01*
G01*
G37*
%TD*%
%TO.C,C8*%
G36*
G01*
X17781250Y41800000D02*
X17218750Y41800000D01*
G75*
G02*
X16975000Y42043750I0J243750D01*
G01*
X16975000Y42531250D01*
G75*
G02*
X17218750Y42775000I243750J0D01*
G01*
X17781250Y42775000D01*
G75*
G02*
X18025000Y42531250I0J-243750D01*
G01*
X18025000Y42043750D01*
G75*
G02*
X17781250Y41800000I-243750J0D01*
G01*
G37*
G36*
G01*
X17781250Y40225000D02*
X17218750Y40225000D01*
G75*
G02*
X16975000Y40468750I0J243750D01*
G01*
X16975000Y40956250D01*
G75*
G02*
X17218750Y41200000I243750J0D01*
G01*
X17781250Y41200000D01*
G75*
G02*
X18025000Y40956250I0J-243750D01*
G01*
X18025000Y40468750D01*
G75*
G02*
X17781250Y40225000I-243750J0D01*
G01*
G37*
%TD*%
%TO.C,C6*%
G36*
G01*
X24218750Y41200000D02*
X24781250Y41200000D01*
G75*
G02*
X25025000Y40956250I0J-243750D01*
G01*
X25025000Y40468750D01*
G75*
G02*
X24781250Y40225000I-243750J0D01*
G01*
X24218750Y40225000D01*
G75*
G02*
X23975000Y40468750I0J243750D01*
G01*
X23975000Y40956250D01*
G75*
G02*
X24218750Y41200000I243750J0D01*
G01*
G37*
G36*
G01*
X24218750Y42775000D02*
X24781250Y42775000D01*
G75*
G02*
X25025000Y42531250I0J-243750D01*
G01*
X25025000Y42043750D01*
G75*
G02*
X24781250Y41800000I-243750J0D01*
G01*
X24218750Y41800000D01*
G75*
G02*
X23975000Y42043750I0J243750D01*
G01*
X23975000Y42531250D01*
G75*
G02*
X24218750Y42775000I243750J0D01*
G01*
G37*
%TD*%
%TO.C,C7*%
G36*
G01*
X22468750Y41200000D02*
X23031250Y41200000D01*
G75*
G02*
X23275000Y40956250I0J-243750D01*
G01*
X23275000Y40468750D01*
G75*
G02*
X23031250Y40225000I-243750J0D01*
G01*
X22468750Y40225000D01*
G75*
G02*
X22225000Y40468750I0J243750D01*
G01*
X22225000Y40956250D01*
G75*
G02*
X22468750Y41200000I243750J0D01*
G01*
G37*
G36*
G01*
X22468750Y42775000D02*
X23031250Y42775000D01*
G75*
G02*
X23275000Y42531250I0J-243750D01*
G01*
X23275000Y42043750D01*
G75*
G02*
X23031250Y41800000I-243750J0D01*
G01*
X22468750Y41800000D01*
G75*
G02*
X22225000Y42043750I0J243750D01*
G01*
X22225000Y42531250D01*
G75*
G02*
X22468750Y42775000I243750J0D01*
G01*
G37*
%TD*%
D17*
X13500000Y34800000D03*
X15900000Y24500000D03*
X7000000Y17000000D03*
X7000000Y16000000D03*
X7000000Y15000000D03*
X7000000Y14000000D03*
X7000000Y13000000D03*
X7000000Y12000000D03*
X36000000Y7400000D03*
X29875000Y10925000D03*
X32540913Y10540921D03*
X31163495Y9493447D03*
X40200000Y28500000D03*
X40500000Y14000000D03*
X40500000Y15300000D03*
X41661584Y26488123D03*
X15000000Y15500000D03*
X32600000Y8400000D03*
X27640360Y8168080D03*
X1999996Y44700000D03*
X38274897Y39443563D03*
X19900000Y20500000D03*
X18000000Y30000000D03*
X36149990Y39350016D03*
X41174979Y18538465D03*
X53100000Y13900000D03*
X54850000Y21400000D03*
X53100004Y12700000D03*
X53550000Y22400000D03*
X40499976Y16500000D03*
X19500000Y31500000D03*
X11200000Y27100000D03*
X8152566Y27052566D03*
X9500000Y44900000D03*
X11200000Y44900000D03*
X11224999Y48775001D03*
X58875000Y46075000D03*
X15600000Y18500000D03*
X20300000Y18500000D03*
X6900000Y39000000D03*
X49600000Y32099986D03*
X36700000Y1700000D03*
X21400000Y7000000D03*
X4900000Y34600000D03*
X4900000Y36500000D03*
X20200000Y16500000D03*
X14399999Y23100000D03*
X11800000Y30900000D03*
X8600000Y30900000D03*
X18900000Y34700000D03*
X18343940Y37634109D03*
X16600000Y32900000D03*
X22900000Y4200000D03*
X36800000Y4200000D03*
X39874990Y22500000D03*
X15100000Y37200000D03*
X15100000Y34500000D03*
X38300000Y12700000D03*
X8500000Y48500000D03*
X3500000Y41000000D03*
X3500000Y28500000D03*
X8500000Y33500000D03*
X8500000Y21000000D03*
X43500000Y48500000D03*
X56000000Y53500000D03*
X56000000Y35700000D03*
X46000000Y23500000D03*
X50200000Y4900000D03*
X38500000Y8500000D03*
X23500000Y6000000D03*
X22000000Y12000000D03*
X55000000Y13000000D03*
X7750000Y1250000D03*
X1500000Y8250000D03*
X31100000Y44100000D03*
X46300000Y19400000D03*
X43700000Y29700000D03*
X47600000Y37500000D03*
X33500000Y39600000D03*
X38700000Y34100000D03*
X5600000Y9900000D03*
X4300000Y20500000D03*
X8200000Y5600000D03*
X23500000Y2700000D03*
X30100000Y2800000D03*
X44600000Y33000000D03*
X14100000Y14600000D03*
X14900000Y11600000D03*
X16500000Y37600000D03*
X25500000Y45200000D03*
X57000000Y45000000D03*
X42000000Y3000000D03*
X18000000Y3000000D03*
X10000000Y43000000D03*
X3000000Y36000000D03*
X10000000Y29000000D03*
X45750000Y39250000D03*
X39800000Y54400000D03*
X35600000Y54450000D03*
X36100000Y44800000D03*
X28100000Y44200000D03*
X22500000Y45650000D03*
X40550000Y12500000D03*
X36373873Y5397811D03*
X27900000Y54400000D03*
X15500000Y28000000D03*
X15000000Y50300000D03*
X55000000Y24600000D03*
X18000159Y50099839D03*
X20400000Y54600000D03*
X19600000Y28500000D03*
X17749992Y38499990D03*
X54750000Y27300000D03*
M02*
