%TF.GenerationSoftware,KiCad,Pcbnew,5.1.10-88a1d61d58~88~ubuntu20.04.1*%
%TF.CreationDate,2021-05-11T13:31:27+02:00*%
%TF.ProjectId,gamearino,67616d65-6172-4696-9e6f-2e6b69636164,v20.0.3*%
%TF.SameCoordinates,PX5f5e100PY5f5e100*%
%TF.FileFunction,Copper,L2,Bot*%
%TF.FilePolarity,Positive*%
%FSLAX46Y46*%
G04 Gerber Fmt 4.6, Leading zero omitted, Abs format (unit mm)*
G04 Created by KiCad (PCBNEW 5.1.10-88a1d61d58~88~ubuntu20.04.1) date 2021-05-11 13:31:27*
%MOMM*%
%LPD*%
G01*
G04 APERTURE LIST*
%TA.AperFunction,ComponentPad*%
%ADD10O,0.900000X1.700000*%
%TD*%
%TA.AperFunction,ComponentPad*%
%ADD11O,0.900000X2.000000*%
%TD*%
%TA.AperFunction,ViaPad*%
%ADD12C,0.900000*%
%TD*%
%TA.AperFunction,Conductor*%
%ADD13C,0.750000*%
%TD*%
%TA.AperFunction,Conductor*%
%ADD14C,0.200000*%
%TD*%
%TA.AperFunction,Conductor*%
%ADD15C,0.250000*%
%TD*%
%TA.AperFunction,Conductor*%
%ADD16C,0.500000*%
%TD*%
%TA.AperFunction,Conductor*%
%ADD17C,0.150000*%
%TD*%
%TA.AperFunction,Conductor*%
%ADD18C,0.300000*%
%TD*%
G04 APERTURE END LIST*
D10*
%TO.P,X1,S1*%
%TO.N,GND*%
X34320000Y2110000D03*
X25680000Y2110000D03*
D11*
X34320000Y6280000D03*
X25680000Y6280000D03*
%TD*%
D12*
%TO.N,+3V3*%
X13500000Y34800000D03*
X15900000Y24500000D03*
X7000000Y17000000D03*
X7000000Y16000000D03*
X7000000Y15000000D03*
X7000000Y14000000D03*
X7000000Y13000000D03*
X7000000Y12000000D03*
X36000000Y7400000D03*
X29875000Y10925000D03*
%TO.N,/USB/D+*%
X32540913Y10540921D03*
X31163495Y9493447D03*
%TO.N,/USB/RxD*%
X40200000Y28500000D03*
X40500000Y14000000D03*
%TO.N,/USB/TxD*%
X40500000Y15300000D03*
X41661584Y26488123D03*
%TO.N,Net-(C3-Pad1)*%
X15000000Y15500000D03*
X32600000Y8400000D03*
X27640360Y8168080D03*
X1999996Y44700000D03*
%TO.N,/OLED 128x64/SDA*%
X38274897Y39443563D03*
X19900000Y20500000D03*
X18000000Y30000000D03*
%TO.N,/OLED 128x64/SCL*%
X36149990Y39350016D03*
X41174979Y18538465D03*
%TO.N,/Auto-Reset/RTS*%
X53100000Y13900000D03*
X54850000Y21400000D03*
%TO.N,/Auto-Reset/DTR*%
X53100004Y12700000D03*
X53550000Y22400000D03*
%TO.N,/Buttons/C0*%
X40499976Y16500000D03*
X19500000Y31500000D03*
X11200000Y27100000D03*
X8152566Y27052566D03*
X9500000Y44900000D03*
X11200000Y44900000D03*
%TO.N,/Buttons/R0*%
X11224999Y48775001D03*
X58875000Y46075000D03*
%TO.N,/Buttons/R1*%
X15600000Y18500000D03*
X20300000Y18500000D03*
X6900000Y39000000D03*
X49600000Y32099986D03*
X36700000Y1700000D03*
X21400000Y7000000D03*
X4900000Y34600000D03*
X4900000Y36500000D03*
%TO.N,/Buttons/R2*%
X20200000Y16500000D03*
X14399999Y23100000D03*
X11800000Y30900000D03*
X8600000Y30900000D03*
X18900000Y34700000D03*
X18343940Y37634109D03*
%TO.N,/Buttons/C1*%
X16600000Y32900000D03*
X22900000Y4200000D03*
X36800000Y4200000D03*
X39874990Y22500000D03*
X15100000Y37200000D03*
X15100000Y34500000D03*
%TO.N,GND*%
X38300000Y12700000D03*
X8500000Y48500000D03*
X3500000Y41000000D03*
X3500000Y28500000D03*
X8500000Y33500000D03*
X8500000Y21000000D03*
X43500000Y48500000D03*
X56000000Y53500000D03*
X56000000Y35700000D03*
X46000000Y23500000D03*
X50200000Y4900000D03*
X38500000Y8500000D03*
X23500000Y6000000D03*
X22000000Y12000000D03*
X55000000Y13000000D03*
X7750000Y1250000D03*
X1500000Y8250000D03*
X31100000Y44100000D03*
X46300000Y19400000D03*
X43700000Y29700000D03*
X47600000Y37500000D03*
X33500000Y39600000D03*
X38700000Y34100000D03*
X5600000Y9900000D03*
X4300000Y20500000D03*
X8200000Y5600000D03*
X23500000Y2700000D03*
X30100000Y2800000D03*
X44600000Y33000000D03*
X14100000Y14600000D03*
X14900000Y11600000D03*
X16500000Y37600000D03*
X25500000Y45200000D03*
X57000000Y45000000D03*
X42000000Y3000000D03*
X18000000Y3000000D03*
X10000000Y43000000D03*
X3000000Y36000000D03*
X10000000Y29000000D03*
X45750000Y39250000D03*
X39800000Y54400000D03*
X35600000Y54450000D03*
X36100000Y44800000D03*
X28100000Y44200000D03*
X22500000Y45650000D03*
X40550000Y12500000D03*
X36373873Y5397811D03*
X27900000Y54400000D03*
X15500000Y28000000D03*
X15000000Y50300000D03*
X55000000Y24600000D03*
X18000159Y50099839D03*
X20400000Y54600000D03*
%TO.N,/~RESET*%
X19600000Y28500000D03*
X17749992Y38499990D03*
X54750000Y27300000D03*
%TD*%
D13*
%TO.N,+3V3*%
X13500000Y26900000D02*
X15900000Y24500000D01*
X13500000Y34800000D02*
X13500000Y26900000D01*
X31075000Y12125000D02*
X29875000Y10925000D01*
X33525000Y12125000D02*
X31075000Y12125000D01*
X36000000Y9650000D02*
X33525000Y12125000D01*
X36000000Y7400000D02*
X36000000Y9650000D01*
D14*
%TO.N,/USB/D+*%
X31493439Y9493447D02*
X31163495Y9493447D01*
X32540913Y10540921D02*
X31493439Y9493447D01*
D15*
%TO.N,/USB/RxD*%
X40949999Y14449999D02*
X40500000Y14000000D01*
X42500000Y16000000D02*
X40949999Y14449999D01*
X42500000Y26836396D02*
X42500000Y16000000D01*
X40836396Y28500000D02*
X42500000Y26836396D01*
X40200000Y28500000D02*
X40836396Y28500000D01*
%TO.N,/USB/TxD*%
X41999989Y26149718D02*
X41661584Y26488123D01*
X41999989Y16799989D02*
X41999989Y26149718D01*
X40500000Y15300000D02*
X41999989Y16799989D01*
D13*
%TO.N,Net-(C3-Pad1)*%
X22331920Y8168080D02*
X27640360Y8168080D01*
D16*
X32150001Y7950001D02*
X27858439Y7950001D01*
D13*
X15000000Y15500000D02*
X22331920Y8168080D01*
D16*
X32600000Y8400000D02*
X32150001Y7950001D01*
X27858439Y7950001D02*
X27640360Y8168080D01*
D14*
X1600000Y44300004D02*
X1999996Y44700000D01*
X15000000Y15500000D02*
X12400000Y18100000D01*
X12400000Y18100000D02*
X12400000Y19400000D01*
X12400000Y19400000D02*
X4800000Y27000000D01*
X4800000Y31700000D02*
X1600000Y34900000D01*
X4800000Y27000000D02*
X4800000Y31700000D01*
X1600000Y34900000D02*
X1600000Y44300004D01*
D15*
%TO.N,/OLED 128x64/SDA*%
X19900000Y20500000D02*
X18000000Y22400000D01*
X18000000Y22400000D02*
X18000000Y30000000D01*
%TO.N,/OLED 128x64/SCL*%
X40875012Y24332110D02*
X41499978Y23707144D01*
X39374999Y33553997D02*
X39374999Y27739245D01*
X41499978Y18863464D02*
X41174979Y18538465D01*
X39374999Y37125001D02*
X39374999Y34646003D01*
X40875012Y26239232D02*
X40875012Y24332110D01*
X41499978Y23707144D02*
X41499978Y18863464D01*
X39525001Y34496001D02*
X39525001Y33703999D01*
X36149990Y39350016D02*
X37149984Y39350016D01*
X39374999Y27739245D02*
X40875012Y26239232D01*
X37149984Y39350016D02*
X39374999Y37125001D01*
X39525001Y33703999D02*
X39374999Y33553997D01*
X39374999Y34646003D02*
X39525001Y34496001D01*
%TO.N,/Auto-Reset/RTS*%
X53100000Y19650000D02*
X54850000Y21400000D01*
X53100000Y13900000D02*
X53100000Y19650000D01*
%TO.N,/Auto-Reset/DTR*%
X53100004Y12700000D02*
X52500000Y12700000D01*
X52500000Y12700000D02*
X52200000Y13000000D01*
X52200000Y21050000D02*
X53550000Y22400000D01*
X52200000Y13000000D02*
X52200000Y21050000D01*
%TO.N,/Buttons/C0*%
X8200000Y27100000D02*
X8152566Y27052566D01*
X11200000Y27100000D02*
X8200000Y27100000D01*
X9500000Y44900000D02*
X11200000Y44900000D01*
X19500000Y31500000D02*
X19500000Y30863604D01*
X19500000Y30863604D02*
X21663604Y28700000D01*
X21663604Y28700000D02*
X37707122Y28700000D01*
X37707122Y28700000D02*
X40375001Y26032121D01*
X40049977Y18634467D02*
X40049977Y16949999D01*
X40375001Y26032121D02*
X40375002Y24124998D01*
X40778977Y19363467D02*
X40049977Y18634467D01*
X40375002Y24124998D02*
X40778977Y23721023D01*
X40778977Y23721023D02*
X40778977Y19363467D01*
X40049977Y16949999D02*
X40499976Y16500000D01*
%TO.N,/Buttons/R0*%
X11224999Y48775001D02*
X11224999Y50424999D01*
X11224999Y50424999D02*
X13600000Y52800000D01*
X13600000Y52800000D02*
X42300000Y52800000D01*
X42300000Y52800000D02*
X49025000Y46075000D01*
X49025000Y46075000D02*
X58875000Y46075000D01*
%TO.N,/Buttons/R1*%
X15600000Y18500000D02*
X20300000Y18500000D01*
X35884990Y884990D02*
X36700000Y1700000D01*
X23015010Y884990D02*
X35884990Y884990D01*
X21400000Y2500000D02*
X23015010Y884990D01*
X21400000Y7000000D02*
X21400000Y2500000D01*
X4900000Y34600000D02*
X4900000Y36500000D01*
X49150001Y32549985D02*
X49600000Y32099986D01*
X40699986Y41000000D02*
X49150001Y32549985D01*
X6900000Y39000000D02*
X7349999Y39449999D01*
X28000000Y41000000D02*
X40699986Y41000000D01*
X17872985Y39449999D02*
X18322984Y39000000D01*
X7349999Y39449999D02*
X17872985Y39449999D01*
X18322984Y39000000D02*
X26000000Y39000000D01*
X26000000Y39000000D02*
X28000000Y41000000D01*
%TO.N,/Buttons/R2*%
X14399999Y17800001D02*
X14399999Y23100000D01*
X15700000Y16500000D02*
X14399999Y17800001D01*
X20200000Y16500000D02*
X15700000Y16500000D01*
X11800000Y30900000D02*
X8600000Y30900000D01*
X18900000Y37078049D02*
X18343940Y37634109D01*
X18900000Y34700000D02*
X18900000Y37078049D01*
%TO.N,/Buttons/C1*%
X22900000Y4200000D02*
X36800000Y4200000D01*
X36800000Y4200000D02*
X39400000Y6800000D01*
X39400000Y22025010D02*
X39874990Y22500000D01*
X39400000Y6800000D02*
X39400000Y22025010D01*
X15100000Y37200000D02*
X15100000Y34500000D01*
X37400000Y28300000D02*
X39874990Y25825010D01*
X21338704Y28300000D02*
X37400000Y28300000D01*
X39874990Y25825010D02*
X39874990Y22500000D01*
X16738704Y32900000D02*
X21338704Y28300000D01*
X16600000Y32900000D02*
X16738704Y32900000D01*
%TO.N,/~RESET*%
X17225001Y36525001D02*
X17225001Y37974999D01*
X15774999Y32548005D02*
X15774999Y33296001D01*
X16353996Y35653996D02*
X17225001Y36525001D01*
X17225001Y37974999D02*
X17749992Y38499990D01*
X17598002Y30725002D02*
X15774999Y32548005D01*
X19600000Y28500000D02*
X19600000Y29473004D01*
X19600000Y29473004D02*
X18348002Y30725002D01*
X18348002Y30725002D02*
X17598002Y30725002D01*
X15774999Y33296001D02*
X16353996Y33874998D01*
X16353996Y33874998D02*
X16353996Y35653996D01*
X38464470Y40474992D02*
X51639462Y27300000D01*
X51639462Y27300000D02*
X54750000Y27300000D01*
X28182114Y40474992D02*
X38464470Y40474992D01*
X17749992Y38499990D02*
X26207112Y38499990D01*
X26207112Y38499990D02*
X28182114Y40474992D01*
%TD*%
D17*
%TO.N,GND*%
X56728145Y55677406D02*
X57428557Y55465939D01*
X58074557Y55122455D01*
X58641536Y54660038D01*
X59107897Y54096304D01*
X59455881Y53452721D01*
X59672234Y52753797D01*
X59749949Y52014389D01*
X59750001Y51999420D01*
X59750000Y4012229D01*
X59677406Y3271854D01*
X59465939Y2571443D01*
X59122455Y1925443D01*
X58660042Y1358469D01*
X58096304Y892103D01*
X57452717Y544117D01*
X56753802Y327768D01*
X56014390Y250051D01*
X55999708Y250000D01*
X4012229Y250000D01*
X3271854Y322594D01*
X2571443Y534061D01*
X1925443Y877545D01*
X1358469Y1339958D01*
X892103Y1903696D01*
X544117Y2547283D01*
X327768Y3246198D01*
X250051Y3985610D01*
X250000Y4000292D01*
X250000Y4179747D01*
X2175000Y4179747D01*
X2175000Y3820253D01*
X2245134Y3467667D01*
X2382706Y3135539D01*
X2582430Y2836631D01*
X2836631Y2582430D01*
X3135539Y2382706D01*
X3467667Y2245134D01*
X3820253Y2175000D01*
X4179747Y2175000D01*
X4532333Y2245134D01*
X4864461Y2382706D01*
X5163369Y2582430D01*
X5417570Y2836631D01*
X5617294Y3135539D01*
X5754866Y3467667D01*
X5825000Y3820253D01*
X5825000Y4179747D01*
X5754866Y4532333D01*
X5617294Y4864461D01*
X5417570Y5163369D01*
X5163369Y5417570D01*
X4864461Y5617294D01*
X4532333Y5754866D01*
X4179747Y5825000D01*
X3820253Y5825000D01*
X3467667Y5754866D01*
X3135539Y5617294D01*
X2836631Y5417570D01*
X2582430Y5163369D01*
X2382706Y4864461D01*
X2245134Y4532333D01*
X2175000Y4179747D01*
X250000Y4179747D01*
X250000Y7066482D01*
X20725000Y7066482D01*
X20725000Y6933518D01*
X20750940Y6803110D01*
X20801823Y6680268D01*
X20875693Y6569713D01*
X20969713Y6475693D01*
X21050000Y6422047D01*
X21050001Y2517198D01*
X21048307Y2500000D01*
X21055065Y2431389D01*
X21064549Y2400125D01*
X21075079Y2365413D01*
X21107579Y2304610D01*
X21151316Y2251315D01*
X21164676Y2240351D01*
X22755361Y649665D01*
X22766325Y636305D01*
X22819620Y592568D01*
X22880423Y560068D01*
X22915562Y549409D01*
X22946397Y540055D01*
X23015009Y533297D01*
X23032198Y534990D01*
X35867802Y534990D01*
X35884990Y533297D01*
X35902178Y534990D01*
X35902179Y534990D01*
X35953602Y540055D01*
X36019577Y560068D01*
X36080380Y592568D01*
X36133675Y636305D01*
X36144643Y649670D01*
X36538812Y1043838D01*
X36633518Y1025000D01*
X36766482Y1025000D01*
X36896890Y1050940D01*
X37019732Y1101823D01*
X37130287Y1175693D01*
X37224307Y1269713D01*
X37298177Y1380268D01*
X37349060Y1503110D01*
X37375000Y1633518D01*
X37375000Y1766482D01*
X37349060Y1896890D01*
X37298177Y2019732D01*
X37224307Y2130287D01*
X37130287Y2224307D01*
X37019732Y2298177D01*
X36896890Y2349060D01*
X36766482Y2375000D01*
X36633518Y2375000D01*
X36503110Y2349060D01*
X36380268Y2298177D01*
X36269713Y2224307D01*
X36175693Y2130287D01*
X36101823Y2019732D01*
X36050940Y1896890D01*
X36025000Y1766482D01*
X36025000Y1633518D01*
X36043838Y1538812D01*
X35740017Y1234990D01*
X23159984Y1234990D01*
X21750000Y2644973D01*
X21750000Y5851708D01*
X26585000Y5851708D01*
X26585000Y5748292D01*
X26605176Y5646863D01*
X26644751Y5551319D01*
X26702206Y5465332D01*
X26775332Y5392206D01*
X26861319Y5334751D01*
X26956863Y5295176D01*
X27058292Y5275000D01*
X27161708Y5275000D01*
X27263137Y5295176D01*
X27358681Y5334751D01*
X27444668Y5392206D01*
X27517794Y5465332D01*
X27575249Y5551319D01*
X27614824Y5646863D01*
X27635000Y5748292D01*
X27635000Y5851708D01*
X32365000Y5851708D01*
X32365000Y5748292D01*
X32385176Y5646863D01*
X32424751Y5551319D01*
X32482206Y5465332D01*
X32555332Y5392206D01*
X32641319Y5334751D01*
X32736863Y5295176D01*
X32838292Y5275000D01*
X32941708Y5275000D01*
X33043137Y5295176D01*
X33138681Y5334751D01*
X33224668Y5392206D01*
X33297794Y5465332D01*
X33355249Y5551319D01*
X33394824Y5646863D01*
X33415000Y5748292D01*
X33415000Y5851708D01*
X33394824Y5953137D01*
X33355249Y6048681D01*
X33297794Y6134668D01*
X33224668Y6207794D01*
X33138681Y6265249D01*
X33043137Y6304824D01*
X32941708Y6325000D01*
X32838292Y6325000D01*
X32736863Y6304824D01*
X32641319Y6265249D01*
X32555332Y6207794D01*
X32482206Y6134668D01*
X32424751Y6048681D01*
X32385176Y5953137D01*
X32365000Y5851708D01*
X27635000Y5851708D01*
X27614824Y5953137D01*
X27575249Y6048681D01*
X27517794Y6134668D01*
X27444668Y6207794D01*
X27358681Y6265249D01*
X27263137Y6304824D01*
X27161708Y6325000D01*
X27058292Y6325000D01*
X26956863Y6304824D01*
X26861319Y6265249D01*
X26775332Y6207794D01*
X26702206Y6134668D01*
X26644751Y6048681D01*
X26605176Y5953137D01*
X26585000Y5851708D01*
X21750000Y5851708D01*
X21750000Y6422047D01*
X21830287Y6475693D01*
X21924307Y6569713D01*
X21998177Y6680268D01*
X22049060Y6803110D01*
X22075000Y6933518D01*
X22075000Y7066482D01*
X22049060Y7196890D01*
X21998177Y7319732D01*
X21924307Y7430287D01*
X21830287Y7524307D01*
X21719732Y7598177D01*
X21596890Y7649060D01*
X21466482Y7675000D01*
X21333518Y7675000D01*
X21203110Y7649060D01*
X21080268Y7598177D01*
X20969713Y7524307D01*
X20875693Y7430287D01*
X20801823Y7319732D01*
X20750940Y7196890D01*
X20725000Y7066482D01*
X250000Y7066482D01*
X250000Y44300004D01*
X1273429Y44300004D01*
X1275001Y44284041D01*
X1275000Y34915953D01*
X1273429Y34900000D01*
X1275000Y34884047D01*
X1275000Y34884040D01*
X1278580Y34847694D01*
X1279703Y34836289D01*
X1284726Y34819732D01*
X1298287Y34775027D01*
X1328465Y34718567D01*
X1369079Y34669079D01*
X1381483Y34658899D01*
X4475001Y31565380D01*
X4475000Y27015953D01*
X4473429Y27000000D01*
X4475000Y26984047D01*
X4475000Y26984040D01*
X4479105Y26942363D01*
X4479703Y26936289D01*
X4489313Y26904611D01*
X4498287Y26875027D01*
X4528465Y26818567D01*
X4569079Y26769079D01*
X4581483Y26758899D01*
X12075001Y19265380D01*
X12075000Y18211241D01*
X12043895Y18220677D01*
X12000000Y18225000D01*
X2000000Y18225000D01*
X1956105Y18220677D01*
X1913896Y18207873D01*
X1874997Y18187081D01*
X1840901Y18159099D01*
X1812919Y18125003D01*
X1792127Y18086104D01*
X1779323Y18043895D01*
X1775000Y18000000D01*
X1775000Y11000000D01*
X1779323Y10956105D01*
X1792127Y10913896D01*
X1812919Y10874997D01*
X1840901Y10840901D01*
X1874997Y10812919D01*
X1913896Y10792127D01*
X1956105Y10779323D01*
X2000000Y10775000D01*
X12000000Y10775000D01*
X12043895Y10779323D01*
X12086104Y10792127D01*
X12125003Y10812919D01*
X12159099Y10840901D01*
X12187081Y10874997D01*
X12207873Y10913896D01*
X12220677Y10956105D01*
X12225000Y11000000D01*
X12225000Y17815382D01*
X14349704Y15690677D01*
X14325000Y15566482D01*
X14325000Y15433518D01*
X14350940Y15303110D01*
X14401823Y15180268D01*
X14475693Y15069713D01*
X14569713Y14975693D01*
X14680268Y14901823D01*
X14798711Y14852762D01*
X21886811Y7764661D01*
X21905603Y7741763D01*
X21996965Y7666784D01*
X22101199Y7611070D01*
X22214299Y7576762D01*
X22283938Y7569903D01*
X22331920Y7565177D01*
X22361394Y7568080D01*
X27325029Y7568080D01*
X27443470Y7519020D01*
X27573878Y7493080D01*
X27706842Y7493080D01*
X27719851Y7495668D01*
X27728382Y7493080D01*
X27765322Y7481874D01*
X27858438Y7472703D01*
X27881770Y7475001D01*
X32126669Y7475001D01*
X32150001Y7472703D01*
X32173333Y7475001D01*
X32243117Y7481874D01*
X32332655Y7509035D01*
X32415174Y7553142D01*
X32487502Y7612500D01*
X32502384Y7630634D01*
X32596751Y7725000D01*
X32666482Y7725000D01*
X32796890Y7750940D01*
X32919732Y7801823D01*
X33030287Y7875693D01*
X33124307Y7969713D01*
X33198177Y8080268D01*
X33249060Y8203110D01*
X33275000Y8333518D01*
X33275000Y8466482D01*
X33249060Y8596890D01*
X33198177Y8719732D01*
X33124307Y8830287D01*
X33030287Y8924307D01*
X32919732Y8998177D01*
X32796890Y9049060D01*
X32666482Y9075000D01*
X32533518Y9075000D01*
X32403110Y9049060D01*
X32280268Y8998177D01*
X32169713Y8924307D01*
X32075693Y8830287D01*
X32001823Y8719732D01*
X31950940Y8596890D01*
X31925000Y8466482D01*
X31925000Y8425001D01*
X28264554Y8425001D01*
X28238537Y8487812D01*
X28164667Y8598367D01*
X28070647Y8692387D01*
X27960092Y8766257D01*
X27837250Y8817140D01*
X27706842Y8843080D01*
X27573878Y8843080D01*
X27443470Y8817140D01*
X27325029Y8768080D01*
X22580448Y8768080D01*
X21788599Y9559929D01*
X30488495Y9559929D01*
X30488495Y9426965D01*
X30514435Y9296557D01*
X30565318Y9173715D01*
X30639188Y9063160D01*
X30733208Y8969140D01*
X30843763Y8895270D01*
X30966605Y8844387D01*
X31097013Y8818447D01*
X31229977Y8818447D01*
X31360385Y8844387D01*
X31483227Y8895270D01*
X31593782Y8969140D01*
X31687802Y9063160D01*
X31761672Y9173715D01*
X31812555Y9296557D01*
X31826556Y9366946D01*
X32350236Y9890625D01*
X32474431Y9865921D01*
X32607395Y9865921D01*
X32737803Y9891861D01*
X32860645Y9942744D01*
X32971200Y10016614D01*
X33065220Y10110634D01*
X33139090Y10221189D01*
X33189973Y10344031D01*
X33215913Y10474439D01*
X33215913Y10607403D01*
X33189973Y10737811D01*
X33139090Y10860653D01*
X33065220Y10971208D01*
X32971200Y11065228D01*
X32860645Y11139098D01*
X32737803Y11189981D01*
X32607395Y11215921D01*
X32474431Y11215921D01*
X32344023Y11189981D01*
X32221181Y11139098D01*
X32110626Y11065228D01*
X32016606Y10971208D01*
X31942736Y10860653D01*
X31891853Y10737811D01*
X31865913Y10607403D01*
X31865913Y10474439D01*
X31890617Y10350244D01*
X31572409Y10032035D01*
X31483227Y10091624D01*
X31360385Y10142507D01*
X31229977Y10168447D01*
X31097013Y10168447D01*
X30966605Y10142507D01*
X30843763Y10091624D01*
X30733208Y10017754D01*
X30639188Y9923734D01*
X30565318Y9813179D01*
X30514435Y9690337D01*
X30488495Y9559929D01*
X21788599Y9559929D01*
X20357046Y10991482D01*
X29200000Y10991482D01*
X29200000Y10858518D01*
X29225940Y10728110D01*
X29276823Y10605268D01*
X29350693Y10494713D01*
X29444713Y10400693D01*
X29555268Y10326823D01*
X29678110Y10275940D01*
X29808518Y10250000D01*
X29941482Y10250000D01*
X30071890Y10275940D01*
X30194732Y10326823D01*
X30305287Y10400693D01*
X30399307Y10494713D01*
X30473177Y10605268D01*
X30522238Y10723710D01*
X31323528Y11525000D01*
X33276473Y11525000D01*
X35400001Y9401471D01*
X35400000Y7715331D01*
X35350940Y7596890D01*
X35325000Y7466482D01*
X35325000Y7333518D01*
X35350940Y7203110D01*
X35401823Y7080268D01*
X35475693Y6969713D01*
X35569713Y6875693D01*
X35680268Y6801823D01*
X35803110Y6750940D01*
X35933518Y6725000D01*
X36066482Y6725000D01*
X36196890Y6750940D01*
X36319732Y6801823D01*
X36430287Y6875693D01*
X36524307Y6969713D01*
X36598177Y7080268D01*
X36649060Y7203110D01*
X36675000Y7333518D01*
X36675000Y7466482D01*
X36649060Y7596890D01*
X36600000Y7715331D01*
X36600000Y9620524D01*
X36602903Y9650000D01*
X36591319Y9767621D01*
X36557010Y9880721D01*
X36501296Y9984955D01*
X36426317Y10076317D01*
X36403419Y10095109D01*
X33970113Y12528414D01*
X33951317Y12551317D01*
X33859955Y12626296D01*
X33755721Y12682010D01*
X33642621Y12716318D01*
X33554474Y12725000D01*
X33525000Y12727903D01*
X33495526Y12725000D01*
X31104473Y12725000D01*
X31074999Y12727903D01*
X30957378Y12716318D01*
X30923070Y12705911D01*
X30844279Y12682010D01*
X30740045Y12626296D01*
X30648683Y12551317D01*
X30629891Y12528419D01*
X29673710Y11572238D01*
X29555268Y11523177D01*
X29444713Y11449307D01*
X29350693Y11355287D01*
X29276823Y11244732D01*
X29225940Y11121890D01*
X29200000Y10991482D01*
X20357046Y10991482D01*
X15647238Y15701289D01*
X15598177Y15819732D01*
X15524307Y15930287D01*
X15430287Y16024307D01*
X15319732Y16098177D01*
X15196890Y16149060D01*
X15066482Y16175000D01*
X14933518Y16175000D01*
X14809323Y16150296D01*
X12725000Y18234618D01*
X12725000Y19384048D01*
X12726571Y19400001D01*
X12725000Y19415954D01*
X12725000Y19415961D01*
X12720297Y19463711D01*
X12701713Y19524974D01*
X12671535Y19581434D01*
X12630921Y19630921D01*
X12618523Y19641096D01*
X9093137Y23166482D01*
X13724999Y23166482D01*
X13724999Y23033518D01*
X13750939Y22903110D01*
X13801822Y22780268D01*
X13875692Y22669713D01*
X13969712Y22575693D01*
X14050000Y22522047D01*
X14049999Y17817189D01*
X14048306Y17800001D01*
X14049999Y17782813D01*
X14055064Y17731390D01*
X14075077Y17665415D01*
X14107577Y17604612D01*
X14151314Y17551317D01*
X14164675Y17540352D01*
X15440351Y16264675D01*
X15451315Y16251315D01*
X15504610Y16207578D01*
X15565413Y16175078D01*
X15611374Y16161136D01*
X15631387Y16155065D01*
X15699999Y16148307D01*
X15717188Y16150000D01*
X19622047Y16150000D01*
X19675693Y16069713D01*
X19769713Y15975693D01*
X19880268Y15901823D01*
X20003110Y15850940D01*
X20133518Y15825000D01*
X20266482Y15825000D01*
X20396890Y15850940D01*
X20519732Y15901823D01*
X20630287Y15975693D01*
X20724307Y16069713D01*
X20798177Y16180268D01*
X20849060Y16303110D01*
X20875000Y16433518D01*
X20875000Y16566482D01*
X20849060Y16696890D01*
X20798177Y16819732D01*
X20724307Y16930287D01*
X20630287Y17024307D01*
X20519732Y17098177D01*
X20396890Y17149060D01*
X20266482Y17175000D01*
X20133518Y17175000D01*
X20003110Y17149060D01*
X19880268Y17098177D01*
X19769713Y17024307D01*
X19675693Y16930287D01*
X19622047Y16850000D01*
X15844974Y16850000D01*
X14749999Y17944974D01*
X14749999Y18566482D01*
X14925000Y18566482D01*
X14925000Y18433518D01*
X14950940Y18303110D01*
X15001823Y18180268D01*
X15075693Y18069713D01*
X15169713Y17975693D01*
X15280268Y17901823D01*
X15403110Y17850940D01*
X15533518Y17825000D01*
X15666482Y17825000D01*
X15796890Y17850940D01*
X15919732Y17901823D01*
X16030287Y17975693D01*
X16124307Y18069713D01*
X16177953Y18150000D01*
X19722047Y18150000D01*
X19775693Y18069713D01*
X19869713Y17975693D01*
X19980268Y17901823D01*
X20103110Y17850940D01*
X20233518Y17825000D01*
X20366482Y17825000D01*
X20496890Y17850940D01*
X20619732Y17901823D01*
X20730287Y17975693D01*
X20824307Y18069713D01*
X20898177Y18180268D01*
X20949060Y18303110D01*
X20975000Y18433518D01*
X20975000Y18566482D01*
X20949060Y18696890D01*
X20898177Y18819732D01*
X20824307Y18930287D01*
X20730287Y19024307D01*
X20619732Y19098177D01*
X20496890Y19149060D01*
X20366482Y19175000D01*
X20233518Y19175000D01*
X20103110Y19149060D01*
X19980268Y19098177D01*
X19869713Y19024307D01*
X19775693Y18930287D01*
X19722047Y18850000D01*
X16177953Y18850000D01*
X16124307Y18930287D01*
X16030287Y19024307D01*
X15919732Y19098177D01*
X15796890Y19149060D01*
X15666482Y19175000D01*
X15533518Y19175000D01*
X15403110Y19149060D01*
X15280268Y19098177D01*
X15169713Y19024307D01*
X15075693Y18930287D01*
X15001823Y18819732D01*
X14950940Y18696890D01*
X14925000Y18566482D01*
X14749999Y18566482D01*
X14749999Y22522047D01*
X14830286Y22575693D01*
X14924306Y22669713D01*
X14998176Y22780268D01*
X15049059Y22903110D01*
X15074999Y23033518D01*
X15074999Y23166482D01*
X15049059Y23296890D01*
X14998176Y23419732D01*
X14924306Y23530287D01*
X14830286Y23624307D01*
X14719731Y23698177D01*
X14596889Y23749060D01*
X14466481Y23775000D01*
X14333517Y23775000D01*
X14203109Y23749060D01*
X14080267Y23698177D01*
X13969712Y23624307D01*
X13875692Y23530287D01*
X13801822Y23419732D01*
X13750939Y23296890D01*
X13724999Y23166482D01*
X9093137Y23166482D01*
X5140571Y27119048D01*
X7477566Y27119048D01*
X7477566Y26986084D01*
X7503506Y26855676D01*
X7554389Y26732834D01*
X7628259Y26622279D01*
X7722279Y26528259D01*
X7832834Y26454389D01*
X7955676Y26403506D01*
X8086084Y26377566D01*
X8219048Y26377566D01*
X8349456Y26403506D01*
X8472298Y26454389D01*
X8582853Y26528259D01*
X8676873Y26622279D01*
X8750743Y26732834D01*
X8757853Y26750000D01*
X10622047Y26750000D01*
X10675693Y26669713D01*
X10769713Y26575693D01*
X10880268Y26501823D01*
X11003110Y26450940D01*
X11133518Y26425000D01*
X11266482Y26425000D01*
X11396890Y26450940D01*
X11519732Y26501823D01*
X11630287Y26575693D01*
X11724307Y26669713D01*
X11798177Y26780268D01*
X11849060Y26903110D01*
X11875000Y27033518D01*
X11875000Y27166482D01*
X11849060Y27296890D01*
X11798177Y27419732D01*
X11724307Y27530287D01*
X11630287Y27624307D01*
X11519732Y27698177D01*
X11396890Y27749060D01*
X11266482Y27775000D01*
X11133518Y27775000D01*
X11003110Y27749060D01*
X10880268Y27698177D01*
X10769713Y27624307D01*
X10675693Y27530287D01*
X10622047Y27450000D01*
X8698825Y27450000D01*
X8676873Y27482853D01*
X8582853Y27576873D01*
X8472298Y27650743D01*
X8349456Y27701626D01*
X8219048Y27727566D01*
X8086084Y27727566D01*
X7955676Y27701626D01*
X7832834Y27650743D01*
X7722279Y27576873D01*
X7628259Y27482853D01*
X7554389Y27372298D01*
X7503506Y27249456D01*
X7477566Y27119048D01*
X5140571Y27119048D01*
X5125000Y27134618D01*
X5125000Y30966482D01*
X7925000Y30966482D01*
X7925000Y30833518D01*
X7950940Y30703110D01*
X8001823Y30580268D01*
X8075693Y30469713D01*
X8169713Y30375693D01*
X8280268Y30301823D01*
X8403110Y30250940D01*
X8533518Y30225000D01*
X8666482Y30225000D01*
X8796890Y30250940D01*
X8919732Y30301823D01*
X9030287Y30375693D01*
X9124307Y30469713D01*
X9177953Y30550000D01*
X11222047Y30550000D01*
X11275693Y30469713D01*
X11369713Y30375693D01*
X11480268Y30301823D01*
X11603110Y30250940D01*
X11733518Y30225000D01*
X11866482Y30225000D01*
X11996890Y30250940D01*
X12119732Y30301823D01*
X12230287Y30375693D01*
X12324307Y30469713D01*
X12398177Y30580268D01*
X12449060Y30703110D01*
X12475000Y30833518D01*
X12475000Y30966482D01*
X12449060Y31096890D01*
X12398177Y31219732D01*
X12324307Y31330287D01*
X12230287Y31424307D01*
X12119732Y31498177D01*
X11996890Y31549060D01*
X11866482Y31575000D01*
X11733518Y31575000D01*
X11603110Y31549060D01*
X11480268Y31498177D01*
X11369713Y31424307D01*
X11275693Y31330287D01*
X11222047Y31250000D01*
X9177953Y31250000D01*
X9124307Y31330287D01*
X9030287Y31424307D01*
X8919732Y31498177D01*
X8796890Y31549060D01*
X8666482Y31575000D01*
X8533518Y31575000D01*
X8403110Y31549060D01*
X8280268Y31498177D01*
X8169713Y31424307D01*
X8075693Y31330287D01*
X8001823Y31219732D01*
X7950940Y31096890D01*
X7925000Y30966482D01*
X5125000Y30966482D01*
X5125000Y31684048D01*
X5126571Y31700001D01*
X5125000Y31715954D01*
X5125000Y31715961D01*
X5120297Y31763711D01*
X5101713Y31824974D01*
X5071535Y31881434D01*
X5030921Y31930921D01*
X5018523Y31941096D01*
X1925000Y35034618D01*
X1925000Y36566482D01*
X4225000Y36566482D01*
X4225000Y36433518D01*
X4250940Y36303110D01*
X4301823Y36180268D01*
X4375693Y36069713D01*
X4469713Y35975693D01*
X4550001Y35922047D01*
X4550000Y35177953D01*
X4469713Y35124307D01*
X4375693Y35030287D01*
X4301823Y34919732D01*
X4250940Y34796890D01*
X4225000Y34666482D01*
X4225000Y34533518D01*
X4250940Y34403110D01*
X4301823Y34280268D01*
X4375693Y34169713D01*
X4469713Y34075693D01*
X4580268Y34001823D01*
X4703110Y33950940D01*
X4833518Y33925000D01*
X4966482Y33925000D01*
X5096890Y33950940D01*
X5219732Y34001823D01*
X5330287Y34075693D01*
X5424307Y34169713D01*
X5498177Y34280268D01*
X5549060Y34403110D01*
X5575000Y34533518D01*
X5575000Y34666482D01*
X5549060Y34796890D01*
X5520234Y34866482D01*
X12825000Y34866482D01*
X12825000Y34733518D01*
X12850940Y34603110D01*
X12900000Y34484669D01*
X12900001Y26929484D01*
X12897097Y26900000D01*
X12908682Y26782380D01*
X12939829Y26679703D01*
X12942991Y26669279D01*
X12998705Y26565045D01*
X13073684Y26473683D01*
X13096582Y26454891D01*
X15252763Y24298709D01*
X15301823Y24180268D01*
X15375693Y24069713D01*
X15469713Y23975693D01*
X15580268Y23901823D01*
X15703110Y23850940D01*
X15833518Y23825000D01*
X15966482Y23825000D01*
X16096890Y23850940D01*
X16219732Y23901823D01*
X16330287Y23975693D01*
X16424307Y24069713D01*
X16498177Y24180268D01*
X16549060Y24303110D01*
X16575000Y24433518D01*
X16575000Y24566482D01*
X16549060Y24696890D01*
X16498177Y24819732D01*
X16424307Y24930287D01*
X16330287Y25024307D01*
X16219732Y25098177D01*
X16101291Y25147237D01*
X14100000Y27148527D01*
X14100000Y34484669D01*
X14149060Y34603110D01*
X14175000Y34733518D01*
X14175000Y34866482D01*
X14149060Y34996890D01*
X14098177Y35119732D01*
X14024307Y35230287D01*
X13930287Y35324307D01*
X13819732Y35398177D01*
X13696890Y35449060D01*
X13566482Y35475000D01*
X13433518Y35475000D01*
X13303110Y35449060D01*
X13180268Y35398177D01*
X13069713Y35324307D01*
X12975693Y35230287D01*
X12901823Y35119732D01*
X12850940Y34996890D01*
X12825000Y34866482D01*
X5520234Y34866482D01*
X5498177Y34919732D01*
X5424307Y35030287D01*
X5330287Y35124307D01*
X5250000Y35177953D01*
X5250000Y35922047D01*
X5330287Y35975693D01*
X5424307Y36069713D01*
X5498177Y36180268D01*
X5549060Y36303110D01*
X5575000Y36433518D01*
X5575000Y36566482D01*
X5549060Y36696890D01*
X5498177Y36819732D01*
X5424307Y36930287D01*
X5330287Y37024307D01*
X5219732Y37098177D01*
X5096890Y37149060D01*
X4966482Y37175000D01*
X4833518Y37175000D01*
X4703110Y37149060D01*
X4580268Y37098177D01*
X4469713Y37024307D01*
X4375693Y36930287D01*
X4301823Y36819732D01*
X4250940Y36696890D01*
X4225000Y36566482D01*
X1925000Y36566482D01*
X1925000Y37266482D01*
X14425000Y37266482D01*
X14425000Y37133518D01*
X14450940Y37003110D01*
X14501823Y36880268D01*
X14575693Y36769713D01*
X14669713Y36675693D01*
X14750000Y36622047D01*
X14750001Y35077953D01*
X14669713Y35024307D01*
X14575693Y34930287D01*
X14501823Y34819732D01*
X14450940Y34696890D01*
X14425000Y34566482D01*
X14425000Y34433518D01*
X14450940Y34303110D01*
X14501823Y34180268D01*
X14575693Y34069713D01*
X14669713Y33975693D01*
X14780268Y33901823D01*
X14903110Y33850940D01*
X15033518Y33825000D01*
X15166482Y33825000D01*
X15296890Y33850940D01*
X15419732Y33901823D01*
X15530287Y33975693D01*
X15624307Y34069713D01*
X15698177Y34180268D01*
X15749060Y34303110D01*
X15775000Y34433518D01*
X15775000Y34566482D01*
X15749060Y34696890D01*
X15698177Y34819732D01*
X15624307Y34930287D01*
X15530287Y35024307D01*
X15450000Y35077953D01*
X15450000Y36622047D01*
X15530287Y36675693D01*
X15624307Y36769713D01*
X15698177Y36880268D01*
X15749060Y37003110D01*
X15775000Y37133518D01*
X15775000Y37266482D01*
X15749060Y37396890D01*
X15698177Y37519732D01*
X15624307Y37630287D01*
X15530287Y37724307D01*
X15419732Y37798177D01*
X15296890Y37849060D01*
X15166482Y37875000D01*
X15033518Y37875000D01*
X14903110Y37849060D01*
X14780268Y37798177D01*
X14669713Y37724307D01*
X14575693Y37630287D01*
X14501823Y37519732D01*
X14450940Y37396890D01*
X14425000Y37266482D01*
X1925000Y37266482D01*
X1925000Y39066482D01*
X6225000Y39066482D01*
X6225000Y38933518D01*
X6250940Y38803110D01*
X6301823Y38680268D01*
X6375693Y38569713D01*
X6469713Y38475693D01*
X6580268Y38401823D01*
X6703110Y38350940D01*
X6833518Y38325000D01*
X6966482Y38325000D01*
X7096890Y38350940D01*
X7219732Y38401823D01*
X7330287Y38475693D01*
X7424307Y38569713D01*
X7498177Y38680268D01*
X7549060Y38803110D01*
X7575000Y38933518D01*
X7575000Y39066482D01*
X7568333Y39099999D01*
X17434683Y39099999D01*
X17430260Y39098167D01*
X17319705Y39024297D01*
X17225685Y38930277D01*
X17151815Y38819722D01*
X17100932Y38696880D01*
X17074992Y38566472D01*
X17074992Y38433508D01*
X17093830Y38338802D01*
X16989677Y38234648D01*
X16976317Y38223684D01*
X16932580Y38170389D01*
X16920772Y38148297D01*
X16900080Y38109586D01*
X16880066Y38043610D01*
X16873308Y37974999D01*
X16875002Y37957801D01*
X16875001Y36669975D01*
X16118672Y35913645D01*
X16105312Y35902681D01*
X16061575Y35849386D01*
X16029075Y35788583D01*
X16009061Y35722607D01*
X16002303Y35653996D01*
X16003997Y35636798D01*
X16003996Y34019973D01*
X15539675Y33555650D01*
X15526315Y33544686D01*
X15482578Y33491391D01*
X15450078Y33430588D01*
X15430064Y33364612D01*
X15423306Y33296001D01*
X15425000Y33278803D01*
X15424999Y32565194D01*
X15423306Y32548005D01*
X15424999Y32530817D01*
X15430064Y32479394D01*
X15450077Y32413419D01*
X15482577Y32352616D01*
X15526314Y32299321D01*
X15539675Y32288356D01*
X17338357Y30489672D01*
X17349317Y30476317D01*
X17402612Y30432580D01*
X17457590Y30403194D01*
X17401823Y30319732D01*
X17350940Y30196890D01*
X17325000Y30066482D01*
X17325000Y29933518D01*
X17350940Y29803110D01*
X17401823Y29680268D01*
X17475693Y29569713D01*
X17569713Y29475693D01*
X17650001Y29422047D01*
X17650000Y22417188D01*
X17648307Y22400000D01*
X17650000Y22382812D01*
X17655065Y22331389D01*
X17675078Y22265414D01*
X17707578Y22204611D01*
X17751315Y22151316D01*
X17764676Y22140351D01*
X19243838Y20661188D01*
X19225000Y20566482D01*
X19225000Y20433518D01*
X19250940Y20303110D01*
X19301823Y20180268D01*
X19375693Y20069713D01*
X19469713Y19975693D01*
X19580268Y19901823D01*
X19703110Y19850940D01*
X19833518Y19825000D01*
X19966482Y19825000D01*
X20096890Y19850940D01*
X20219732Y19901823D01*
X20330287Y19975693D01*
X20424307Y20069713D01*
X20498177Y20180268D01*
X20549060Y20303110D01*
X20575000Y20433518D01*
X20575000Y20566482D01*
X20549060Y20696890D01*
X20498177Y20819732D01*
X20424307Y20930287D01*
X20330287Y21024307D01*
X20219732Y21098177D01*
X20096890Y21149060D01*
X19966482Y21175000D01*
X19833518Y21175000D01*
X19738812Y21156162D01*
X18350000Y22544973D01*
X18350000Y29422047D01*
X18430287Y29475693D01*
X18524307Y29569713D01*
X18598177Y29680268D01*
X18649060Y29803110D01*
X18669942Y29908088D01*
X19250001Y29328028D01*
X19250001Y29077953D01*
X19169713Y29024307D01*
X19075693Y28930287D01*
X19001823Y28819732D01*
X18950940Y28696890D01*
X18925000Y28566482D01*
X18925000Y28433518D01*
X18950940Y28303110D01*
X19001823Y28180268D01*
X19075693Y28069713D01*
X19169713Y27975693D01*
X19280268Y27901823D01*
X19403110Y27850940D01*
X19533518Y27825000D01*
X19666482Y27825000D01*
X19796890Y27850940D01*
X19919732Y27901823D01*
X20030287Y27975693D01*
X20124307Y28069713D01*
X20198177Y28180268D01*
X20249060Y28303110D01*
X20275000Y28433518D01*
X20275000Y28566482D01*
X20249060Y28696890D01*
X20198177Y28819732D01*
X20124307Y28930287D01*
X20030287Y29024307D01*
X19950000Y29077953D01*
X19950000Y29193729D01*
X21079060Y28064669D01*
X21090019Y28051315D01*
X21143314Y28007578D01*
X21204117Y27975078D01*
X21270092Y27955065D01*
X21321515Y27950000D01*
X21321517Y27950000D01*
X21338703Y27948307D01*
X21355889Y27950000D01*
X37255027Y27950000D01*
X39524990Y25680035D01*
X39524991Y23077953D01*
X39444703Y23024307D01*
X39350683Y22930287D01*
X39276813Y22819732D01*
X39225930Y22696890D01*
X39199990Y22566482D01*
X39199990Y22433518D01*
X39218828Y22338812D01*
X39164675Y22284659D01*
X39151316Y22273695D01*
X39107579Y22220400D01*
X39086128Y22180268D01*
X39075079Y22159597D01*
X39055065Y22093621D01*
X39048307Y22025010D01*
X39050001Y22007812D01*
X39050000Y6944975D01*
X36961188Y4856162D01*
X36866482Y4875000D01*
X36733518Y4875000D01*
X36603110Y4849060D01*
X36480268Y4798177D01*
X36369713Y4724307D01*
X36275693Y4630287D01*
X36222047Y4550000D01*
X23477953Y4550000D01*
X23424307Y4630287D01*
X23330287Y4724307D01*
X23219732Y4798177D01*
X23096890Y4849060D01*
X22966482Y4875000D01*
X22833518Y4875000D01*
X22703110Y4849060D01*
X22580268Y4798177D01*
X22469713Y4724307D01*
X22375693Y4630287D01*
X22301823Y4519732D01*
X22250940Y4396890D01*
X22225000Y4266482D01*
X22225000Y4133518D01*
X22250940Y4003110D01*
X22301823Y3880268D01*
X22375693Y3769713D01*
X22469713Y3675693D01*
X22580268Y3601823D01*
X22703110Y3550940D01*
X22833518Y3525000D01*
X22966482Y3525000D01*
X23096890Y3550940D01*
X23219732Y3601823D01*
X23330287Y3675693D01*
X23424307Y3769713D01*
X23477953Y3850000D01*
X36222047Y3850000D01*
X36275693Y3769713D01*
X36369713Y3675693D01*
X36480268Y3601823D01*
X36603110Y3550940D01*
X36733518Y3525000D01*
X36866482Y3525000D01*
X36996890Y3550940D01*
X37119732Y3601823D01*
X37230287Y3675693D01*
X37324307Y3769713D01*
X37398177Y3880268D01*
X37449060Y4003110D01*
X37475000Y4133518D01*
X37475000Y4179747D01*
X54175000Y4179747D01*
X54175000Y3820253D01*
X54245134Y3467667D01*
X54382706Y3135539D01*
X54582430Y2836631D01*
X54836631Y2582430D01*
X55135539Y2382706D01*
X55467667Y2245134D01*
X55820253Y2175000D01*
X56179747Y2175000D01*
X56532333Y2245134D01*
X56864461Y2382706D01*
X57163369Y2582430D01*
X57417570Y2836631D01*
X57617294Y3135539D01*
X57754866Y3467667D01*
X57825000Y3820253D01*
X57825000Y4179747D01*
X57754866Y4532333D01*
X57617294Y4864461D01*
X57417570Y5163369D01*
X57163369Y5417570D01*
X56864461Y5617294D01*
X56532333Y5754866D01*
X56179747Y5825000D01*
X55820253Y5825000D01*
X55467667Y5754866D01*
X55135539Y5617294D01*
X54836631Y5417570D01*
X54582430Y5163369D01*
X54382706Y4864461D01*
X54245134Y4532333D01*
X54175000Y4179747D01*
X37475000Y4179747D01*
X37475000Y4266482D01*
X37456162Y4361188D01*
X39635335Y6540360D01*
X39648684Y6551315D01*
X39692422Y6604610D01*
X39724922Y6665413D01*
X39744935Y6731388D01*
X39750000Y6782811D01*
X39750000Y6782813D01*
X39751693Y6799999D01*
X39750000Y6817185D01*
X39750000Y16768745D01*
X39757556Y16754609D01*
X39801293Y16701314D01*
X39814652Y16690350D01*
X39843814Y16661188D01*
X39824976Y16566482D01*
X39824976Y16433518D01*
X39850916Y16303110D01*
X39901799Y16180268D01*
X39975669Y16069713D01*
X40069689Y15975693D01*
X40180244Y15901823D01*
X40184657Y15899995D01*
X40180268Y15898177D01*
X40069713Y15824307D01*
X39975693Y15730287D01*
X39901823Y15619732D01*
X39850940Y15496890D01*
X39825000Y15366482D01*
X39825000Y15233518D01*
X39850940Y15103110D01*
X39901823Y14980268D01*
X39975693Y14869713D01*
X40069713Y14775693D01*
X40180268Y14701823D01*
X40303110Y14650940D01*
X40307836Y14650000D01*
X40303110Y14649060D01*
X40180268Y14598177D01*
X40069713Y14524307D01*
X39975693Y14430287D01*
X39901823Y14319732D01*
X39850940Y14196890D01*
X39825000Y14066482D01*
X39825000Y13933518D01*
X39850940Y13803110D01*
X39901823Y13680268D01*
X39975693Y13569713D01*
X40069713Y13475693D01*
X40180268Y13401823D01*
X40303110Y13350940D01*
X40433518Y13325000D01*
X40566482Y13325000D01*
X40696890Y13350940D01*
X40819732Y13401823D01*
X40930287Y13475693D01*
X41024307Y13569713D01*
X41098177Y13680268D01*
X41149060Y13803110D01*
X41175000Y13933518D01*
X41175000Y14066482D01*
X41156162Y14161187D01*
X41209641Y14214666D01*
X41209650Y14214677D01*
X42735330Y15740355D01*
X42748685Y15751315D01*
X42792422Y15804610D01*
X42824922Y15865413D01*
X42844935Y15931388D01*
X42850000Y15982811D01*
X42850000Y15982813D01*
X42851693Y15999999D01*
X42850000Y16017185D01*
X42850000Y21050000D01*
X51848307Y21050000D01*
X51850001Y21032802D01*
X51850000Y13017188D01*
X51848307Y13000000D01*
X51850000Y12982812D01*
X51855065Y12931389D01*
X51875078Y12865414D01*
X51907578Y12804611D01*
X51951315Y12751316D01*
X51964676Y12740351D01*
X52240351Y12464675D01*
X52251315Y12451315D01*
X52304610Y12407578D01*
X52365413Y12375078D01*
X52411374Y12361136D01*
X52431387Y12355065D01*
X52499999Y12348307D01*
X52517188Y12350000D01*
X52522051Y12350000D01*
X52575697Y12269713D01*
X52669717Y12175693D01*
X52780272Y12101823D01*
X52903114Y12050940D01*
X53033522Y12025000D01*
X53166486Y12025000D01*
X53296894Y12050940D01*
X53419736Y12101823D01*
X53530291Y12175693D01*
X53624311Y12269713D01*
X53698181Y12380268D01*
X53749064Y12503110D01*
X53775004Y12633518D01*
X53775004Y12766482D01*
X53749064Y12896890D01*
X53698181Y13019732D01*
X53624311Y13130287D01*
X53530291Y13224307D01*
X53419736Y13298177D01*
X53415333Y13300001D01*
X53419732Y13301823D01*
X53530287Y13375693D01*
X53624307Y13469713D01*
X53698177Y13580268D01*
X53749060Y13703110D01*
X53775000Y13833518D01*
X53775000Y13966482D01*
X53749060Y14096890D01*
X53698177Y14219732D01*
X53624307Y14330287D01*
X53530287Y14424307D01*
X53450000Y14477953D01*
X53450000Y19505027D01*
X54688813Y20743838D01*
X54783518Y20725000D01*
X54916482Y20725000D01*
X55046890Y20750940D01*
X55169732Y20801823D01*
X55280287Y20875693D01*
X55374307Y20969713D01*
X55448177Y21080268D01*
X55499060Y21203110D01*
X55525000Y21333518D01*
X55525000Y21466482D01*
X55499060Y21596890D01*
X55448177Y21719732D01*
X55374307Y21830287D01*
X55280287Y21924307D01*
X55169732Y21998177D01*
X55046890Y22049060D01*
X54916482Y22075000D01*
X54783518Y22075000D01*
X54653110Y22049060D01*
X54530268Y21998177D01*
X54419713Y21924307D01*
X54325693Y21830287D01*
X54251823Y21719732D01*
X54200940Y21596890D01*
X54175000Y21466482D01*
X54175000Y21333518D01*
X54193838Y21238813D01*
X52864676Y19909649D01*
X52851316Y19898685D01*
X52807579Y19845390D01*
X52775079Y19784587D01*
X52755065Y19718611D01*
X52748307Y19650000D01*
X52750001Y19632802D01*
X52750000Y14477953D01*
X52669713Y14424307D01*
X52575693Y14330287D01*
X52550000Y14291834D01*
X52550000Y20905027D01*
X53388813Y21743838D01*
X53483518Y21725000D01*
X53616482Y21725000D01*
X53746890Y21750940D01*
X53869732Y21801823D01*
X53980287Y21875693D01*
X54074307Y21969713D01*
X54148177Y22080268D01*
X54199060Y22203110D01*
X54225000Y22333518D01*
X54225000Y22466482D01*
X54199060Y22596890D01*
X54148177Y22719732D01*
X54074307Y22830287D01*
X53980287Y22924307D01*
X53869732Y22998177D01*
X53746890Y23049060D01*
X53616482Y23075000D01*
X53483518Y23075000D01*
X53353110Y23049060D01*
X53230268Y22998177D01*
X53119713Y22924307D01*
X53025693Y22830287D01*
X52951823Y22719732D01*
X52900940Y22596890D01*
X52875000Y22466482D01*
X52875000Y22333518D01*
X52893838Y22238813D01*
X51964676Y21309649D01*
X51951316Y21298685D01*
X51907579Y21245390D01*
X51885782Y21204610D01*
X51875079Y21184587D01*
X51855065Y21118611D01*
X51848307Y21050000D01*
X42850000Y21050000D01*
X42850000Y26819211D01*
X42851693Y26836397D01*
X42847888Y26875027D01*
X42844935Y26905008D01*
X42824922Y26970983D01*
X42792422Y27031786D01*
X42748684Y27085081D01*
X42735335Y27096036D01*
X41096049Y28735320D01*
X41085081Y28748685D01*
X41031786Y28792422D01*
X40970983Y28824922D01*
X40905008Y28844935D01*
X40853585Y28850000D01*
X40853584Y28850000D01*
X40836396Y28851693D01*
X40819208Y28850000D01*
X40777953Y28850000D01*
X40724307Y28930287D01*
X40630287Y29024307D01*
X40519732Y29098177D01*
X40396890Y29149060D01*
X40266482Y29175000D01*
X40133518Y29175000D01*
X40003110Y29149060D01*
X39880268Y29098177D01*
X39769713Y29024307D01*
X39724999Y28979593D01*
X39724999Y33409024D01*
X39760320Y33444345D01*
X39773686Y33455314D01*
X39817423Y33508609D01*
X39841683Y33553997D01*
X39849923Y33569411D01*
X39869936Y33635387D01*
X39871148Y33647694D01*
X39875001Y33686810D01*
X39876694Y33703999D01*
X39875001Y33721188D01*
X39875001Y34478812D01*
X39876694Y34496001D01*
X39869936Y34564613D01*
X39849923Y34630589D01*
X39841527Y34646296D01*
X39817423Y34691391D01*
X39773685Y34744686D01*
X39760325Y34755650D01*
X39724999Y34790976D01*
X39724999Y37107816D01*
X39726692Y37125002D01*
X39724999Y37142190D01*
X39719934Y37193613D01*
X39699921Y37259588D01*
X39667421Y37320391D01*
X39623683Y37373686D01*
X39610334Y37384641D01*
X38226411Y38768563D01*
X38341379Y38768563D01*
X38471787Y38794503D01*
X38594629Y38845386D01*
X38705184Y38919256D01*
X38799204Y39013276D01*
X38873074Y39123831D01*
X38923957Y39246673D01*
X38949897Y39377081D01*
X38949897Y39494592D01*
X51379818Y27064669D01*
X51390777Y27051315D01*
X51444072Y27007578D01*
X51504875Y26975078D01*
X51570850Y26955065D01*
X51622273Y26950000D01*
X51622275Y26950000D01*
X51639461Y26948307D01*
X51656647Y26950000D01*
X54172047Y26950000D01*
X54225693Y26869713D01*
X54319713Y26775693D01*
X54430268Y26701823D01*
X54553110Y26650940D01*
X54683518Y26625000D01*
X54816482Y26625000D01*
X54946890Y26650940D01*
X55069732Y26701823D01*
X55180287Y26775693D01*
X55274307Y26869713D01*
X55348177Y26980268D01*
X55399060Y27103110D01*
X55425000Y27233518D01*
X55425000Y27366482D01*
X55399060Y27496890D01*
X55348177Y27619732D01*
X55274307Y27730287D01*
X55180287Y27824307D01*
X55069732Y27898177D01*
X54946890Y27949060D01*
X54816482Y27975000D01*
X54683518Y27975000D01*
X54553110Y27949060D01*
X54430268Y27898177D01*
X54319713Y27824307D01*
X54225693Y27730287D01*
X54172047Y27650000D01*
X51784437Y27650000D01*
X38784435Y40650000D01*
X40555013Y40650000D01*
X48914668Y32290344D01*
X48914673Y32290340D01*
X48943838Y32261174D01*
X48925000Y32166468D01*
X48925000Y32033504D01*
X48950940Y31903096D01*
X49001823Y31780254D01*
X49075693Y31669699D01*
X49169713Y31575679D01*
X49280268Y31501809D01*
X49403110Y31450926D01*
X49533518Y31424986D01*
X49666482Y31424986D01*
X49796890Y31450926D01*
X49919732Y31501809D01*
X50030287Y31575679D01*
X50124307Y31669699D01*
X50198177Y31780254D01*
X50249060Y31903096D01*
X50275000Y32033504D01*
X50275000Y32166468D01*
X50249060Y32296876D01*
X50198177Y32419718D01*
X50124307Y32530273D01*
X50030287Y32624293D01*
X49919732Y32698163D01*
X49796890Y32749046D01*
X49666482Y32774986D01*
X49533518Y32774986D01*
X49438812Y32756148D01*
X49409646Y32785313D01*
X49409642Y32785318D01*
X40959640Y41235319D01*
X40948671Y41248685D01*
X40895376Y41292422D01*
X40834573Y41324922D01*
X40768598Y41344935D01*
X40717175Y41350000D01*
X40717174Y41350000D01*
X40699986Y41351693D01*
X40682798Y41350000D01*
X28017188Y41350000D01*
X27999999Y41351693D01*
X27931387Y41344935D01*
X27911374Y41338864D01*
X27865413Y41324922D01*
X27804610Y41292422D01*
X27751315Y41248685D01*
X27740355Y41235330D01*
X25855027Y39350000D01*
X18467959Y39350000D01*
X18132638Y39685319D01*
X18121670Y39698684D01*
X18068375Y39742421D01*
X18007572Y39774921D01*
X17941597Y39794934D01*
X17890174Y39799999D01*
X17890173Y39799999D01*
X17872985Y39801692D01*
X17855797Y39799999D01*
X7367188Y39799999D01*
X7349999Y39801692D01*
X7332810Y39799999D01*
X7281387Y39794934D01*
X7215412Y39774921D01*
X7154609Y39742421D01*
X7101314Y39698684D01*
X7090354Y39685329D01*
X7061187Y39656162D01*
X6966482Y39675000D01*
X6833518Y39675000D01*
X6703110Y39649060D01*
X6580268Y39598177D01*
X6469713Y39524307D01*
X6375693Y39430287D01*
X6301823Y39319732D01*
X6250940Y39196890D01*
X6225000Y39066482D01*
X1925000Y39066482D01*
X1925000Y44026694D01*
X1933514Y44025000D01*
X2066478Y44025000D01*
X2196886Y44050940D01*
X2319728Y44101823D01*
X2430283Y44175693D01*
X2524303Y44269713D01*
X2598173Y44380268D01*
X2649056Y44503110D01*
X2674996Y44633518D01*
X2674996Y44766482D01*
X2649056Y44896890D01*
X2620230Y44966482D01*
X8825000Y44966482D01*
X8825000Y44833518D01*
X8850940Y44703110D01*
X8901823Y44580268D01*
X8975693Y44469713D01*
X9069713Y44375693D01*
X9180268Y44301823D01*
X9303110Y44250940D01*
X9433518Y44225000D01*
X9566482Y44225000D01*
X9696890Y44250940D01*
X9819732Y44301823D01*
X9930287Y44375693D01*
X10024307Y44469713D01*
X10077953Y44550000D01*
X10622047Y44550000D01*
X10675693Y44469713D01*
X10769713Y44375693D01*
X10880268Y44301823D01*
X11003110Y44250940D01*
X11133518Y44225000D01*
X11266482Y44225000D01*
X11396890Y44250940D01*
X11519732Y44301823D01*
X11630287Y44375693D01*
X11724307Y44469713D01*
X11798177Y44580268D01*
X11849060Y44703110D01*
X11875000Y44833518D01*
X11875000Y44966482D01*
X11849060Y45096890D01*
X11798177Y45219732D01*
X11724307Y45330287D01*
X11630287Y45424307D01*
X11519732Y45498177D01*
X11396890Y45549060D01*
X11266482Y45575000D01*
X11133518Y45575000D01*
X11003110Y45549060D01*
X10880268Y45498177D01*
X10769713Y45424307D01*
X10675693Y45330287D01*
X10622047Y45250000D01*
X10077953Y45250000D01*
X10024307Y45330287D01*
X9930287Y45424307D01*
X9819732Y45498177D01*
X9696890Y45549060D01*
X9566482Y45575000D01*
X9433518Y45575000D01*
X9303110Y45549060D01*
X9180268Y45498177D01*
X9069713Y45424307D01*
X8975693Y45330287D01*
X8901823Y45219732D01*
X8850940Y45096890D01*
X8825000Y44966482D01*
X2620230Y44966482D01*
X2598173Y45019732D01*
X2524303Y45130287D01*
X2430283Y45224307D01*
X2319728Y45298177D01*
X2196886Y45349060D01*
X2066478Y45375000D01*
X1933514Y45375000D01*
X1803106Y45349060D01*
X1680264Y45298177D01*
X1569709Y45224307D01*
X1475689Y45130287D01*
X1401819Y45019732D01*
X1350936Y44896890D01*
X1324996Y44766482D01*
X1324996Y44633518D01*
X1350022Y44507704D01*
X1328466Y44481438D01*
X1322199Y44469713D01*
X1298287Y44424977D01*
X1279703Y44363715D01*
X1273429Y44300004D01*
X250000Y44300004D01*
X250000Y48841483D01*
X10549999Y48841483D01*
X10549999Y48708519D01*
X10575939Y48578111D01*
X10626822Y48455269D01*
X10700692Y48344714D01*
X10794712Y48250694D01*
X10905267Y48176824D01*
X11028109Y48125941D01*
X11158517Y48100001D01*
X11291481Y48100001D01*
X11421889Y48125941D01*
X11544731Y48176824D01*
X11655286Y48250694D01*
X11749306Y48344714D01*
X11823176Y48455269D01*
X11874059Y48578111D01*
X11899999Y48708519D01*
X11899999Y48841483D01*
X11874059Y48971891D01*
X11823176Y49094733D01*
X11749306Y49205288D01*
X11655286Y49299308D01*
X11574999Y49352954D01*
X11574999Y50280026D01*
X13744975Y52450000D01*
X42155027Y52450000D01*
X48765356Y45839669D01*
X48776315Y45826315D01*
X48829610Y45782578D01*
X48890413Y45750078D01*
X48936374Y45736136D01*
X48956387Y45730065D01*
X49024999Y45723307D01*
X49042188Y45725000D01*
X58297047Y45725000D01*
X58350693Y45644713D01*
X58444713Y45550693D01*
X58555268Y45476823D01*
X58678110Y45425940D01*
X58808518Y45400000D01*
X58941482Y45400000D01*
X59071890Y45425940D01*
X59194732Y45476823D01*
X59305287Y45550693D01*
X59399307Y45644713D01*
X59473177Y45755268D01*
X59524060Y45878110D01*
X59550000Y46008518D01*
X59550000Y46141482D01*
X59524060Y46271890D01*
X59473177Y46394732D01*
X59399307Y46505287D01*
X59305287Y46599307D01*
X59194732Y46673177D01*
X59071890Y46724060D01*
X58941482Y46750000D01*
X58808518Y46750000D01*
X58678110Y46724060D01*
X58555268Y46673177D01*
X58444713Y46599307D01*
X58350693Y46505287D01*
X58297047Y46425000D01*
X49169975Y46425000D01*
X43415227Y52179747D01*
X47175000Y52179747D01*
X47175000Y51820253D01*
X47245134Y51467667D01*
X47382706Y51135539D01*
X47582430Y50836631D01*
X47836631Y50582430D01*
X48135539Y50382706D01*
X48467667Y50245134D01*
X48820253Y50175000D01*
X49179747Y50175000D01*
X49532333Y50245134D01*
X49864461Y50382706D01*
X50163369Y50582430D01*
X50417570Y50836631D01*
X50617294Y51135539D01*
X50754866Y51467667D01*
X50825000Y51820253D01*
X50825000Y52179747D01*
X50754866Y52532333D01*
X50617294Y52864461D01*
X50417570Y53163369D01*
X50163369Y53417570D01*
X49864461Y53617294D01*
X49532333Y53754866D01*
X49179747Y53825000D01*
X48820253Y53825000D01*
X48467667Y53754866D01*
X48135539Y53617294D01*
X47836631Y53417570D01*
X47582430Y53163369D01*
X47382706Y52864461D01*
X47245134Y52532333D01*
X47175000Y52179747D01*
X43415227Y52179747D01*
X42559654Y53035319D01*
X42548685Y53048685D01*
X42495390Y53092422D01*
X42434587Y53124922D01*
X42368612Y53144935D01*
X42317189Y53150000D01*
X42317188Y53150000D01*
X42300000Y53151693D01*
X42282812Y53150000D01*
X13617189Y53150000D01*
X13600000Y53151693D01*
X13582811Y53150000D01*
X13531388Y53144935D01*
X13465413Y53124922D01*
X13404610Y53092422D01*
X13351315Y53048685D01*
X13340355Y53035330D01*
X10989675Y50684648D01*
X10976315Y50673684D01*
X10932578Y50620389D01*
X10900078Y50559586D01*
X10880064Y50493610D01*
X10873306Y50424999D01*
X10875000Y50407801D01*
X10874999Y49352954D01*
X10794712Y49299308D01*
X10700692Y49205288D01*
X10626822Y49094733D01*
X10575939Y48971891D01*
X10549999Y48841483D01*
X250000Y48841483D01*
X250000Y51987771D01*
X268823Y52179747D01*
X2175000Y52179747D01*
X2175000Y51820253D01*
X2245134Y51467667D01*
X2382706Y51135539D01*
X2582430Y50836631D01*
X2836631Y50582430D01*
X3135539Y50382706D01*
X3467667Y50245134D01*
X3820253Y50175000D01*
X4179747Y50175000D01*
X4532333Y50245134D01*
X4864461Y50382706D01*
X5163369Y50582430D01*
X5417570Y50836631D01*
X5617294Y51135539D01*
X5754866Y51467667D01*
X5825000Y51820253D01*
X5825000Y52179747D01*
X5754866Y52532333D01*
X5617294Y52864461D01*
X5417570Y53163369D01*
X5163369Y53417570D01*
X4864461Y53617294D01*
X4532333Y53754866D01*
X4179747Y53825000D01*
X3820253Y53825000D01*
X3467667Y53754866D01*
X3135539Y53617294D01*
X2836631Y53417570D01*
X2582430Y53163369D01*
X2382706Y52864461D01*
X2245134Y52532333D01*
X2175000Y52179747D01*
X268823Y52179747D01*
X322594Y52728145D01*
X534061Y53428557D01*
X877545Y54074557D01*
X1270716Y54556633D01*
X21375000Y54556633D01*
X21375000Y54443367D01*
X21397097Y54332279D01*
X21440442Y54227635D01*
X21503368Y54133459D01*
X21583459Y54053368D01*
X21677635Y53990442D01*
X21782279Y53947097D01*
X21893367Y53925000D01*
X22006633Y53925000D01*
X22117721Y53947097D01*
X22222365Y53990442D01*
X22316541Y54053368D01*
X22396632Y54133459D01*
X22459558Y54227635D01*
X22502903Y54332279D01*
X22525000Y54443367D01*
X22525000Y54556633D01*
X37375000Y54556633D01*
X37375000Y54443367D01*
X37397097Y54332279D01*
X37440442Y54227635D01*
X37503368Y54133459D01*
X37583459Y54053368D01*
X37677635Y53990442D01*
X37782279Y53947097D01*
X37893367Y53925000D01*
X38006633Y53925000D01*
X38117721Y53947097D01*
X38222365Y53990442D01*
X38316541Y54053368D01*
X38396632Y54133459D01*
X38459558Y54227635D01*
X38502903Y54332279D01*
X38525000Y54443367D01*
X38525000Y54556633D01*
X38502903Y54667721D01*
X38459558Y54772365D01*
X38396632Y54866541D01*
X38316541Y54946632D01*
X38222365Y55009558D01*
X38117721Y55052903D01*
X38006633Y55075000D01*
X37893367Y55075000D01*
X37782279Y55052903D01*
X37677635Y55009558D01*
X37583459Y54946632D01*
X37503368Y54866541D01*
X37440442Y54772365D01*
X37397097Y54667721D01*
X37375000Y54556633D01*
X22525000Y54556633D01*
X22502903Y54667721D01*
X22459558Y54772365D01*
X22396632Y54866541D01*
X22316541Y54946632D01*
X22222365Y55009558D01*
X22117721Y55052903D01*
X22006633Y55075000D01*
X21893367Y55075000D01*
X21782279Y55052903D01*
X21677635Y55009558D01*
X21583459Y54946632D01*
X21503368Y54866541D01*
X21440442Y54772365D01*
X21397097Y54667721D01*
X21375000Y54556633D01*
X1270716Y54556633D01*
X1339962Y54641536D01*
X1903696Y55107897D01*
X2547279Y55455881D01*
X3246203Y55672234D01*
X3985611Y55749949D01*
X4000292Y55750000D01*
X55987771Y55750000D01*
X56728145Y55677406D01*
%TA.AperFunction,Conductor*%
D18*
G36*
X56728145Y55677406D02*
G01*
X57428557Y55465939D01*
X58074557Y55122455D01*
X58641536Y54660038D01*
X59107897Y54096304D01*
X59455881Y53452721D01*
X59672234Y52753797D01*
X59749949Y52014389D01*
X59750001Y51999420D01*
X59750000Y4012229D01*
X59677406Y3271854D01*
X59465939Y2571443D01*
X59122455Y1925443D01*
X58660042Y1358469D01*
X58096304Y892103D01*
X57452717Y544117D01*
X56753802Y327768D01*
X56014390Y250051D01*
X55999708Y250000D01*
X4012229Y250000D01*
X3271854Y322594D01*
X2571443Y534061D01*
X1925443Y877545D01*
X1358469Y1339958D01*
X892103Y1903696D01*
X544117Y2547283D01*
X327768Y3246198D01*
X250051Y3985610D01*
X250000Y4000292D01*
X250000Y4179747D01*
X2175000Y4179747D01*
X2175000Y3820253D01*
X2245134Y3467667D01*
X2382706Y3135539D01*
X2582430Y2836631D01*
X2836631Y2582430D01*
X3135539Y2382706D01*
X3467667Y2245134D01*
X3820253Y2175000D01*
X4179747Y2175000D01*
X4532333Y2245134D01*
X4864461Y2382706D01*
X5163369Y2582430D01*
X5417570Y2836631D01*
X5617294Y3135539D01*
X5754866Y3467667D01*
X5825000Y3820253D01*
X5825000Y4179747D01*
X5754866Y4532333D01*
X5617294Y4864461D01*
X5417570Y5163369D01*
X5163369Y5417570D01*
X4864461Y5617294D01*
X4532333Y5754866D01*
X4179747Y5825000D01*
X3820253Y5825000D01*
X3467667Y5754866D01*
X3135539Y5617294D01*
X2836631Y5417570D01*
X2582430Y5163369D01*
X2382706Y4864461D01*
X2245134Y4532333D01*
X2175000Y4179747D01*
X250000Y4179747D01*
X250000Y7066482D01*
X20725000Y7066482D01*
X20725000Y6933518D01*
X20750940Y6803110D01*
X20801823Y6680268D01*
X20875693Y6569713D01*
X20969713Y6475693D01*
X21050000Y6422047D01*
X21050001Y2517198D01*
X21048307Y2500000D01*
X21055065Y2431389D01*
X21064549Y2400125D01*
X21075079Y2365413D01*
X21107579Y2304610D01*
X21151316Y2251315D01*
X21164676Y2240351D01*
X22755361Y649665D01*
X22766325Y636305D01*
X22819620Y592568D01*
X22880423Y560068D01*
X22915562Y549409D01*
X22946397Y540055D01*
X23015009Y533297D01*
X23032198Y534990D01*
X35867802Y534990D01*
X35884990Y533297D01*
X35902178Y534990D01*
X35902179Y534990D01*
X35953602Y540055D01*
X36019577Y560068D01*
X36080380Y592568D01*
X36133675Y636305D01*
X36144643Y649670D01*
X36538812Y1043838D01*
X36633518Y1025000D01*
X36766482Y1025000D01*
X36896890Y1050940D01*
X37019732Y1101823D01*
X37130287Y1175693D01*
X37224307Y1269713D01*
X37298177Y1380268D01*
X37349060Y1503110D01*
X37375000Y1633518D01*
X37375000Y1766482D01*
X37349060Y1896890D01*
X37298177Y2019732D01*
X37224307Y2130287D01*
X37130287Y2224307D01*
X37019732Y2298177D01*
X36896890Y2349060D01*
X36766482Y2375000D01*
X36633518Y2375000D01*
X36503110Y2349060D01*
X36380268Y2298177D01*
X36269713Y2224307D01*
X36175693Y2130287D01*
X36101823Y2019732D01*
X36050940Y1896890D01*
X36025000Y1766482D01*
X36025000Y1633518D01*
X36043838Y1538812D01*
X35740017Y1234990D01*
X23159984Y1234990D01*
X21750000Y2644973D01*
X21750000Y5851708D01*
X26585000Y5851708D01*
X26585000Y5748292D01*
X26605176Y5646863D01*
X26644751Y5551319D01*
X26702206Y5465332D01*
X26775332Y5392206D01*
X26861319Y5334751D01*
X26956863Y5295176D01*
X27058292Y5275000D01*
X27161708Y5275000D01*
X27263137Y5295176D01*
X27358681Y5334751D01*
X27444668Y5392206D01*
X27517794Y5465332D01*
X27575249Y5551319D01*
X27614824Y5646863D01*
X27635000Y5748292D01*
X27635000Y5851708D01*
X32365000Y5851708D01*
X32365000Y5748292D01*
X32385176Y5646863D01*
X32424751Y5551319D01*
X32482206Y5465332D01*
X32555332Y5392206D01*
X32641319Y5334751D01*
X32736863Y5295176D01*
X32838292Y5275000D01*
X32941708Y5275000D01*
X33043137Y5295176D01*
X33138681Y5334751D01*
X33224668Y5392206D01*
X33297794Y5465332D01*
X33355249Y5551319D01*
X33394824Y5646863D01*
X33415000Y5748292D01*
X33415000Y5851708D01*
X33394824Y5953137D01*
X33355249Y6048681D01*
X33297794Y6134668D01*
X33224668Y6207794D01*
X33138681Y6265249D01*
X33043137Y6304824D01*
X32941708Y6325000D01*
X32838292Y6325000D01*
X32736863Y6304824D01*
X32641319Y6265249D01*
X32555332Y6207794D01*
X32482206Y6134668D01*
X32424751Y6048681D01*
X32385176Y5953137D01*
X32365000Y5851708D01*
X27635000Y5851708D01*
X27614824Y5953137D01*
X27575249Y6048681D01*
X27517794Y6134668D01*
X27444668Y6207794D01*
X27358681Y6265249D01*
X27263137Y6304824D01*
X27161708Y6325000D01*
X27058292Y6325000D01*
X26956863Y6304824D01*
X26861319Y6265249D01*
X26775332Y6207794D01*
X26702206Y6134668D01*
X26644751Y6048681D01*
X26605176Y5953137D01*
X26585000Y5851708D01*
X21750000Y5851708D01*
X21750000Y6422047D01*
X21830287Y6475693D01*
X21924307Y6569713D01*
X21998177Y6680268D01*
X22049060Y6803110D01*
X22075000Y6933518D01*
X22075000Y7066482D01*
X22049060Y7196890D01*
X21998177Y7319732D01*
X21924307Y7430287D01*
X21830287Y7524307D01*
X21719732Y7598177D01*
X21596890Y7649060D01*
X21466482Y7675000D01*
X21333518Y7675000D01*
X21203110Y7649060D01*
X21080268Y7598177D01*
X20969713Y7524307D01*
X20875693Y7430287D01*
X20801823Y7319732D01*
X20750940Y7196890D01*
X20725000Y7066482D01*
X250000Y7066482D01*
X250000Y44300004D01*
X1273429Y44300004D01*
X1275001Y44284041D01*
X1275000Y34915953D01*
X1273429Y34900000D01*
X1275000Y34884047D01*
X1275000Y34884040D01*
X1278580Y34847694D01*
X1279703Y34836289D01*
X1284726Y34819732D01*
X1298287Y34775027D01*
X1328465Y34718567D01*
X1369079Y34669079D01*
X1381483Y34658899D01*
X4475001Y31565380D01*
X4475000Y27015953D01*
X4473429Y27000000D01*
X4475000Y26984047D01*
X4475000Y26984040D01*
X4479105Y26942363D01*
X4479703Y26936289D01*
X4489313Y26904611D01*
X4498287Y26875027D01*
X4528465Y26818567D01*
X4569079Y26769079D01*
X4581483Y26758899D01*
X12075001Y19265380D01*
X12075000Y18211241D01*
X12043895Y18220677D01*
X12000000Y18225000D01*
X2000000Y18225000D01*
X1956105Y18220677D01*
X1913896Y18207873D01*
X1874997Y18187081D01*
X1840901Y18159099D01*
X1812919Y18125003D01*
X1792127Y18086104D01*
X1779323Y18043895D01*
X1775000Y18000000D01*
X1775000Y11000000D01*
X1779323Y10956105D01*
X1792127Y10913896D01*
X1812919Y10874997D01*
X1840901Y10840901D01*
X1874997Y10812919D01*
X1913896Y10792127D01*
X1956105Y10779323D01*
X2000000Y10775000D01*
X12000000Y10775000D01*
X12043895Y10779323D01*
X12086104Y10792127D01*
X12125003Y10812919D01*
X12159099Y10840901D01*
X12187081Y10874997D01*
X12207873Y10913896D01*
X12220677Y10956105D01*
X12225000Y11000000D01*
X12225000Y17815382D01*
X14349704Y15690677D01*
X14325000Y15566482D01*
X14325000Y15433518D01*
X14350940Y15303110D01*
X14401823Y15180268D01*
X14475693Y15069713D01*
X14569713Y14975693D01*
X14680268Y14901823D01*
X14798711Y14852762D01*
X21886811Y7764661D01*
X21905603Y7741763D01*
X21996965Y7666784D01*
X22101199Y7611070D01*
X22214299Y7576762D01*
X22283938Y7569903D01*
X22331920Y7565177D01*
X22361394Y7568080D01*
X27325029Y7568080D01*
X27443470Y7519020D01*
X27573878Y7493080D01*
X27706842Y7493080D01*
X27719851Y7495668D01*
X27728382Y7493080D01*
X27765322Y7481874D01*
X27858438Y7472703D01*
X27881770Y7475001D01*
X32126669Y7475001D01*
X32150001Y7472703D01*
X32173333Y7475001D01*
X32243117Y7481874D01*
X32332655Y7509035D01*
X32415174Y7553142D01*
X32487502Y7612500D01*
X32502384Y7630634D01*
X32596751Y7725000D01*
X32666482Y7725000D01*
X32796890Y7750940D01*
X32919732Y7801823D01*
X33030287Y7875693D01*
X33124307Y7969713D01*
X33198177Y8080268D01*
X33249060Y8203110D01*
X33275000Y8333518D01*
X33275000Y8466482D01*
X33249060Y8596890D01*
X33198177Y8719732D01*
X33124307Y8830287D01*
X33030287Y8924307D01*
X32919732Y8998177D01*
X32796890Y9049060D01*
X32666482Y9075000D01*
X32533518Y9075000D01*
X32403110Y9049060D01*
X32280268Y8998177D01*
X32169713Y8924307D01*
X32075693Y8830287D01*
X32001823Y8719732D01*
X31950940Y8596890D01*
X31925000Y8466482D01*
X31925000Y8425001D01*
X28264554Y8425001D01*
X28238537Y8487812D01*
X28164667Y8598367D01*
X28070647Y8692387D01*
X27960092Y8766257D01*
X27837250Y8817140D01*
X27706842Y8843080D01*
X27573878Y8843080D01*
X27443470Y8817140D01*
X27325029Y8768080D01*
X22580448Y8768080D01*
X21788599Y9559929D01*
X30488495Y9559929D01*
X30488495Y9426965D01*
X30514435Y9296557D01*
X30565318Y9173715D01*
X30639188Y9063160D01*
X30733208Y8969140D01*
X30843763Y8895270D01*
X30966605Y8844387D01*
X31097013Y8818447D01*
X31229977Y8818447D01*
X31360385Y8844387D01*
X31483227Y8895270D01*
X31593782Y8969140D01*
X31687802Y9063160D01*
X31761672Y9173715D01*
X31812555Y9296557D01*
X31826556Y9366946D01*
X32350236Y9890625D01*
X32474431Y9865921D01*
X32607395Y9865921D01*
X32737803Y9891861D01*
X32860645Y9942744D01*
X32971200Y10016614D01*
X33065220Y10110634D01*
X33139090Y10221189D01*
X33189973Y10344031D01*
X33215913Y10474439D01*
X33215913Y10607403D01*
X33189973Y10737811D01*
X33139090Y10860653D01*
X33065220Y10971208D01*
X32971200Y11065228D01*
X32860645Y11139098D01*
X32737803Y11189981D01*
X32607395Y11215921D01*
X32474431Y11215921D01*
X32344023Y11189981D01*
X32221181Y11139098D01*
X32110626Y11065228D01*
X32016606Y10971208D01*
X31942736Y10860653D01*
X31891853Y10737811D01*
X31865913Y10607403D01*
X31865913Y10474439D01*
X31890617Y10350244D01*
X31572409Y10032035D01*
X31483227Y10091624D01*
X31360385Y10142507D01*
X31229977Y10168447D01*
X31097013Y10168447D01*
X30966605Y10142507D01*
X30843763Y10091624D01*
X30733208Y10017754D01*
X30639188Y9923734D01*
X30565318Y9813179D01*
X30514435Y9690337D01*
X30488495Y9559929D01*
X21788599Y9559929D01*
X20357046Y10991482D01*
X29200000Y10991482D01*
X29200000Y10858518D01*
X29225940Y10728110D01*
X29276823Y10605268D01*
X29350693Y10494713D01*
X29444713Y10400693D01*
X29555268Y10326823D01*
X29678110Y10275940D01*
X29808518Y10250000D01*
X29941482Y10250000D01*
X30071890Y10275940D01*
X30194732Y10326823D01*
X30305287Y10400693D01*
X30399307Y10494713D01*
X30473177Y10605268D01*
X30522238Y10723710D01*
X31323528Y11525000D01*
X33276473Y11525000D01*
X35400001Y9401471D01*
X35400000Y7715331D01*
X35350940Y7596890D01*
X35325000Y7466482D01*
X35325000Y7333518D01*
X35350940Y7203110D01*
X35401823Y7080268D01*
X35475693Y6969713D01*
X35569713Y6875693D01*
X35680268Y6801823D01*
X35803110Y6750940D01*
X35933518Y6725000D01*
X36066482Y6725000D01*
X36196890Y6750940D01*
X36319732Y6801823D01*
X36430287Y6875693D01*
X36524307Y6969713D01*
X36598177Y7080268D01*
X36649060Y7203110D01*
X36675000Y7333518D01*
X36675000Y7466482D01*
X36649060Y7596890D01*
X36600000Y7715331D01*
X36600000Y9620524D01*
X36602903Y9650000D01*
X36591319Y9767621D01*
X36557010Y9880721D01*
X36501296Y9984955D01*
X36426317Y10076317D01*
X36403419Y10095109D01*
X33970113Y12528414D01*
X33951317Y12551317D01*
X33859955Y12626296D01*
X33755721Y12682010D01*
X33642621Y12716318D01*
X33554474Y12725000D01*
X33525000Y12727903D01*
X33495526Y12725000D01*
X31104473Y12725000D01*
X31074999Y12727903D01*
X30957378Y12716318D01*
X30923070Y12705911D01*
X30844279Y12682010D01*
X30740045Y12626296D01*
X30648683Y12551317D01*
X30629891Y12528419D01*
X29673710Y11572238D01*
X29555268Y11523177D01*
X29444713Y11449307D01*
X29350693Y11355287D01*
X29276823Y11244732D01*
X29225940Y11121890D01*
X29200000Y10991482D01*
X20357046Y10991482D01*
X15647238Y15701289D01*
X15598177Y15819732D01*
X15524307Y15930287D01*
X15430287Y16024307D01*
X15319732Y16098177D01*
X15196890Y16149060D01*
X15066482Y16175000D01*
X14933518Y16175000D01*
X14809323Y16150296D01*
X12725000Y18234618D01*
X12725000Y19384048D01*
X12726571Y19400001D01*
X12725000Y19415954D01*
X12725000Y19415961D01*
X12720297Y19463711D01*
X12701713Y19524974D01*
X12671535Y19581434D01*
X12630921Y19630921D01*
X12618523Y19641096D01*
X9093137Y23166482D01*
X13724999Y23166482D01*
X13724999Y23033518D01*
X13750939Y22903110D01*
X13801822Y22780268D01*
X13875692Y22669713D01*
X13969712Y22575693D01*
X14050000Y22522047D01*
X14049999Y17817189D01*
X14048306Y17800001D01*
X14049999Y17782813D01*
X14055064Y17731390D01*
X14075077Y17665415D01*
X14107577Y17604612D01*
X14151314Y17551317D01*
X14164675Y17540352D01*
X15440351Y16264675D01*
X15451315Y16251315D01*
X15504610Y16207578D01*
X15565413Y16175078D01*
X15611374Y16161136D01*
X15631387Y16155065D01*
X15699999Y16148307D01*
X15717188Y16150000D01*
X19622047Y16150000D01*
X19675693Y16069713D01*
X19769713Y15975693D01*
X19880268Y15901823D01*
X20003110Y15850940D01*
X20133518Y15825000D01*
X20266482Y15825000D01*
X20396890Y15850940D01*
X20519732Y15901823D01*
X20630287Y15975693D01*
X20724307Y16069713D01*
X20798177Y16180268D01*
X20849060Y16303110D01*
X20875000Y16433518D01*
X20875000Y16566482D01*
X20849060Y16696890D01*
X20798177Y16819732D01*
X20724307Y16930287D01*
X20630287Y17024307D01*
X20519732Y17098177D01*
X20396890Y17149060D01*
X20266482Y17175000D01*
X20133518Y17175000D01*
X20003110Y17149060D01*
X19880268Y17098177D01*
X19769713Y17024307D01*
X19675693Y16930287D01*
X19622047Y16850000D01*
X15844974Y16850000D01*
X14749999Y17944974D01*
X14749999Y18566482D01*
X14925000Y18566482D01*
X14925000Y18433518D01*
X14950940Y18303110D01*
X15001823Y18180268D01*
X15075693Y18069713D01*
X15169713Y17975693D01*
X15280268Y17901823D01*
X15403110Y17850940D01*
X15533518Y17825000D01*
X15666482Y17825000D01*
X15796890Y17850940D01*
X15919732Y17901823D01*
X16030287Y17975693D01*
X16124307Y18069713D01*
X16177953Y18150000D01*
X19722047Y18150000D01*
X19775693Y18069713D01*
X19869713Y17975693D01*
X19980268Y17901823D01*
X20103110Y17850940D01*
X20233518Y17825000D01*
X20366482Y17825000D01*
X20496890Y17850940D01*
X20619732Y17901823D01*
X20730287Y17975693D01*
X20824307Y18069713D01*
X20898177Y18180268D01*
X20949060Y18303110D01*
X20975000Y18433518D01*
X20975000Y18566482D01*
X20949060Y18696890D01*
X20898177Y18819732D01*
X20824307Y18930287D01*
X20730287Y19024307D01*
X20619732Y19098177D01*
X20496890Y19149060D01*
X20366482Y19175000D01*
X20233518Y19175000D01*
X20103110Y19149060D01*
X19980268Y19098177D01*
X19869713Y19024307D01*
X19775693Y18930287D01*
X19722047Y18850000D01*
X16177953Y18850000D01*
X16124307Y18930287D01*
X16030287Y19024307D01*
X15919732Y19098177D01*
X15796890Y19149060D01*
X15666482Y19175000D01*
X15533518Y19175000D01*
X15403110Y19149060D01*
X15280268Y19098177D01*
X15169713Y19024307D01*
X15075693Y18930287D01*
X15001823Y18819732D01*
X14950940Y18696890D01*
X14925000Y18566482D01*
X14749999Y18566482D01*
X14749999Y22522047D01*
X14830286Y22575693D01*
X14924306Y22669713D01*
X14998176Y22780268D01*
X15049059Y22903110D01*
X15074999Y23033518D01*
X15074999Y23166482D01*
X15049059Y23296890D01*
X14998176Y23419732D01*
X14924306Y23530287D01*
X14830286Y23624307D01*
X14719731Y23698177D01*
X14596889Y23749060D01*
X14466481Y23775000D01*
X14333517Y23775000D01*
X14203109Y23749060D01*
X14080267Y23698177D01*
X13969712Y23624307D01*
X13875692Y23530287D01*
X13801822Y23419732D01*
X13750939Y23296890D01*
X13724999Y23166482D01*
X9093137Y23166482D01*
X5140571Y27119048D01*
X7477566Y27119048D01*
X7477566Y26986084D01*
X7503506Y26855676D01*
X7554389Y26732834D01*
X7628259Y26622279D01*
X7722279Y26528259D01*
X7832834Y26454389D01*
X7955676Y26403506D01*
X8086084Y26377566D01*
X8219048Y26377566D01*
X8349456Y26403506D01*
X8472298Y26454389D01*
X8582853Y26528259D01*
X8676873Y26622279D01*
X8750743Y26732834D01*
X8757853Y26750000D01*
X10622047Y26750000D01*
X10675693Y26669713D01*
X10769713Y26575693D01*
X10880268Y26501823D01*
X11003110Y26450940D01*
X11133518Y26425000D01*
X11266482Y26425000D01*
X11396890Y26450940D01*
X11519732Y26501823D01*
X11630287Y26575693D01*
X11724307Y26669713D01*
X11798177Y26780268D01*
X11849060Y26903110D01*
X11875000Y27033518D01*
X11875000Y27166482D01*
X11849060Y27296890D01*
X11798177Y27419732D01*
X11724307Y27530287D01*
X11630287Y27624307D01*
X11519732Y27698177D01*
X11396890Y27749060D01*
X11266482Y27775000D01*
X11133518Y27775000D01*
X11003110Y27749060D01*
X10880268Y27698177D01*
X10769713Y27624307D01*
X10675693Y27530287D01*
X10622047Y27450000D01*
X8698825Y27450000D01*
X8676873Y27482853D01*
X8582853Y27576873D01*
X8472298Y27650743D01*
X8349456Y27701626D01*
X8219048Y27727566D01*
X8086084Y27727566D01*
X7955676Y27701626D01*
X7832834Y27650743D01*
X7722279Y27576873D01*
X7628259Y27482853D01*
X7554389Y27372298D01*
X7503506Y27249456D01*
X7477566Y27119048D01*
X5140571Y27119048D01*
X5125000Y27134618D01*
X5125000Y30966482D01*
X7925000Y30966482D01*
X7925000Y30833518D01*
X7950940Y30703110D01*
X8001823Y30580268D01*
X8075693Y30469713D01*
X8169713Y30375693D01*
X8280268Y30301823D01*
X8403110Y30250940D01*
X8533518Y30225000D01*
X8666482Y30225000D01*
X8796890Y30250940D01*
X8919732Y30301823D01*
X9030287Y30375693D01*
X9124307Y30469713D01*
X9177953Y30550000D01*
X11222047Y30550000D01*
X11275693Y30469713D01*
X11369713Y30375693D01*
X11480268Y30301823D01*
X11603110Y30250940D01*
X11733518Y30225000D01*
X11866482Y30225000D01*
X11996890Y30250940D01*
X12119732Y30301823D01*
X12230287Y30375693D01*
X12324307Y30469713D01*
X12398177Y30580268D01*
X12449060Y30703110D01*
X12475000Y30833518D01*
X12475000Y30966482D01*
X12449060Y31096890D01*
X12398177Y31219732D01*
X12324307Y31330287D01*
X12230287Y31424307D01*
X12119732Y31498177D01*
X11996890Y31549060D01*
X11866482Y31575000D01*
X11733518Y31575000D01*
X11603110Y31549060D01*
X11480268Y31498177D01*
X11369713Y31424307D01*
X11275693Y31330287D01*
X11222047Y31250000D01*
X9177953Y31250000D01*
X9124307Y31330287D01*
X9030287Y31424307D01*
X8919732Y31498177D01*
X8796890Y31549060D01*
X8666482Y31575000D01*
X8533518Y31575000D01*
X8403110Y31549060D01*
X8280268Y31498177D01*
X8169713Y31424307D01*
X8075693Y31330287D01*
X8001823Y31219732D01*
X7950940Y31096890D01*
X7925000Y30966482D01*
X5125000Y30966482D01*
X5125000Y31684048D01*
X5126571Y31700001D01*
X5125000Y31715954D01*
X5125000Y31715961D01*
X5120297Y31763711D01*
X5101713Y31824974D01*
X5071535Y31881434D01*
X5030921Y31930921D01*
X5018523Y31941096D01*
X1925000Y35034618D01*
X1925000Y36566482D01*
X4225000Y36566482D01*
X4225000Y36433518D01*
X4250940Y36303110D01*
X4301823Y36180268D01*
X4375693Y36069713D01*
X4469713Y35975693D01*
X4550001Y35922047D01*
X4550000Y35177953D01*
X4469713Y35124307D01*
X4375693Y35030287D01*
X4301823Y34919732D01*
X4250940Y34796890D01*
X4225000Y34666482D01*
X4225000Y34533518D01*
X4250940Y34403110D01*
X4301823Y34280268D01*
X4375693Y34169713D01*
X4469713Y34075693D01*
X4580268Y34001823D01*
X4703110Y33950940D01*
X4833518Y33925000D01*
X4966482Y33925000D01*
X5096890Y33950940D01*
X5219732Y34001823D01*
X5330287Y34075693D01*
X5424307Y34169713D01*
X5498177Y34280268D01*
X5549060Y34403110D01*
X5575000Y34533518D01*
X5575000Y34666482D01*
X5549060Y34796890D01*
X5520234Y34866482D01*
X12825000Y34866482D01*
X12825000Y34733518D01*
X12850940Y34603110D01*
X12900000Y34484669D01*
X12900001Y26929484D01*
X12897097Y26900000D01*
X12908682Y26782380D01*
X12939829Y26679703D01*
X12942991Y26669279D01*
X12998705Y26565045D01*
X13073684Y26473683D01*
X13096582Y26454891D01*
X15252763Y24298709D01*
X15301823Y24180268D01*
X15375693Y24069713D01*
X15469713Y23975693D01*
X15580268Y23901823D01*
X15703110Y23850940D01*
X15833518Y23825000D01*
X15966482Y23825000D01*
X16096890Y23850940D01*
X16219732Y23901823D01*
X16330287Y23975693D01*
X16424307Y24069713D01*
X16498177Y24180268D01*
X16549060Y24303110D01*
X16575000Y24433518D01*
X16575000Y24566482D01*
X16549060Y24696890D01*
X16498177Y24819732D01*
X16424307Y24930287D01*
X16330287Y25024307D01*
X16219732Y25098177D01*
X16101291Y25147237D01*
X14100000Y27148527D01*
X14100000Y34484669D01*
X14149060Y34603110D01*
X14175000Y34733518D01*
X14175000Y34866482D01*
X14149060Y34996890D01*
X14098177Y35119732D01*
X14024307Y35230287D01*
X13930287Y35324307D01*
X13819732Y35398177D01*
X13696890Y35449060D01*
X13566482Y35475000D01*
X13433518Y35475000D01*
X13303110Y35449060D01*
X13180268Y35398177D01*
X13069713Y35324307D01*
X12975693Y35230287D01*
X12901823Y35119732D01*
X12850940Y34996890D01*
X12825000Y34866482D01*
X5520234Y34866482D01*
X5498177Y34919732D01*
X5424307Y35030287D01*
X5330287Y35124307D01*
X5250000Y35177953D01*
X5250000Y35922047D01*
X5330287Y35975693D01*
X5424307Y36069713D01*
X5498177Y36180268D01*
X5549060Y36303110D01*
X5575000Y36433518D01*
X5575000Y36566482D01*
X5549060Y36696890D01*
X5498177Y36819732D01*
X5424307Y36930287D01*
X5330287Y37024307D01*
X5219732Y37098177D01*
X5096890Y37149060D01*
X4966482Y37175000D01*
X4833518Y37175000D01*
X4703110Y37149060D01*
X4580268Y37098177D01*
X4469713Y37024307D01*
X4375693Y36930287D01*
X4301823Y36819732D01*
X4250940Y36696890D01*
X4225000Y36566482D01*
X1925000Y36566482D01*
X1925000Y37266482D01*
X14425000Y37266482D01*
X14425000Y37133518D01*
X14450940Y37003110D01*
X14501823Y36880268D01*
X14575693Y36769713D01*
X14669713Y36675693D01*
X14750000Y36622047D01*
X14750001Y35077953D01*
X14669713Y35024307D01*
X14575693Y34930287D01*
X14501823Y34819732D01*
X14450940Y34696890D01*
X14425000Y34566482D01*
X14425000Y34433518D01*
X14450940Y34303110D01*
X14501823Y34180268D01*
X14575693Y34069713D01*
X14669713Y33975693D01*
X14780268Y33901823D01*
X14903110Y33850940D01*
X15033518Y33825000D01*
X15166482Y33825000D01*
X15296890Y33850940D01*
X15419732Y33901823D01*
X15530287Y33975693D01*
X15624307Y34069713D01*
X15698177Y34180268D01*
X15749060Y34303110D01*
X15775000Y34433518D01*
X15775000Y34566482D01*
X15749060Y34696890D01*
X15698177Y34819732D01*
X15624307Y34930287D01*
X15530287Y35024307D01*
X15450000Y35077953D01*
X15450000Y36622047D01*
X15530287Y36675693D01*
X15624307Y36769713D01*
X15698177Y36880268D01*
X15749060Y37003110D01*
X15775000Y37133518D01*
X15775000Y37266482D01*
X15749060Y37396890D01*
X15698177Y37519732D01*
X15624307Y37630287D01*
X15530287Y37724307D01*
X15419732Y37798177D01*
X15296890Y37849060D01*
X15166482Y37875000D01*
X15033518Y37875000D01*
X14903110Y37849060D01*
X14780268Y37798177D01*
X14669713Y37724307D01*
X14575693Y37630287D01*
X14501823Y37519732D01*
X14450940Y37396890D01*
X14425000Y37266482D01*
X1925000Y37266482D01*
X1925000Y39066482D01*
X6225000Y39066482D01*
X6225000Y38933518D01*
X6250940Y38803110D01*
X6301823Y38680268D01*
X6375693Y38569713D01*
X6469713Y38475693D01*
X6580268Y38401823D01*
X6703110Y38350940D01*
X6833518Y38325000D01*
X6966482Y38325000D01*
X7096890Y38350940D01*
X7219732Y38401823D01*
X7330287Y38475693D01*
X7424307Y38569713D01*
X7498177Y38680268D01*
X7549060Y38803110D01*
X7575000Y38933518D01*
X7575000Y39066482D01*
X7568333Y39099999D01*
X17434683Y39099999D01*
X17430260Y39098167D01*
X17319705Y39024297D01*
X17225685Y38930277D01*
X17151815Y38819722D01*
X17100932Y38696880D01*
X17074992Y38566472D01*
X17074992Y38433508D01*
X17093830Y38338802D01*
X16989677Y38234648D01*
X16976317Y38223684D01*
X16932580Y38170389D01*
X16920772Y38148297D01*
X16900080Y38109586D01*
X16880066Y38043610D01*
X16873308Y37974999D01*
X16875002Y37957801D01*
X16875001Y36669975D01*
X16118672Y35913645D01*
X16105312Y35902681D01*
X16061575Y35849386D01*
X16029075Y35788583D01*
X16009061Y35722607D01*
X16002303Y35653996D01*
X16003997Y35636798D01*
X16003996Y34019973D01*
X15539675Y33555650D01*
X15526315Y33544686D01*
X15482578Y33491391D01*
X15450078Y33430588D01*
X15430064Y33364612D01*
X15423306Y33296001D01*
X15425000Y33278803D01*
X15424999Y32565194D01*
X15423306Y32548005D01*
X15424999Y32530817D01*
X15430064Y32479394D01*
X15450077Y32413419D01*
X15482577Y32352616D01*
X15526314Y32299321D01*
X15539675Y32288356D01*
X17338357Y30489672D01*
X17349317Y30476317D01*
X17402612Y30432580D01*
X17457590Y30403194D01*
X17401823Y30319732D01*
X17350940Y30196890D01*
X17325000Y30066482D01*
X17325000Y29933518D01*
X17350940Y29803110D01*
X17401823Y29680268D01*
X17475693Y29569713D01*
X17569713Y29475693D01*
X17650001Y29422047D01*
X17650000Y22417188D01*
X17648307Y22400000D01*
X17650000Y22382812D01*
X17655065Y22331389D01*
X17675078Y22265414D01*
X17707578Y22204611D01*
X17751315Y22151316D01*
X17764676Y22140351D01*
X19243838Y20661188D01*
X19225000Y20566482D01*
X19225000Y20433518D01*
X19250940Y20303110D01*
X19301823Y20180268D01*
X19375693Y20069713D01*
X19469713Y19975693D01*
X19580268Y19901823D01*
X19703110Y19850940D01*
X19833518Y19825000D01*
X19966482Y19825000D01*
X20096890Y19850940D01*
X20219732Y19901823D01*
X20330287Y19975693D01*
X20424307Y20069713D01*
X20498177Y20180268D01*
X20549060Y20303110D01*
X20575000Y20433518D01*
X20575000Y20566482D01*
X20549060Y20696890D01*
X20498177Y20819732D01*
X20424307Y20930287D01*
X20330287Y21024307D01*
X20219732Y21098177D01*
X20096890Y21149060D01*
X19966482Y21175000D01*
X19833518Y21175000D01*
X19738812Y21156162D01*
X18350000Y22544973D01*
X18350000Y29422047D01*
X18430287Y29475693D01*
X18524307Y29569713D01*
X18598177Y29680268D01*
X18649060Y29803110D01*
X18669942Y29908088D01*
X19250001Y29328028D01*
X19250001Y29077953D01*
X19169713Y29024307D01*
X19075693Y28930287D01*
X19001823Y28819732D01*
X18950940Y28696890D01*
X18925000Y28566482D01*
X18925000Y28433518D01*
X18950940Y28303110D01*
X19001823Y28180268D01*
X19075693Y28069713D01*
X19169713Y27975693D01*
X19280268Y27901823D01*
X19403110Y27850940D01*
X19533518Y27825000D01*
X19666482Y27825000D01*
X19796890Y27850940D01*
X19919732Y27901823D01*
X20030287Y27975693D01*
X20124307Y28069713D01*
X20198177Y28180268D01*
X20249060Y28303110D01*
X20275000Y28433518D01*
X20275000Y28566482D01*
X20249060Y28696890D01*
X20198177Y28819732D01*
X20124307Y28930287D01*
X20030287Y29024307D01*
X19950000Y29077953D01*
X19950000Y29193729D01*
X21079060Y28064669D01*
X21090019Y28051315D01*
X21143314Y28007578D01*
X21204117Y27975078D01*
X21270092Y27955065D01*
X21321515Y27950000D01*
X21321517Y27950000D01*
X21338703Y27948307D01*
X21355889Y27950000D01*
X37255027Y27950000D01*
X39524990Y25680035D01*
X39524991Y23077953D01*
X39444703Y23024307D01*
X39350683Y22930287D01*
X39276813Y22819732D01*
X39225930Y22696890D01*
X39199990Y22566482D01*
X39199990Y22433518D01*
X39218828Y22338812D01*
X39164675Y22284659D01*
X39151316Y22273695D01*
X39107579Y22220400D01*
X39086128Y22180268D01*
X39075079Y22159597D01*
X39055065Y22093621D01*
X39048307Y22025010D01*
X39050001Y22007812D01*
X39050000Y6944975D01*
X36961188Y4856162D01*
X36866482Y4875000D01*
X36733518Y4875000D01*
X36603110Y4849060D01*
X36480268Y4798177D01*
X36369713Y4724307D01*
X36275693Y4630287D01*
X36222047Y4550000D01*
X23477953Y4550000D01*
X23424307Y4630287D01*
X23330287Y4724307D01*
X23219732Y4798177D01*
X23096890Y4849060D01*
X22966482Y4875000D01*
X22833518Y4875000D01*
X22703110Y4849060D01*
X22580268Y4798177D01*
X22469713Y4724307D01*
X22375693Y4630287D01*
X22301823Y4519732D01*
X22250940Y4396890D01*
X22225000Y4266482D01*
X22225000Y4133518D01*
X22250940Y4003110D01*
X22301823Y3880268D01*
X22375693Y3769713D01*
X22469713Y3675693D01*
X22580268Y3601823D01*
X22703110Y3550940D01*
X22833518Y3525000D01*
X22966482Y3525000D01*
X23096890Y3550940D01*
X23219732Y3601823D01*
X23330287Y3675693D01*
X23424307Y3769713D01*
X23477953Y3850000D01*
X36222047Y3850000D01*
X36275693Y3769713D01*
X36369713Y3675693D01*
X36480268Y3601823D01*
X36603110Y3550940D01*
X36733518Y3525000D01*
X36866482Y3525000D01*
X36996890Y3550940D01*
X37119732Y3601823D01*
X37230287Y3675693D01*
X37324307Y3769713D01*
X37398177Y3880268D01*
X37449060Y4003110D01*
X37475000Y4133518D01*
X37475000Y4179747D01*
X54175000Y4179747D01*
X54175000Y3820253D01*
X54245134Y3467667D01*
X54382706Y3135539D01*
X54582430Y2836631D01*
X54836631Y2582430D01*
X55135539Y2382706D01*
X55467667Y2245134D01*
X55820253Y2175000D01*
X56179747Y2175000D01*
X56532333Y2245134D01*
X56864461Y2382706D01*
X57163369Y2582430D01*
X57417570Y2836631D01*
X57617294Y3135539D01*
X57754866Y3467667D01*
X57825000Y3820253D01*
X57825000Y4179747D01*
X57754866Y4532333D01*
X57617294Y4864461D01*
X57417570Y5163369D01*
X57163369Y5417570D01*
X56864461Y5617294D01*
X56532333Y5754866D01*
X56179747Y5825000D01*
X55820253Y5825000D01*
X55467667Y5754866D01*
X55135539Y5617294D01*
X54836631Y5417570D01*
X54582430Y5163369D01*
X54382706Y4864461D01*
X54245134Y4532333D01*
X54175000Y4179747D01*
X37475000Y4179747D01*
X37475000Y4266482D01*
X37456162Y4361188D01*
X39635335Y6540360D01*
X39648684Y6551315D01*
X39692422Y6604610D01*
X39724922Y6665413D01*
X39744935Y6731388D01*
X39750000Y6782811D01*
X39750000Y6782813D01*
X39751693Y6799999D01*
X39750000Y6817185D01*
X39750000Y16768745D01*
X39757556Y16754609D01*
X39801293Y16701314D01*
X39814652Y16690350D01*
X39843814Y16661188D01*
X39824976Y16566482D01*
X39824976Y16433518D01*
X39850916Y16303110D01*
X39901799Y16180268D01*
X39975669Y16069713D01*
X40069689Y15975693D01*
X40180244Y15901823D01*
X40184657Y15899995D01*
X40180268Y15898177D01*
X40069713Y15824307D01*
X39975693Y15730287D01*
X39901823Y15619732D01*
X39850940Y15496890D01*
X39825000Y15366482D01*
X39825000Y15233518D01*
X39850940Y15103110D01*
X39901823Y14980268D01*
X39975693Y14869713D01*
X40069713Y14775693D01*
X40180268Y14701823D01*
X40303110Y14650940D01*
X40307836Y14650000D01*
X40303110Y14649060D01*
X40180268Y14598177D01*
X40069713Y14524307D01*
X39975693Y14430287D01*
X39901823Y14319732D01*
X39850940Y14196890D01*
X39825000Y14066482D01*
X39825000Y13933518D01*
X39850940Y13803110D01*
X39901823Y13680268D01*
X39975693Y13569713D01*
X40069713Y13475693D01*
X40180268Y13401823D01*
X40303110Y13350940D01*
X40433518Y13325000D01*
X40566482Y13325000D01*
X40696890Y13350940D01*
X40819732Y13401823D01*
X40930287Y13475693D01*
X41024307Y13569713D01*
X41098177Y13680268D01*
X41149060Y13803110D01*
X41175000Y13933518D01*
X41175000Y14066482D01*
X41156162Y14161187D01*
X41209641Y14214666D01*
X41209650Y14214677D01*
X42735330Y15740355D01*
X42748685Y15751315D01*
X42792422Y15804610D01*
X42824922Y15865413D01*
X42844935Y15931388D01*
X42850000Y15982811D01*
X42850000Y15982813D01*
X42851693Y15999999D01*
X42850000Y16017185D01*
X42850000Y21050000D01*
X51848307Y21050000D01*
X51850001Y21032802D01*
X51850000Y13017188D01*
X51848307Y13000000D01*
X51850000Y12982812D01*
X51855065Y12931389D01*
X51875078Y12865414D01*
X51907578Y12804611D01*
X51951315Y12751316D01*
X51964676Y12740351D01*
X52240351Y12464675D01*
X52251315Y12451315D01*
X52304610Y12407578D01*
X52365413Y12375078D01*
X52411374Y12361136D01*
X52431387Y12355065D01*
X52499999Y12348307D01*
X52517188Y12350000D01*
X52522051Y12350000D01*
X52575697Y12269713D01*
X52669717Y12175693D01*
X52780272Y12101823D01*
X52903114Y12050940D01*
X53033522Y12025000D01*
X53166486Y12025000D01*
X53296894Y12050940D01*
X53419736Y12101823D01*
X53530291Y12175693D01*
X53624311Y12269713D01*
X53698181Y12380268D01*
X53749064Y12503110D01*
X53775004Y12633518D01*
X53775004Y12766482D01*
X53749064Y12896890D01*
X53698181Y13019732D01*
X53624311Y13130287D01*
X53530291Y13224307D01*
X53419736Y13298177D01*
X53415333Y13300001D01*
X53419732Y13301823D01*
X53530287Y13375693D01*
X53624307Y13469713D01*
X53698177Y13580268D01*
X53749060Y13703110D01*
X53775000Y13833518D01*
X53775000Y13966482D01*
X53749060Y14096890D01*
X53698177Y14219732D01*
X53624307Y14330287D01*
X53530287Y14424307D01*
X53450000Y14477953D01*
X53450000Y19505027D01*
X54688813Y20743838D01*
X54783518Y20725000D01*
X54916482Y20725000D01*
X55046890Y20750940D01*
X55169732Y20801823D01*
X55280287Y20875693D01*
X55374307Y20969713D01*
X55448177Y21080268D01*
X55499060Y21203110D01*
X55525000Y21333518D01*
X55525000Y21466482D01*
X55499060Y21596890D01*
X55448177Y21719732D01*
X55374307Y21830287D01*
X55280287Y21924307D01*
X55169732Y21998177D01*
X55046890Y22049060D01*
X54916482Y22075000D01*
X54783518Y22075000D01*
X54653110Y22049060D01*
X54530268Y21998177D01*
X54419713Y21924307D01*
X54325693Y21830287D01*
X54251823Y21719732D01*
X54200940Y21596890D01*
X54175000Y21466482D01*
X54175000Y21333518D01*
X54193838Y21238813D01*
X52864676Y19909649D01*
X52851316Y19898685D01*
X52807579Y19845390D01*
X52775079Y19784587D01*
X52755065Y19718611D01*
X52748307Y19650000D01*
X52750001Y19632802D01*
X52750000Y14477953D01*
X52669713Y14424307D01*
X52575693Y14330287D01*
X52550000Y14291834D01*
X52550000Y20905027D01*
X53388813Y21743838D01*
X53483518Y21725000D01*
X53616482Y21725000D01*
X53746890Y21750940D01*
X53869732Y21801823D01*
X53980287Y21875693D01*
X54074307Y21969713D01*
X54148177Y22080268D01*
X54199060Y22203110D01*
X54225000Y22333518D01*
X54225000Y22466482D01*
X54199060Y22596890D01*
X54148177Y22719732D01*
X54074307Y22830287D01*
X53980287Y22924307D01*
X53869732Y22998177D01*
X53746890Y23049060D01*
X53616482Y23075000D01*
X53483518Y23075000D01*
X53353110Y23049060D01*
X53230268Y22998177D01*
X53119713Y22924307D01*
X53025693Y22830287D01*
X52951823Y22719732D01*
X52900940Y22596890D01*
X52875000Y22466482D01*
X52875000Y22333518D01*
X52893838Y22238813D01*
X51964676Y21309649D01*
X51951316Y21298685D01*
X51907579Y21245390D01*
X51885782Y21204610D01*
X51875079Y21184587D01*
X51855065Y21118611D01*
X51848307Y21050000D01*
X42850000Y21050000D01*
X42850000Y26819211D01*
X42851693Y26836397D01*
X42847888Y26875027D01*
X42844935Y26905008D01*
X42824922Y26970983D01*
X42792422Y27031786D01*
X42748684Y27085081D01*
X42735335Y27096036D01*
X41096049Y28735320D01*
X41085081Y28748685D01*
X41031786Y28792422D01*
X40970983Y28824922D01*
X40905008Y28844935D01*
X40853585Y28850000D01*
X40853584Y28850000D01*
X40836396Y28851693D01*
X40819208Y28850000D01*
X40777953Y28850000D01*
X40724307Y28930287D01*
X40630287Y29024307D01*
X40519732Y29098177D01*
X40396890Y29149060D01*
X40266482Y29175000D01*
X40133518Y29175000D01*
X40003110Y29149060D01*
X39880268Y29098177D01*
X39769713Y29024307D01*
X39724999Y28979593D01*
X39724999Y33409024D01*
X39760320Y33444345D01*
X39773686Y33455314D01*
X39817423Y33508609D01*
X39841683Y33553997D01*
X39849923Y33569411D01*
X39869936Y33635387D01*
X39871148Y33647694D01*
X39875001Y33686810D01*
X39876694Y33703999D01*
X39875001Y33721188D01*
X39875001Y34478812D01*
X39876694Y34496001D01*
X39869936Y34564613D01*
X39849923Y34630589D01*
X39841527Y34646296D01*
X39817423Y34691391D01*
X39773685Y34744686D01*
X39760325Y34755650D01*
X39724999Y34790976D01*
X39724999Y37107816D01*
X39726692Y37125002D01*
X39724999Y37142190D01*
X39719934Y37193613D01*
X39699921Y37259588D01*
X39667421Y37320391D01*
X39623683Y37373686D01*
X39610334Y37384641D01*
X38226411Y38768563D01*
X38341379Y38768563D01*
X38471787Y38794503D01*
X38594629Y38845386D01*
X38705184Y38919256D01*
X38799204Y39013276D01*
X38873074Y39123831D01*
X38923957Y39246673D01*
X38949897Y39377081D01*
X38949897Y39494592D01*
X51379818Y27064669D01*
X51390777Y27051315D01*
X51444072Y27007578D01*
X51504875Y26975078D01*
X51570850Y26955065D01*
X51622273Y26950000D01*
X51622275Y26950000D01*
X51639461Y26948307D01*
X51656647Y26950000D01*
X54172047Y26950000D01*
X54225693Y26869713D01*
X54319713Y26775693D01*
X54430268Y26701823D01*
X54553110Y26650940D01*
X54683518Y26625000D01*
X54816482Y26625000D01*
X54946890Y26650940D01*
X55069732Y26701823D01*
X55180287Y26775693D01*
X55274307Y26869713D01*
X55348177Y26980268D01*
X55399060Y27103110D01*
X55425000Y27233518D01*
X55425000Y27366482D01*
X55399060Y27496890D01*
X55348177Y27619732D01*
X55274307Y27730287D01*
X55180287Y27824307D01*
X55069732Y27898177D01*
X54946890Y27949060D01*
X54816482Y27975000D01*
X54683518Y27975000D01*
X54553110Y27949060D01*
X54430268Y27898177D01*
X54319713Y27824307D01*
X54225693Y27730287D01*
X54172047Y27650000D01*
X51784437Y27650000D01*
X38784435Y40650000D01*
X40555013Y40650000D01*
X48914668Y32290344D01*
X48914673Y32290340D01*
X48943838Y32261174D01*
X48925000Y32166468D01*
X48925000Y32033504D01*
X48950940Y31903096D01*
X49001823Y31780254D01*
X49075693Y31669699D01*
X49169713Y31575679D01*
X49280268Y31501809D01*
X49403110Y31450926D01*
X49533518Y31424986D01*
X49666482Y31424986D01*
X49796890Y31450926D01*
X49919732Y31501809D01*
X50030287Y31575679D01*
X50124307Y31669699D01*
X50198177Y31780254D01*
X50249060Y31903096D01*
X50275000Y32033504D01*
X50275000Y32166468D01*
X50249060Y32296876D01*
X50198177Y32419718D01*
X50124307Y32530273D01*
X50030287Y32624293D01*
X49919732Y32698163D01*
X49796890Y32749046D01*
X49666482Y32774986D01*
X49533518Y32774986D01*
X49438812Y32756148D01*
X49409646Y32785313D01*
X49409642Y32785318D01*
X40959640Y41235319D01*
X40948671Y41248685D01*
X40895376Y41292422D01*
X40834573Y41324922D01*
X40768598Y41344935D01*
X40717175Y41350000D01*
X40717174Y41350000D01*
X40699986Y41351693D01*
X40682798Y41350000D01*
X28017188Y41350000D01*
X27999999Y41351693D01*
X27931387Y41344935D01*
X27911374Y41338864D01*
X27865413Y41324922D01*
X27804610Y41292422D01*
X27751315Y41248685D01*
X27740355Y41235330D01*
X25855027Y39350000D01*
X18467959Y39350000D01*
X18132638Y39685319D01*
X18121670Y39698684D01*
X18068375Y39742421D01*
X18007572Y39774921D01*
X17941597Y39794934D01*
X17890174Y39799999D01*
X17890173Y39799999D01*
X17872985Y39801692D01*
X17855797Y39799999D01*
X7367188Y39799999D01*
X7349999Y39801692D01*
X7332810Y39799999D01*
X7281387Y39794934D01*
X7215412Y39774921D01*
X7154609Y39742421D01*
X7101314Y39698684D01*
X7090354Y39685329D01*
X7061187Y39656162D01*
X6966482Y39675000D01*
X6833518Y39675000D01*
X6703110Y39649060D01*
X6580268Y39598177D01*
X6469713Y39524307D01*
X6375693Y39430287D01*
X6301823Y39319732D01*
X6250940Y39196890D01*
X6225000Y39066482D01*
X1925000Y39066482D01*
X1925000Y44026694D01*
X1933514Y44025000D01*
X2066478Y44025000D01*
X2196886Y44050940D01*
X2319728Y44101823D01*
X2430283Y44175693D01*
X2524303Y44269713D01*
X2598173Y44380268D01*
X2649056Y44503110D01*
X2674996Y44633518D01*
X2674996Y44766482D01*
X2649056Y44896890D01*
X2620230Y44966482D01*
X8825000Y44966482D01*
X8825000Y44833518D01*
X8850940Y44703110D01*
X8901823Y44580268D01*
X8975693Y44469713D01*
X9069713Y44375693D01*
X9180268Y44301823D01*
X9303110Y44250940D01*
X9433518Y44225000D01*
X9566482Y44225000D01*
X9696890Y44250940D01*
X9819732Y44301823D01*
X9930287Y44375693D01*
X10024307Y44469713D01*
X10077953Y44550000D01*
X10622047Y44550000D01*
X10675693Y44469713D01*
X10769713Y44375693D01*
X10880268Y44301823D01*
X11003110Y44250940D01*
X11133518Y44225000D01*
X11266482Y44225000D01*
X11396890Y44250940D01*
X11519732Y44301823D01*
X11630287Y44375693D01*
X11724307Y44469713D01*
X11798177Y44580268D01*
X11849060Y44703110D01*
X11875000Y44833518D01*
X11875000Y44966482D01*
X11849060Y45096890D01*
X11798177Y45219732D01*
X11724307Y45330287D01*
X11630287Y45424307D01*
X11519732Y45498177D01*
X11396890Y45549060D01*
X11266482Y45575000D01*
X11133518Y45575000D01*
X11003110Y45549060D01*
X10880268Y45498177D01*
X10769713Y45424307D01*
X10675693Y45330287D01*
X10622047Y45250000D01*
X10077953Y45250000D01*
X10024307Y45330287D01*
X9930287Y45424307D01*
X9819732Y45498177D01*
X9696890Y45549060D01*
X9566482Y45575000D01*
X9433518Y45575000D01*
X9303110Y45549060D01*
X9180268Y45498177D01*
X9069713Y45424307D01*
X8975693Y45330287D01*
X8901823Y45219732D01*
X8850940Y45096890D01*
X8825000Y44966482D01*
X2620230Y44966482D01*
X2598173Y45019732D01*
X2524303Y45130287D01*
X2430283Y45224307D01*
X2319728Y45298177D01*
X2196886Y45349060D01*
X2066478Y45375000D01*
X1933514Y45375000D01*
X1803106Y45349060D01*
X1680264Y45298177D01*
X1569709Y45224307D01*
X1475689Y45130287D01*
X1401819Y45019732D01*
X1350936Y44896890D01*
X1324996Y44766482D01*
X1324996Y44633518D01*
X1350022Y44507704D01*
X1328466Y44481438D01*
X1322199Y44469713D01*
X1298287Y44424977D01*
X1279703Y44363715D01*
X1273429Y44300004D01*
X250000Y44300004D01*
X250000Y48841483D01*
X10549999Y48841483D01*
X10549999Y48708519D01*
X10575939Y48578111D01*
X10626822Y48455269D01*
X10700692Y48344714D01*
X10794712Y48250694D01*
X10905267Y48176824D01*
X11028109Y48125941D01*
X11158517Y48100001D01*
X11291481Y48100001D01*
X11421889Y48125941D01*
X11544731Y48176824D01*
X11655286Y48250694D01*
X11749306Y48344714D01*
X11823176Y48455269D01*
X11874059Y48578111D01*
X11899999Y48708519D01*
X11899999Y48841483D01*
X11874059Y48971891D01*
X11823176Y49094733D01*
X11749306Y49205288D01*
X11655286Y49299308D01*
X11574999Y49352954D01*
X11574999Y50280026D01*
X13744975Y52450000D01*
X42155027Y52450000D01*
X48765356Y45839669D01*
X48776315Y45826315D01*
X48829610Y45782578D01*
X48890413Y45750078D01*
X48936374Y45736136D01*
X48956387Y45730065D01*
X49024999Y45723307D01*
X49042188Y45725000D01*
X58297047Y45725000D01*
X58350693Y45644713D01*
X58444713Y45550693D01*
X58555268Y45476823D01*
X58678110Y45425940D01*
X58808518Y45400000D01*
X58941482Y45400000D01*
X59071890Y45425940D01*
X59194732Y45476823D01*
X59305287Y45550693D01*
X59399307Y45644713D01*
X59473177Y45755268D01*
X59524060Y45878110D01*
X59550000Y46008518D01*
X59550000Y46141482D01*
X59524060Y46271890D01*
X59473177Y46394732D01*
X59399307Y46505287D01*
X59305287Y46599307D01*
X59194732Y46673177D01*
X59071890Y46724060D01*
X58941482Y46750000D01*
X58808518Y46750000D01*
X58678110Y46724060D01*
X58555268Y46673177D01*
X58444713Y46599307D01*
X58350693Y46505287D01*
X58297047Y46425000D01*
X49169975Y46425000D01*
X43415227Y52179747D01*
X47175000Y52179747D01*
X47175000Y51820253D01*
X47245134Y51467667D01*
X47382706Y51135539D01*
X47582430Y50836631D01*
X47836631Y50582430D01*
X48135539Y50382706D01*
X48467667Y50245134D01*
X48820253Y50175000D01*
X49179747Y50175000D01*
X49532333Y50245134D01*
X49864461Y50382706D01*
X50163369Y50582430D01*
X50417570Y50836631D01*
X50617294Y51135539D01*
X50754866Y51467667D01*
X50825000Y51820253D01*
X50825000Y52179747D01*
X50754866Y52532333D01*
X50617294Y52864461D01*
X50417570Y53163369D01*
X50163369Y53417570D01*
X49864461Y53617294D01*
X49532333Y53754866D01*
X49179747Y53825000D01*
X48820253Y53825000D01*
X48467667Y53754866D01*
X48135539Y53617294D01*
X47836631Y53417570D01*
X47582430Y53163369D01*
X47382706Y52864461D01*
X47245134Y52532333D01*
X47175000Y52179747D01*
X43415227Y52179747D01*
X42559654Y53035319D01*
X42548685Y53048685D01*
X42495390Y53092422D01*
X42434587Y53124922D01*
X42368612Y53144935D01*
X42317189Y53150000D01*
X42317188Y53150000D01*
X42300000Y53151693D01*
X42282812Y53150000D01*
X13617189Y53150000D01*
X13600000Y53151693D01*
X13582811Y53150000D01*
X13531388Y53144935D01*
X13465413Y53124922D01*
X13404610Y53092422D01*
X13351315Y53048685D01*
X13340355Y53035330D01*
X10989675Y50684648D01*
X10976315Y50673684D01*
X10932578Y50620389D01*
X10900078Y50559586D01*
X10880064Y50493610D01*
X10873306Y50424999D01*
X10875000Y50407801D01*
X10874999Y49352954D01*
X10794712Y49299308D01*
X10700692Y49205288D01*
X10626822Y49094733D01*
X10575939Y48971891D01*
X10549999Y48841483D01*
X250000Y48841483D01*
X250000Y51987771D01*
X268823Y52179747D01*
X2175000Y52179747D01*
X2175000Y51820253D01*
X2245134Y51467667D01*
X2382706Y51135539D01*
X2582430Y50836631D01*
X2836631Y50582430D01*
X3135539Y50382706D01*
X3467667Y50245134D01*
X3820253Y50175000D01*
X4179747Y50175000D01*
X4532333Y50245134D01*
X4864461Y50382706D01*
X5163369Y50582430D01*
X5417570Y50836631D01*
X5617294Y51135539D01*
X5754866Y51467667D01*
X5825000Y51820253D01*
X5825000Y52179747D01*
X5754866Y52532333D01*
X5617294Y52864461D01*
X5417570Y53163369D01*
X5163369Y53417570D01*
X4864461Y53617294D01*
X4532333Y53754866D01*
X4179747Y53825000D01*
X3820253Y53825000D01*
X3467667Y53754866D01*
X3135539Y53617294D01*
X2836631Y53417570D01*
X2582430Y53163369D01*
X2382706Y52864461D01*
X2245134Y52532333D01*
X2175000Y52179747D01*
X268823Y52179747D01*
X322594Y52728145D01*
X534061Y53428557D01*
X877545Y54074557D01*
X1270716Y54556633D01*
X21375000Y54556633D01*
X21375000Y54443367D01*
X21397097Y54332279D01*
X21440442Y54227635D01*
X21503368Y54133459D01*
X21583459Y54053368D01*
X21677635Y53990442D01*
X21782279Y53947097D01*
X21893367Y53925000D01*
X22006633Y53925000D01*
X22117721Y53947097D01*
X22222365Y53990442D01*
X22316541Y54053368D01*
X22396632Y54133459D01*
X22459558Y54227635D01*
X22502903Y54332279D01*
X22525000Y54443367D01*
X22525000Y54556633D01*
X37375000Y54556633D01*
X37375000Y54443367D01*
X37397097Y54332279D01*
X37440442Y54227635D01*
X37503368Y54133459D01*
X37583459Y54053368D01*
X37677635Y53990442D01*
X37782279Y53947097D01*
X37893367Y53925000D01*
X38006633Y53925000D01*
X38117721Y53947097D01*
X38222365Y53990442D01*
X38316541Y54053368D01*
X38396632Y54133459D01*
X38459558Y54227635D01*
X38502903Y54332279D01*
X38525000Y54443367D01*
X38525000Y54556633D01*
X38502903Y54667721D01*
X38459558Y54772365D01*
X38396632Y54866541D01*
X38316541Y54946632D01*
X38222365Y55009558D01*
X38117721Y55052903D01*
X38006633Y55075000D01*
X37893367Y55075000D01*
X37782279Y55052903D01*
X37677635Y55009558D01*
X37583459Y54946632D01*
X37503368Y54866541D01*
X37440442Y54772365D01*
X37397097Y54667721D01*
X37375000Y54556633D01*
X22525000Y54556633D01*
X22502903Y54667721D01*
X22459558Y54772365D01*
X22396632Y54866541D01*
X22316541Y54946632D01*
X22222365Y55009558D01*
X22117721Y55052903D01*
X22006633Y55075000D01*
X21893367Y55075000D01*
X21782279Y55052903D01*
X21677635Y55009558D01*
X21583459Y54946632D01*
X21503368Y54866541D01*
X21440442Y54772365D01*
X21397097Y54667721D01*
X21375000Y54556633D01*
X1270716Y54556633D01*
X1339962Y54641536D01*
X1903696Y55107897D01*
X2547279Y55455881D01*
X3246203Y55672234D01*
X3985611Y55749949D01*
X4000292Y55750000D01*
X55987771Y55750000D01*
X56728145Y55677406D01*
G37*
%TD.AperFunction*%
D17*
X38325926Y40118563D02*
X38208415Y40118563D01*
X38078007Y40092623D01*
X37955165Y40041740D01*
X37844610Y39967870D01*
X37750590Y39873850D01*
X37676720Y39763295D01*
X37625837Y39640453D01*
X37599897Y39510045D01*
X37599897Y39395076D01*
X37409637Y39585336D01*
X37398669Y39598701D01*
X37345374Y39642438D01*
X37284571Y39674938D01*
X37218596Y39694951D01*
X37167173Y39700016D01*
X37167172Y39700016D01*
X37149984Y39701709D01*
X37132796Y39700016D01*
X36727943Y39700016D01*
X36674297Y39780303D01*
X36580277Y39874323D01*
X36469722Y39948193D01*
X36346880Y39999076D01*
X36216472Y40025016D01*
X36083508Y40025016D01*
X35953100Y39999076D01*
X35830258Y39948193D01*
X35719703Y39874323D01*
X35625683Y39780303D01*
X35551813Y39669748D01*
X35500930Y39546906D01*
X35474990Y39416498D01*
X35474990Y39283534D01*
X35500930Y39153126D01*
X35551813Y39030284D01*
X35625683Y38919729D01*
X35719703Y38825709D01*
X35830258Y38751839D01*
X35953100Y38700956D01*
X36083508Y38675016D01*
X36216472Y38675016D01*
X36346880Y38700956D01*
X36469722Y38751839D01*
X36580277Y38825709D01*
X36674297Y38919729D01*
X36727943Y39000016D01*
X37005011Y39000016D01*
X39024999Y36980026D01*
X39025000Y34663201D01*
X39023306Y34646003D01*
X39030064Y34577392D01*
X39049540Y34513190D01*
X39050078Y34511416D01*
X39082578Y34450613D01*
X39126315Y34397318D01*
X39139675Y34386354D01*
X39175001Y34351028D01*
X39175002Y33848973D01*
X39139675Y33813646D01*
X39126314Y33802681D01*
X39082577Y33749386D01*
X39050077Y33688583D01*
X39031188Y33626314D01*
X39030064Y33622608D01*
X39023306Y33553997D01*
X39024999Y33536809D01*
X39025000Y27877096D01*
X37966775Y28935320D01*
X37955807Y28948685D01*
X37902512Y28992422D01*
X37841709Y29024922D01*
X37775734Y29044935D01*
X37724311Y29050000D01*
X37724310Y29050000D01*
X37707122Y29051693D01*
X37689934Y29050000D01*
X21808579Y29050000D01*
X19901871Y30956706D01*
X19930287Y30975693D01*
X20024307Y31069713D01*
X20098177Y31180268D01*
X20149060Y31303110D01*
X20175000Y31433518D01*
X20175000Y31566482D01*
X20149060Y31696890D01*
X20098177Y31819732D01*
X20024307Y31930287D01*
X19930287Y32024307D01*
X19819732Y32098177D01*
X19696890Y32149060D01*
X19566482Y32175000D01*
X19433518Y32175000D01*
X19303110Y32149060D01*
X19180268Y32098177D01*
X19069713Y32024307D01*
X18975693Y31930287D01*
X18901823Y31819732D01*
X18850940Y31696890D01*
X18825000Y31566482D01*
X18825000Y31433518D01*
X18850940Y31303110D01*
X18865345Y31268332D01*
X17275000Y32858677D01*
X17275000Y32966482D01*
X17249060Y33096890D01*
X17198177Y33219732D01*
X17124307Y33330287D01*
X17030287Y33424307D01*
X16919732Y33498177D01*
X16796890Y33549060D01*
X16666482Y33575000D01*
X16548973Y33575000D01*
X16589331Y33615358D01*
X16602680Y33626313D01*
X16646418Y33679608D01*
X16678918Y33740411D01*
X16698931Y33806386D01*
X16703996Y33857809D01*
X16703996Y33857811D01*
X16705689Y33874997D01*
X16703996Y33892183D01*
X16703996Y35509023D01*
X17460330Y36265356D01*
X17473685Y36276316D01*
X17517423Y36329611D01*
X17549923Y36390414D01*
X17569936Y36456389D01*
X17575001Y36507812D01*
X17575001Y36507813D01*
X17576694Y36525000D01*
X17575001Y36542189D01*
X17575001Y37830026D01*
X17588804Y37843828D01*
X17683510Y37824990D01*
X17693685Y37824990D01*
X17668940Y37700591D01*
X17668940Y37567627D01*
X17694880Y37437219D01*
X17745763Y37314377D01*
X17819633Y37203822D01*
X17913653Y37109802D01*
X18024208Y37035932D01*
X18147050Y36985049D01*
X18277458Y36959109D01*
X18410422Y36959109D01*
X18505127Y36977947D01*
X18550001Y36933073D01*
X18550000Y35277953D01*
X18469713Y35224307D01*
X18375693Y35130287D01*
X18301823Y35019732D01*
X18250940Y34896890D01*
X18225000Y34766482D01*
X18225000Y34633518D01*
X18250940Y34503110D01*
X18301823Y34380268D01*
X18375693Y34269713D01*
X18469713Y34175693D01*
X18580268Y34101823D01*
X18703110Y34050940D01*
X18833518Y34025000D01*
X18966482Y34025000D01*
X19096890Y34050940D01*
X19219732Y34101823D01*
X19330287Y34175693D01*
X19424307Y34269713D01*
X19498177Y34380268D01*
X19549060Y34503110D01*
X19575000Y34633518D01*
X19575000Y34766482D01*
X19549060Y34896890D01*
X19498177Y35019732D01*
X19424307Y35130287D01*
X19330287Y35224307D01*
X19250000Y35277953D01*
X19250000Y37060860D01*
X19251693Y37078049D01*
X19249711Y37098177D01*
X19244935Y37146661D01*
X19224922Y37212636D01*
X19204951Y37250000D01*
X21675000Y37250000D01*
X21675000Y29750000D01*
X21676441Y29735368D01*
X21680709Y29721299D01*
X21687640Y29708332D01*
X21696967Y29696967D01*
X21708332Y29687640D01*
X21721299Y29680709D01*
X21735368Y29676441D01*
X21750000Y29675000D01*
X38250000Y29675000D01*
X38264632Y29676441D01*
X38278701Y29680709D01*
X38291668Y29687640D01*
X38303033Y29696967D01*
X38312360Y29708332D01*
X38319291Y29721299D01*
X38323559Y29735368D01*
X38325000Y29750000D01*
X38325000Y37250000D01*
X38323559Y37264632D01*
X38319291Y37278701D01*
X38312360Y37291668D01*
X38303033Y37303033D01*
X38291668Y37312360D01*
X38278701Y37319291D01*
X38264632Y37323559D01*
X38250000Y37325000D01*
X21750000Y37325000D01*
X21735368Y37323559D01*
X21721299Y37319291D01*
X21708332Y37312360D01*
X21696967Y37303033D01*
X21687640Y37291668D01*
X21680709Y37278701D01*
X21676441Y37264632D01*
X21675000Y37250000D01*
X19204951Y37250000D01*
X19192422Y37273439D01*
X19148685Y37326734D01*
X19135330Y37337694D01*
X19000102Y37472922D01*
X19018940Y37567627D01*
X19018940Y37700591D01*
X18993000Y37830999D01*
X18942117Y37953841D01*
X18868247Y38064396D01*
X18782653Y38149990D01*
X26189924Y38149990D01*
X26207112Y38148297D01*
X26224300Y38149990D01*
X26224301Y38149990D01*
X26275724Y38155055D01*
X26341699Y38175068D01*
X26402502Y38207568D01*
X26455797Y38251305D01*
X26466765Y38264670D01*
X28327089Y40124992D01*
X38319497Y40124992D01*
X38325926Y40118563D01*
%TA.AperFunction,Conductor*%
D18*
G36*
X38325926Y40118563D02*
G01*
X38208415Y40118563D01*
X38078007Y40092623D01*
X37955165Y40041740D01*
X37844610Y39967870D01*
X37750590Y39873850D01*
X37676720Y39763295D01*
X37625837Y39640453D01*
X37599897Y39510045D01*
X37599897Y39395076D01*
X37409637Y39585336D01*
X37398669Y39598701D01*
X37345374Y39642438D01*
X37284571Y39674938D01*
X37218596Y39694951D01*
X37167173Y39700016D01*
X37167172Y39700016D01*
X37149984Y39701709D01*
X37132796Y39700016D01*
X36727943Y39700016D01*
X36674297Y39780303D01*
X36580277Y39874323D01*
X36469722Y39948193D01*
X36346880Y39999076D01*
X36216472Y40025016D01*
X36083508Y40025016D01*
X35953100Y39999076D01*
X35830258Y39948193D01*
X35719703Y39874323D01*
X35625683Y39780303D01*
X35551813Y39669748D01*
X35500930Y39546906D01*
X35474990Y39416498D01*
X35474990Y39283534D01*
X35500930Y39153126D01*
X35551813Y39030284D01*
X35625683Y38919729D01*
X35719703Y38825709D01*
X35830258Y38751839D01*
X35953100Y38700956D01*
X36083508Y38675016D01*
X36216472Y38675016D01*
X36346880Y38700956D01*
X36469722Y38751839D01*
X36580277Y38825709D01*
X36674297Y38919729D01*
X36727943Y39000016D01*
X37005011Y39000016D01*
X39024999Y36980026D01*
X39025000Y34663201D01*
X39023306Y34646003D01*
X39030064Y34577392D01*
X39049540Y34513190D01*
X39050078Y34511416D01*
X39082578Y34450613D01*
X39126315Y34397318D01*
X39139675Y34386354D01*
X39175001Y34351028D01*
X39175002Y33848973D01*
X39139675Y33813646D01*
X39126314Y33802681D01*
X39082577Y33749386D01*
X39050077Y33688583D01*
X39031188Y33626314D01*
X39030064Y33622608D01*
X39023306Y33553997D01*
X39024999Y33536809D01*
X39025000Y27877096D01*
X37966775Y28935320D01*
X37955807Y28948685D01*
X37902512Y28992422D01*
X37841709Y29024922D01*
X37775734Y29044935D01*
X37724311Y29050000D01*
X37724310Y29050000D01*
X37707122Y29051693D01*
X37689934Y29050000D01*
X21808579Y29050000D01*
X19901871Y30956706D01*
X19930287Y30975693D01*
X20024307Y31069713D01*
X20098177Y31180268D01*
X20149060Y31303110D01*
X20175000Y31433518D01*
X20175000Y31566482D01*
X20149060Y31696890D01*
X20098177Y31819732D01*
X20024307Y31930287D01*
X19930287Y32024307D01*
X19819732Y32098177D01*
X19696890Y32149060D01*
X19566482Y32175000D01*
X19433518Y32175000D01*
X19303110Y32149060D01*
X19180268Y32098177D01*
X19069713Y32024307D01*
X18975693Y31930287D01*
X18901823Y31819732D01*
X18850940Y31696890D01*
X18825000Y31566482D01*
X18825000Y31433518D01*
X18850940Y31303110D01*
X18865345Y31268332D01*
X17275000Y32858677D01*
X17275000Y32966482D01*
X17249060Y33096890D01*
X17198177Y33219732D01*
X17124307Y33330287D01*
X17030287Y33424307D01*
X16919732Y33498177D01*
X16796890Y33549060D01*
X16666482Y33575000D01*
X16548973Y33575000D01*
X16589331Y33615358D01*
X16602680Y33626313D01*
X16646418Y33679608D01*
X16678918Y33740411D01*
X16698931Y33806386D01*
X16703996Y33857809D01*
X16703996Y33857811D01*
X16705689Y33874997D01*
X16703996Y33892183D01*
X16703996Y35509023D01*
X17460330Y36265356D01*
X17473685Y36276316D01*
X17517423Y36329611D01*
X17549923Y36390414D01*
X17569936Y36456389D01*
X17575001Y36507812D01*
X17575001Y36507813D01*
X17576694Y36525000D01*
X17575001Y36542189D01*
X17575001Y37830026D01*
X17588804Y37843828D01*
X17683510Y37824990D01*
X17693685Y37824990D01*
X17668940Y37700591D01*
X17668940Y37567627D01*
X17694880Y37437219D01*
X17745763Y37314377D01*
X17819633Y37203822D01*
X17913653Y37109802D01*
X18024208Y37035932D01*
X18147050Y36985049D01*
X18277458Y36959109D01*
X18410422Y36959109D01*
X18505127Y36977947D01*
X18550001Y36933073D01*
X18550000Y35277953D01*
X18469713Y35224307D01*
X18375693Y35130287D01*
X18301823Y35019732D01*
X18250940Y34896890D01*
X18225000Y34766482D01*
X18225000Y34633518D01*
X18250940Y34503110D01*
X18301823Y34380268D01*
X18375693Y34269713D01*
X18469713Y34175693D01*
X18580268Y34101823D01*
X18703110Y34050940D01*
X18833518Y34025000D01*
X18966482Y34025000D01*
X19096890Y34050940D01*
X19219732Y34101823D01*
X19330287Y34175693D01*
X19424307Y34269713D01*
X19498177Y34380268D01*
X19549060Y34503110D01*
X19575000Y34633518D01*
X19575000Y34766482D01*
X19549060Y34896890D01*
X19498177Y35019732D01*
X19424307Y35130287D01*
X19330287Y35224307D01*
X19250000Y35277953D01*
X19250000Y37060860D01*
X19251693Y37078049D01*
X19249711Y37098177D01*
X19244935Y37146661D01*
X19224922Y37212636D01*
X19204951Y37250000D01*
X21675000Y37250000D01*
X21675000Y29750000D01*
X21676441Y29735368D01*
X21680709Y29721299D01*
X21687640Y29708332D01*
X21696967Y29696967D01*
X21708332Y29687640D01*
X21721299Y29680709D01*
X21735368Y29676441D01*
X21750000Y29675000D01*
X38250000Y29675000D01*
X38264632Y29676441D01*
X38278701Y29680709D01*
X38291668Y29687640D01*
X38303033Y29696967D01*
X38312360Y29708332D01*
X38319291Y29721299D01*
X38323559Y29735368D01*
X38325000Y29750000D01*
X38325000Y37250000D01*
X38323559Y37264632D01*
X38319291Y37278701D01*
X38312360Y37291668D01*
X38303033Y37303033D01*
X38291668Y37312360D01*
X38278701Y37319291D01*
X38264632Y37323559D01*
X38250000Y37325000D01*
X21750000Y37325000D01*
X21735368Y37323559D01*
X21721299Y37319291D01*
X21708332Y37312360D01*
X21696967Y37303033D01*
X21687640Y37291668D01*
X21680709Y37278701D01*
X21676441Y37264632D01*
X21675000Y37250000D01*
X19204951Y37250000D01*
X19192422Y37273439D01*
X19148685Y37326734D01*
X19135330Y37337694D01*
X19000102Y37472922D01*
X19018940Y37567627D01*
X19018940Y37700591D01*
X18993000Y37830999D01*
X18942117Y37953841D01*
X18868247Y38064396D01*
X18782653Y38149990D01*
X26189924Y38149990D01*
X26207112Y38148297D01*
X26224300Y38149990D01*
X26224301Y38149990D01*
X26275724Y38155055D01*
X26341699Y38175068D01*
X26402502Y38207568D01*
X26455797Y38251305D01*
X26466765Y38264670D01*
X28327089Y40124992D01*
X38319497Y40124992D01*
X38325926Y40118563D01*
G37*
%TD.AperFunction*%
%TD*%
D17*
%TO.N,+3V3*%
X11925000Y11075000D02*
X2075000Y11075000D01*
X2075000Y17925000D01*
X11925000Y17925000D01*
X11925000Y11075000D01*
%TA.AperFunction,Conductor*%
D18*
G36*
X11925000Y11075000D02*
G01*
X2075000Y11075000D01*
X2075000Y17925000D01*
X11925000Y17925000D01*
X11925000Y11075000D01*
G37*
%TD.AperFunction*%
%TD*%
M02*
