%TF.GenerationSoftware,KiCad,Pcbnew,5.1.9-73d0e3b20d~88~ubuntu20.04.1*%
%TF.CreationDate,2021-04-29T21:08:44+02:00*%
%TF.ProjectId,gamearino,67616d65-6172-4696-9e6f-2e6b69636164,v0.0.1*%
%TF.SameCoordinates,PX5f5e100PY5f5e100*%
%TF.FileFunction,Soldermask,Bot*%
%TF.FilePolarity,Negative*%
%FSLAX46Y46*%
G04 Gerber Fmt 4.6, Leading zero omitted, Abs format (unit mm)*
G04 Created by KiCad (PCBNEW 5.1.9-73d0e3b20d~88~ubuntu20.04.1) date 2021-04-29 21:08:44*
%MOMM*%
%LPD*%
G01*
G04 APERTURE LIST*
%ADD10C,0.150000*%
%ADD11C,0.300000*%
%ADD12C,0.700000*%
%ADD13O,1.000000X1.800000*%
%ADD14O,1.000000X2.100000*%
%ADD15C,0.600000*%
%ADD16C,3.300000*%
%ADD17C,1.000000*%
G04 APERTURE END LIST*
D10*
X43261904Y47314286D02*
X43261904Y46504762D01*
X43309523Y46409524D01*
X43357142Y46361905D01*
X43452380Y46314286D01*
X43595238Y46314286D01*
X43690476Y46361905D01*
X43261904Y46695239D02*
X43357142Y46647620D01*
X43547619Y46647620D01*
X43642857Y46695239D01*
X43690476Y46742858D01*
X43738095Y46838096D01*
X43738095Y47123810D01*
X43690476Y47219048D01*
X43642857Y47266667D01*
X43547619Y47314286D01*
X43357142Y47314286D01*
X43261904Y47266667D01*
X42785714Y46647620D02*
X42785714Y47314286D01*
X42785714Y47647620D02*
X42833333Y47600000D01*
X42785714Y47552381D01*
X42738095Y47600000D01*
X42785714Y47647620D01*
X42785714Y47552381D01*
X42452380Y47314286D02*
X42071428Y47314286D01*
X42309523Y47647620D02*
X42309523Y46790477D01*
X42261904Y46695239D01*
X42166666Y46647620D01*
X42071428Y46647620D01*
X41738095Y46647620D02*
X41738095Y47647620D01*
X41309523Y46647620D02*
X41309523Y47171429D01*
X41357142Y47266667D01*
X41452380Y47314286D01*
X41595238Y47314286D01*
X41690476Y47266667D01*
X41738095Y47219048D01*
X40404761Y47314286D02*
X40404761Y46647620D01*
X40833333Y47314286D02*
X40833333Y46790477D01*
X40785714Y46695239D01*
X40690476Y46647620D01*
X40547619Y46647620D01*
X40452380Y46695239D01*
X40404761Y46742858D01*
X39928571Y46647620D02*
X39928571Y47647620D01*
X39928571Y47266667D02*
X39833333Y47314286D01*
X39642857Y47314286D01*
X39547619Y47266667D01*
X39500000Y47219048D01*
X39452380Y47123810D01*
X39452380Y46838096D01*
X39500000Y46742858D01*
X39547619Y46695239D01*
X39642857Y46647620D01*
X39833333Y46647620D01*
X39928571Y46695239D01*
X39023809Y46742858D02*
X38976190Y46695239D01*
X39023809Y46647620D01*
X39071428Y46695239D01*
X39023809Y46742858D01*
X39023809Y46647620D01*
X38119047Y46695239D02*
X38214285Y46647620D01*
X38404761Y46647620D01*
X38500000Y46695239D01*
X38547619Y46742858D01*
X38595238Y46838096D01*
X38595238Y47123810D01*
X38547619Y47219048D01*
X38500000Y47266667D01*
X38404761Y47314286D01*
X38214285Y47314286D01*
X38119047Y47266667D01*
X37547619Y46647620D02*
X37642857Y46695239D01*
X37690476Y46742858D01*
X37738095Y46838096D01*
X37738095Y47123810D01*
X37690476Y47219048D01*
X37642857Y47266667D01*
X37547619Y47314286D01*
X37404761Y47314286D01*
X37309523Y47266667D01*
X37261904Y47219048D01*
X37214285Y47123810D01*
X37214285Y46838096D01*
X37261904Y46742858D01*
X37309523Y46695239D01*
X37404761Y46647620D01*
X37547619Y46647620D01*
X36785714Y46647620D02*
X36785714Y47314286D01*
X36785714Y47219048D02*
X36738095Y47266667D01*
X36642857Y47314286D01*
X36500000Y47314286D01*
X36404761Y47266667D01*
X36357142Y47171429D01*
X36357142Y46647620D01*
X36357142Y47171429D02*
X36309523Y47266667D01*
X36214285Y47314286D01*
X36071428Y47314286D01*
X35976190Y47266667D01*
X35928571Y47171429D01*
X35928571Y46647620D01*
X34738095Y47695239D02*
X35595238Y46409524D01*
X34404761Y46647620D02*
X34404761Y47647620D01*
X33833333Y46647620D02*
X34261904Y47219048D01*
X33833333Y47647620D02*
X34404761Y47076191D01*
X32976190Y46647620D02*
X32976190Y47171429D01*
X33023809Y47266667D01*
X33119047Y47314286D01*
X33309523Y47314286D01*
X33404761Y47266667D01*
X32976190Y46695239D02*
X33071428Y46647620D01*
X33309523Y46647620D01*
X33404761Y46695239D01*
X33452380Y46790477D01*
X33452380Y46885715D01*
X33404761Y46980953D01*
X33309523Y47028572D01*
X33071428Y47028572D01*
X32976190Y47076191D01*
X32500000Y46647620D02*
X32500000Y47314286D01*
X32500000Y47123810D02*
X32452380Y47219048D01*
X32404761Y47266667D01*
X32309523Y47314286D01*
X32214285Y47314286D01*
X31738095Y46647620D02*
X31833333Y46695239D01*
X31880952Y46790477D01*
X31880952Y47647620D01*
X31452380Y47647620D02*
X30785714Y47647620D01*
X31452380Y46647620D01*
X30785714Y46647620D01*
X30023809Y46695239D02*
X30119047Y46647620D01*
X30309523Y46647620D01*
X30404761Y46695239D01*
X30452380Y46790477D01*
X30452380Y47171429D01*
X30404761Y47266667D01*
X30309523Y47314286D01*
X30119047Y47314286D01*
X30023809Y47266667D01*
X29976190Y47171429D01*
X29976190Y47076191D01*
X30452380Y46980953D01*
X29547619Y46647620D02*
X29547619Y47314286D01*
X29547619Y47647620D02*
X29595238Y47600000D01*
X29547619Y47552381D01*
X29500000Y47600000D01*
X29547619Y47647620D01*
X29547619Y47552381D01*
X28928571Y46647620D02*
X29023809Y46695239D01*
X29071428Y46790477D01*
X29071428Y47647620D01*
X28547619Y46647620D02*
X28547619Y47647620D01*
X28119047Y46647620D02*
X28119047Y47171429D01*
X28166666Y47266667D01*
X28261904Y47314286D01*
X28404761Y47314286D01*
X28500000Y47266667D01*
X28547619Y47219048D01*
X27500000Y46647620D02*
X27595238Y46695239D01*
X27642857Y46742858D01*
X27690476Y46838096D01*
X27690476Y47123810D01*
X27642857Y47219048D01*
X27595238Y47266667D01*
X27500000Y47314286D01*
X27357142Y47314286D01*
X27261904Y47266667D01*
X27214285Y47219048D01*
X27166666Y47123810D01*
X27166666Y46838096D01*
X27214285Y46742858D01*
X27261904Y46695239D01*
X27357142Y46647620D01*
X27500000Y46647620D01*
X26880952Y47314286D02*
X26500000Y47314286D01*
X26738095Y46647620D02*
X26738095Y47504762D01*
X26690476Y47600000D01*
X26595238Y47647620D01*
X26500000Y47647620D01*
X25785714Y46695239D02*
X25880952Y46647620D01*
X26071428Y46647620D01*
X26166666Y46695239D01*
X26214285Y46790477D01*
X26214285Y47171429D01*
X26166666Y47266667D01*
X26071428Y47314286D01*
X25880952Y47314286D01*
X25785714Y47266667D01*
X25738095Y47171429D01*
X25738095Y47076191D01*
X26214285Y46980953D01*
X25309523Y46647620D02*
X25309523Y47314286D01*
X25309523Y47123810D02*
X25261904Y47219048D01*
X25214285Y47266667D01*
X25119047Y47314286D01*
X25023809Y47314286D01*
X23976190Y47695239D02*
X24833333Y46409524D01*
X23214285Y47314286D02*
X23214285Y46504762D01*
X23261904Y46409524D01*
X23309523Y46361905D01*
X23404761Y46314286D01*
X23547619Y46314286D01*
X23642857Y46361905D01*
X23214285Y46695239D02*
X23309523Y46647620D01*
X23500000Y46647620D01*
X23595238Y46695239D01*
X23642857Y46742858D01*
X23690476Y46838096D01*
X23690476Y47123810D01*
X23642857Y47219048D01*
X23595238Y47266667D01*
X23500000Y47314286D01*
X23309523Y47314286D01*
X23214285Y47266667D01*
X22309523Y46647620D02*
X22309523Y47171429D01*
X22357142Y47266667D01*
X22452380Y47314286D01*
X22642857Y47314286D01*
X22738095Y47266667D01*
X22309523Y46695239D02*
X22404761Y46647620D01*
X22642857Y46647620D01*
X22738095Y46695239D01*
X22785714Y46790477D01*
X22785714Y46885715D01*
X22738095Y46980953D01*
X22642857Y47028572D01*
X22404761Y47028572D01*
X22309523Y47076191D01*
X21833333Y46647620D02*
X21833333Y47314286D01*
X21833333Y47219048D02*
X21785714Y47266667D01*
X21690476Y47314286D01*
X21547619Y47314286D01*
X21452380Y47266667D01*
X21404761Y47171429D01*
X21404761Y46647620D01*
X21404761Y47171429D02*
X21357142Y47266667D01*
X21261904Y47314286D01*
X21119047Y47314286D01*
X21023809Y47266667D01*
X20976190Y47171429D01*
X20976190Y46647620D01*
X20119047Y46695239D02*
X20214285Y46647620D01*
X20404761Y46647620D01*
X20500000Y46695239D01*
X20547619Y46790477D01*
X20547619Y47171429D01*
X20500000Y47266667D01*
X20404761Y47314286D01*
X20214285Y47314286D01*
X20119047Y47266667D01*
X20071428Y47171429D01*
X20071428Y47076191D01*
X20547619Y46980953D01*
X19214285Y46647620D02*
X19214285Y47171429D01*
X19261904Y47266667D01*
X19357142Y47314286D01*
X19547619Y47314286D01*
X19642857Y47266667D01*
X19214285Y46695239D02*
X19309523Y46647620D01*
X19547619Y46647620D01*
X19642857Y46695239D01*
X19690476Y46790477D01*
X19690476Y46885715D01*
X19642857Y46980953D01*
X19547619Y47028572D01*
X19309523Y47028572D01*
X19214285Y47076191D01*
X18738095Y46647620D02*
X18738095Y47314286D01*
X18738095Y47123810D02*
X18690476Y47219048D01*
X18642857Y47266667D01*
X18547619Y47314286D01*
X18452380Y47314286D01*
X18119047Y46647620D02*
X18119047Y47314286D01*
X18119047Y47647620D02*
X18166666Y47600000D01*
X18119047Y47552381D01*
X18071428Y47600000D01*
X18119047Y47647620D01*
X18119047Y47552381D01*
X17642857Y47314286D02*
X17642857Y46647620D01*
X17642857Y47219048D02*
X17595238Y47266667D01*
X17500000Y47314286D01*
X17357142Y47314286D01*
X17261904Y47266667D01*
X17214285Y47171429D01*
X17214285Y46647620D01*
X16595238Y46647620D02*
X16690476Y46695239D01*
X16738095Y46742858D01*
X16785714Y46838096D01*
X16785714Y47123810D01*
X16738095Y47219048D01*
X16690476Y47266667D01*
X16595238Y47314286D01*
X16452380Y47314286D01*
X16357142Y47266667D01*
X16309523Y47219048D01*
X16261904Y47123810D01*
X16261904Y46838096D01*
X16309523Y46742858D01*
X16357142Y46695239D01*
X16452380Y46647620D01*
X16595238Y46647620D01*
X12250000Y19033334D02*
X11773809Y19033334D01*
X12345238Y18747620D02*
X12011904Y19747620D01*
X11678571Y18747620D01*
X11345238Y18747620D02*
X11345238Y19747620D01*
X11011904Y19033334D01*
X10678571Y19747620D01*
X10678571Y18747620D01*
X10250000Y18795239D02*
X10107142Y18747620D01*
X9869047Y18747620D01*
X9773809Y18795239D01*
X9726190Y18842858D01*
X9678571Y18938096D01*
X9678571Y19033334D01*
X9726190Y19128572D01*
X9773809Y19176191D01*
X9869047Y19223810D01*
X10059523Y19271429D01*
X10154761Y19319048D01*
X10202380Y19366667D01*
X10250000Y19461905D01*
X10250000Y19557143D01*
X10202380Y19652381D01*
X10154761Y19700000D01*
X10059523Y19747620D01*
X9821428Y19747620D01*
X9678571Y19700000D01*
X8726190Y18747620D02*
X9297619Y18747620D01*
X9011904Y18747620D02*
X9011904Y19747620D01*
X9107142Y19604762D01*
X9202380Y19509524D01*
X9297619Y19461905D01*
X7773809Y18747620D02*
X8345238Y18747620D01*
X8059523Y18747620D02*
X8059523Y19747620D01*
X8154761Y19604762D01*
X8250000Y19509524D01*
X8345238Y19461905D01*
X6821428Y18747620D02*
X7392857Y18747620D01*
X7107142Y18747620D02*
X7107142Y19747620D01*
X7202380Y19604762D01*
X7297619Y19509524D01*
X7392857Y19461905D01*
X6488095Y19747620D02*
X5821428Y19747620D01*
X6250000Y18747620D01*
X5440476Y19128572D02*
X4678571Y19128572D01*
X4297619Y19747620D02*
X3678571Y19747620D01*
X4011904Y19366667D01*
X3869047Y19366667D01*
X3773809Y19319048D01*
X3726190Y19271429D01*
X3678571Y19176191D01*
X3678571Y18938096D01*
X3726190Y18842858D01*
X3773809Y18795239D01*
X3869047Y18747620D01*
X4154761Y18747620D01*
X4250000Y18795239D01*
X4297619Y18842858D01*
X3250000Y18842858D02*
X3202380Y18795239D01*
X3250000Y18747620D01*
X3297619Y18795239D01*
X3250000Y18842858D01*
X3250000Y18747620D01*
X2869047Y19747620D02*
X2250000Y19747620D01*
X2583333Y19366667D01*
X2440476Y19366667D01*
X2345238Y19319048D01*
X2297619Y19271429D01*
X2250000Y19176191D01*
X2250000Y18938096D01*
X2297619Y18842858D01*
X2345238Y18795239D01*
X2440476Y18747620D01*
X2726190Y18747620D01*
X2821428Y18795239D01*
X2869047Y18842858D01*
X47742857Y10157143D02*
X47695238Y10109524D01*
X47647619Y9966667D01*
X47647619Y9871429D01*
X47695238Y9728572D01*
X47790476Y9633334D01*
X47885714Y9585715D01*
X48076190Y9538096D01*
X48219047Y9538096D01*
X48409523Y9585715D01*
X48504761Y9633334D01*
X48600000Y9728572D01*
X48647619Y9871429D01*
X48647619Y9966667D01*
X48600000Y10109524D01*
X48552380Y10157143D01*
X47647619Y10585715D02*
X48647619Y10585715D01*
X48171428Y10585715D02*
X48171428Y11157143D01*
X47647619Y11157143D02*
X48647619Y11157143D01*
X48647619Y11538096D02*
X48647619Y12157143D01*
X48266666Y11823810D01*
X48266666Y11966667D01*
X48219047Y12061905D01*
X48171428Y12109524D01*
X48076190Y12157143D01*
X47838095Y12157143D01*
X47742857Y12109524D01*
X47695238Y12061905D01*
X47647619Y11966667D01*
X47647619Y11680953D01*
X47695238Y11585715D01*
X47742857Y11538096D01*
X48314285Y13014286D02*
X47647619Y13014286D01*
X48695238Y12776191D02*
X47980952Y12538096D01*
X47980952Y13157143D01*
X48647619Y13728572D02*
X48647619Y13823810D01*
X48600000Y13919048D01*
X48552380Y13966667D01*
X48457142Y14014286D01*
X48266666Y14061905D01*
X48028571Y14061905D01*
X47838095Y14014286D01*
X47742857Y13966667D01*
X47695238Y13919048D01*
X47647619Y13823810D01*
X47647619Y13728572D01*
X47695238Y13633334D01*
X47742857Y13585715D01*
X47838095Y13538096D01*
X48028571Y13490477D01*
X48266666Y13490477D01*
X48457142Y13538096D01*
X48552380Y13585715D01*
X48600000Y13633334D01*
X48647619Y13728572D01*
X47742857Y15061905D02*
X47695238Y15014286D01*
X47647619Y14871429D01*
X47647619Y14776191D01*
X47695238Y14633334D01*
X47790476Y14538096D01*
X47885714Y14490477D01*
X48076190Y14442858D01*
X48219047Y14442858D01*
X48409523Y14490477D01*
X48504761Y14538096D01*
X48600000Y14633334D01*
X48647619Y14776191D01*
X48647619Y14871429D01*
X48600000Y15014286D01*
X48552380Y15061905D01*
X37571428Y25996429D02*
X37238095Y25996429D01*
X37095238Y25472620D02*
X37571428Y25472620D01*
X37571428Y26472620D01*
X37095238Y26472620D01*
X36714285Y25520239D02*
X36571428Y25472620D01*
X36333333Y25472620D01*
X36238095Y25520239D01*
X36190476Y25567858D01*
X36142857Y25663096D01*
X36142857Y25758334D01*
X36190476Y25853572D01*
X36238095Y25901191D01*
X36333333Y25948810D01*
X36523809Y25996429D01*
X36619047Y26044048D01*
X36666666Y26091667D01*
X36714285Y26186905D01*
X36714285Y26282143D01*
X36666666Y26377381D01*
X36619047Y26425000D01*
X36523809Y26472620D01*
X36285714Y26472620D01*
X36142857Y26425000D01*
X35714285Y25472620D02*
X35714285Y26472620D01*
X35333333Y26472620D01*
X35238095Y26425000D01*
X35190476Y26377381D01*
X35142857Y26282143D01*
X35142857Y26139286D01*
X35190476Y26044048D01*
X35238095Y25996429D01*
X35333333Y25948810D01*
X35714285Y25948810D01*
X34714285Y25853572D02*
X33952380Y25853572D01*
X32952380Y25472620D02*
X33523809Y25472620D01*
X33238095Y25472620D02*
X33238095Y26472620D01*
X33333333Y26329762D01*
X33428571Y26234524D01*
X33523809Y26186905D01*
X32571428Y26377381D02*
X32523809Y26425000D01*
X32428571Y26472620D01*
X32190476Y26472620D01*
X32095238Y26425000D01*
X32047619Y26377381D01*
X32000000Y26282143D01*
X32000000Y26186905D01*
X32047619Y26044048D01*
X32619047Y25472620D01*
X32000000Y25472620D01*
X31238095Y25996429D02*
X31571428Y25996429D01*
X31571428Y25472620D02*
X31571428Y26472620D01*
X31095238Y26472620D01*
X29666666Y25091667D02*
X29714285Y25139286D01*
X29809523Y25282143D01*
X29857142Y25377381D01*
X29904761Y25520239D01*
X29952380Y25758334D01*
X29952380Y25948810D01*
X29904761Y26186905D01*
X29857142Y26329762D01*
X29809523Y26425000D01*
X29714285Y26567858D01*
X29666666Y26615477D01*
X29285714Y25996429D02*
X28952380Y25996429D01*
X28809523Y25472620D02*
X29285714Y25472620D01*
X29285714Y26472620D01*
X28809523Y26472620D01*
X28428571Y25520239D02*
X28285714Y25472620D01*
X28047619Y25472620D01*
X27952380Y25520239D01*
X27904761Y25567858D01*
X27857142Y25663096D01*
X27857142Y25758334D01*
X27904761Y25853572D01*
X27952380Y25901191D01*
X28047619Y25948810D01*
X28238095Y25996429D01*
X28333333Y26044048D01*
X28380952Y26091667D01*
X28428571Y26186905D01*
X28428571Y26282143D01*
X28380952Y26377381D01*
X28333333Y26425000D01*
X28238095Y26472620D01*
X28000000Y26472620D01*
X27857142Y26425000D01*
X27428571Y25472620D02*
X27428571Y26472620D01*
X27047619Y26472620D01*
X26952380Y26425000D01*
X26904761Y26377381D01*
X26857142Y26282143D01*
X26857142Y26139286D01*
X26904761Y26044048D01*
X26952380Y25996429D01*
X27047619Y25948810D01*
X27428571Y25948810D01*
X26285714Y26044048D02*
X26380952Y26091667D01*
X26428571Y26139286D01*
X26476190Y26234524D01*
X26476190Y26282143D01*
X26428571Y26377381D01*
X26380952Y26425000D01*
X26285714Y26472620D01*
X26095238Y26472620D01*
X26000000Y26425000D01*
X25952380Y26377381D01*
X25904761Y26282143D01*
X25904761Y26234524D01*
X25952380Y26139286D01*
X26000000Y26091667D01*
X26095238Y26044048D01*
X26285714Y26044048D01*
X26380952Y25996429D01*
X26428571Y25948810D01*
X26476190Y25853572D01*
X26476190Y25663096D01*
X26428571Y25567858D01*
X26380952Y25520239D01*
X26285714Y25472620D01*
X26095238Y25472620D01*
X26000000Y25520239D01*
X25952380Y25567858D01*
X25904761Y25663096D01*
X25904761Y25853572D01*
X25952380Y25948810D01*
X26000000Y25996429D01*
X26095238Y26044048D01*
X25523809Y26377381D02*
X25476190Y26425000D01*
X25380952Y26472620D01*
X25142857Y26472620D01*
X25047619Y26425000D01*
X25000000Y26377381D01*
X24952380Y26282143D01*
X24952380Y26186905D01*
X25000000Y26044048D01*
X25571428Y25472620D01*
X24952380Y25472620D01*
X24095238Y26472620D02*
X24285714Y26472620D01*
X24380952Y26425000D01*
X24428571Y26377381D01*
X24523809Y26234524D01*
X24571428Y26044048D01*
X24571428Y25663096D01*
X24523809Y25567858D01*
X24476190Y25520239D01*
X24380952Y25472620D01*
X24190476Y25472620D01*
X24095238Y25520239D01*
X24047619Y25567858D01*
X24000000Y25663096D01*
X24000000Y25901191D01*
X24047619Y25996429D01*
X24095238Y26044048D01*
X24190476Y26091667D01*
X24380952Y26091667D01*
X24476190Y26044048D01*
X24523809Y25996429D01*
X24571428Y25901191D01*
X23142857Y26472620D02*
X23333333Y26472620D01*
X23428571Y26425000D01*
X23476190Y26377381D01*
X23571428Y26234524D01*
X23619047Y26044048D01*
X23619047Y25663096D01*
X23571428Y25567858D01*
X23523809Y25520239D01*
X23428571Y25472620D01*
X23238095Y25472620D01*
X23142857Y25520239D01*
X23095238Y25567858D01*
X23047619Y25663096D01*
X23047619Y25901191D01*
X23095238Y25996429D01*
X23142857Y26044048D01*
X23238095Y26091667D01*
X23428571Y26091667D01*
X23523809Y26044048D01*
X23571428Y25996429D01*
X23619047Y25901191D01*
X22714285Y25091667D02*
X22666666Y25139286D01*
X22571428Y25282143D01*
X22523809Y25377381D01*
X22476190Y25520239D01*
X22428571Y25758334D01*
X22428571Y25948810D01*
X22476190Y26186905D01*
X22523809Y26329762D01*
X22571428Y26425000D01*
X22666666Y26567858D01*
X22714285Y26615477D01*
X34166666Y22458334D02*
X33690476Y22458334D01*
X34261904Y22172620D02*
X33928571Y23172620D01*
X33595238Y22172620D01*
X33261904Y22172620D02*
X33261904Y22839286D01*
X33261904Y22648810D02*
X33214285Y22744048D01*
X33166666Y22791667D01*
X33071428Y22839286D01*
X32976190Y22839286D01*
X32214285Y22172620D02*
X32214285Y23172620D01*
X32214285Y22220239D02*
X32309523Y22172620D01*
X32500000Y22172620D01*
X32595238Y22220239D01*
X32642857Y22267858D01*
X32690476Y22363096D01*
X32690476Y22648810D01*
X32642857Y22744048D01*
X32595238Y22791667D01*
X32500000Y22839286D01*
X32309523Y22839286D01*
X32214285Y22791667D01*
X31309523Y22839286D02*
X31309523Y22172620D01*
X31738095Y22839286D02*
X31738095Y22315477D01*
X31690476Y22220239D01*
X31595238Y22172620D01*
X31452380Y22172620D01*
X31357142Y22220239D01*
X31309523Y22267858D01*
X30833333Y22172620D02*
X30833333Y22839286D01*
X30833333Y23172620D02*
X30880952Y23125000D01*
X30833333Y23077381D01*
X30785714Y23125000D01*
X30833333Y23172620D01*
X30833333Y23077381D01*
X30357142Y22839286D02*
X30357142Y22172620D01*
X30357142Y22744048D02*
X30309523Y22791667D01*
X30214285Y22839286D01*
X30071428Y22839286D01*
X29976190Y22791667D01*
X29928571Y22696429D01*
X29928571Y22172620D01*
X29309523Y22172620D02*
X29404761Y22220239D01*
X29452380Y22267858D01*
X29500000Y22363096D01*
X29500000Y22648810D01*
X29452380Y22744048D01*
X29404761Y22791667D01*
X29309523Y22839286D01*
X29166666Y22839286D01*
X29071428Y22791667D01*
X29023809Y22744048D01*
X28976190Y22648810D01*
X28976190Y22363096D01*
X29023809Y22267858D01*
X29071428Y22220239D01*
X29166666Y22172620D01*
X29309523Y22172620D01*
X27785714Y22172620D02*
X27785714Y23172620D01*
X27309523Y22172620D02*
X27309523Y23172620D01*
X27071428Y23172620D01*
X26928571Y23125000D01*
X26833333Y23029762D01*
X26785714Y22934524D01*
X26738095Y22744048D01*
X26738095Y22601191D01*
X26785714Y22410715D01*
X26833333Y22315477D01*
X26928571Y22220239D01*
X27071428Y22172620D01*
X27309523Y22172620D01*
X26309523Y22696429D02*
X25976190Y22696429D01*
X25833333Y22172620D02*
X26309523Y22172620D01*
X26309523Y23172620D01*
X25833333Y23172620D01*
X32761904Y20570239D02*
X32666666Y20522620D01*
X32476190Y20522620D01*
X32380952Y20570239D01*
X32333333Y20665477D01*
X32333333Y20713096D01*
X32380952Y20808334D01*
X32476190Y20855953D01*
X32619047Y20855953D01*
X32714285Y20903572D01*
X32761904Y20998810D01*
X32761904Y21046429D01*
X32714285Y21141667D01*
X32619047Y21189286D01*
X32476190Y21189286D01*
X32380952Y21141667D01*
X31523809Y20570239D02*
X31619047Y20522620D01*
X31809523Y20522620D01*
X31904761Y20570239D01*
X31952380Y20665477D01*
X31952380Y21046429D01*
X31904761Y21141667D01*
X31809523Y21189286D01*
X31619047Y21189286D01*
X31523809Y21141667D01*
X31476190Y21046429D01*
X31476190Y20951191D01*
X31952380Y20855953D01*
X31190476Y21189286D02*
X30809523Y21189286D01*
X31047619Y21522620D02*
X31047619Y20665477D01*
X31000000Y20570239D01*
X30904761Y20522620D01*
X30809523Y20522620D01*
X30619047Y21189286D02*
X30238095Y21189286D01*
X30476190Y21522620D02*
X30476190Y20665477D01*
X30428571Y20570239D01*
X30333333Y20522620D01*
X30238095Y20522620D01*
X29904761Y20522620D02*
X29904761Y21189286D01*
X29904761Y21522620D02*
X29952380Y21475000D01*
X29904761Y21427381D01*
X29857142Y21475000D01*
X29904761Y21522620D01*
X29904761Y21427381D01*
X29428571Y21189286D02*
X29428571Y20522620D01*
X29428571Y21094048D02*
X29380952Y21141667D01*
X29285714Y21189286D01*
X29142857Y21189286D01*
X29047619Y21141667D01*
X29000000Y21046429D01*
X29000000Y20522620D01*
X28095238Y21189286D02*
X28095238Y20379762D01*
X28142857Y20284524D01*
X28190476Y20236905D01*
X28285714Y20189286D01*
X28428571Y20189286D01*
X28523809Y20236905D01*
X28095238Y20570239D02*
X28190476Y20522620D01*
X28380952Y20522620D01*
X28476190Y20570239D01*
X28523809Y20617858D01*
X28571428Y20713096D01*
X28571428Y20998810D01*
X28523809Y21094048D01*
X28476190Y21141667D01*
X28380952Y21189286D01*
X28190476Y21189286D01*
X28095238Y21141667D01*
X27666666Y20570239D02*
X27571428Y20522620D01*
X27380952Y20522620D01*
X27285714Y20570239D01*
X27238095Y20665477D01*
X27238095Y20713096D01*
X27285714Y20808334D01*
X27380952Y20855953D01*
X27523809Y20855953D01*
X27619047Y20903572D01*
X27666666Y20998810D01*
X27666666Y21046429D01*
X27619047Y21141667D01*
X27523809Y21189286D01*
X27380952Y21189286D01*
X27285714Y21141667D01*
X35714285Y18920239D02*
X35809523Y18872620D01*
X36000000Y18872620D01*
X36095238Y18920239D01*
X36142857Y18967858D01*
X36190476Y19063096D01*
X36190476Y19348810D01*
X36142857Y19444048D01*
X36095238Y19491667D01*
X36000000Y19539286D01*
X35809523Y19539286D01*
X35714285Y19491667D01*
X35142857Y18872620D02*
X35238095Y18920239D01*
X35285714Y18967858D01*
X35333333Y19063096D01*
X35333333Y19348810D01*
X35285714Y19444048D01*
X35238095Y19491667D01*
X35142857Y19539286D01*
X35000000Y19539286D01*
X34904761Y19491667D01*
X34857142Y19444048D01*
X34809523Y19348810D01*
X34809523Y19063096D01*
X34857142Y18967858D01*
X34904761Y18920239D01*
X35000000Y18872620D01*
X35142857Y18872620D01*
X34380952Y18872620D02*
X34380952Y19539286D01*
X34380952Y19444048D02*
X34333333Y19491667D01*
X34238095Y19539286D01*
X34095238Y19539286D01*
X34000000Y19491667D01*
X33952380Y19396429D01*
X33952380Y18872620D01*
X33952380Y19396429D02*
X33904761Y19491667D01*
X33809523Y19539286D01*
X33666666Y19539286D01*
X33571428Y19491667D01*
X33523809Y19396429D01*
X33523809Y18872620D01*
X33047619Y19539286D02*
X33047619Y18539286D01*
X33047619Y19491667D02*
X32952380Y19539286D01*
X32761904Y19539286D01*
X32666666Y19491667D01*
X32619047Y19444048D01*
X32571428Y19348810D01*
X32571428Y19063096D01*
X32619047Y18967858D01*
X32666666Y18920239D01*
X32761904Y18872620D01*
X32952380Y18872620D01*
X33047619Y18920239D01*
X31714285Y18872620D02*
X31714285Y19396429D01*
X31761904Y19491667D01*
X31857142Y19539286D01*
X32047619Y19539286D01*
X32142857Y19491667D01*
X31714285Y18920239D02*
X31809523Y18872620D01*
X32047619Y18872620D01*
X32142857Y18920239D01*
X32190476Y19015477D01*
X32190476Y19110715D01*
X32142857Y19205953D01*
X32047619Y19253572D01*
X31809523Y19253572D01*
X31714285Y19301191D01*
X31380952Y19539286D02*
X31000000Y19539286D01*
X31238095Y19872620D02*
X31238095Y19015477D01*
X31190476Y18920239D01*
X31095238Y18872620D01*
X31000000Y18872620D01*
X30666666Y18872620D02*
X30666666Y19539286D01*
X30666666Y19872620D02*
X30714285Y19825000D01*
X30666666Y19777381D01*
X30619047Y19825000D01*
X30666666Y19872620D01*
X30666666Y19777381D01*
X30190476Y18872620D02*
X30190476Y19872620D01*
X30190476Y19491667D02*
X30095238Y19539286D01*
X29904761Y19539286D01*
X29809523Y19491667D01*
X29761904Y19444048D01*
X29714285Y19348810D01*
X29714285Y19063096D01*
X29761904Y18967858D01*
X29809523Y18920239D01*
X29904761Y18872620D01*
X30095238Y18872620D01*
X30190476Y18920239D01*
X29142857Y18872620D02*
X29238095Y18920239D01*
X29285714Y19015477D01*
X29285714Y19872620D01*
X28380952Y18920239D02*
X28476190Y18872620D01*
X28666666Y18872620D01*
X28761904Y18920239D01*
X28809523Y19015477D01*
X28809523Y19396429D01*
X28761904Y19491667D01*
X28666666Y19539286D01*
X28476190Y19539286D01*
X28380952Y19491667D01*
X28333333Y19396429D01*
X28333333Y19301191D01*
X28809523Y19205953D01*
X27238095Y19539286D02*
X27047619Y18872620D01*
X26857142Y19348810D01*
X26666666Y18872620D01*
X26476190Y19539286D01*
X26095238Y18872620D02*
X26095238Y19539286D01*
X26095238Y19872620D02*
X26142857Y19825000D01*
X26095238Y19777381D01*
X26047619Y19825000D01*
X26095238Y19872620D01*
X26095238Y19777381D01*
X25761904Y19539286D02*
X25380952Y19539286D01*
X25619047Y19872620D02*
X25619047Y19015477D01*
X25571428Y18920239D01*
X25476190Y18872620D01*
X25380952Y18872620D01*
X25047619Y18872620D02*
X25047619Y19872620D01*
X24619047Y18872620D02*
X24619047Y19396429D01*
X24666666Y19491667D01*
X24761904Y19539286D01*
X24904761Y19539286D01*
X25000000Y19491667D01*
X25047619Y19444048D01*
X35214285Y17222620D02*
X35214285Y18222620D01*
X34642857Y17222620D01*
X34642857Y18222620D01*
X34023809Y17222620D02*
X34119047Y17270239D01*
X34166666Y17317858D01*
X34214285Y17413096D01*
X34214285Y17698810D01*
X34166666Y17794048D01*
X34119047Y17841667D01*
X34023809Y17889286D01*
X33880952Y17889286D01*
X33785714Y17841667D01*
X33738095Y17794048D01*
X33690476Y17698810D01*
X33690476Y17413096D01*
X33738095Y17317858D01*
X33785714Y17270239D01*
X33880952Y17222620D01*
X34023809Y17222620D01*
X32833333Y17222620D02*
X32833333Y18222620D01*
X32833333Y17270239D02*
X32928571Y17222620D01*
X33119047Y17222620D01*
X33214285Y17270239D01*
X33261904Y17317858D01*
X33309523Y17413096D01*
X33309523Y17698810D01*
X33261904Y17794048D01*
X33214285Y17841667D01*
X33119047Y17889286D01*
X32928571Y17889286D01*
X32833333Y17841667D01*
X31976190Y17270239D02*
X32071428Y17222620D01*
X32261904Y17222620D01*
X32357142Y17270239D01*
X32404761Y17365477D01*
X32404761Y17746429D01*
X32357142Y17841667D01*
X32261904Y17889286D01*
X32071428Y17889286D01*
X31976190Y17841667D01*
X31928571Y17746429D01*
X31928571Y17651191D01*
X32404761Y17555953D01*
X31500000Y17222620D02*
X31500000Y18222620D01*
X31166666Y17508334D01*
X30833333Y18222620D01*
X30833333Y17222620D01*
X29785714Y17317858D02*
X29833333Y17270239D01*
X29976190Y17222620D01*
X30071428Y17222620D01*
X30214285Y17270239D01*
X30309523Y17365477D01*
X30357142Y17460715D01*
X30404761Y17651191D01*
X30404761Y17794048D01*
X30357142Y17984524D01*
X30309523Y18079762D01*
X30214285Y18175000D01*
X30071428Y18222620D01*
X29976190Y18222620D01*
X29833333Y18175000D01*
X29785714Y18127381D01*
X29357142Y18222620D02*
X29357142Y17413096D01*
X29309523Y17317858D01*
X29261904Y17270239D01*
X29166666Y17222620D01*
X28976190Y17222620D01*
X28880952Y17270239D01*
X28833333Y17317858D01*
X28785714Y17413096D01*
X28785714Y18222620D01*
X27690476Y18222620D02*
X27357142Y17222620D01*
X27023809Y18222620D01*
X26166666Y17222620D02*
X26738095Y17222620D01*
X26452380Y17222620D02*
X26452380Y18222620D01*
X26547619Y18079762D01*
X26642857Y17984524D01*
X26738095Y17936905D01*
X25738095Y17317858D02*
X25690476Y17270239D01*
X25738095Y17222620D01*
X25785714Y17270239D01*
X25738095Y17317858D01*
X25738095Y17222620D01*
X25071428Y18222620D02*
X24976190Y18222620D01*
X24880952Y18175000D01*
X24833333Y18127381D01*
X24785714Y18032143D01*
X24738095Y17841667D01*
X24738095Y17603572D01*
X24785714Y17413096D01*
X24833333Y17317858D01*
X24880952Y17270239D01*
X24976190Y17222620D01*
X25071428Y17222620D01*
X25166666Y17270239D01*
X25214285Y17317858D01*
X25261904Y17413096D01*
X25309523Y17603572D01*
X25309523Y17841667D01*
X25261904Y18032143D01*
X25214285Y18127381D01*
X25166666Y18175000D01*
X25071428Y18222620D01*
D11*
X38857142Y50550000D02*
X39000000Y50621429D01*
X39214285Y50621429D01*
X39428571Y50550000D01*
X39571428Y50407143D01*
X39642857Y50264286D01*
X39714285Y49978572D01*
X39714285Y49764286D01*
X39642857Y49478572D01*
X39571428Y49335715D01*
X39428571Y49192858D01*
X39214285Y49121429D01*
X39071428Y49121429D01*
X38857142Y49192858D01*
X38785714Y49264286D01*
X38785714Y49764286D01*
X39071428Y49764286D01*
X37500000Y49121429D02*
X37500000Y49907143D01*
X37571428Y50050000D01*
X37714285Y50121429D01*
X38000000Y50121429D01*
X38142857Y50050000D01*
X37500000Y49192858D02*
X37642857Y49121429D01*
X38000000Y49121429D01*
X38142857Y49192858D01*
X38214285Y49335715D01*
X38214285Y49478572D01*
X38142857Y49621429D01*
X38000000Y49692858D01*
X37642857Y49692858D01*
X37500000Y49764286D01*
X36785714Y49121429D02*
X36785714Y50121429D01*
X36785714Y49978572D02*
X36714285Y50050000D01*
X36571428Y50121429D01*
X36357142Y50121429D01*
X36214285Y50050000D01*
X36142857Y49907143D01*
X36142857Y49121429D01*
X36142857Y49907143D02*
X36071428Y50050000D01*
X35928571Y50121429D01*
X35714285Y50121429D01*
X35571428Y50050000D01*
X35500000Y49907143D01*
X35500000Y49121429D01*
X34214285Y49192858D02*
X34357142Y49121429D01*
X34642857Y49121429D01*
X34785714Y49192858D01*
X34857142Y49335715D01*
X34857142Y49907143D01*
X34785714Y50050000D01*
X34642857Y50121429D01*
X34357142Y50121429D01*
X34214285Y50050000D01*
X34142857Y49907143D01*
X34142857Y49764286D01*
X34857142Y49621429D01*
X32857142Y49121429D02*
X32857142Y49907143D01*
X32928571Y50050000D01*
X33071428Y50121429D01*
X33357142Y50121429D01*
X33500000Y50050000D01*
X32857142Y49192858D02*
X33000000Y49121429D01*
X33357142Y49121429D01*
X33500000Y49192858D01*
X33571428Y49335715D01*
X33571428Y49478572D01*
X33500000Y49621429D01*
X33357142Y49692858D01*
X33000000Y49692858D01*
X32857142Y49764286D01*
X32142857Y49121429D02*
X32142857Y50121429D01*
X32142857Y49835715D02*
X32071428Y49978572D01*
X32000000Y50050000D01*
X31857142Y50121429D01*
X31714285Y50121429D01*
X31214285Y49121429D02*
X31214285Y50121429D01*
X31214285Y50621429D02*
X31285714Y50550000D01*
X31214285Y50478572D01*
X31142857Y50550000D01*
X31214285Y50621429D01*
X31214285Y50478572D01*
X30500000Y50121429D02*
X30500000Y49121429D01*
X30500000Y49978572D02*
X30428571Y50050000D01*
X30285714Y50121429D01*
X30071428Y50121429D01*
X29928571Y50050000D01*
X29857142Y49907143D01*
X29857142Y49121429D01*
X28928571Y49121429D02*
X29071428Y49192858D01*
X29142857Y49264286D01*
X29214285Y49407143D01*
X29214285Y49835715D01*
X29142857Y49978572D01*
X29071428Y50050000D01*
X28928571Y50121429D01*
X28714285Y50121429D01*
X28571428Y50050000D01*
X28500000Y49978572D01*
X28428571Y49835715D01*
X28428571Y49407143D01*
X28500000Y49264286D01*
X28571428Y49192858D01*
X28714285Y49121429D01*
X28928571Y49121429D01*
X26857142Y50621429D02*
X26357142Y49121429D01*
X25857142Y50621429D01*
X25071428Y50621429D02*
X24928571Y50621429D01*
X24785714Y50550000D01*
X24714285Y50478572D01*
X24642857Y50335715D01*
X24571428Y50050000D01*
X24571428Y49692858D01*
X24642857Y49407143D01*
X24714285Y49264286D01*
X24785714Y49192858D01*
X24928571Y49121429D01*
X25071428Y49121429D01*
X25214285Y49192858D01*
X25285714Y49264286D01*
X25357142Y49407143D01*
X25428571Y49692858D01*
X25428571Y50050000D01*
X25357142Y50335715D01*
X25285714Y50478572D01*
X25214285Y50550000D01*
X25071428Y50621429D01*
X23928571Y49264286D02*
X23857142Y49192858D01*
X23928571Y49121429D01*
X24000000Y49192858D01*
X23928571Y49264286D01*
X23928571Y49121429D01*
X22928571Y50621429D02*
X22785714Y50621429D01*
X22642857Y50550000D01*
X22571428Y50478572D01*
X22500000Y50335715D01*
X22428571Y50050000D01*
X22428571Y49692858D01*
X22500000Y49407143D01*
X22571428Y49264286D01*
X22642857Y49192858D01*
X22785714Y49121429D01*
X22928571Y49121429D01*
X23071428Y49192858D01*
X23142857Y49264286D01*
X23214285Y49407143D01*
X23285714Y49692858D01*
X23285714Y50050000D01*
X23214285Y50335715D01*
X23142857Y50478572D01*
X23071428Y50550000D01*
X22928571Y50621429D01*
X21785714Y49264286D02*
X21714285Y49192858D01*
X21785714Y49121429D01*
X21857142Y49192858D01*
X21785714Y49264286D01*
X21785714Y49121429D01*
X21142857Y50478572D02*
X21071428Y50550000D01*
X20928571Y50621429D01*
X20571428Y50621429D01*
X20428571Y50550000D01*
X20357142Y50478572D01*
X20285714Y50335715D01*
X20285714Y50192858D01*
X20357142Y49978572D01*
X21214285Y49121429D01*
X20285714Y49121429D01*
D12*
%TO.C,X1*%
X27110000Y5800000D03*
X32890000Y5800000D03*
D13*
X34320000Y2110000D03*
X25680000Y2110000D03*
D14*
X34320000Y6280000D03*
X25680000Y6280000D03*
%TD*%
D15*
%TO.C,U4*%
X37950000Y54500000D03*
X21950000Y54500000D03*
%TD*%
D16*
%TO.C,H4*%
X4000000Y4000000D03*
%TD*%
%TO.C,H3*%
X56000000Y4000000D03*
%TD*%
%TO.C,H2*%
X4000000Y52000000D03*
%TD*%
%TO.C,H1*%
X49000000Y52000000D03*
%TD*%
D17*
X13500000Y34800000D03*
X15900000Y24500000D03*
X7000000Y17000000D03*
X7000000Y16000000D03*
X7000000Y15000000D03*
X7000000Y14000000D03*
X7000000Y13000000D03*
X7000000Y12000000D03*
X36000000Y7400000D03*
X29875000Y10925000D03*
X32540913Y10540921D03*
X31163495Y9493447D03*
X40200000Y28500000D03*
X40500000Y14000000D03*
X40500000Y15300000D03*
X41661584Y26488123D03*
X15000000Y15500000D03*
X32600000Y8400000D03*
X27640360Y8168080D03*
X1999996Y44700000D03*
X36149990Y39350016D03*
X41174979Y18538465D03*
X38274897Y39443563D03*
X17700000Y28500000D03*
X19900000Y20500000D03*
X53100000Y13900000D03*
X54850000Y21400000D03*
X19600000Y28500000D03*
X54750000Y27300000D03*
X53100004Y12700000D03*
X53550000Y22400000D03*
X40499976Y16500000D03*
X19500000Y31500000D03*
X11200000Y27100000D03*
X8152566Y27052566D03*
X9500000Y44900000D03*
X11200000Y44900000D03*
X15600000Y18500000D03*
X20300000Y18500000D03*
X6900000Y39000000D03*
X49600000Y32099986D03*
X36700000Y1700000D03*
X21400000Y7000000D03*
X4900000Y34600000D03*
X4900000Y36500000D03*
X20200000Y16500000D03*
X14399999Y23100000D03*
X11800000Y30900000D03*
X8600000Y30900000D03*
X18900000Y34700000D03*
X18200000Y37800000D03*
X16600000Y32900000D03*
X22900000Y4200000D03*
X36800000Y4200000D03*
X39874990Y22500000D03*
X15100000Y37200000D03*
X15100000Y34500000D03*
X38300000Y12700000D03*
X16000000Y48500000D03*
X8500000Y48500000D03*
X3500000Y41000000D03*
X3500000Y28500000D03*
X8500000Y33500000D03*
X8500000Y21000000D03*
X43500000Y48500000D03*
X56000000Y53500000D03*
X56000000Y35700000D03*
X46000000Y23500000D03*
X50200000Y4900000D03*
X38500000Y8500000D03*
X23500000Y6000000D03*
X16000000Y28000000D03*
X22000000Y12000000D03*
X55000000Y13000000D03*
X7750000Y1250000D03*
X1500000Y8250000D03*
X31100000Y44100000D03*
X46300000Y19400000D03*
X43700000Y29700000D03*
X47600000Y37500000D03*
X31500000Y38600000D03*
X38700000Y34100000D03*
X5600000Y9900000D03*
X4300000Y20500000D03*
X8200000Y5600000D03*
X23500000Y2700000D03*
X30100000Y2800000D03*
X44600000Y33000000D03*
X14100000Y14600000D03*
X14900000Y11600000D03*
X16500000Y37600000D03*
X25500000Y45200000D03*
X57000000Y45000000D03*
X42000000Y3000000D03*
X18000000Y3000000D03*
X10000000Y43000000D03*
X3000000Y36000000D03*
X10000000Y29000000D03*
X45750000Y39250000D03*
X39800000Y54400000D03*
X27900000Y54400000D03*
X35600000Y54450000D03*
X36100000Y44800000D03*
X28100000Y44200000D03*
X22500000Y45650000D03*
X40550000Y12500000D03*
X36373873Y5397811D03*
X29000000Y39500000D03*
X34500000Y39250000D03*
M02*
