%TF.GenerationSoftware,KiCad,Pcbnew,5.1.10-88a1d61d58~88~ubuntu20.04.1*%
%TF.CreationDate,2021-05-11T13:31:27+02:00*%
%TF.ProjectId,gamearino,67616d65-6172-4696-9e6f-2e6b69636164,v20.0.3*%
%TF.SameCoordinates,PX5f5e100PY5f5e100*%
%TF.FileFunction,Legend,Top*%
%TF.FilePolarity,Positive*%
%FSLAX46Y46*%
G04 Gerber Fmt 4.6, Leading zero omitted, Abs format (unit mm)*
G04 Created by KiCad (PCBNEW 5.1.10-88a1d61d58~88~ubuntu20.04.1) date 2021-05-11 13:31:27*
%MOMM*%
%LPD*%
G01*
G04 APERTURE LIST*
%ADD10C,0.150000*%
%ADD11C,0.300000*%
%ADD12C,0.120000*%
G04 APERTURE END LIST*
D10*
X21352380Y31666667D02*
X20876190Y31333334D01*
X21352380Y31095239D02*
X20352380Y31095239D01*
X20352380Y31476191D01*
X20400000Y31571429D01*
X20447619Y31619048D01*
X20542857Y31666667D01*
X20685714Y31666667D01*
X20780952Y31619048D01*
X20828571Y31571429D01*
X20876190Y31476191D01*
X20876190Y31095239D01*
X21352380Y32095239D02*
X20352380Y32095239D01*
X20400000Y33095239D02*
X20352380Y33000000D01*
X20352380Y32857143D01*
X20400000Y32714286D01*
X20495238Y32619048D01*
X20590476Y32571429D01*
X20780952Y32523810D01*
X20923809Y32523810D01*
X21114285Y32571429D01*
X21209523Y32619048D01*
X21304761Y32714286D01*
X21352380Y32857143D01*
X21352380Y32952381D01*
X21304761Y33095239D01*
X21257142Y33142858D01*
X20923809Y33142858D01*
X20923809Y32952381D01*
X21352380Y33571429D02*
X20352380Y33571429D01*
X20828571Y33571429D02*
X20828571Y34142858D01*
X21352380Y34142858D02*
X20352380Y34142858D01*
X20352380Y34476191D02*
X20352380Y35047620D01*
X21352380Y34761905D02*
X20352380Y34761905D01*
X1552380Y41247620D02*
X1552380Y40771429D01*
X552380Y40771429D01*
X1028571Y41580953D02*
X1028571Y41914286D01*
X1552380Y42057143D02*
X1552380Y41580953D01*
X552380Y41580953D01*
X552380Y42057143D01*
X1028571Y42819048D02*
X1028571Y42485715D01*
X1552380Y42485715D02*
X552380Y42485715D01*
X552380Y42961905D01*
X552380Y43200000D02*
X552380Y43771429D01*
X1552380Y43485715D02*
X552380Y43485715D01*
X8119047Y23847620D02*
X8119047Y24847620D01*
X8357142Y24847620D01*
X8500000Y24800000D01*
X8595238Y24704762D01*
X8642857Y24609524D01*
X8690476Y24419048D01*
X8690476Y24276191D01*
X8642857Y24085715D01*
X8595238Y23990477D01*
X8500000Y23895239D01*
X8357142Y23847620D01*
X8119047Y23847620D01*
X9309523Y24847620D02*
X9500000Y24847620D01*
X9595238Y24800000D01*
X9690476Y24704762D01*
X9738095Y24514286D01*
X9738095Y24180953D01*
X9690476Y23990477D01*
X9595238Y23895239D01*
X9500000Y23847620D01*
X9309523Y23847620D01*
X9214285Y23895239D01*
X9119047Y23990477D01*
X9071428Y24180953D01*
X9071428Y24514286D01*
X9119047Y24704762D01*
X9214285Y24800000D01*
X9309523Y24847620D01*
X10071428Y24847620D02*
X10309523Y23847620D01*
X10500000Y24561905D01*
X10690476Y23847620D01*
X10928571Y24847620D01*
X11309523Y23847620D02*
X11309523Y24847620D01*
X11880952Y23847620D01*
X11880952Y24847620D01*
X9314285Y47947620D02*
X9314285Y47138096D01*
X9361904Y47042858D01*
X9409523Y46995239D01*
X9504761Y46947620D01*
X9695238Y46947620D01*
X9790476Y46995239D01*
X9838095Y47042858D01*
X9885714Y47138096D01*
X9885714Y47947620D01*
X10361904Y46947620D02*
X10361904Y47947620D01*
X10742857Y47947620D01*
X10838095Y47900000D01*
X10885714Y47852381D01*
X10933333Y47757143D01*
X10933333Y47614286D01*
X10885714Y47519048D01*
X10838095Y47471429D01*
X10742857Y47423810D01*
X10361904Y47423810D01*
D11*
X56742857Y39850000D02*
X57457142Y39850000D01*
X56600000Y39421429D02*
X57100000Y40921429D01*
X57600000Y39421429D01*
X45707142Y30007143D02*
X45921428Y29935715D01*
X45992857Y29864286D01*
X46064285Y29721429D01*
X46064285Y29507143D01*
X45992857Y29364286D01*
X45921428Y29292858D01*
X45778571Y29221429D01*
X45207142Y29221429D01*
X45207142Y30721429D01*
X45707142Y30721429D01*
X45850000Y30650000D01*
X45921428Y30578572D01*
X45992857Y30435715D01*
X45992857Y30292858D01*
X45921428Y30150000D01*
X45850000Y30078572D01*
X45707142Y30007143D01*
X45207142Y30007143D01*
D10*
X6623809Y2695239D02*
X6766666Y2647620D01*
X7004761Y2647620D01*
X7100000Y2695239D01*
X7147619Y2742858D01*
X7195238Y2838096D01*
X7195238Y2933334D01*
X7147619Y3028572D01*
X7100000Y3076191D01*
X7004761Y3123810D01*
X6814285Y3171429D01*
X6719047Y3219048D01*
X6671428Y3266667D01*
X6623809Y3361905D01*
X6623809Y3457143D01*
X6671428Y3552381D01*
X6719047Y3600000D01*
X6814285Y3647620D01*
X7052380Y3647620D01*
X7195238Y3600000D01*
X7623809Y3171429D02*
X7957142Y3171429D01*
X8100000Y2647620D02*
X7623809Y2647620D01*
X7623809Y3647620D01*
X8100000Y3647620D01*
X9004761Y2647620D02*
X8528571Y2647620D01*
X8528571Y3647620D01*
X9338095Y3171429D02*
X9671428Y3171429D01*
X9814285Y2647620D02*
X9338095Y2647620D01*
X9338095Y3647620D01*
X9814285Y3647620D01*
X10814285Y2742858D02*
X10766666Y2695239D01*
X10623809Y2647620D01*
X10528571Y2647620D01*
X10385714Y2695239D01*
X10290476Y2790477D01*
X10242857Y2885715D01*
X10195238Y3076191D01*
X10195238Y3219048D01*
X10242857Y3409524D01*
X10290476Y3504762D01*
X10385714Y3600000D01*
X10528571Y3647620D01*
X10623809Y3647620D01*
X10766666Y3600000D01*
X10814285Y3552381D01*
X11100000Y3647620D02*
X11671428Y3647620D01*
X11385714Y2647620D02*
X11385714Y3647620D01*
X48123809Y2495239D02*
X48266666Y2447620D01*
X48504761Y2447620D01*
X48600000Y2495239D01*
X48647619Y2542858D01*
X48695238Y2638096D01*
X48695238Y2733334D01*
X48647619Y2828572D01*
X48600000Y2876191D01*
X48504761Y2923810D01*
X48314285Y2971429D01*
X48219047Y3019048D01*
X48171428Y3066667D01*
X48123809Y3161905D01*
X48123809Y3257143D01*
X48171428Y3352381D01*
X48219047Y3400000D01*
X48314285Y3447620D01*
X48552380Y3447620D01*
X48695238Y3400000D01*
X48980952Y3447620D02*
X49552380Y3447620D01*
X49266666Y2447620D02*
X49266666Y3447620D01*
X49838095Y2733334D02*
X50314285Y2733334D01*
X49742857Y2447620D02*
X50076190Y3447620D01*
X50409523Y2447620D01*
X51314285Y2447620D02*
X50980952Y2923810D01*
X50742857Y2447620D02*
X50742857Y3447620D01*
X51123809Y3447620D01*
X51219047Y3400000D01*
X51266666Y3352381D01*
X51314285Y3257143D01*
X51314285Y3114286D01*
X51266666Y3019048D01*
X51219047Y2971429D01*
X51123809Y2923810D01*
X50742857Y2923810D01*
X51600000Y3447620D02*
X52171428Y3447620D01*
X51885714Y2447620D02*
X51885714Y3447620D01*
D12*
X39600000Y11700000D02*
X41300000Y13550000D01*
%TO.C,SW9*%
X17500000Y54300000D02*
X17500000Y51700000D01*
X16300000Y55500000D02*
X17500000Y54300000D01*
X12500000Y51700000D02*
X12500000Y54300000D01*
X16300000Y50500000D02*
X13700000Y50500000D01*
X17500000Y51700000D02*
X16300000Y50500000D01*
X13700000Y55500000D02*
X16300000Y55500000D01*
X12500000Y54300000D02*
X13700000Y55500000D01*
X13700000Y50500000D02*
X12500000Y51700000D01*
%TO.C,SW8*%
X55700000Y47500000D02*
X58300000Y47500000D01*
X54500000Y46300000D02*
X55700000Y47500000D01*
X58300000Y42500000D02*
X55700000Y42500000D01*
X59500000Y46300000D02*
X59500000Y43700000D01*
X58300000Y47500000D02*
X59500000Y46300000D01*
X54500000Y43700000D02*
X54500000Y46300000D01*
X55700000Y42500000D02*
X54500000Y43700000D01*
X59500000Y43700000D02*
X58300000Y42500000D01*
%TO.C,SW7*%
X47500000Y35300000D02*
X47500000Y32700000D01*
X46300000Y36500000D02*
X47500000Y35300000D01*
X42500000Y32700000D02*
X42500000Y35300000D01*
X46300000Y31500000D02*
X43700000Y31500000D01*
X47500000Y32700000D02*
X46300000Y31500000D01*
X43700000Y36500000D02*
X46300000Y36500000D01*
X42500000Y35300000D02*
X43700000Y36500000D01*
X43700000Y31500000D02*
X42500000Y32700000D01*
%TO.C,SW6*%
X44500000Y4300000D02*
X44500000Y1700000D01*
X43300000Y5500000D02*
X44500000Y4300000D01*
X39500000Y1700000D02*
X39500000Y4300000D01*
X43300000Y500000D02*
X40700000Y500000D01*
X44500000Y1700000D02*
X43300000Y500000D01*
X40700000Y5500000D02*
X43300000Y5500000D01*
X39500000Y4300000D02*
X40700000Y5500000D01*
X40700000Y500000D02*
X39500000Y1700000D01*
%TO.C,SW5*%
X20500000Y4300000D02*
X20500000Y1700000D01*
X19300000Y5500000D02*
X20500000Y4300000D01*
X15500000Y1700000D02*
X15500000Y4300000D01*
X19300000Y500000D02*
X16700000Y500000D01*
X20500000Y1700000D02*
X19300000Y500000D01*
X16700000Y5500000D02*
X19300000Y5500000D01*
X15500000Y4300000D02*
X16700000Y5500000D01*
X16700000Y500000D02*
X15500000Y1700000D01*
%TO.C,SW4*%
X15700000Y38500000D02*
X18300000Y38500000D01*
X14500000Y37300000D02*
X15700000Y38500000D01*
X18300000Y33500000D02*
X15700000Y33500000D01*
X19500000Y37300000D02*
X19500000Y34700000D01*
X18300000Y38500000D02*
X19500000Y37300000D01*
X14500000Y34700000D02*
X14500000Y37300000D01*
X15700000Y33500000D02*
X14500000Y34700000D01*
X19500000Y34700000D02*
X18300000Y33500000D01*
%TO.C,SW3*%
X7500000Y27700000D02*
X7500000Y30300000D01*
X8700000Y26500000D02*
X7500000Y27700000D01*
X12500000Y30300000D02*
X12500000Y27700000D01*
X8700000Y31500000D02*
X11300000Y31500000D01*
X7500000Y30300000D02*
X8700000Y31500000D01*
X11300000Y26500000D02*
X8700000Y26500000D01*
X12500000Y27700000D02*
X11300000Y26500000D01*
X11300000Y31500000D02*
X12500000Y30300000D01*
%TO.C,SW2*%
X12500000Y44300000D02*
X12500000Y41700000D01*
X11300000Y45500000D02*
X12500000Y44300000D01*
X7500000Y41700000D02*
X7500000Y44300000D01*
X11300000Y40500000D02*
X8700000Y40500000D01*
X12500000Y41700000D02*
X11300000Y40500000D01*
X8700000Y45500000D02*
X11300000Y45500000D01*
X7500000Y44300000D02*
X8700000Y45500000D01*
X8700000Y40500000D02*
X7500000Y41700000D01*
%TO.C,SW1*%
X1700000Y38500000D02*
X4300000Y38500000D01*
X500000Y37300000D02*
X1700000Y38500000D01*
X4300000Y33500000D02*
X1700000Y33500000D01*
X5500000Y37300000D02*
X5500000Y34700000D01*
X4300000Y38500000D02*
X5500000Y37300000D01*
X500000Y34700000D02*
X500000Y37300000D01*
X1700000Y33500000D02*
X500000Y34700000D01*
X5500000Y34700000D02*
X4300000Y33500000D01*
%TO.C,U4*%
X41400000Y47750000D02*
X42100000Y47750000D01*
X41400000Y52750000D02*
X42100000Y52750000D01*
X17900000Y52750000D02*
X18600000Y52750000D01*
X17900000Y47750000D02*
X18600000Y47750000D01*
%TO.C,C13*%
X17640580Y29010000D02*
X17359420Y29010000D01*
X17640580Y27990000D02*
X17359420Y27990000D01*
%TO.C,R20*%
X2510000Y46837221D02*
X2510000Y47162779D01*
X1490000Y46837221D02*
X1490000Y47162779D01*
%TO.C,D2*%
X9150000Y50200000D02*
X9150000Y51800000D01*
X10850000Y50200000D02*
X10850000Y51800000D01*
X10000000Y49850000D02*
X10000000Y50200000D01*
%TO.C,R10*%
X37710000Y8137221D02*
X37710000Y8462779D01*
X36690000Y8137221D02*
X36690000Y8462779D01*
%TO.C,R9*%
X22990000Y8162779D02*
X22990000Y7837221D01*
X24010000Y8162779D02*
X24010000Y7837221D01*
%TO.C,X1*%
X34470000Y-490000D02*
X25530000Y-490000D01*
X34470000Y5020000D02*
X34470000Y3220000D01*
X34470000Y-490000D02*
X34470000Y970000D01*
X25530000Y-490000D02*
X25530000Y970000D01*
X25530000Y5020000D02*
X25530000Y3220000D01*
%TO.C,Item5*%
X19000000Y36000000D02*
G75*
G03*
X19000000Y36000000I-9000000J0D01*
G01*
X20500000Y37000000D02*
X20500000Y35000000D01*
X11000000Y25500000D02*
X9000000Y25500000D01*
X-500000Y35000000D02*
X-500000Y37000000D01*
X9000000Y46500000D02*
X11000000Y46500000D01*
X10000000Y44000000D02*
X10000000Y42000000D01*
X11000000Y43000000D02*
X9000000Y43000000D01*
X17000000Y35000000D02*
X17000000Y37000000D01*
X18000000Y36000000D02*
X16000000Y36000000D01*
X9000000Y29000000D02*
X11000000Y29000000D01*
X10000000Y28000000D02*
X10000000Y30000000D01*
X2000000Y36000000D02*
X4000000Y36000000D01*
X3000000Y37000000D02*
X3000000Y35000000D01*
%TO.C,Item2*%
X51350000Y34000000D02*
G75*
G03*
X51350000Y34000000I-6350000J0D01*
G01*
%TO.C,Item1*%
X63350000Y45000000D02*
G75*
G03*
X63350000Y45000000I-6350000J0D01*
G01*
%TO.C,Item4*%
X14750000Y500000D02*
X21250000Y500000D01*
X14700000Y5500000D02*
X21200000Y5500000D01*
X21250000Y5500500D02*
G75*
G02*
X21250000Y499500I0J-2500500D01*
G01*
X14751997Y499501D02*
G75*
G02*
X14700000Y5500000I-1997J2500499D01*
G01*
%TO.C,Item3*%
X38750000Y500000D02*
X45250000Y500000D01*
X38700000Y5500000D02*
X45200000Y5500000D01*
X45250000Y5500500D02*
G75*
G02*
X45250000Y499500I0J-2500500D01*
G01*
X38751997Y499501D02*
G75*
G02*
X38700000Y5500000I-1997J2500499D01*
G01*
%TO.C,C12*%
X45260000Y41662779D02*
X45260000Y41337221D01*
X44240000Y41662779D02*
X44240000Y41337221D01*
%TO.C,C11*%
X43510000Y41662779D02*
X43510000Y41337221D01*
X42490000Y41662779D02*
X42490000Y41337221D01*
%TO.C,C10*%
X41710000Y41758578D02*
X41710000Y41241422D01*
X40290000Y41758578D02*
X40290000Y41241422D01*
%TO.C,R8*%
X57740000Y23124721D02*
X57740000Y23450279D01*
X58760000Y23124721D02*
X58760000Y23450279D01*
%TO.C,R6*%
X52510000Y23412779D02*
X52510000Y23087221D01*
X51490000Y23412779D02*
X51490000Y23087221D01*
%TO.C,R7*%
X56760000Y23412779D02*
X56760000Y23087221D01*
X55740000Y23412779D02*
X55740000Y23087221D01*
%TO.C,Q1*%
X54580000Y27510000D02*
X53650000Y27510000D01*
X51420000Y27510000D02*
X52350000Y27510000D01*
X51420000Y27510000D02*
X51420000Y25350000D01*
X54580000Y27510000D02*
X54580000Y26050000D01*
%TO.C,Q2*%
X58830000Y27510000D02*
X57900000Y27510000D01*
X55670000Y27510000D02*
X56600000Y27510000D01*
X55670000Y27510000D02*
X55670000Y25350000D01*
X58830000Y27510000D02*
X58830000Y26050000D01*
%TO.C,C3*%
X13710000Y16758578D02*
X13710000Y16241422D01*
X12290000Y16758578D02*
X12290000Y16241422D01*
%TO.C,R13*%
X42587221Y14510000D02*
X42912779Y14510000D01*
X42587221Y13490000D02*
X42912779Y13490000D01*
%TO.C,R12*%
X42912779Y14990000D02*
X42587221Y14990000D01*
X42912779Y16010000D02*
X42587221Y16010000D01*
%TO.C,R5*%
X17837221Y17010000D02*
X18162779Y17010000D01*
X17837221Y15990000D02*
X18162779Y15990000D01*
%TO.C,R4*%
X17837221Y19010000D02*
X18162779Y19010000D01*
X17837221Y17990000D02*
X18162779Y17990000D01*
%TO.C,R3*%
X17837221Y23010000D02*
X18162779Y23010000D01*
X17837221Y21990000D02*
X18162779Y21990000D01*
%TO.C,R2*%
X44537221Y18510000D02*
X44862779Y18510000D01*
X44537221Y17490000D02*
X44862779Y17490000D01*
%TO.C,R1*%
X17849721Y25010000D02*
X18175279Y25010000D01*
X17849721Y23990000D02*
X18175279Y23990000D01*
%TO.C,U3*%
X5690000Y17910000D02*
X5690000Y16650000D01*
X5690000Y11090000D02*
X5690000Y12350000D01*
X9450000Y17910000D02*
X5690000Y17910000D01*
X11700000Y11090000D02*
X5690000Y11090000D01*
%TO.C,U2*%
X48000000Y6940000D02*
X49950000Y6940000D01*
X48000000Y6940000D02*
X46050000Y6940000D01*
X48000000Y17060000D02*
X49950000Y17060000D01*
X48000000Y17060000D02*
X44550000Y17060000D01*
%TO.C,U1*%
X21880000Y37120000D02*
X38120000Y37120000D01*
X38120000Y37120000D02*
X38120000Y29500000D01*
X38120000Y13500000D02*
X38120000Y12880000D01*
X38120000Y12880000D02*
X36000000Y12880000D01*
X24000000Y12880000D02*
X21880000Y12880000D01*
X21880000Y12880000D02*
X21880000Y13500000D01*
X21880000Y29500000D02*
X21880000Y37120000D01*
X21880000Y29500000D02*
X21270000Y29500000D01*
%TO.C,R11*%
X53837221Y15760000D02*
X54162779Y15760000D01*
X53837221Y14740000D02*
X54162779Y14740000D01*
%TO.C,R15*%
X29490000Y41337221D02*
X29490000Y41662779D01*
X30510000Y41337221D02*
X30510000Y41662779D01*
%TO.C,R16*%
X37510000Y41662779D02*
X37510000Y41337221D01*
X36490000Y41662779D02*
X36490000Y41337221D01*
%TO.C,R14*%
X35760000Y41662779D02*
X35760000Y41337221D01*
X34740000Y41662779D02*
X34740000Y41337221D01*
%TO.C,R19*%
X38240000Y41337221D02*
X38240000Y41662779D01*
X39260000Y41337221D02*
X39260000Y41662779D01*
%TO.C,D1*%
X25670000Y40490000D02*
X26600000Y40490000D01*
X28830000Y40490000D02*
X27900000Y40490000D01*
X28830000Y40490000D02*
X28830000Y42650000D01*
X25670000Y40490000D02*
X25670000Y41950000D01*
%TO.C,C4*%
X13710000Y12758578D02*
X13710000Y12241422D01*
X12290000Y12758578D02*
X12290000Y12241422D01*
%TO.C,C2*%
X47837221Y18510000D02*
X48162779Y18510000D01*
X47837221Y17490000D02*
X48162779Y17490000D01*
%TO.C,C1*%
X42912779Y11990000D02*
X42587221Y11990000D01*
X42912779Y13010000D02*
X42587221Y13010000D01*
%TO.C,C5*%
X32260000Y41662779D02*
X32260000Y41337221D01*
X31240000Y41662779D02*
X31240000Y41337221D01*
%TO.C,C9*%
X18740000Y41337221D02*
X18740000Y41662779D01*
X19760000Y41337221D02*
X19760000Y41662779D01*
%TO.C,C8*%
X16990000Y41337221D02*
X16990000Y41662779D01*
X18010000Y41337221D02*
X18010000Y41662779D01*
%TO.C,C6*%
X25010000Y41662779D02*
X25010000Y41337221D01*
X23990000Y41662779D02*
X23990000Y41337221D01*
%TO.C,C7*%
X23260000Y41662779D02*
X23260000Y41337221D01*
X22240000Y41662779D02*
X22240000Y41337221D01*
%TO.C,SW9*%
D10*
X11666666Y49295239D02*
X11809523Y49247620D01*
X12047619Y49247620D01*
X12142857Y49295239D01*
X12190476Y49342858D01*
X12238095Y49438096D01*
X12238095Y49533334D01*
X12190476Y49628572D01*
X12142857Y49676191D01*
X12047619Y49723810D01*
X11857142Y49771429D01*
X11761904Y49819048D01*
X11714285Y49866667D01*
X11666666Y49961905D01*
X11666666Y50057143D01*
X11714285Y50152381D01*
X11761904Y50200000D01*
X11857142Y50247620D01*
X12095238Y50247620D01*
X12238095Y50200000D01*
X12571428Y50247620D02*
X12809523Y49247620D01*
X13000000Y49961905D01*
X13190476Y49247620D01*
X13428571Y50247620D01*
X13857142Y49247620D02*
X14047619Y49247620D01*
X14142857Y49295239D01*
X14190476Y49342858D01*
X14285714Y49485715D01*
X14333333Y49676191D01*
X14333333Y50057143D01*
X14285714Y50152381D01*
X14238095Y50200000D01*
X14142857Y50247620D01*
X13952380Y50247620D01*
X13857142Y50200000D01*
X13809523Y50152381D01*
X13761904Y50057143D01*
X13761904Y49819048D01*
X13809523Y49723810D01*
X13857142Y49676191D01*
X13952380Y49628572D01*
X14142857Y49628572D01*
X14238095Y49676191D01*
X14285714Y49723810D01*
X14333333Y49819048D01*
X13361904Y47847620D02*
X13028571Y48323810D01*
X12790476Y47847620D02*
X12790476Y48847620D01*
X13171428Y48847620D01*
X13266666Y48800000D01*
X13314285Y48752381D01*
X13361904Y48657143D01*
X13361904Y48514286D01*
X13314285Y48419048D01*
X13266666Y48371429D01*
X13171428Y48323810D01*
X12790476Y48323810D01*
X14171428Y47895239D02*
X14076190Y47847620D01*
X13885714Y47847620D01*
X13790476Y47895239D01*
X13742857Y47990477D01*
X13742857Y48371429D01*
X13790476Y48466667D01*
X13885714Y48514286D01*
X14076190Y48514286D01*
X14171428Y48466667D01*
X14219047Y48371429D01*
X14219047Y48276191D01*
X13742857Y48180953D01*
X14600000Y47895239D02*
X14695238Y47847620D01*
X14885714Y47847620D01*
X14980952Y47895239D01*
X15028571Y47990477D01*
X15028571Y48038096D01*
X14980952Y48133334D01*
X14885714Y48180953D01*
X14742857Y48180953D01*
X14647619Y48228572D01*
X14600000Y48323810D01*
X14600000Y48371429D01*
X14647619Y48466667D01*
X14742857Y48514286D01*
X14885714Y48514286D01*
X14980952Y48466667D01*
X15838095Y47895239D02*
X15742857Y47847620D01*
X15552380Y47847620D01*
X15457142Y47895239D01*
X15409523Y47990477D01*
X15409523Y48371429D01*
X15457142Y48466667D01*
X15552380Y48514286D01*
X15742857Y48514286D01*
X15838095Y48466667D01*
X15885714Y48371429D01*
X15885714Y48276191D01*
X15409523Y48180953D01*
X16171428Y48514286D02*
X16552380Y48514286D01*
X16314285Y48847620D02*
X16314285Y47990477D01*
X16361904Y47895239D01*
X16457142Y47847620D01*
X16552380Y47847620D01*
%TO.C,SW8*%
X53354761Y43666667D02*
X53402380Y43809524D01*
X53402380Y44047620D01*
X53354761Y44142858D01*
X53307142Y44190477D01*
X53211904Y44238096D01*
X53116666Y44238096D01*
X53021428Y44190477D01*
X52973809Y44142858D01*
X52926190Y44047620D01*
X52878571Y43857143D01*
X52830952Y43761905D01*
X52783333Y43714286D01*
X52688095Y43666667D01*
X52592857Y43666667D01*
X52497619Y43714286D01*
X52450000Y43761905D01*
X52402380Y43857143D01*
X52402380Y44095239D01*
X52450000Y44238096D01*
X52402380Y44571429D02*
X53402380Y44809524D01*
X52688095Y45000000D01*
X53402380Y45190477D01*
X52402380Y45428572D01*
X52830952Y45952381D02*
X52783333Y45857143D01*
X52735714Y45809524D01*
X52640476Y45761905D01*
X52592857Y45761905D01*
X52497619Y45809524D01*
X52450000Y45857143D01*
X52402380Y45952381D01*
X52402380Y46142858D01*
X52450000Y46238096D01*
X52497619Y46285715D01*
X52592857Y46333334D01*
X52640476Y46333334D01*
X52735714Y46285715D01*
X52783333Y46238096D01*
X52830952Y46142858D01*
X52830952Y45952381D01*
X52878571Y45857143D01*
X52926190Y45809524D01*
X53021428Y45761905D01*
X53211904Y45761905D01*
X53307142Y45809524D01*
X53354761Y45857143D01*
X53402380Y45952381D01*
X53402380Y46142858D01*
X53354761Y46238096D01*
X53307142Y46285715D01*
X53211904Y46333334D01*
X53021428Y46333334D01*
X52926190Y46285715D01*
X52878571Y46238096D01*
X52830952Y46142858D01*
%TO.C,SW7*%
X43666666Y37645239D02*
X43809523Y37597620D01*
X44047619Y37597620D01*
X44142857Y37645239D01*
X44190476Y37692858D01*
X44238095Y37788096D01*
X44238095Y37883334D01*
X44190476Y37978572D01*
X44142857Y38026191D01*
X44047619Y38073810D01*
X43857142Y38121429D01*
X43761904Y38169048D01*
X43714285Y38216667D01*
X43666666Y38311905D01*
X43666666Y38407143D01*
X43714285Y38502381D01*
X43761904Y38550000D01*
X43857142Y38597620D01*
X44095238Y38597620D01*
X44238095Y38550000D01*
X44571428Y38597620D02*
X44809523Y37597620D01*
X45000000Y38311905D01*
X45190476Y37597620D01*
X45428571Y38597620D01*
X45714285Y38597620D02*
X46380952Y38597620D01*
X45952380Y37597620D01*
%TO.C,SW6*%
X40366666Y6045239D02*
X40509523Y5997620D01*
X40747619Y5997620D01*
X40842857Y6045239D01*
X40890476Y6092858D01*
X40938095Y6188096D01*
X40938095Y6283334D01*
X40890476Y6378572D01*
X40842857Y6426191D01*
X40747619Y6473810D01*
X40557142Y6521429D01*
X40461904Y6569048D01*
X40414285Y6616667D01*
X40366666Y6711905D01*
X40366666Y6807143D01*
X40414285Y6902381D01*
X40461904Y6950000D01*
X40557142Y6997620D01*
X40795238Y6997620D01*
X40938095Y6950000D01*
X41271428Y6997620D02*
X41509523Y5997620D01*
X41700000Y6711905D01*
X41890476Y5997620D01*
X42128571Y6997620D01*
X42938095Y6997620D02*
X42747619Y6997620D01*
X42652380Y6950000D01*
X42604761Y6902381D01*
X42509523Y6759524D01*
X42461904Y6569048D01*
X42461904Y6188096D01*
X42509523Y6092858D01*
X42557142Y6045239D01*
X42652380Y5997620D01*
X42842857Y5997620D01*
X42938095Y6045239D01*
X42985714Y6092858D01*
X43033333Y6188096D01*
X43033333Y6426191D01*
X42985714Y6521429D01*
X42938095Y6569048D01*
X42842857Y6616667D01*
X42652380Y6616667D01*
X42557142Y6569048D01*
X42509523Y6521429D01*
X42461904Y6426191D01*
%TO.C,SW5*%
X16666666Y6645239D02*
X16809523Y6597620D01*
X17047619Y6597620D01*
X17142857Y6645239D01*
X17190476Y6692858D01*
X17238095Y6788096D01*
X17238095Y6883334D01*
X17190476Y6978572D01*
X17142857Y7026191D01*
X17047619Y7073810D01*
X16857142Y7121429D01*
X16761904Y7169048D01*
X16714285Y7216667D01*
X16666666Y7311905D01*
X16666666Y7407143D01*
X16714285Y7502381D01*
X16761904Y7550000D01*
X16857142Y7597620D01*
X17095238Y7597620D01*
X17238095Y7550000D01*
X17571428Y7597620D02*
X17809523Y6597620D01*
X18000000Y7311905D01*
X18190476Y6597620D01*
X18428571Y7597620D01*
X19285714Y7597620D02*
X18809523Y7597620D01*
X18761904Y7121429D01*
X18809523Y7169048D01*
X18904761Y7216667D01*
X19142857Y7216667D01*
X19238095Y7169048D01*
X19285714Y7121429D01*
X19333333Y7026191D01*
X19333333Y6788096D01*
X19285714Y6692858D01*
X19238095Y6645239D01*
X19142857Y6597620D01*
X18904761Y6597620D01*
X18809523Y6645239D01*
X18761904Y6692858D01*
%TO.C,SW4*%
X20066666Y38095239D02*
X20209523Y38047620D01*
X20447619Y38047620D01*
X20542857Y38095239D01*
X20590476Y38142858D01*
X20638095Y38238096D01*
X20638095Y38333334D01*
X20590476Y38428572D01*
X20542857Y38476191D01*
X20447619Y38523810D01*
X20257142Y38571429D01*
X20161904Y38619048D01*
X20114285Y38666667D01*
X20066666Y38761905D01*
X20066666Y38857143D01*
X20114285Y38952381D01*
X20161904Y39000000D01*
X20257142Y39047620D01*
X20495238Y39047620D01*
X20638095Y39000000D01*
X20971428Y39047620D02*
X21209523Y38047620D01*
X21400000Y38761905D01*
X21590476Y38047620D01*
X21828571Y39047620D01*
X22638095Y38714286D02*
X22638095Y38047620D01*
X22400000Y39095239D02*
X22161904Y38380953D01*
X22780952Y38380953D01*
%TO.C,SW3*%
X5466666Y24995239D02*
X5609523Y24947620D01*
X5847619Y24947620D01*
X5942857Y24995239D01*
X5990476Y25042858D01*
X6038095Y25138096D01*
X6038095Y25233334D01*
X5990476Y25328572D01*
X5942857Y25376191D01*
X5847619Y25423810D01*
X5657142Y25471429D01*
X5561904Y25519048D01*
X5514285Y25566667D01*
X5466666Y25661905D01*
X5466666Y25757143D01*
X5514285Y25852381D01*
X5561904Y25900000D01*
X5657142Y25947620D01*
X5895238Y25947620D01*
X6038095Y25900000D01*
X6371428Y25947620D02*
X6609523Y24947620D01*
X6800000Y25661905D01*
X6990476Y24947620D01*
X7228571Y25947620D01*
X7514285Y25947620D02*
X8133333Y25947620D01*
X7800000Y25566667D01*
X7942857Y25566667D01*
X8038095Y25519048D01*
X8085714Y25471429D01*
X8133333Y25376191D01*
X8133333Y25138096D01*
X8085714Y25042858D01*
X8038095Y24995239D01*
X7942857Y24947620D01*
X7657142Y24947620D01*
X7561904Y24995239D01*
X7514285Y25042858D01*
%TO.C,SW2*%
X5766666Y45995239D02*
X5909523Y45947620D01*
X6147619Y45947620D01*
X6242857Y45995239D01*
X6290476Y46042858D01*
X6338095Y46138096D01*
X6338095Y46233334D01*
X6290476Y46328572D01*
X6242857Y46376191D01*
X6147619Y46423810D01*
X5957142Y46471429D01*
X5861904Y46519048D01*
X5814285Y46566667D01*
X5766666Y46661905D01*
X5766666Y46757143D01*
X5814285Y46852381D01*
X5861904Y46900000D01*
X5957142Y46947620D01*
X6195238Y46947620D01*
X6338095Y46900000D01*
X6671428Y46947620D02*
X6909523Y45947620D01*
X7100000Y46661905D01*
X7290476Y45947620D01*
X7528571Y46947620D01*
X7861904Y46852381D02*
X7909523Y46900000D01*
X8004761Y46947620D01*
X8242857Y46947620D01*
X8338095Y46900000D01*
X8385714Y46852381D01*
X8433333Y46757143D01*
X8433333Y46661905D01*
X8385714Y46519048D01*
X7814285Y45947620D01*
X8433333Y45947620D01*
%TO.C,SW1*%
X1604761Y29166667D02*
X1652380Y29309524D01*
X1652380Y29547620D01*
X1604761Y29642858D01*
X1557142Y29690477D01*
X1461904Y29738096D01*
X1366666Y29738096D01*
X1271428Y29690477D01*
X1223809Y29642858D01*
X1176190Y29547620D01*
X1128571Y29357143D01*
X1080952Y29261905D01*
X1033333Y29214286D01*
X938095Y29166667D01*
X842857Y29166667D01*
X747619Y29214286D01*
X700000Y29261905D01*
X652380Y29357143D01*
X652380Y29595239D01*
X700000Y29738096D01*
X652380Y30071429D02*
X1652380Y30309524D01*
X938095Y30500000D01*
X1652380Y30690477D01*
X652380Y30928572D01*
X1652380Y31833334D02*
X1652380Y31261905D01*
X1652380Y31547620D02*
X652380Y31547620D01*
X795238Y31452381D01*
X890476Y31357143D01*
X938095Y31261905D01*
%TO.C,U4*%
X17138095Y49247620D02*
X17138095Y48438096D01*
X17185714Y48342858D01*
X17233333Y48295239D01*
X17328571Y48247620D01*
X17519047Y48247620D01*
X17614285Y48295239D01*
X17661904Y48342858D01*
X17709523Y48438096D01*
X17709523Y49247620D01*
X18614285Y48914286D02*
X18614285Y48247620D01*
X18376190Y49295239D02*
X18138095Y48580953D01*
X18757142Y48580953D01*
X18585714Y46297620D02*
X18014285Y46297620D01*
X18300000Y46297620D02*
X18300000Y47297620D01*
X18204761Y47154762D01*
X18109523Y47059524D01*
X18014285Y47011905D01*
X40990476Y47297620D02*
X41609523Y47297620D01*
X41276190Y46916667D01*
X41419047Y46916667D01*
X41514285Y46869048D01*
X41561904Y46821429D01*
X41609523Y46726191D01*
X41609523Y46488096D01*
X41561904Y46392858D01*
X41514285Y46345239D01*
X41419047Y46297620D01*
X41133333Y46297620D01*
X41038095Y46345239D01*
X40990476Y46392858D01*
X42228571Y47297620D02*
X42323809Y47297620D01*
X42419047Y47250000D01*
X42466666Y47202381D01*
X42514285Y47107143D01*
X42561904Y46916667D01*
X42561904Y46678572D01*
X42514285Y46488096D01*
X42466666Y46392858D01*
X42419047Y46345239D01*
X42323809Y46297620D01*
X42228571Y46297620D01*
X42133333Y46345239D01*
X42085714Y46392858D01*
X42038095Y46488096D01*
X41990476Y46678572D01*
X41990476Y46916667D01*
X42038095Y47107143D01*
X42085714Y47202381D01*
X42133333Y47250000D01*
X42228571Y47297620D01*
%TO.C,C13*%
X18107142Y26712858D02*
X18059523Y26665239D01*
X17916666Y26617620D01*
X17821428Y26617620D01*
X17678571Y26665239D01*
X17583333Y26760477D01*
X17535714Y26855715D01*
X17488095Y27046191D01*
X17488095Y27189048D01*
X17535714Y27379524D01*
X17583333Y27474762D01*
X17678571Y27570000D01*
X17821428Y27617620D01*
X17916666Y27617620D01*
X18059523Y27570000D01*
X18107142Y27522381D01*
X19059523Y26617620D02*
X18488095Y26617620D01*
X18773809Y26617620D02*
X18773809Y27617620D01*
X18678571Y27474762D01*
X18583333Y27379524D01*
X18488095Y27331905D01*
X19392857Y27617620D02*
X20011904Y27617620D01*
X19678571Y27236667D01*
X19821428Y27236667D01*
X19916666Y27189048D01*
X19964285Y27141429D01*
X20011904Y27046191D01*
X20011904Y26808096D01*
X19964285Y26712858D01*
X19916666Y26665239D01*
X19821428Y26617620D01*
X19535714Y26617620D01*
X19440476Y26665239D01*
X19392857Y26712858D01*
%TO.C,R20*%
X4052380Y46257143D02*
X3576190Y45923810D01*
X4052380Y45685715D02*
X3052380Y45685715D01*
X3052380Y46066667D01*
X3100000Y46161905D01*
X3147619Y46209524D01*
X3242857Y46257143D01*
X3385714Y46257143D01*
X3480952Y46209524D01*
X3528571Y46161905D01*
X3576190Y46066667D01*
X3576190Y45685715D01*
X3147619Y46638096D02*
X3100000Y46685715D01*
X3052380Y46780953D01*
X3052380Y47019048D01*
X3100000Y47114286D01*
X3147619Y47161905D01*
X3242857Y47209524D01*
X3338095Y47209524D01*
X3480952Y47161905D01*
X4052380Y46590477D01*
X4052380Y47209524D01*
X3052380Y47828572D02*
X3052380Y47923810D01*
X3100000Y48019048D01*
X3147619Y48066667D01*
X3242857Y48114286D01*
X3433333Y48161905D01*
X3671428Y48161905D01*
X3861904Y48114286D01*
X3957142Y48066667D01*
X4004761Y48019048D01*
X4052380Y47923810D01*
X4052380Y47828572D01*
X4004761Y47733334D01*
X3957142Y47685715D01*
X3861904Y47638096D01*
X3671428Y47590477D01*
X3433333Y47590477D01*
X3242857Y47638096D01*
X3147619Y47685715D01*
X3100000Y47733334D01*
X3052380Y47828572D01*
%TO.C,D2*%
X8752380Y50261905D02*
X7752380Y50261905D01*
X7752380Y50500000D01*
X7800000Y50642858D01*
X7895238Y50738096D01*
X7990476Y50785715D01*
X8180952Y50833334D01*
X8323809Y50833334D01*
X8514285Y50785715D01*
X8609523Y50738096D01*
X8704761Y50642858D01*
X8752380Y50500000D01*
X8752380Y50261905D01*
X7847619Y51214286D02*
X7800000Y51261905D01*
X7752380Y51357143D01*
X7752380Y51595239D01*
X7800000Y51690477D01*
X7847619Y51738096D01*
X7942857Y51785715D01*
X8038095Y51785715D01*
X8180952Y51738096D01*
X8752380Y51166667D01*
X8752380Y51785715D01*
%TO.C,FID2*%
X53428571Y9371429D02*
X53095238Y9371429D01*
X53095238Y8847620D02*
X53095238Y9847620D01*
X53571428Y9847620D01*
X53952380Y8847620D02*
X53952380Y9847620D01*
X54428571Y8847620D02*
X54428571Y9847620D01*
X54666666Y9847620D01*
X54809523Y9800000D01*
X54904761Y9704762D01*
X54952380Y9609524D01*
X55000000Y9419048D01*
X55000000Y9276191D01*
X54952380Y9085715D01*
X54904761Y8990477D01*
X54809523Y8895239D01*
X54666666Y8847620D01*
X54428571Y8847620D01*
X55380952Y9752381D02*
X55428571Y9800000D01*
X55523809Y9847620D01*
X55761904Y9847620D01*
X55857142Y9800000D01*
X55904761Y9752381D01*
X55952380Y9657143D01*
X55952380Y9561905D01*
X55904761Y9419048D01*
X55333333Y8847620D01*
X55952380Y8847620D01*
%TO.C,FID1*%
X8128571Y54171429D02*
X7795238Y54171429D01*
X7795238Y53647620D02*
X7795238Y54647620D01*
X8271428Y54647620D01*
X8652380Y53647620D02*
X8652380Y54647620D01*
X9128571Y53647620D02*
X9128571Y54647620D01*
X9366666Y54647620D01*
X9509523Y54600000D01*
X9604761Y54504762D01*
X9652380Y54409524D01*
X9700000Y54219048D01*
X9700000Y54076191D01*
X9652380Y53885715D01*
X9604761Y53790477D01*
X9509523Y53695239D01*
X9366666Y53647620D01*
X9128571Y53647620D01*
X10652380Y53647620D02*
X10080952Y53647620D01*
X10366666Y53647620D02*
X10366666Y54647620D01*
X10271428Y54504762D01*
X10176190Y54409524D01*
X10080952Y54361905D01*
%TO.C,R10*%
X36152380Y8957143D02*
X35676190Y8623810D01*
X36152380Y8385715D02*
X35152380Y8385715D01*
X35152380Y8766667D01*
X35200000Y8861905D01*
X35247619Y8909524D01*
X35342857Y8957143D01*
X35485714Y8957143D01*
X35580952Y8909524D01*
X35628571Y8861905D01*
X35676190Y8766667D01*
X35676190Y8385715D01*
X36152380Y9909524D02*
X36152380Y9338096D01*
X36152380Y9623810D02*
X35152380Y9623810D01*
X35295238Y9528572D01*
X35390476Y9433334D01*
X35438095Y9338096D01*
X35152380Y10528572D02*
X35152380Y10623810D01*
X35200000Y10719048D01*
X35247619Y10766667D01*
X35342857Y10814286D01*
X35533333Y10861905D01*
X35771428Y10861905D01*
X35961904Y10814286D01*
X36057142Y10766667D01*
X36104761Y10719048D01*
X36152380Y10623810D01*
X36152380Y10528572D01*
X36104761Y10433334D01*
X36057142Y10385715D01*
X35961904Y10338096D01*
X35771428Y10290477D01*
X35533333Y10290477D01*
X35342857Y10338096D01*
X35247619Y10385715D01*
X35200000Y10433334D01*
X35152380Y10528572D01*
%TO.C,R9*%
X23433333Y9847620D02*
X23100000Y10323810D01*
X22861904Y9847620D02*
X22861904Y10847620D01*
X23242857Y10847620D01*
X23338095Y10800000D01*
X23385714Y10752381D01*
X23433333Y10657143D01*
X23433333Y10514286D01*
X23385714Y10419048D01*
X23338095Y10371429D01*
X23242857Y10323810D01*
X22861904Y10323810D01*
X23909523Y9847620D02*
X24100000Y9847620D01*
X24195238Y9895239D01*
X24242857Y9942858D01*
X24338095Y10085715D01*
X24385714Y10276191D01*
X24385714Y10657143D01*
X24338095Y10752381D01*
X24290476Y10800000D01*
X24195238Y10847620D01*
X24004761Y10847620D01*
X23909523Y10800000D01*
X23861904Y10752381D01*
X23814285Y10657143D01*
X23814285Y10419048D01*
X23861904Y10323810D01*
X23909523Y10276191D01*
X24004761Y10228572D01*
X24195238Y10228572D01*
X24290476Y10276191D01*
X24338095Y10323810D01*
X24385714Y10419048D01*
%TO.C,X1*%
X24790476Y9197620D02*
X25457142Y8197620D01*
X25457142Y9197620D02*
X24790476Y8197620D01*
X26361904Y8197620D02*
X25790476Y8197620D01*
X26076190Y8197620D02*
X26076190Y9197620D01*
X25980952Y9054762D01*
X25885714Y8959524D01*
X25790476Y8911905D01*
%TO.C,C12*%
X45107142Y43807143D02*
X45154761Y43759524D01*
X45202380Y43616667D01*
X45202380Y43521429D01*
X45154761Y43378572D01*
X45059523Y43283334D01*
X44964285Y43235715D01*
X44773809Y43188096D01*
X44630952Y43188096D01*
X44440476Y43235715D01*
X44345238Y43283334D01*
X44250000Y43378572D01*
X44202380Y43521429D01*
X44202380Y43616667D01*
X44250000Y43759524D01*
X44297619Y43807143D01*
X45202380Y44759524D02*
X45202380Y44188096D01*
X45202380Y44473810D02*
X44202380Y44473810D01*
X44345238Y44378572D01*
X44440476Y44283334D01*
X44488095Y44188096D01*
X44297619Y45140477D02*
X44250000Y45188096D01*
X44202380Y45283334D01*
X44202380Y45521429D01*
X44250000Y45616667D01*
X44297619Y45664286D01*
X44392857Y45711905D01*
X44488095Y45711905D01*
X44630952Y45664286D01*
X45202380Y45092858D01*
X45202380Y45711905D01*
%TO.C,C11*%
X43357142Y43907143D02*
X43404761Y43859524D01*
X43452380Y43716667D01*
X43452380Y43621429D01*
X43404761Y43478572D01*
X43309523Y43383334D01*
X43214285Y43335715D01*
X43023809Y43288096D01*
X42880952Y43288096D01*
X42690476Y43335715D01*
X42595238Y43383334D01*
X42500000Y43478572D01*
X42452380Y43621429D01*
X42452380Y43716667D01*
X42500000Y43859524D01*
X42547619Y43907143D01*
X43452380Y44859524D02*
X43452380Y44288096D01*
X43452380Y44573810D02*
X42452380Y44573810D01*
X42595238Y44478572D01*
X42690476Y44383334D01*
X42738095Y44288096D01*
X43452380Y45811905D02*
X43452380Y45240477D01*
X43452380Y45526191D02*
X42452380Y45526191D01*
X42595238Y45430953D01*
X42690476Y45335715D01*
X42738095Y45240477D01*
%TO.C,C10*%
X41307142Y44107143D02*
X41354761Y44059524D01*
X41402380Y43916667D01*
X41402380Y43821429D01*
X41354761Y43678572D01*
X41259523Y43583334D01*
X41164285Y43535715D01*
X40973809Y43488096D01*
X40830952Y43488096D01*
X40640476Y43535715D01*
X40545238Y43583334D01*
X40450000Y43678572D01*
X40402380Y43821429D01*
X40402380Y43916667D01*
X40450000Y44059524D01*
X40497619Y44107143D01*
X41402380Y45059524D02*
X41402380Y44488096D01*
X41402380Y44773810D02*
X40402380Y44773810D01*
X40545238Y44678572D01*
X40640476Y44583334D01*
X40688095Y44488096D01*
X40402380Y45678572D02*
X40402380Y45773810D01*
X40450000Y45869048D01*
X40497619Y45916667D01*
X40592857Y45964286D01*
X40783333Y46011905D01*
X41021428Y46011905D01*
X41211904Y45964286D01*
X41307142Y45916667D01*
X41354761Y45869048D01*
X41402380Y45773810D01*
X41402380Y45678572D01*
X41354761Y45583334D01*
X41307142Y45535715D01*
X41211904Y45488096D01*
X41021428Y45440477D01*
X40783333Y45440477D01*
X40592857Y45488096D01*
X40497619Y45535715D01*
X40450000Y45583334D01*
X40402380Y45678572D01*
%TO.C,R8*%
X58702380Y20583334D02*
X58226190Y20250000D01*
X58702380Y20011905D02*
X57702380Y20011905D01*
X57702380Y20392858D01*
X57750000Y20488096D01*
X57797619Y20535715D01*
X57892857Y20583334D01*
X58035714Y20583334D01*
X58130952Y20535715D01*
X58178571Y20488096D01*
X58226190Y20392858D01*
X58226190Y20011905D01*
X58130952Y21154762D02*
X58083333Y21059524D01*
X58035714Y21011905D01*
X57940476Y20964286D01*
X57892857Y20964286D01*
X57797619Y21011905D01*
X57750000Y21059524D01*
X57702380Y21154762D01*
X57702380Y21345239D01*
X57750000Y21440477D01*
X57797619Y21488096D01*
X57892857Y21535715D01*
X57940476Y21535715D01*
X58035714Y21488096D01*
X58083333Y21440477D01*
X58130952Y21345239D01*
X58130952Y21154762D01*
X58178571Y21059524D01*
X58226190Y21011905D01*
X58321428Y20964286D01*
X58511904Y20964286D01*
X58607142Y21011905D01*
X58654761Y21059524D01*
X58702380Y21154762D01*
X58702380Y21345239D01*
X58654761Y21440477D01*
X58607142Y21488096D01*
X58511904Y21535715D01*
X58321428Y21535715D01*
X58226190Y21488096D01*
X58178571Y21440477D01*
X58130952Y21345239D01*
%TO.C,R6*%
X51052380Y23233334D02*
X50576190Y22900000D01*
X51052380Y22661905D02*
X50052380Y22661905D01*
X50052380Y23042858D01*
X50100000Y23138096D01*
X50147619Y23185715D01*
X50242857Y23233334D01*
X50385714Y23233334D01*
X50480952Y23185715D01*
X50528571Y23138096D01*
X50576190Y23042858D01*
X50576190Y22661905D01*
X50052380Y24090477D02*
X50052380Y23900000D01*
X50100000Y23804762D01*
X50147619Y23757143D01*
X50290476Y23661905D01*
X50480952Y23614286D01*
X50861904Y23614286D01*
X50957142Y23661905D01*
X51004761Y23709524D01*
X51052380Y23804762D01*
X51052380Y23995239D01*
X51004761Y24090477D01*
X50957142Y24138096D01*
X50861904Y24185715D01*
X50623809Y24185715D01*
X50528571Y24138096D01*
X50480952Y24090477D01*
X50433333Y23995239D01*
X50433333Y23804762D01*
X50480952Y23709524D01*
X50528571Y23661905D01*
X50623809Y23614286D01*
%TO.C,R7*%
X56802380Y20433334D02*
X56326190Y20100000D01*
X56802380Y19861905D02*
X55802380Y19861905D01*
X55802380Y20242858D01*
X55850000Y20338096D01*
X55897619Y20385715D01*
X55992857Y20433334D01*
X56135714Y20433334D01*
X56230952Y20385715D01*
X56278571Y20338096D01*
X56326190Y20242858D01*
X56326190Y19861905D01*
X55802380Y20766667D02*
X55802380Y21433334D01*
X56802380Y21004762D01*
%TO.C,Q1*%
X52904761Y28802381D02*
X52809523Y28850000D01*
X52714285Y28945239D01*
X52571428Y29088096D01*
X52476190Y29135715D01*
X52380952Y29135715D01*
X52428571Y28897620D02*
X52333333Y28945239D01*
X52238095Y29040477D01*
X52190476Y29230953D01*
X52190476Y29564286D01*
X52238095Y29754762D01*
X52333333Y29850000D01*
X52428571Y29897620D01*
X52619047Y29897620D01*
X52714285Y29850000D01*
X52809523Y29754762D01*
X52857142Y29564286D01*
X52857142Y29230953D01*
X52809523Y29040477D01*
X52714285Y28945239D01*
X52619047Y28897620D01*
X52428571Y28897620D01*
X53809523Y28897620D02*
X53238095Y28897620D01*
X53523809Y28897620D02*
X53523809Y29897620D01*
X53428571Y29754762D01*
X53333333Y29659524D01*
X53238095Y29611905D01*
%TO.C,Q2*%
X57104761Y28802381D02*
X57009523Y28850000D01*
X56914285Y28945239D01*
X56771428Y29088096D01*
X56676190Y29135715D01*
X56580952Y29135715D01*
X56628571Y28897620D02*
X56533333Y28945239D01*
X56438095Y29040477D01*
X56390476Y29230953D01*
X56390476Y29564286D01*
X56438095Y29754762D01*
X56533333Y29850000D01*
X56628571Y29897620D01*
X56819047Y29897620D01*
X56914285Y29850000D01*
X57009523Y29754762D01*
X57057142Y29564286D01*
X57057142Y29230953D01*
X57009523Y29040477D01*
X56914285Y28945239D01*
X56819047Y28897620D01*
X56628571Y28897620D01*
X57438095Y29802381D02*
X57485714Y29850000D01*
X57580952Y29897620D01*
X57819047Y29897620D01*
X57914285Y29850000D01*
X57961904Y29802381D01*
X58009523Y29707143D01*
X58009523Y29611905D01*
X57961904Y29469048D01*
X57390476Y28897620D01*
X58009523Y28897620D01*
%TO.C,H4*%
X-2161905Y3547620D02*
X-2161905Y4547620D01*
X-2161905Y4071429D02*
X-1590477Y4071429D01*
X-1590477Y3547620D02*
X-1590477Y4547620D01*
X-685715Y4214286D02*
X-685715Y3547620D01*
X-923810Y4595239D02*
X-1161905Y3880953D01*
X-542858Y3880953D01*
%TO.C,H3*%
X60388095Y3497620D02*
X60388095Y4497620D01*
X60388095Y4021429D02*
X60959523Y4021429D01*
X60959523Y3497620D02*
X60959523Y4497620D01*
X61340476Y4497620D02*
X61959523Y4497620D01*
X61626190Y4116667D01*
X61769047Y4116667D01*
X61864285Y4069048D01*
X61911904Y4021429D01*
X61959523Y3926191D01*
X61959523Y3688096D01*
X61911904Y3592858D01*
X61864285Y3545239D01*
X61769047Y3497620D01*
X61483333Y3497620D01*
X61388095Y3545239D01*
X61340476Y3592858D01*
%TO.C,H2*%
X288095Y56097620D02*
X288095Y57097620D01*
X288095Y56621429D02*
X859523Y56621429D01*
X859523Y56097620D02*
X859523Y57097620D01*
X1288095Y57002381D02*
X1335714Y57050000D01*
X1430952Y57097620D01*
X1669047Y57097620D01*
X1764285Y57050000D01*
X1811904Y57002381D01*
X1859523Y56907143D01*
X1859523Y56811905D01*
X1811904Y56669048D01*
X1240476Y56097620D01*
X1859523Y56097620D01*
%TO.C,H1*%
X49838095Y56497620D02*
X49838095Y57497620D01*
X49838095Y57021429D02*
X50409523Y57021429D01*
X50409523Y56497620D02*
X50409523Y57497620D01*
X51409523Y56497620D02*
X50838095Y56497620D01*
X51123809Y56497620D02*
X51123809Y57497620D01*
X51028571Y57354762D01*
X50933333Y57259524D01*
X50838095Y57211905D01*
%TO.C,C3*%
X13357142Y19233334D02*
X13404761Y19185715D01*
X13452380Y19042858D01*
X13452380Y18947620D01*
X13404761Y18804762D01*
X13309523Y18709524D01*
X13214285Y18661905D01*
X13023809Y18614286D01*
X12880952Y18614286D01*
X12690476Y18661905D01*
X12595238Y18709524D01*
X12500000Y18804762D01*
X12452380Y18947620D01*
X12452380Y19042858D01*
X12500000Y19185715D01*
X12547619Y19233334D01*
X12452380Y19566667D02*
X12452380Y20185715D01*
X12833333Y19852381D01*
X12833333Y19995239D01*
X12880952Y20090477D01*
X12928571Y20138096D01*
X13023809Y20185715D01*
X13261904Y20185715D01*
X13357142Y20138096D01*
X13404761Y20090477D01*
X13452380Y19995239D01*
X13452380Y19709524D01*
X13404761Y19614286D01*
X13357142Y19566667D01*
%TO.C,R13*%
X38507142Y10597620D02*
X38173809Y11073810D01*
X37935714Y10597620D02*
X37935714Y11597620D01*
X38316666Y11597620D01*
X38411904Y11550000D01*
X38459523Y11502381D01*
X38507142Y11407143D01*
X38507142Y11264286D01*
X38459523Y11169048D01*
X38411904Y11121429D01*
X38316666Y11073810D01*
X37935714Y11073810D01*
X39459523Y10597620D02*
X38888095Y10597620D01*
X39173809Y10597620D02*
X39173809Y11597620D01*
X39078571Y11454762D01*
X38983333Y11359524D01*
X38888095Y11311905D01*
X39792857Y11597620D02*
X40411904Y11597620D01*
X40078571Y11216667D01*
X40221428Y11216667D01*
X40316666Y11169048D01*
X40364285Y11121429D01*
X40411904Y11026191D01*
X40411904Y10788096D01*
X40364285Y10692858D01*
X40316666Y10645239D01*
X40221428Y10597620D01*
X39935714Y10597620D01*
X39840476Y10645239D01*
X39792857Y10692858D01*
%TO.C,R12*%
X41907142Y16247620D02*
X41573809Y16723810D01*
X41335714Y16247620D02*
X41335714Y17247620D01*
X41716666Y17247620D01*
X41811904Y17200000D01*
X41859523Y17152381D01*
X41907142Y17057143D01*
X41907142Y16914286D01*
X41859523Y16819048D01*
X41811904Y16771429D01*
X41716666Y16723810D01*
X41335714Y16723810D01*
X42859523Y16247620D02*
X42288095Y16247620D01*
X42573809Y16247620D02*
X42573809Y17247620D01*
X42478571Y17104762D01*
X42383333Y17009524D01*
X42288095Y16961905D01*
X43240476Y17152381D02*
X43288095Y17200000D01*
X43383333Y17247620D01*
X43621428Y17247620D01*
X43716666Y17200000D01*
X43764285Y17152381D01*
X43811904Y17057143D01*
X43811904Y16961905D01*
X43764285Y16819048D01*
X43192857Y16247620D01*
X43811904Y16247620D01*
%TO.C,R5*%
X17783333Y14547620D02*
X17450000Y15023810D01*
X17211904Y14547620D02*
X17211904Y15547620D01*
X17592857Y15547620D01*
X17688095Y15500000D01*
X17735714Y15452381D01*
X17783333Y15357143D01*
X17783333Y15214286D01*
X17735714Y15119048D01*
X17688095Y15071429D01*
X17592857Y15023810D01*
X17211904Y15023810D01*
X18688095Y15547620D02*
X18211904Y15547620D01*
X18164285Y15071429D01*
X18211904Y15119048D01*
X18307142Y15166667D01*
X18545238Y15166667D01*
X18640476Y15119048D01*
X18688095Y15071429D01*
X18735714Y14976191D01*
X18735714Y14738096D01*
X18688095Y14642858D01*
X18640476Y14595239D01*
X18545238Y14547620D01*
X18307142Y14547620D01*
X18211904Y14595239D01*
X18164285Y14642858D01*
%TO.C,R4*%
X17833333Y19477620D02*
X17500000Y19953810D01*
X17261904Y19477620D02*
X17261904Y20477620D01*
X17642857Y20477620D01*
X17738095Y20430000D01*
X17785714Y20382381D01*
X17833333Y20287143D01*
X17833333Y20144286D01*
X17785714Y20049048D01*
X17738095Y20001429D01*
X17642857Y19953810D01*
X17261904Y19953810D01*
X18690476Y20144286D02*
X18690476Y19477620D01*
X18452380Y20525239D02*
X18214285Y19810953D01*
X18833333Y19810953D01*
%TO.C,R3*%
X15333333Y21547620D02*
X15000000Y22023810D01*
X14761904Y21547620D02*
X14761904Y22547620D01*
X15142857Y22547620D01*
X15238095Y22500000D01*
X15285714Y22452381D01*
X15333333Y22357143D01*
X15333333Y22214286D01*
X15285714Y22119048D01*
X15238095Y22071429D01*
X15142857Y22023810D01*
X14761904Y22023810D01*
X15666666Y22547620D02*
X16285714Y22547620D01*
X15952380Y22166667D01*
X16095238Y22166667D01*
X16190476Y22119048D01*
X16238095Y22071429D01*
X16285714Y21976191D01*
X16285714Y21738096D01*
X16238095Y21642858D01*
X16190476Y21595239D01*
X16095238Y21547620D01*
X15809523Y21547620D01*
X15714285Y21595239D01*
X15666666Y21642858D01*
%TO.C,R2*%
X44533333Y18977620D02*
X44200000Y19453810D01*
X43961904Y18977620D02*
X43961904Y19977620D01*
X44342857Y19977620D01*
X44438095Y19930000D01*
X44485714Y19882381D01*
X44533333Y19787143D01*
X44533333Y19644286D01*
X44485714Y19549048D01*
X44438095Y19501429D01*
X44342857Y19453810D01*
X43961904Y19453810D01*
X44914285Y19882381D02*
X44961904Y19930000D01*
X45057142Y19977620D01*
X45295238Y19977620D01*
X45390476Y19930000D01*
X45438095Y19882381D01*
X45485714Y19787143D01*
X45485714Y19691905D01*
X45438095Y19549048D01*
X44866666Y18977620D01*
X45485714Y18977620D01*
%TO.C,R1*%
X16583333Y25297620D02*
X16250000Y25773810D01*
X16011904Y25297620D02*
X16011904Y26297620D01*
X16392857Y26297620D01*
X16488095Y26250000D01*
X16535714Y26202381D01*
X16583333Y26107143D01*
X16583333Y25964286D01*
X16535714Y25869048D01*
X16488095Y25821429D01*
X16392857Y25773810D01*
X16011904Y25773810D01*
X17535714Y25297620D02*
X16964285Y25297620D01*
X17250000Y25297620D02*
X17250000Y26297620D01*
X17154761Y26154762D01*
X17059523Y26059524D01*
X16964285Y26011905D01*
%TO.C,U3*%
X6838095Y10547620D02*
X6838095Y9738096D01*
X6885714Y9642858D01*
X6933333Y9595239D01*
X7028571Y9547620D01*
X7219047Y9547620D01*
X7314285Y9595239D01*
X7361904Y9642858D01*
X7409523Y9738096D01*
X7409523Y10547620D01*
X7790476Y10547620D02*
X8409523Y10547620D01*
X8076190Y10166667D01*
X8219047Y10166667D01*
X8314285Y10119048D01*
X8361904Y10071429D01*
X8409523Y9976191D01*
X8409523Y9738096D01*
X8361904Y9642858D01*
X8314285Y9595239D01*
X8219047Y9547620D01*
X7933333Y9547620D01*
X7838095Y9595239D01*
X7790476Y9642858D01*
%TO.C,U2*%
X49988095Y18547620D02*
X49988095Y17738096D01*
X50035714Y17642858D01*
X50083333Y17595239D01*
X50178571Y17547620D01*
X50369047Y17547620D01*
X50464285Y17595239D01*
X50511904Y17642858D01*
X50559523Y17738096D01*
X50559523Y18547620D01*
X50988095Y18452381D02*
X51035714Y18500000D01*
X51130952Y18547620D01*
X51369047Y18547620D01*
X51464285Y18500000D01*
X51511904Y18452381D01*
X51559523Y18357143D01*
X51559523Y18261905D01*
X51511904Y18119048D01*
X50940476Y17547620D01*
X51559523Y17547620D01*
%TO.C,U1*%
X18678095Y30807620D02*
X18678095Y29998096D01*
X18725714Y29902858D01*
X18773333Y29855239D01*
X18868571Y29807620D01*
X19059047Y29807620D01*
X19154285Y29855239D01*
X19201904Y29902858D01*
X19249523Y29998096D01*
X19249523Y30807620D01*
X20249523Y29807620D02*
X19678095Y29807620D01*
X19963809Y29807620D02*
X19963809Y30807620D01*
X19868571Y30664762D01*
X19773333Y30569524D01*
X19678095Y30521905D01*
%TO.C,R11*%
X53357142Y16227620D02*
X53023809Y16703810D01*
X52785714Y16227620D02*
X52785714Y17227620D01*
X53166666Y17227620D01*
X53261904Y17180000D01*
X53309523Y17132381D01*
X53357142Y17037143D01*
X53357142Y16894286D01*
X53309523Y16799048D01*
X53261904Y16751429D01*
X53166666Y16703810D01*
X52785714Y16703810D01*
X54309523Y16227620D02*
X53738095Y16227620D01*
X54023809Y16227620D02*
X54023809Y17227620D01*
X53928571Y17084762D01*
X53833333Y16989524D01*
X53738095Y16941905D01*
X55261904Y16227620D02*
X54690476Y16227620D01*
X54976190Y16227620D02*
X54976190Y17227620D01*
X54880952Y17084762D01*
X54785714Y16989524D01*
X54690476Y16941905D01*
%TO.C,R15*%
X30452380Y43857143D02*
X29976190Y43523810D01*
X30452380Y43285715D02*
X29452380Y43285715D01*
X29452380Y43666667D01*
X29500000Y43761905D01*
X29547619Y43809524D01*
X29642857Y43857143D01*
X29785714Y43857143D01*
X29880952Y43809524D01*
X29928571Y43761905D01*
X29976190Y43666667D01*
X29976190Y43285715D01*
X30452380Y44809524D02*
X30452380Y44238096D01*
X30452380Y44523810D02*
X29452380Y44523810D01*
X29595238Y44428572D01*
X29690476Y44333334D01*
X29738095Y44238096D01*
X29452380Y45714286D02*
X29452380Y45238096D01*
X29928571Y45190477D01*
X29880952Y45238096D01*
X29833333Y45333334D01*
X29833333Y45571429D01*
X29880952Y45666667D01*
X29928571Y45714286D01*
X30023809Y45761905D01*
X30261904Y45761905D01*
X30357142Y45714286D01*
X30404761Y45666667D01*
X30452380Y45571429D01*
X30452380Y45333334D01*
X30404761Y45238096D01*
X30357142Y45190477D01*
%TO.C,R16*%
X37702380Y43907143D02*
X37226190Y43573810D01*
X37702380Y43335715D02*
X36702380Y43335715D01*
X36702380Y43716667D01*
X36750000Y43811905D01*
X36797619Y43859524D01*
X36892857Y43907143D01*
X37035714Y43907143D01*
X37130952Y43859524D01*
X37178571Y43811905D01*
X37226190Y43716667D01*
X37226190Y43335715D01*
X37702380Y44859524D02*
X37702380Y44288096D01*
X37702380Y44573810D02*
X36702380Y44573810D01*
X36845238Y44478572D01*
X36940476Y44383334D01*
X36988095Y44288096D01*
X36702380Y45716667D02*
X36702380Y45526191D01*
X36750000Y45430953D01*
X36797619Y45383334D01*
X36940476Y45288096D01*
X37130952Y45240477D01*
X37511904Y45240477D01*
X37607142Y45288096D01*
X37654761Y45335715D01*
X37702380Y45430953D01*
X37702380Y45621429D01*
X37654761Y45716667D01*
X37607142Y45764286D01*
X37511904Y45811905D01*
X37273809Y45811905D01*
X37178571Y45764286D01*
X37130952Y45716667D01*
X37083333Y45621429D01*
X37083333Y45430953D01*
X37130952Y45335715D01*
X37178571Y45288096D01*
X37273809Y45240477D01*
%TO.C,R14*%
X35452380Y43907143D02*
X34976190Y43573810D01*
X35452380Y43335715D02*
X34452380Y43335715D01*
X34452380Y43716667D01*
X34500000Y43811905D01*
X34547619Y43859524D01*
X34642857Y43907143D01*
X34785714Y43907143D01*
X34880952Y43859524D01*
X34928571Y43811905D01*
X34976190Y43716667D01*
X34976190Y43335715D01*
X35452380Y44859524D02*
X35452380Y44288096D01*
X35452380Y44573810D02*
X34452380Y44573810D01*
X34595238Y44478572D01*
X34690476Y44383334D01*
X34738095Y44288096D01*
X34785714Y45716667D02*
X35452380Y45716667D01*
X34404761Y45478572D02*
X35119047Y45240477D01*
X35119047Y45859524D01*
%TO.C,R19*%
X39252380Y43907143D02*
X38776190Y43573810D01*
X39252380Y43335715D02*
X38252380Y43335715D01*
X38252380Y43716667D01*
X38300000Y43811905D01*
X38347619Y43859524D01*
X38442857Y43907143D01*
X38585714Y43907143D01*
X38680952Y43859524D01*
X38728571Y43811905D01*
X38776190Y43716667D01*
X38776190Y43335715D01*
X39252380Y44859524D02*
X39252380Y44288096D01*
X39252380Y44573810D02*
X38252380Y44573810D01*
X38395238Y44478572D01*
X38490476Y44383334D01*
X38538095Y44288096D01*
X39252380Y45335715D02*
X39252380Y45526191D01*
X39204761Y45621429D01*
X39157142Y45669048D01*
X39014285Y45764286D01*
X38823809Y45811905D01*
X38442857Y45811905D01*
X38347619Y45764286D01*
X38300000Y45716667D01*
X38252380Y45621429D01*
X38252380Y45430953D01*
X38300000Y45335715D01*
X38347619Y45288096D01*
X38442857Y45240477D01*
X38680952Y45240477D01*
X38776190Y45288096D01*
X38823809Y45335715D01*
X38871428Y45430953D01*
X38871428Y45621429D01*
X38823809Y45716667D01*
X38776190Y45764286D01*
X38680952Y45811905D01*
%TO.C,D1*%
X27102380Y43361905D02*
X26102380Y43361905D01*
X26102380Y43600000D01*
X26150000Y43742858D01*
X26245238Y43838096D01*
X26340476Y43885715D01*
X26530952Y43933334D01*
X26673809Y43933334D01*
X26864285Y43885715D01*
X26959523Y43838096D01*
X27054761Y43742858D01*
X27102380Y43600000D01*
X27102380Y43361905D01*
X27102380Y44885715D02*
X27102380Y44314286D01*
X27102380Y44600000D02*
X26102380Y44600000D01*
X26245238Y44504762D01*
X26340476Y44409524D01*
X26388095Y44314286D01*
%TO.C,C4*%
X13457142Y9483334D02*
X13504761Y9435715D01*
X13552380Y9292858D01*
X13552380Y9197620D01*
X13504761Y9054762D01*
X13409523Y8959524D01*
X13314285Y8911905D01*
X13123809Y8864286D01*
X12980952Y8864286D01*
X12790476Y8911905D01*
X12695238Y8959524D01*
X12600000Y9054762D01*
X12552380Y9197620D01*
X12552380Y9292858D01*
X12600000Y9435715D01*
X12647619Y9483334D01*
X12885714Y10340477D02*
X13552380Y10340477D01*
X12504761Y10102381D02*
X13219047Y9864286D01*
X13219047Y10483334D01*
%TO.C,C2*%
X47833333Y19072858D02*
X47785714Y19025239D01*
X47642857Y18977620D01*
X47547619Y18977620D01*
X47404761Y19025239D01*
X47309523Y19120477D01*
X47261904Y19215715D01*
X47214285Y19406191D01*
X47214285Y19549048D01*
X47261904Y19739524D01*
X47309523Y19834762D01*
X47404761Y19930000D01*
X47547619Y19977620D01*
X47642857Y19977620D01*
X47785714Y19930000D01*
X47833333Y19882381D01*
X48214285Y19882381D02*
X48261904Y19930000D01*
X48357142Y19977620D01*
X48595238Y19977620D01*
X48690476Y19930000D01*
X48738095Y19882381D01*
X48785714Y19787143D01*
X48785714Y19691905D01*
X48738095Y19549048D01*
X48166666Y18977620D01*
X48785714Y18977620D01*
%TO.C,C1*%
X42583333Y10712858D02*
X42535714Y10665239D01*
X42392857Y10617620D01*
X42297619Y10617620D01*
X42154761Y10665239D01*
X42059523Y10760477D01*
X42011904Y10855715D01*
X41964285Y11046191D01*
X41964285Y11189048D01*
X42011904Y11379524D01*
X42059523Y11474762D01*
X42154761Y11570000D01*
X42297619Y11617620D01*
X42392857Y11617620D01*
X42535714Y11570000D01*
X42583333Y11522381D01*
X43535714Y10617620D02*
X42964285Y10617620D01*
X43250000Y10617620D02*
X43250000Y11617620D01*
X43154761Y11474762D01*
X43059523Y11379524D01*
X42964285Y11331905D01*
%TO.C,C5*%
X32657142Y43833334D02*
X32704761Y43785715D01*
X32752380Y43642858D01*
X32752380Y43547620D01*
X32704761Y43404762D01*
X32609523Y43309524D01*
X32514285Y43261905D01*
X32323809Y43214286D01*
X32180952Y43214286D01*
X31990476Y43261905D01*
X31895238Y43309524D01*
X31800000Y43404762D01*
X31752380Y43547620D01*
X31752380Y43642858D01*
X31800000Y43785715D01*
X31847619Y43833334D01*
X31752380Y44738096D02*
X31752380Y44261905D01*
X32228571Y44214286D01*
X32180952Y44261905D01*
X32133333Y44357143D01*
X32133333Y44595239D01*
X32180952Y44690477D01*
X32228571Y44738096D01*
X32323809Y44785715D01*
X32561904Y44785715D01*
X32657142Y44738096D01*
X32704761Y44690477D01*
X32752380Y44595239D01*
X32752380Y44357143D01*
X32704761Y44261905D01*
X32657142Y44214286D01*
%TO.C,C9*%
X19657142Y44233334D02*
X19704761Y44185715D01*
X19752380Y44042858D01*
X19752380Y43947620D01*
X19704761Y43804762D01*
X19609523Y43709524D01*
X19514285Y43661905D01*
X19323809Y43614286D01*
X19180952Y43614286D01*
X18990476Y43661905D01*
X18895238Y43709524D01*
X18800000Y43804762D01*
X18752380Y43947620D01*
X18752380Y44042858D01*
X18800000Y44185715D01*
X18847619Y44233334D01*
X19752380Y44709524D02*
X19752380Y44900000D01*
X19704761Y44995239D01*
X19657142Y45042858D01*
X19514285Y45138096D01*
X19323809Y45185715D01*
X18942857Y45185715D01*
X18847619Y45138096D01*
X18800000Y45090477D01*
X18752380Y44995239D01*
X18752380Y44804762D01*
X18800000Y44709524D01*
X18847619Y44661905D01*
X18942857Y44614286D01*
X19180952Y44614286D01*
X19276190Y44661905D01*
X19323809Y44709524D01*
X19371428Y44804762D01*
X19371428Y44995239D01*
X19323809Y45090477D01*
X19276190Y45138096D01*
X19180952Y45185715D01*
%TO.C,C8*%
X17857142Y44233334D02*
X17904761Y44185715D01*
X17952380Y44042858D01*
X17952380Y43947620D01*
X17904761Y43804762D01*
X17809523Y43709524D01*
X17714285Y43661905D01*
X17523809Y43614286D01*
X17380952Y43614286D01*
X17190476Y43661905D01*
X17095238Y43709524D01*
X17000000Y43804762D01*
X16952380Y43947620D01*
X16952380Y44042858D01*
X17000000Y44185715D01*
X17047619Y44233334D01*
X17380952Y44804762D02*
X17333333Y44709524D01*
X17285714Y44661905D01*
X17190476Y44614286D01*
X17142857Y44614286D01*
X17047619Y44661905D01*
X17000000Y44709524D01*
X16952380Y44804762D01*
X16952380Y44995239D01*
X17000000Y45090477D01*
X17047619Y45138096D01*
X17142857Y45185715D01*
X17190476Y45185715D01*
X17285714Y45138096D01*
X17333333Y45090477D01*
X17380952Y44995239D01*
X17380952Y44804762D01*
X17428571Y44709524D01*
X17476190Y44661905D01*
X17571428Y44614286D01*
X17761904Y44614286D01*
X17857142Y44661905D01*
X17904761Y44709524D01*
X17952380Y44804762D01*
X17952380Y44995239D01*
X17904761Y45090477D01*
X17857142Y45138096D01*
X17761904Y45185715D01*
X17571428Y45185715D01*
X17476190Y45138096D01*
X17428571Y45090477D01*
X17380952Y44995239D01*
%TO.C,C6*%
X24907142Y43933334D02*
X24954761Y43885715D01*
X25002380Y43742858D01*
X25002380Y43647620D01*
X24954761Y43504762D01*
X24859523Y43409524D01*
X24764285Y43361905D01*
X24573809Y43314286D01*
X24430952Y43314286D01*
X24240476Y43361905D01*
X24145238Y43409524D01*
X24050000Y43504762D01*
X24002380Y43647620D01*
X24002380Y43742858D01*
X24050000Y43885715D01*
X24097619Y43933334D01*
X24002380Y44790477D02*
X24002380Y44600000D01*
X24050000Y44504762D01*
X24097619Y44457143D01*
X24240476Y44361905D01*
X24430952Y44314286D01*
X24811904Y44314286D01*
X24907142Y44361905D01*
X24954761Y44409524D01*
X25002380Y44504762D01*
X25002380Y44695239D01*
X24954761Y44790477D01*
X24907142Y44838096D01*
X24811904Y44885715D01*
X24573809Y44885715D01*
X24478571Y44838096D01*
X24430952Y44790477D01*
X24383333Y44695239D01*
X24383333Y44504762D01*
X24430952Y44409524D01*
X24478571Y44361905D01*
X24573809Y44314286D01*
%TO.C,C7*%
X23107142Y44033334D02*
X23154761Y43985715D01*
X23202380Y43842858D01*
X23202380Y43747620D01*
X23154761Y43604762D01*
X23059523Y43509524D01*
X22964285Y43461905D01*
X22773809Y43414286D01*
X22630952Y43414286D01*
X22440476Y43461905D01*
X22345238Y43509524D01*
X22250000Y43604762D01*
X22202380Y43747620D01*
X22202380Y43842858D01*
X22250000Y43985715D01*
X22297619Y44033334D01*
X22202380Y44366667D02*
X22202380Y45033334D01*
X23202380Y44604762D01*
%TD*%
M02*
