%TF.GenerationSoftware,KiCad,Pcbnew,5.1.9-73d0e3b20d~88~ubuntu20.04.1*%
%TF.CreationDate,2021-04-26T18:42:44+02:00*%
%TF.ProjectId,gamearino,67616d65-6172-4696-9e6f-2e6b69636164,v0.0.1*%
%TF.SameCoordinates,PX5f5e100PY5f5e100*%
%TF.FileFunction,Copper,L2,Bot*%
%TF.FilePolarity,Positive*%
%FSLAX46Y46*%
G04 Gerber Fmt 4.6, Leading zero omitted, Abs format (unit mm)*
G04 Created by KiCad (PCBNEW 5.1.9-73d0e3b20d~88~ubuntu20.04.1) date 2021-04-26 18:42:44*
%MOMM*%
%LPD*%
G01*
G04 APERTURE LIST*
%TA.AperFunction,NonConductor*%
%ADD10C,0.300000*%
%TD*%
%TA.AperFunction,WasherPad*%
%ADD11C,0.500000*%
%TD*%
%TA.AperFunction,ComponentPad*%
%ADD12O,0.900000X2.000000*%
%TD*%
%TA.AperFunction,ComponentPad*%
%ADD13O,0.900000X1.700000*%
%TD*%
%TA.AperFunction,ViaPad*%
%ADD14C,0.900000*%
%TD*%
%TA.AperFunction,Conductor*%
%ADD15C,0.750000*%
%TD*%
%TA.AperFunction,Conductor*%
%ADD16C,0.200000*%
%TD*%
%TA.AperFunction,Conductor*%
%ADD17C,0.250000*%
%TD*%
%TA.AperFunction,Conductor*%
%ADD18C,0.500000*%
%TD*%
%TA.AperFunction,Conductor*%
%ADD19C,0.300000*%
%TD*%
G04 APERTURE END LIST*
D10*
X57500000Y26035715D02*
X57428571Y26178572D01*
X57428571Y26392858D01*
X57500000Y26607143D01*
X57642857Y26750000D01*
X57785714Y26821429D01*
X58071428Y26892858D01*
X58285714Y26892858D01*
X58571428Y26821429D01*
X58714285Y26750000D01*
X58857142Y26607143D01*
X58928571Y26392858D01*
X58928571Y26250000D01*
X58857142Y26035715D01*
X58785714Y25964286D01*
X58285714Y25964286D01*
X58285714Y26250000D01*
X58928571Y24678572D02*
X58142857Y24678572D01*
X58000000Y24750000D01*
X57928571Y24892858D01*
X57928571Y25178572D01*
X58000000Y25321429D01*
X58857142Y24678572D02*
X58928571Y24821429D01*
X58928571Y25178572D01*
X58857142Y25321429D01*
X58714285Y25392858D01*
X58571428Y25392858D01*
X58428571Y25321429D01*
X58357142Y25178572D01*
X58357142Y24821429D01*
X58285714Y24678572D01*
X58928571Y23964286D02*
X57928571Y23964286D01*
X58071428Y23964286D02*
X58000000Y23892858D01*
X57928571Y23750000D01*
X57928571Y23535715D01*
X58000000Y23392858D01*
X58142857Y23321429D01*
X58928571Y23321429D01*
X58142857Y23321429D02*
X58000000Y23250000D01*
X57928571Y23107143D01*
X57928571Y22892858D01*
X58000000Y22750000D01*
X58142857Y22678572D01*
X58928571Y22678572D01*
X58857142Y21392858D02*
X58928571Y21535715D01*
X58928571Y21821429D01*
X58857142Y21964286D01*
X58714285Y22035715D01*
X58142857Y22035715D01*
X58000000Y21964286D01*
X57928571Y21821429D01*
X57928571Y21535715D01*
X58000000Y21392858D01*
X58142857Y21321429D01*
X58285714Y21321429D01*
X58428571Y22035715D01*
X58928571Y20035715D02*
X58142857Y20035715D01*
X58000000Y20107143D01*
X57928571Y20250000D01*
X57928571Y20535715D01*
X58000000Y20678572D01*
X58857142Y20035715D02*
X58928571Y20178572D01*
X58928571Y20535715D01*
X58857142Y20678572D01*
X58714285Y20750000D01*
X58571428Y20750000D01*
X58428571Y20678572D01*
X58357142Y20535715D01*
X58357142Y20178572D01*
X58285714Y20035715D01*
X58928571Y19321429D02*
X57928571Y19321429D01*
X58214285Y19321429D02*
X58071428Y19250000D01*
X58000000Y19178572D01*
X57928571Y19035715D01*
X57928571Y18892858D01*
X58928571Y18392858D02*
X57928571Y18392858D01*
X57428571Y18392858D02*
X57500000Y18464286D01*
X57571428Y18392858D01*
X57500000Y18321429D01*
X57428571Y18392858D01*
X57571428Y18392858D01*
X57928571Y17678572D02*
X58928571Y17678572D01*
X58071428Y17678572D02*
X58000000Y17607143D01*
X57928571Y17464286D01*
X57928571Y17250000D01*
X58000000Y17107143D01*
X58142857Y17035715D01*
X58928571Y17035715D01*
X58928571Y16107143D02*
X58857142Y16250000D01*
X58785714Y16321429D01*
X58642857Y16392858D01*
X58214285Y16392858D01*
X58071428Y16321429D01*
X58000000Y16250000D01*
X57928571Y16107143D01*
X57928571Y15892858D01*
X58000000Y15750000D01*
X58071428Y15678572D01*
X58214285Y15607143D01*
X58642857Y15607143D01*
X58785714Y15678572D01*
X58857142Y15750000D01*
X58928571Y15892858D01*
X58928571Y16107143D01*
X57928571Y13964286D02*
X58928571Y13607143D01*
X57928571Y13250000D01*
X57428571Y12392858D02*
X57428571Y12250000D01*
X57500000Y12107143D01*
X57571428Y12035715D01*
X57714285Y11964286D01*
X58000000Y11892858D01*
X58357142Y11892858D01*
X58642857Y11964286D01*
X58785714Y12035715D01*
X58857142Y12107143D01*
X58928571Y12250000D01*
X58928571Y12392858D01*
X58857142Y12535715D01*
X58785714Y12607143D01*
X58642857Y12678572D01*
X58357142Y12750000D01*
X58000000Y12750000D01*
X57714285Y12678572D01*
X57571428Y12607143D01*
X57500000Y12535715D01*
X57428571Y12392858D01*
X58785714Y11250000D02*
X58857142Y11178572D01*
X58928571Y11250000D01*
X58857142Y11321429D01*
X58785714Y11250000D01*
X58928571Y11250000D01*
X57428571Y10250000D02*
X57428571Y10107143D01*
X57500000Y9964286D01*
X57571428Y9892858D01*
X57714285Y9821429D01*
X58000000Y9750000D01*
X58357142Y9750000D01*
X58642857Y9821429D01*
X58785714Y9892858D01*
X58857142Y9964286D01*
X58928571Y10107143D01*
X58928571Y10250000D01*
X58857142Y10392858D01*
X58785714Y10464286D01*
X58642857Y10535715D01*
X58357142Y10607143D01*
X58000000Y10607143D01*
X57714285Y10535715D01*
X57571428Y10464286D01*
X57500000Y10392858D01*
X57428571Y10250000D01*
X58785714Y9107143D02*
X58857142Y9035715D01*
X58928571Y9107143D01*
X58857142Y9178572D01*
X58785714Y9107143D01*
X58928571Y9107143D01*
X58928571Y7607143D02*
X58928571Y8464286D01*
X58928571Y8035715D02*
X57428571Y8035715D01*
X57642857Y8178572D01*
X57785714Y8321429D01*
X57857142Y8464286D01*
D11*
%TO.P,U4,*%
%TO.N,*%
X37950000Y54500000D03*
X21950000Y54500000D03*
%TD*%
D12*
%TO.P,J1,S1*%
%TO.N,GND*%
X25680000Y6280000D03*
X34320000Y6280000D03*
D13*
X25680000Y2110000D03*
X34320000Y2110000D03*
%TD*%
D14*
%TO.N,+3V3*%
X13500000Y34800000D03*
X15900000Y24500000D03*
X26700000Y10500000D03*
X35600000Y8800000D03*
%TO.N,/USB/D+*%
X29800000Y9300000D03*
X32540913Y10540921D03*
X31566436Y9200010D03*
%TO.N,/USB/RxD*%
X40200000Y28500000D03*
X40500000Y14000000D03*
%TO.N,/USB/TxD*%
X40500000Y15300000D03*
X41661584Y26488123D03*
%TO.N,Net-(C3-Pad1)*%
X32500000Y8250000D03*
X27750000Y8250000D03*
%TO.N,Net-(D1-Pad1)*%
X29000000Y39500000D03*
X34500000Y39250000D03*
%TO.N,/OLED 128x64/SDA*%
X36149990Y39350016D03*
X41324986Y18538465D03*
%TO.N,/OLED 128x64/SCL*%
X38274897Y39443563D03*
X17700000Y28500000D03*
X19900000Y20500000D03*
%TO.N,/Auto-Reset/RTS*%
X53100000Y13900000D03*
X54850000Y21400000D03*
%TO.N,/Auto-Reset/Reset*%
X19600000Y28500000D03*
X54750000Y27300000D03*
%TO.N,/Auto-Reset/DTR*%
X53100004Y12700000D03*
X53550000Y22400000D03*
%TO.N,/Buttons/C0*%
X40499976Y16500000D03*
X19500000Y31500000D03*
%TO.N,/Buttons/R1*%
X15600000Y18500000D03*
X20300000Y18500000D03*
X6900000Y39000000D03*
X49600000Y32099986D03*
X36700000Y1700000D03*
X21400000Y7000000D03*
%TO.N,/Buttons/R2*%
X20200000Y16500000D03*
X14399999Y23100000D03*
%TO.N,/Buttons/C1*%
X16600000Y32900000D03*
X22900000Y4200000D03*
X36800000Y4200000D03*
X39874990Y22500000D03*
%TO.N,GND*%
X38300000Y12700000D03*
X16000000Y48500000D03*
X8500000Y48500000D03*
X3500000Y41000000D03*
X3500000Y28500000D03*
X8500000Y33500000D03*
X8500000Y21000000D03*
X43500000Y48500000D03*
X56000000Y53500000D03*
X56000000Y33500000D03*
X46000000Y23500000D03*
X51000000Y3500000D03*
X38500000Y8500000D03*
X23500000Y6000000D03*
X36000000Y6000000D03*
X16000000Y28000000D03*
X22000000Y12000000D03*
X55000000Y13000000D03*
X7750000Y1250000D03*
X1500000Y8250000D03*
X39200000Y54400000D03*
X24500000Y54474990D03*
X31100000Y44100000D03*
X46300000Y19400000D03*
%TD*%
D15*
%TO.N,+3V3*%
X13500000Y26900000D02*
X15900000Y24500000D01*
X13500000Y34800000D02*
X13500000Y26900000D01*
X32761395Y12275001D02*
X35600000Y9436396D01*
X28475001Y12275001D02*
X32761395Y12275001D01*
X35600000Y9436396D02*
X35600000Y8800000D01*
X26700000Y10500000D02*
X28475001Y12275001D01*
D16*
%TO.N,/USB/D+*%
X32540913Y10174487D02*
X32540913Y10540921D01*
X31566436Y9200010D02*
X32540913Y10174487D01*
X31466446Y9300000D02*
X31566436Y9200010D01*
X29800000Y9300000D02*
X31466446Y9300000D01*
D17*
%TO.N,/USB/RxD*%
X43200000Y26136396D02*
X43200000Y16700000D01*
X43200000Y16700000D02*
X40949999Y14449999D01*
X40836396Y28500000D02*
X43200000Y26136396D01*
X40200000Y28500000D02*
X40836396Y28500000D01*
X40949999Y14449999D02*
X40500000Y14000000D01*
%TO.N,/USB/TxD*%
X42300000Y17100000D02*
X42300000Y25849707D01*
X42300000Y25849707D02*
X41661584Y26488123D01*
X40500000Y15300000D02*
X42300000Y17100000D01*
D18*
%TO.N,Net-(C3-Pad1)*%
X32500000Y8250000D02*
X27750000Y8250000D01*
D17*
%TO.N,Net-(D1-Pad1)*%
X32500000Y39250000D02*
X34500000Y39250000D01*
X32250000Y39500000D02*
X32500000Y39250000D01*
X29000000Y39500000D02*
X32250000Y39500000D01*
%TO.N,/OLED 128x64/SDA*%
X40875012Y24332110D02*
X41774985Y23432137D01*
X41774985Y23432137D02*
X41774985Y18988464D01*
X36786386Y39350016D02*
X39374999Y36761403D01*
X39374999Y36761403D02*
X39374999Y27739245D01*
X40875012Y26239232D02*
X40875012Y24332110D01*
X36149990Y39350016D02*
X36786386Y39350016D01*
X39374999Y27739245D02*
X40875012Y26239232D01*
X41774985Y18988464D02*
X41324986Y18538465D01*
%TO.N,/OLED 128x64/SCL*%
X19900000Y26300000D02*
X19900000Y20500000D01*
X17700000Y28500000D02*
X19900000Y26300000D01*
%TO.N,/Auto-Reset/RTS*%
X53100000Y19650000D02*
X54850000Y21400000D01*
X53100000Y13900000D02*
X53100000Y19650000D01*
%TO.N,/Auto-Reset/Reset*%
X20978987Y38499989D02*
X26207112Y38499990D01*
X19600000Y28500000D02*
X15774999Y32325001D01*
X15774999Y32325001D02*
X15774999Y33296001D01*
X38464470Y40474992D02*
X51639462Y27300000D01*
X15774999Y33296001D02*
X20978987Y38499989D01*
X51639462Y27300000D02*
X54750000Y27300000D01*
X26207112Y38499990D02*
X28182114Y40474992D01*
X28182114Y40474992D02*
X38464470Y40474992D01*
%TO.N,/Auto-Reset/DTR*%
X53100004Y12700000D02*
X52500000Y12700000D01*
X52500000Y12700000D02*
X52200000Y13000000D01*
X52200000Y21050000D02*
X53550000Y22400000D01*
X52200000Y13000000D02*
X52200000Y21050000D01*
%TO.N,/Buttons/C0*%
X19500000Y30863604D02*
X21013594Y29350010D01*
X40499976Y21399976D02*
X40499976Y16500000D01*
X21013594Y29350010D02*
X37057112Y29350010D01*
X40375001Y24124999D02*
X41200000Y23300000D01*
X41200000Y22100000D02*
X40499976Y21399976D01*
X19500000Y31500000D02*
X19500000Y30863604D01*
X41200000Y23300000D02*
X41200000Y22100000D01*
X40375001Y26032121D02*
X40375001Y24124999D01*
X37057112Y29350010D02*
X40375001Y26032121D01*
%TO.N,/Buttons/R1*%
X15600000Y18500000D02*
X20300000Y18500000D01*
X35884990Y884990D02*
X36700000Y1700000D01*
X23015010Y884990D02*
X35884990Y884990D01*
X21400000Y2500000D02*
X23015010Y884990D01*
X21400000Y7000000D02*
X21400000Y2500000D01*
X6900000Y39000000D02*
X26000000Y39000000D01*
X26000000Y39000000D02*
X28000000Y41000000D01*
X28000000Y41000000D02*
X39000000Y41000000D01*
X47900014Y32099986D02*
X49600000Y32099986D01*
X39000000Y41000000D02*
X47900014Y32099986D01*
%TO.N,/Buttons/R2*%
X14399999Y17800001D02*
X14399999Y23100000D01*
X15700000Y16500000D02*
X14399999Y17800001D01*
X20200000Y16500000D02*
X15700000Y16500000D01*
%TO.N,/Buttons/C1*%
X22900000Y4200000D02*
X36800000Y4200000D01*
X20650000Y28850000D02*
X36850000Y28850000D01*
X20650000Y28850000D02*
X16600000Y32900000D01*
X39874990Y25825010D02*
X39874990Y22500000D01*
X36850000Y28850000D02*
X39874990Y25825010D01*
X36800000Y4200000D02*
X39400000Y6800000D01*
X39400000Y22025010D02*
X39874990Y22500000D01*
X39400000Y6800000D02*
X39400000Y22025010D01*
%TD*%
%TO.N,GND*%
X56698869Y55529557D02*
X57371123Y55326592D01*
X57991145Y54996921D01*
X58535333Y54553092D01*
X58982946Y54012021D01*
X59316940Y53394312D01*
X59524592Y52723494D01*
X59599975Y52006270D01*
X59600001Y51998899D01*
X59600000Y27703572D01*
X56720000Y27703572D01*
X56720000Y6796429D01*
X59600000Y6796429D01*
X59600000Y4019563D01*
X59529557Y3301131D01*
X59326592Y2628877D01*
X58996918Y2008850D01*
X58553093Y1464668D01*
X58012021Y1017054D01*
X57394313Y683061D01*
X56723498Y475409D01*
X56006270Y400025D01*
X55999187Y400000D01*
X36008638Y400000D01*
X36077257Y420815D01*
X36164119Y467244D01*
X36240254Y529726D01*
X36255919Y548814D01*
X36588184Y881079D01*
X36618745Y875000D01*
X36781255Y875000D01*
X36940644Y906704D01*
X37090784Y968894D01*
X37225907Y1059181D01*
X37340819Y1174093D01*
X37431106Y1309216D01*
X37493296Y1459356D01*
X37525000Y1618745D01*
X37525000Y1781255D01*
X37493296Y1940644D01*
X37431106Y2090784D01*
X37340819Y2225907D01*
X37225907Y2340819D01*
X37090784Y2431106D01*
X36940644Y2493296D01*
X36781255Y2525000D01*
X36618745Y2525000D01*
X36459356Y2493296D01*
X36309216Y2431106D01*
X36174093Y2340819D01*
X36059181Y2225907D01*
X35968894Y2090784D01*
X35906704Y1940644D01*
X35875000Y1781255D01*
X35875000Y1618745D01*
X35881079Y1588184D01*
X35677885Y1384990D01*
X35077280Y1384990D01*
X35082009Y1393824D01*
X35129050Y1548560D01*
X35145000Y1709500D01*
X35145000Y2109500D01*
X34320500Y2109500D01*
X34320500Y2089500D01*
X34319500Y2089500D01*
X34319500Y2109500D01*
X33495000Y2109500D01*
X33495000Y1709500D01*
X33510950Y1548560D01*
X33557991Y1393824D01*
X33562720Y1384990D01*
X26437280Y1384990D01*
X26442009Y1393824D01*
X26489050Y1548560D01*
X26505000Y1709500D01*
X26505000Y2109500D01*
X25680500Y2109500D01*
X25680500Y2089500D01*
X25679500Y2089500D01*
X25679500Y2109500D01*
X24855000Y2109500D01*
X24855000Y1709500D01*
X24870950Y1548560D01*
X24917991Y1393824D01*
X24922720Y1384990D01*
X23222116Y1384990D01*
X22096606Y2510500D01*
X24855000Y2510500D01*
X24855000Y2110500D01*
X25679500Y2110500D01*
X25679500Y3241250D01*
X25680500Y3241250D01*
X25680500Y2110500D01*
X26505000Y2110500D01*
X26505000Y2510500D01*
X33495000Y2510500D01*
X33495000Y2110500D01*
X34319500Y2110500D01*
X34319500Y3241250D01*
X34320500Y3241250D01*
X34320500Y2110500D01*
X35145000Y2110500D01*
X35145000Y2510500D01*
X35129050Y2671440D01*
X35082009Y2826176D01*
X35005684Y2968761D01*
X34903009Y3093716D01*
X34777929Y3196239D01*
X34635251Y3272391D01*
X34480458Y3319244D01*
X34449552Y3324765D01*
X34320500Y3241250D01*
X34319500Y3241250D01*
X34190448Y3324765D01*
X34159542Y3319244D01*
X34004749Y3272391D01*
X33862071Y3196239D01*
X33736991Y3093716D01*
X33634316Y2968761D01*
X33557991Y2826176D01*
X33510950Y2671440D01*
X33495000Y2510500D01*
X26505000Y2510500D01*
X26489050Y2671440D01*
X26442009Y2826176D01*
X26365684Y2968761D01*
X26263009Y3093716D01*
X26137929Y3196239D01*
X25995251Y3272391D01*
X25840458Y3319244D01*
X25809552Y3324765D01*
X25680500Y3241250D01*
X25679500Y3241250D01*
X25550448Y3324765D01*
X25519542Y3319244D01*
X25364749Y3272391D01*
X25222071Y3196239D01*
X25096991Y3093716D01*
X24994316Y2968761D01*
X24917991Y2826176D01*
X24870950Y2671440D01*
X24855000Y2510500D01*
X22096606Y2510500D01*
X21900000Y2707105D01*
X21900000Y6279500D01*
X24855000Y6279500D01*
X24855000Y5729500D01*
X24870950Y5568560D01*
X24917991Y5413824D01*
X24994316Y5271239D01*
X25096991Y5146284D01*
X25222071Y5043761D01*
X25364749Y4967609D01*
X25519542Y4920756D01*
X25550448Y4915235D01*
X25679500Y4998750D01*
X25679500Y6279500D01*
X25680500Y6279500D01*
X25680500Y4998750D01*
X25809552Y4915235D01*
X25840458Y4920756D01*
X25995251Y4967609D01*
X26137929Y5043761D01*
X26263009Y5146284D01*
X26365684Y5271239D01*
X26442009Y5413824D01*
X26483209Y5549347D01*
X26511823Y5480268D01*
X26585693Y5369713D01*
X26679713Y5275693D01*
X26790268Y5201823D01*
X26913110Y5150940D01*
X27043518Y5125000D01*
X27176482Y5125000D01*
X27306890Y5150940D01*
X27429732Y5201823D01*
X27540287Y5275693D01*
X27634307Y5369713D01*
X27708177Y5480268D01*
X27759060Y5603110D01*
X27785000Y5733518D01*
X27785000Y5866482D01*
X32215000Y5866482D01*
X32215000Y5733518D01*
X32240940Y5603110D01*
X32291823Y5480268D01*
X32365693Y5369713D01*
X32459713Y5275693D01*
X32570268Y5201823D01*
X32693110Y5150940D01*
X32823518Y5125000D01*
X32956482Y5125000D01*
X33086890Y5150940D01*
X33209732Y5201823D01*
X33320287Y5275693D01*
X33414307Y5369713D01*
X33488177Y5480268D01*
X33516791Y5549347D01*
X33557991Y5413824D01*
X33634316Y5271239D01*
X33736991Y5146284D01*
X33862071Y5043761D01*
X34004749Y4967609D01*
X34159542Y4920756D01*
X34190448Y4915235D01*
X34319500Y4998750D01*
X34319500Y6279500D01*
X34320500Y6279500D01*
X34320500Y4998750D01*
X34449552Y4915235D01*
X34480458Y4920756D01*
X34635251Y4967609D01*
X34777929Y5043761D01*
X34903009Y5146284D01*
X35005684Y5271239D01*
X35082009Y5413824D01*
X35129050Y5568560D01*
X35145000Y5729500D01*
X35145000Y6279500D01*
X34320500Y6279500D01*
X34319500Y6279500D01*
X33495000Y6279500D01*
X33495000Y6103260D01*
X33488177Y6119732D01*
X33414307Y6230287D01*
X33320287Y6324307D01*
X33209732Y6398177D01*
X33086890Y6449060D01*
X32956482Y6475000D01*
X32823518Y6475000D01*
X32693110Y6449060D01*
X32570268Y6398177D01*
X32459713Y6324307D01*
X32365693Y6230287D01*
X32291823Y6119732D01*
X32240940Y5996890D01*
X32215000Y5866482D01*
X27785000Y5866482D01*
X27759060Y5996890D01*
X27708177Y6119732D01*
X27634307Y6230287D01*
X27540287Y6324307D01*
X27429732Y6398177D01*
X27306890Y6449060D01*
X27176482Y6475000D01*
X27043518Y6475000D01*
X26913110Y6449060D01*
X26790268Y6398177D01*
X26679713Y6324307D01*
X26585693Y6230287D01*
X26511823Y6119732D01*
X26505000Y6103260D01*
X26505000Y6279500D01*
X25680500Y6279500D01*
X25679500Y6279500D01*
X24855000Y6279500D01*
X21900000Y6279500D01*
X21900000Y6341870D01*
X21925907Y6359181D01*
X22040819Y6474093D01*
X22131106Y6609216D01*
X22193296Y6759356D01*
X22207447Y6830500D01*
X24855000Y6830500D01*
X24855000Y6280500D01*
X25679500Y6280500D01*
X25679500Y7561250D01*
X25680500Y7561250D01*
X25680500Y6280500D01*
X26505000Y6280500D01*
X26505000Y6830500D01*
X33495000Y6830500D01*
X33495000Y6280500D01*
X34319500Y6280500D01*
X34319500Y7561250D01*
X34320500Y7561250D01*
X34320500Y6280500D01*
X35145000Y6280500D01*
X35145000Y6830500D01*
X35129050Y6991440D01*
X35082009Y7146176D01*
X35005684Y7288761D01*
X34903009Y7413716D01*
X34777929Y7516239D01*
X34635251Y7592391D01*
X34480458Y7639244D01*
X34449552Y7644765D01*
X34320500Y7561250D01*
X34319500Y7561250D01*
X34190448Y7644765D01*
X34159542Y7639244D01*
X34004749Y7592391D01*
X33862071Y7516239D01*
X33736991Y7413716D01*
X33634316Y7288761D01*
X33557991Y7146176D01*
X33510950Y6991440D01*
X33495000Y6830500D01*
X26505000Y6830500D01*
X26489050Y6991440D01*
X26442009Y7146176D01*
X26365684Y7288761D01*
X26263009Y7413716D01*
X26137929Y7516239D01*
X25995251Y7592391D01*
X25840458Y7639244D01*
X25809552Y7644765D01*
X25680500Y7561250D01*
X25679500Y7561250D01*
X25550448Y7644765D01*
X25519542Y7639244D01*
X25364749Y7592391D01*
X25222071Y7516239D01*
X25096991Y7413716D01*
X24994316Y7288761D01*
X24917991Y7146176D01*
X24870950Y6991440D01*
X24855000Y6830500D01*
X22207447Y6830500D01*
X22225000Y6918745D01*
X22225000Y7081255D01*
X22193296Y7240644D01*
X22131106Y7390784D01*
X22040819Y7525907D01*
X21925907Y7640819D01*
X21790784Y7731106D01*
X21640644Y7793296D01*
X21481255Y7825000D01*
X21318745Y7825000D01*
X21159356Y7793296D01*
X21009216Y7731106D01*
X20874093Y7640819D01*
X20759181Y7525907D01*
X20668894Y7390784D01*
X20606704Y7240644D01*
X20575000Y7081255D01*
X20575000Y6918745D01*
X20606704Y6759356D01*
X20668894Y6609216D01*
X20759181Y6474093D01*
X20874093Y6359181D01*
X20900000Y6341870D01*
X20900001Y2524570D01*
X20897581Y2500000D01*
X20907235Y2401983D01*
X20926947Y2337002D01*
X20935826Y2307733D01*
X20982255Y2220871D01*
X21044737Y2144736D01*
X21063819Y2129076D01*
X22644085Y548809D01*
X22659746Y529726D01*
X22735881Y467244D01*
X22822743Y420815D01*
X22875953Y404674D01*
X22891362Y400000D01*
X4019563Y400000D01*
X3301131Y470443D01*
X2628877Y673408D01*
X2008850Y1003082D01*
X1464668Y1446907D01*
X1017054Y1987979D01*
X683061Y2605687D01*
X475409Y3276502D01*
X400025Y3993730D01*
X400000Y4000813D01*
X400000Y4194521D01*
X2025000Y4194521D01*
X2025000Y3805479D01*
X2100898Y3423914D01*
X2249778Y3064487D01*
X2465917Y2741011D01*
X2741011Y2465917D01*
X3064487Y2249778D01*
X3423914Y2100898D01*
X3805479Y2025000D01*
X4194521Y2025000D01*
X4576086Y2100898D01*
X4935513Y2249778D01*
X5258989Y2465917D01*
X5534083Y2741011D01*
X5750222Y3064487D01*
X5899102Y3423914D01*
X5975000Y3805479D01*
X5975000Y4194521D01*
X5899102Y4576086D01*
X5750222Y4935513D01*
X5534083Y5258989D01*
X5258989Y5534083D01*
X4935513Y5750222D01*
X4576086Y5899102D01*
X4194521Y5975000D01*
X3805479Y5975000D01*
X3423914Y5899102D01*
X3064487Y5750222D01*
X2741011Y5534083D01*
X2465917Y5258989D01*
X2249778Y4935513D01*
X2100898Y4576086D01*
X2025000Y4194521D01*
X400000Y4194521D01*
X400000Y10581255D01*
X25875000Y10581255D01*
X25875000Y10418745D01*
X25906704Y10259356D01*
X25968894Y10109216D01*
X26059181Y9974093D01*
X26174093Y9859181D01*
X26309216Y9768894D01*
X26459356Y9706704D01*
X26618745Y9675000D01*
X26781255Y9675000D01*
X26940644Y9706704D01*
X27090784Y9768894D01*
X27225907Y9859181D01*
X27340819Y9974093D01*
X27431106Y10109216D01*
X27474403Y10213743D01*
X28785662Y11525001D01*
X32450736Y11525001D01*
X32609816Y11365921D01*
X32459658Y11365921D01*
X32300269Y11334217D01*
X32150129Y11272027D01*
X32015006Y11181740D01*
X31900094Y11066828D01*
X31809807Y10931705D01*
X31747617Y10781565D01*
X31715913Y10622176D01*
X31715913Y10459666D01*
X31747617Y10300277D01*
X31809807Y10150137D01*
X31823828Y10129153D01*
X31707741Y10013066D01*
X31647691Y10025010D01*
X31485181Y10025010D01*
X31325792Y9993306D01*
X31175652Y9931116D01*
X31040529Y9840829D01*
X30974700Y9775000D01*
X30474834Y9775000D01*
X30440819Y9825907D01*
X30325907Y9940819D01*
X30190784Y10031106D01*
X30040644Y10093296D01*
X29881255Y10125000D01*
X29718745Y10125000D01*
X29559356Y10093296D01*
X29409216Y10031106D01*
X29274093Y9940819D01*
X29159181Y9825907D01*
X29068894Y9690784D01*
X29006704Y9540644D01*
X28975000Y9381255D01*
X28975000Y9218745D01*
X29006704Y9059356D01*
X29068894Y8909216D01*
X29091757Y8875000D01*
X28291726Y8875000D01*
X28275907Y8890819D01*
X28140784Y8981106D01*
X27990644Y9043296D01*
X27831255Y9075000D01*
X27668745Y9075000D01*
X27509356Y9043296D01*
X27359216Y8981106D01*
X27224093Y8890819D01*
X27109181Y8775907D01*
X27018894Y8640784D01*
X26956704Y8490644D01*
X26925000Y8331255D01*
X26925000Y8168745D01*
X26956704Y8009356D01*
X27018894Y7859216D01*
X27109181Y7724093D01*
X27224093Y7609181D01*
X27359216Y7518894D01*
X27509356Y7456704D01*
X27668745Y7425000D01*
X27831255Y7425000D01*
X27990644Y7456704D01*
X28140784Y7518894D01*
X28275907Y7609181D01*
X28291726Y7625000D01*
X31958274Y7625000D01*
X31974093Y7609181D01*
X32109216Y7518894D01*
X32259356Y7456704D01*
X32418745Y7425000D01*
X32581255Y7425000D01*
X32740644Y7456704D01*
X32890784Y7518894D01*
X33025907Y7609181D01*
X33140819Y7724093D01*
X33231106Y7859216D01*
X33293296Y8009356D01*
X33325000Y8168745D01*
X33325000Y8331255D01*
X33293296Y8490644D01*
X33231106Y8640784D01*
X33140819Y8775907D01*
X33025907Y8890819D01*
X32890784Y8981106D01*
X32740644Y9043296D01*
X32581255Y9075000D01*
X32418745Y9075000D01*
X32381249Y9067542D01*
X32391436Y9118755D01*
X32391436Y9281265D01*
X32379492Y9341315D01*
X32788805Y9750627D01*
X32931697Y9809815D01*
X33066820Y9900102D01*
X33181732Y10015014D01*
X33272019Y10150137D01*
X33334209Y10300277D01*
X33365913Y10459666D01*
X33365913Y10609824D01*
X34844308Y9131428D01*
X34806704Y9040644D01*
X34775000Y8881255D01*
X34775000Y8718745D01*
X34806704Y8559356D01*
X34868894Y8409216D01*
X34959181Y8274093D01*
X35074093Y8159181D01*
X35209216Y8068894D01*
X35359356Y8006704D01*
X35518745Y7975000D01*
X35681255Y7975000D01*
X35840644Y8006704D01*
X35990784Y8068894D01*
X36125907Y8159181D01*
X36240819Y8274093D01*
X36331106Y8409216D01*
X36393296Y8559356D01*
X36425000Y8718745D01*
X36425000Y8881255D01*
X36393296Y9040644D01*
X36350000Y9145170D01*
X36350000Y9399568D01*
X36353627Y9436396D01*
X36350000Y9473224D01*
X36350000Y9473231D01*
X36339147Y9583422D01*
X36296261Y9724797D01*
X36226619Y9855089D01*
X36211606Y9873382D01*
X36156376Y9940680D01*
X36156374Y9940682D01*
X36132895Y9969291D01*
X36104287Y9992769D01*
X33317774Y12779281D01*
X33294290Y12807896D01*
X33180088Y12901620D01*
X33049796Y12971262D01*
X32908421Y13014148D01*
X32798230Y13025001D01*
X32798222Y13025001D01*
X32761395Y13028628D01*
X32724568Y13025001D01*
X28511817Y13025001D01*
X28475000Y13028627D01*
X28438183Y13025001D01*
X28438166Y13025001D01*
X28327975Y13014148D01*
X28186600Y12971262D01*
X28056308Y12901620D01*
X28056306Y12901619D01*
X28056307Y12901619D01*
X27970716Y12831377D01*
X27970709Y12831370D01*
X27942106Y12807896D01*
X27918631Y12779292D01*
X26413743Y11274403D01*
X26309216Y11231106D01*
X26174093Y11140819D01*
X26059181Y11025907D01*
X25968894Y10890784D01*
X25906704Y10740644D01*
X25875000Y10581255D01*
X400000Y10581255D01*
X400000Y23181255D01*
X13574999Y23181255D01*
X13574999Y23018745D01*
X13606703Y22859356D01*
X13668893Y22709216D01*
X13759180Y22574093D01*
X13874092Y22459181D01*
X13900000Y22441870D01*
X13899999Y17824561D01*
X13897580Y17800001D01*
X13899999Y17775442D01*
X13907234Y17701985D01*
X13935824Y17607735D01*
X13982253Y17520872D01*
X14044735Y17444737D01*
X14063823Y17429072D01*
X15329075Y16163819D01*
X15344736Y16144736D01*
X15420871Y16082254D01*
X15507733Y16035825D01*
X15560943Y16019684D01*
X15601982Y16007235D01*
X15699999Y15997581D01*
X15724559Y16000000D01*
X19541870Y16000000D01*
X19559181Y15974093D01*
X19674093Y15859181D01*
X19809216Y15768894D01*
X19959356Y15706704D01*
X20118745Y15675000D01*
X20281255Y15675000D01*
X20440644Y15706704D01*
X20590784Y15768894D01*
X20725907Y15859181D01*
X20840819Y15974093D01*
X20931106Y16109216D01*
X20993296Y16259356D01*
X21025000Y16418745D01*
X21025000Y16581255D01*
X20993296Y16740644D01*
X20931106Y16890784D01*
X20840819Y17025907D01*
X20725907Y17140819D01*
X20590784Y17231106D01*
X20440644Y17293296D01*
X20281255Y17325000D01*
X20118745Y17325000D01*
X19959356Y17293296D01*
X19809216Y17231106D01*
X19674093Y17140819D01*
X19559181Y17025907D01*
X19541870Y17000000D01*
X15907106Y17000000D01*
X14899999Y18007106D01*
X14899999Y18062664D01*
X14959181Y17974093D01*
X15074093Y17859181D01*
X15209216Y17768894D01*
X15359356Y17706704D01*
X15518745Y17675000D01*
X15681255Y17675000D01*
X15840644Y17706704D01*
X15990784Y17768894D01*
X16125907Y17859181D01*
X16240819Y17974093D01*
X16258130Y18000000D01*
X19641870Y18000000D01*
X19659181Y17974093D01*
X19774093Y17859181D01*
X19909216Y17768894D01*
X20059356Y17706704D01*
X20218745Y17675000D01*
X20381255Y17675000D01*
X20540644Y17706704D01*
X20690784Y17768894D01*
X20825907Y17859181D01*
X20940819Y17974093D01*
X21031106Y18109216D01*
X21093296Y18259356D01*
X21125000Y18418745D01*
X21125000Y18581255D01*
X21093296Y18740644D01*
X21031106Y18890784D01*
X20940819Y19025907D01*
X20825907Y19140819D01*
X20690784Y19231106D01*
X20540644Y19293296D01*
X20381255Y19325000D01*
X20218745Y19325000D01*
X20059356Y19293296D01*
X19909216Y19231106D01*
X19774093Y19140819D01*
X19659181Y19025907D01*
X19641870Y19000000D01*
X16258130Y19000000D01*
X16240819Y19025907D01*
X16125907Y19140819D01*
X15990784Y19231106D01*
X15840644Y19293296D01*
X15681255Y19325000D01*
X15518745Y19325000D01*
X15359356Y19293296D01*
X15209216Y19231106D01*
X15074093Y19140819D01*
X14959181Y19025907D01*
X14899999Y18937336D01*
X14899999Y22441870D01*
X14925906Y22459181D01*
X15040818Y22574093D01*
X15131105Y22709216D01*
X15193295Y22859356D01*
X15224999Y23018745D01*
X15224999Y23181255D01*
X15193295Y23340644D01*
X15131105Y23490784D01*
X15040818Y23625907D01*
X14925906Y23740819D01*
X14790783Y23831106D01*
X14640643Y23893296D01*
X14481254Y23925000D01*
X14318744Y23925000D01*
X14159355Y23893296D01*
X14009215Y23831106D01*
X13874092Y23740819D01*
X13759180Y23625907D01*
X13668893Y23490784D01*
X13606703Y23340644D01*
X13574999Y23181255D01*
X400000Y23181255D01*
X400000Y34881255D01*
X12675000Y34881255D01*
X12675000Y34718745D01*
X12706704Y34559356D01*
X12750000Y34454830D01*
X12750001Y26936837D01*
X12746373Y26900000D01*
X12760853Y26752975D01*
X12803739Y26611600D01*
X12817348Y26586140D01*
X12873382Y26481307D01*
X12914258Y26431500D01*
X12943624Y26395717D01*
X12943627Y26395714D01*
X12967106Y26367105D01*
X12995715Y26343626D01*
X15125598Y24213742D01*
X15168894Y24109216D01*
X15259181Y23974093D01*
X15374093Y23859181D01*
X15509216Y23768894D01*
X15659356Y23706704D01*
X15818745Y23675000D01*
X15981255Y23675000D01*
X16140644Y23706704D01*
X16290784Y23768894D01*
X16425907Y23859181D01*
X16540819Y23974093D01*
X16631106Y24109216D01*
X16693296Y24259356D01*
X16725000Y24418745D01*
X16725000Y24581255D01*
X16693296Y24740644D01*
X16631106Y24890784D01*
X16540819Y25025907D01*
X16425907Y25140819D01*
X16290784Y25231106D01*
X16186258Y25274402D01*
X14250000Y27210659D01*
X14250000Y28581255D01*
X16875000Y28581255D01*
X16875000Y28418745D01*
X16906704Y28259356D01*
X16968894Y28109216D01*
X17059181Y27974093D01*
X17174093Y27859181D01*
X17309216Y27768894D01*
X17459356Y27706704D01*
X17618745Y27675000D01*
X17781255Y27675000D01*
X17811816Y27681079D01*
X19400000Y26092893D01*
X19400001Y21158130D01*
X19374093Y21140819D01*
X19259181Y21025907D01*
X19168894Y20890784D01*
X19106704Y20740644D01*
X19075000Y20581255D01*
X19075000Y20418745D01*
X19106704Y20259356D01*
X19168894Y20109216D01*
X19259181Y19974093D01*
X19374093Y19859181D01*
X19509216Y19768894D01*
X19659356Y19706704D01*
X19818745Y19675000D01*
X19981255Y19675000D01*
X20140644Y19706704D01*
X20290784Y19768894D01*
X20425907Y19859181D01*
X20540819Y19974093D01*
X20631106Y20109216D01*
X20693296Y20259356D01*
X20725000Y20418745D01*
X20725000Y20581255D01*
X20693296Y20740644D01*
X20631106Y20890784D01*
X20540819Y21025907D01*
X20425907Y21140819D01*
X20400000Y21158130D01*
X20400000Y26275440D01*
X20402419Y26300000D01*
X20392765Y26398017D01*
X20382608Y26431500D01*
X20364175Y26492267D01*
X20317746Y26579129D01*
X20255264Y26655264D01*
X20236187Y26670920D01*
X18518921Y28388184D01*
X18525000Y28418745D01*
X18525000Y28581255D01*
X18493296Y28740644D01*
X18431106Y28890784D01*
X18340819Y29025907D01*
X18225907Y29140819D01*
X18090784Y29231106D01*
X17940644Y29293296D01*
X17781255Y29325000D01*
X17618745Y29325000D01*
X17459356Y29293296D01*
X17309216Y29231106D01*
X17174093Y29140819D01*
X17059181Y29025907D01*
X16968894Y28890784D01*
X16906704Y28740644D01*
X16875000Y28581255D01*
X14250000Y28581255D01*
X14250000Y34454830D01*
X14293296Y34559356D01*
X14325000Y34718745D01*
X14325000Y34881255D01*
X14293296Y35040644D01*
X14231106Y35190784D01*
X14140819Y35325907D01*
X14025907Y35440819D01*
X13890784Y35531106D01*
X13740644Y35593296D01*
X13581255Y35625000D01*
X13418745Y35625000D01*
X13259356Y35593296D01*
X13109216Y35531106D01*
X12974093Y35440819D01*
X12859181Y35325907D01*
X12768894Y35190784D01*
X12706704Y35040644D01*
X12675000Y34881255D01*
X400000Y34881255D01*
X400000Y39081255D01*
X6075000Y39081255D01*
X6075000Y38918745D01*
X6106704Y38759356D01*
X6168894Y38609216D01*
X6259181Y38474093D01*
X6374093Y38359181D01*
X6509216Y38268894D01*
X6659356Y38206704D01*
X6818745Y38175000D01*
X6981255Y38175000D01*
X7140644Y38206704D01*
X7290784Y38268894D01*
X7425907Y38359181D01*
X7540819Y38474093D01*
X7558130Y38500000D01*
X20271891Y38500000D01*
X15438818Y33666925D01*
X15419736Y33651265D01*
X15357254Y33575130D01*
X15310825Y33488268D01*
X15282234Y33394018D01*
X15272580Y33296001D01*
X15275000Y33271431D01*
X15274999Y32349562D01*
X15272580Y32325001D01*
X15279063Y32259181D01*
X15282234Y32226985D01*
X15310824Y32132735D01*
X15357253Y32045872D01*
X15419735Y31969737D01*
X15438823Y31954072D01*
X18781079Y28611815D01*
X18775000Y28581255D01*
X18775000Y28418745D01*
X18806704Y28259356D01*
X18868894Y28109216D01*
X18959181Y27974093D01*
X19074093Y27859181D01*
X19209216Y27768894D01*
X19359356Y27706704D01*
X19518745Y27675000D01*
X19681255Y27675000D01*
X19840644Y27706704D01*
X19990784Y27768894D01*
X20125907Y27859181D01*
X20240819Y27974093D01*
X20331106Y28109216D01*
X20393296Y28259356D01*
X20422227Y28404804D01*
X20457733Y28385825D01*
X20551983Y28357235D01*
X20650000Y28347581D01*
X20674560Y28350000D01*
X36642895Y28350000D01*
X39374990Y25617903D01*
X39374991Y23158130D01*
X39349083Y23140819D01*
X39234171Y23025907D01*
X39143884Y22890784D01*
X39081694Y22740644D01*
X39049990Y22581255D01*
X39049990Y22418745D01*
X39055831Y22389379D01*
X39044737Y22380274D01*
X38982255Y22304139D01*
X38966680Y22275000D01*
X38935826Y22217277D01*
X38907235Y22123027D01*
X38897581Y22025010D01*
X38900001Y22000440D01*
X38900000Y7007107D01*
X36911816Y5018921D01*
X36881255Y5025000D01*
X36718745Y5025000D01*
X36559356Y4993296D01*
X36409216Y4931106D01*
X36274093Y4840819D01*
X36159181Y4725907D01*
X36141870Y4700000D01*
X23558130Y4700000D01*
X23540819Y4725907D01*
X23425907Y4840819D01*
X23290784Y4931106D01*
X23140644Y4993296D01*
X22981255Y5025000D01*
X22818745Y5025000D01*
X22659356Y4993296D01*
X22509216Y4931106D01*
X22374093Y4840819D01*
X22259181Y4725907D01*
X22168894Y4590784D01*
X22106704Y4440644D01*
X22075000Y4281255D01*
X22075000Y4118745D01*
X22106704Y3959356D01*
X22168894Y3809216D01*
X22259181Y3674093D01*
X22374093Y3559181D01*
X22509216Y3468894D01*
X22659356Y3406704D01*
X22818745Y3375000D01*
X22981255Y3375000D01*
X23140644Y3406704D01*
X23290784Y3468894D01*
X23425907Y3559181D01*
X23540819Y3674093D01*
X23558130Y3700000D01*
X36141870Y3700000D01*
X36159181Y3674093D01*
X36274093Y3559181D01*
X36409216Y3468894D01*
X36559356Y3406704D01*
X36718745Y3375000D01*
X36881255Y3375000D01*
X37040644Y3406704D01*
X37190784Y3468894D01*
X37325907Y3559181D01*
X37440819Y3674093D01*
X37531106Y3809216D01*
X37593296Y3959356D01*
X37625000Y4118745D01*
X37625000Y4194521D01*
X54025000Y4194521D01*
X54025000Y3805479D01*
X54100898Y3423914D01*
X54249778Y3064487D01*
X54465917Y2741011D01*
X54741011Y2465917D01*
X55064487Y2249778D01*
X55423914Y2100898D01*
X55805479Y2025000D01*
X56194521Y2025000D01*
X56576086Y2100898D01*
X56935513Y2249778D01*
X57258989Y2465917D01*
X57534083Y2741011D01*
X57750222Y3064487D01*
X57899102Y3423914D01*
X57975000Y3805479D01*
X57975000Y4194521D01*
X57899102Y4576086D01*
X57750222Y4935513D01*
X57534083Y5258989D01*
X57258989Y5534083D01*
X56935513Y5750222D01*
X56576086Y5899102D01*
X56194521Y5975000D01*
X55805479Y5975000D01*
X55423914Y5899102D01*
X55064487Y5750222D01*
X54741011Y5534083D01*
X54465917Y5258989D01*
X54249778Y4935513D01*
X54100898Y4576086D01*
X54025000Y4194521D01*
X37625000Y4194521D01*
X37625000Y4281255D01*
X37618921Y4311816D01*
X39736187Y6429080D01*
X39755264Y6444736D01*
X39817746Y6520871D01*
X39864175Y6607733D01*
X39892765Y6701983D01*
X39900000Y6775440D01*
X39900000Y6775449D01*
X39902418Y6799999D01*
X39900000Y6824549D01*
X39900000Y13433274D01*
X39974093Y13359181D01*
X40109216Y13268894D01*
X40259356Y13206704D01*
X40418745Y13175000D01*
X40581255Y13175000D01*
X40740644Y13206704D01*
X40890784Y13268894D01*
X41025907Y13359181D01*
X41140819Y13474093D01*
X41231106Y13609216D01*
X41293296Y13759356D01*
X41325000Y13918745D01*
X41325000Y14081255D01*
X41318921Y14111814D01*
X41320919Y14113812D01*
X41320928Y14113823D01*
X43536181Y16329075D01*
X43555264Y16344736D01*
X43617746Y16420871D01*
X43664175Y16507733D01*
X43692765Y16601983D01*
X43700000Y16675440D01*
X43702419Y16700000D01*
X43700000Y16724560D01*
X43700000Y21050000D01*
X51697581Y21050000D01*
X51700001Y21025430D01*
X51700000Y13024560D01*
X51697581Y13000000D01*
X51707235Y12901983D01*
X51715908Y12873393D01*
X51735825Y12807734D01*
X51782254Y12720871D01*
X51844736Y12644736D01*
X51863824Y12629071D01*
X52129071Y12363824D01*
X52144736Y12344736D01*
X52220871Y12282254D01*
X52307733Y12235825D01*
X52401983Y12207235D01*
X52439510Y12203539D01*
X52459185Y12174093D01*
X52574097Y12059181D01*
X52709220Y11968894D01*
X52859360Y11906704D01*
X53018749Y11875000D01*
X53181259Y11875000D01*
X53340648Y11906704D01*
X53490788Y11968894D01*
X53625911Y12059181D01*
X53740823Y12174093D01*
X53831110Y12309216D01*
X53893300Y12459356D01*
X53925004Y12618745D01*
X53925004Y12781255D01*
X53893300Y12940644D01*
X53831110Y13090784D01*
X53740823Y13225907D01*
X53666728Y13300002D01*
X53740819Y13374093D01*
X53831106Y13509216D01*
X53893296Y13659356D01*
X53925000Y13818745D01*
X53925000Y13981255D01*
X53893296Y14140644D01*
X53831106Y14290784D01*
X53740819Y14425907D01*
X53625907Y14540819D01*
X53600000Y14558130D01*
X53600000Y19442895D01*
X54738185Y20581079D01*
X54768745Y20575000D01*
X54931255Y20575000D01*
X55090644Y20606704D01*
X55240784Y20668894D01*
X55375907Y20759181D01*
X55490819Y20874093D01*
X55581106Y21009216D01*
X55643296Y21159356D01*
X55675000Y21318745D01*
X55675000Y21481255D01*
X55643296Y21640644D01*
X55581106Y21790784D01*
X55490819Y21925907D01*
X55375907Y22040819D01*
X55240784Y22131106D01*
X55090644Y22193296D01*
X54931255Y22225000D01*
X54768745Y22225000D01*
X54609356Y22193296D01*
X54459216Y22131106D01*
X54324093Y22040819D01*
X54258182Y21974908D01*
X54281106Y22009216D01*
X54343296Y22159356D01*
X54375000Y22318745D01*
X54375000Y22481255D01*
X54343296Y22640644D01*
X54281106Y22790784D01*
X54190819Y22925907D01*
X54075907Y23040819D01*
X53940784Y23131106D01*
X53790644Y23193296D01*
X53631255Y23225000D01*
X53468745Y23225000D01*
X53309356Y23193296D01*
X53159216Y23131106D01*
X53024093Y23040819D01*
X52909181Y22925907D01*
X52818894Y22790784D01*
X52756704Y22640644D01*
X52725000Y22481255D01*
X52725000Y22318745D01*
X52731079Y22288185D01*
X51863819Y21420924D01*
X51844737Y21405264D01*
X51782255Y21329129D01*
X51763102Y21293296D01*
X51735826Y21242267D01*
X51707235Y21148017D01*
X51697581Y21050000D01*
X43700000Y21050000D01*
X43700000Y26111836D01*
X43702419Y26136396D01*
X43692765Y26234413D01*
X43690234Y26242756D01*
X43664175Y26328663D01*
X43617746Y26415525D01*
X43555264Y26491660D01*
X43536187Y26507316D01*
X41207325Y28836176D01*
X41191660Y28855264D01*
X41115525Y28917746D01*
X41028663Y28964175D01*
X40934413Y28992765D01*
X40860956Y29000000D01*
X40857931Y29000298D01*
X40840819Y29025907D01*
X40725907Y29140819D01*
X40590784Y29231106D01*
X40440644Y29293296D01*
X40281255Y29325000D01*
X40118745Y29325000D01*
X39959356Y29293296D01*
X39874999Y29258354D01*
X39874999Y36736843D01*
X39877418Y36761403D01*
X39867764Y36859420D01*
X39839174Y36953669D01*
X39839174Y36953670D01*
X39792745Y37040532D01*
X39730263Y37116667D01*
X39711186Y37132323D01*
X38224945Y38618563D01*
X38356152Y38618563D01*
X38515541Y38650267D01*
X38665681Y38712457D01*
X38800804Y38802744D01*
X38915716Y38917656D01*
X39006003Y39052779D01*
X39056842Y39175515D01*
X51268542Y26963813D01*
X51284198Y26944736D01*
X51360333Y26882254D01*
X51447195Y26835825D01*
X51541445Y26807235D01*
X51614902Y26800000D01*
X51614911Y26800000D01*
X51639461Y26797582D01*
X51664011Y26800000D01*
X54091870Y26800000D01*
X54109181Y26774093D01*
X54224093Y26659181D01*
X54359216Y26568894D01*
X54509356Y26506704D01*
X54668745Y26475000D01*
X54831255Y26475000D01*
X54990644Y26506704D01*
X55140784Y26568894D01*
X55275907Y26659181D01*
X55390819Y26774093D01*
X55481106Y26909216D01*
X55543296Y27059356D01*
X55575000Y27218745D01*
X55575000Y27381255D01*
X55543296Y27540644D01*
X55481106Y27690784D01*
X55390819Y27825907D01*
X55275907Y27940819D01*
X55140784Y28031106D01*
X54990644Y28093296D01*
X54831255Y28125000D01*
X54668745Y28125000D01*
X54509356Y28093296D01*
X54359216Y28031106D01*
X54224093Y27940819D01*
X54109181Y27825907D01*
X54091870Y27800000D01*
X51846569Y27800000D01*
X48046582Y31599986D01*
X48941870Y31599986D01*
X48959181Y31574079D01*
X49074093Y31459167D01*
X49209216Y31368880D01*
X49359356Y31306690D01*
X49518745Y31274986D01*
X49681255Y31274986D01*
X49840644Y31306690D01*
X49990784Y31368880D01*
X50125907Y31459167D01*
X50240819Y31574079D01*
X50331106Y31709202D01*
X50393296Y31859342D01*
X50425000Y32018731D01*
X50425000Y32181241D01*
X50393296Y32340630D01*
X50331106Y32490770D01*
X50240819Y32625893D01*
X50125907Y32740805D01*
X49990784Y32831092D01*
X49840644Y32893282D01*
X49681255Y32924986D01*
X49518745Y32924986D01*
X49359356Y32893282D01*
X49209216Y32831092D01*
X49074093Y32740805D01*
X48959181Y32625893D01*
X48941870Y32599986D01*
X48107121Y32599986D01*
X39370929Y41336176D01*
X39355264Y41355264D01*
X39279129Y41417746D01*
X39192267Y41464175D01*
X39098017Y41492765D01*
X39024560Y41500000D01*
X39000000Y41502419D01*
X38975440Y41500000D01*
X28024557Y41500000D01*
X27999999Y41502419D01*
X27975441Y41500000D01*
X27975440Y41500000D01*
X27901983Y41492765D01*
X27807733Y41464175D01*
X27720871Y41417746D01*
X27644736Y41355264D01*
X27629075Y41336181D01*
X25792895Y39500000D01*
X7558130Y39500000D01*
X7540819Y39525907D01*
X7425907Y39640819D01*
X7290784Y39731106D01*
X7140644Y39793296D01*
X6981255Y39825000D01*
X6818745Y39825000D01*
X6659356Y39793296D01*
X6509216Y39731106D01*
X6374093Y39640819D01*
X6259181Y39525907D01*
X6168894Y39390784D01*
X6106704Y39240644D01*
X6075000Y39081255D01*
X400000Y39081255D01*
X400000Y51980437D01*
X420991Y52194521D01*
X2025000Y52194521D01*
X2025000Y51805479D01*
X2100898Y51423914D01*
X2249778Y51064487D01*
X2465917Y50741011D01*
X2741011Y50465917D01*
X3064487Y50249778D01*
X3423914Y50100898D01*
X3805479Y50025000D01*
X4194521Y50025000D01*
X4576086Y50100898D01*
X4935513Y50249778D01*
X5258989Y50465917D01*
X5534083Y50741011D01*
X5750222Y51064487D01*
X5899102Y51423914D01*
X5975000Y51805479D01*
X5975000Y52194521D01*
X47025000Y52194521D01*
X47025000Y51805479D01*
X47100898Y51423914D01*
X47249778Y51064487D01*
X47465917Y50741011D01*
X47741011Y50465917D01*
X48064487Y50249778D01*
X48423914Y50100898D01*
X48805479Y50025000D01*
X49194521Y50025000D01*
X49576086Y50100898D01*
X49935513Y50249778D01*
X50258989Y50465917D01*
X50534083Y50741011D01*
X50750222Y51064487D01*
X50899102Y51423914D01*
X50975000Y51805479D01*
X50975000Y52194521D01*
X50899102Y52576086D01*
X50750222Y52935513D01*
X50534083Y53258989D01*
X50258989Y53534083D01*
X49935513Y53750222D01*
X49576086Y53899102D01*
X49194521Y53975000D01*
X48805479Y53975000D01*
X48423914Y53899102D01*
X48064487Y53750222D01*
X47741011Y53534083D01*
X47465917Y53258989D01*
X47249778Y52935513D01*
X47100898Y52576086D01*
X47025000Y52194521D01*
X5975000Y52194521D01*
X5899102Y52576086D01*
X5750222Y52935513D01*
X5534083Y53258989D01*
X5258989Y53534083D01*
X4935513Y53750222D01*
X4576086Y53899102D01*
X4194521Y53975000D01*
X3805479Y53975000D01*
X3423914Y53899102D01*
X3064487Y53750222D01*
X2741011Y53534083D01*
X2465917Y53258989D01*
X2249778Y52935513D01*
X2100898Y52576086D01*
X2025000Y52194521D01*
X420991Y52194521D01*
X470443Y52698869D01*
X673408Y53371123D01*
X1003079Y53991145D01*
X1446908Y54535333D01*
X1478607Y54561557D01*
X21325000Y54561557D01*
X21325000Y54438443D01*
X21349019Y54317694D01*
X21396132Y54203952D01*
X21464531Y54101586D01*
X21551586Y54014531D01*
X21653952Y53946132D01*
X21767694Y53899019D01*
X21888443Y53875000D01*
X22011557Y53875000D01*
X22132306Y53899019D01*
X22246048Y53946132D01*
X22348414Y54014531D01*
X22435469Y54101586D01*
X22503868Y54203952D01*
X22550981Y54317694D01*
X22575000Y54438443D01*
X22575000Y54561557D01*
X37325000Y54561557D01*
X37325000Y54438443D01*
X37349019Y54317694D01*
X37396132Y54203952D01*
X37464531Y54101586D01*
X37551586Y54014531D01*
X37653952Y53946132D01*
X37767694Y53899019D01*
X37888443Y53875000D01*
X38011557Y53875000D01*
X38132306Y53899019D01*
X38246048Y53946132D01*
X38348414Y54014531D01*
X38435469Y54101586D01*
X38503868Y54203952D01*
X38550981Y54317694D01*
X38575000Y54438443D01*
X38575000Y54561557D01*
X38550981Y54682306D01*
X38503868Y54796048D01*
X38435469Y54898414D01*
X38348414Y54985469D01*
X38246048Y55053868D01*
X38132306Y55100981D01*
X38011557Y55125000D01*
X37888443Y55125000D01*
X37767694Y55100981D01*
X37653952Y55053868D01*
X37551586Y54985469D01*
X37464531Y54898414D01*
X37396132Y54796048D01*
X37349019Y54682306D01*
X37325000Y54561557D01*
X22575000Y54561557D01*
X22550981Y54682306D01*
X22503868Y54796048D01*
X22435469Y54898414D01*
X22348414Y54985469D01*
X22246048Y55053868D01*
X22132306Y55100981D01*
X22011557Y55125000D01*
X21888443Y55125000D01*
X21767694Y55100981D01*
X21653952Y55053868D01*
X21551586Y54985469D01*
X21464531Y54898414D01*
X21396132Y54796048D01*
X21349019Y54682306D01*
X21325000Y54561557D01*
X1478607Y54561557D01*
X1987979Y54982946D01*
X2605688Y55316940D01*
X3276506Y55524592D01*
X3993730Y55599975D01*
X4000813Y55600000D01*
X55980437Y55600000D01*
X56698869Y55529557D01*
%TA.AperFunction,Conductor*%
D19*
G36*
X56698869Y55529557D02*
G01*
X57371123Y55326592D01*
X57991145Y54996921D01*
X58535333Y54553092D01*
X58982946Y54012021D01*
X59316940Y53394312D01*
X59524592Y52723494D01*
X59599975Y52006270D01*
X59600001Y51998899D01*
X59600000Y27703572D01*
X56720000Y27703572D01*
X56720000Y6796429D01*
X59600000Y6796429D01*
X59600000Y4019563D01*
X59529557Y3301131D01*
X59326592Y2628877D01*
X58996918Y2008850D01*
X58553093Y1464668D01*
X58012021Y1017054D01*
X57394313Y683061D01*
X56723498Y475409D01*
X56006270Y400025D01*
X55999187Y400000D01*
X36008638Y400000D01*
X36077257Y420815D01*
X36164119Y467244D01*
X36240254Y529726D01*
X36255919Y548814D01*
X36588184Y881079D01*
X36618745Y875000D01*
X36781255Y875000D01*
X36940644Y906704D01*
X37090784Y968894D01*
X37225907Y1059181D01*
X37340819Y1174093D01*
X37431106Y1309216D01*
X37493296Y1459356D01*
X37525000Y1618745D01*
X37525000Y1781255D01*
X37493296Y1940644D01*
X37431106Y2090784D01*
X37340819Y2225907D01*
X37225907Y2340819D01*
X37090784Y2431106D01*
X36940644Y2493296D01*
X36781255Y2525000D01*
X36618745Y2525000D01*
X36459356Y2493296D01*
X36309216Y2431106D01*
X36174093Y2340819D01*
X36059181Y2225907D01*
X35968894Y2090784D01*
X35906704Y1940644D01*
X35875000Y1781255D01*
X35875000Y1618745D01*
X35881079Y1588184D01*
X35677885Y1384990D01*
X35077280Y1384990D01*
X35082009Y1393824D01*
X35129050Y1548560D01*
X35145000Y1709500D01*
X35145000Y2109500D01*
X34320500Y2109500D01*
X34320500Y2089500D01*
X34319500Y2089500D01*
X34319500Y2109500D01*
X33495000Y2109500D01*
X33495000Y1709500D01*
X33510950Y1548560D01*
X33557991Y1393824D01*
X33562720Y1384990D01*
X26437280Y1384990D01*
X26442009Y1393824D01*
X26489050Y1548560D01*
X26505000Y1709500D01*
X26505000Y2109500D01*
X25680500Y2109500D01*
X25680500Y2089500D01*
X25679500Y2089500D01*
X25679500Y2109500D01*
X24855000Y2109500D01*
X24855000Y1709500D01*
X24870950Y1548560D01*
X24917991Y1393824D01*
X24922720Y1384990D01*
X23222116Y1384990D01*
X22096606Y2510500D01*
X24855000Y2510500D01*
X24855000Y2110500D01*
X25679500Y2110500D01*
X25679500Y3241250D01*
X25680500Y3241250D01*
X25680500Y2110500D01*
X26505000Y2110500D01*
X26505000Y2510500D01*
X33495000Y2510500D01*
X33495000Y2110500D01*
X34319500Y2110500D01*
X34319500Y3241250D01*
X34320500Y3241250D01*
X34320500Y2110500D01*
X35145000Y2110500D01*
X35145000Y2510500D01*
X35129050Y2671440D01*
X35082009Y2826176D01*
X35005684Y2968761D01*
X34903009Y3093716D01*
X34777929Y3196239D01*
X34635251Y3272391D01*
X34480458Y3319244D01*
X34449552Y3324765D01*
X34320500Y3241250D01*
X34319500Y3241250D01*
X34190448Y3324765D01*
X34159542Y3319244D01*
X34004749Y3272391D01*
X33862071Y3196239D01*
X33736991Y3093716D01*
X33634316Y2968761D01*
X33557991Y2826176D01*
X33510950Y2671440D01*
X33495000Y2510500D01*
X26505000Y2510500D01*
X26489050Y2671440D01*
X26442009Y2826176D01*
X26365684Y2968761D01*
X26263009Y3093716D01*
X26137929Y3196239D01*
X25995251Y3272391D01*
X25840458Y3319244D01*
X25809552Y3324765D01*
X25680500Y3241250D01*
X25679500Y3241250D01*
X25550448Y3324765D01*
X25519542Y3319244D01*
X25364749Y3272391D01*
X25222071Y3196239D01*
X25096991Y3093716D01*
X24994316Y2968761D01*
X24917991Y2826176D01*
X24870950Y2671440D01*
X24855000Y2510500D01*
X22096606Y2510500D01*
X21900000Y2707105D01*
X21900000Y6279500D01*
X24855000Y6279500D01*
X24855000Y5729500D01*
X24870950Y5568560D01*
X24917991Y5413824D01*
X24994316Y5271239D01*
X25096991Y5146284D01*
X25222071Y5043761D01*
X25364749Y4967609D01*
X25519542Y4920756D01*
X25550448Y4915235D01*
X25679500Y4998750D01*
X25679500Y6279500D01*
X25680500Y6279500D01*
X25680500Y4998750D01*
X25809552Y4915235D01*
X25840458Y4920756D01*
X25995251Y4967609D01*
X26137929Y5043761D01*
X26263009Y5146284D01*
X26365684Y5271239D01*
X26442009Y5413824D01*
X26483209Y5549347D01*
X26511823Y5480268D01*
X26585693Y5369713D01*
X26679713Y5275693D01*
X26790268Y5201823D01*
X26913110Y5150940D01*
X27043518Y5125000D01*
X27176482Y5125000D01*
X27306890Y5150940D01*
X27429732Y5201823D01*
X27540287Y5275693D01*
X27634307Y5369713D01*
X27708177Y5480268D01*
X27759060Y5603110D01*
X27785000Y5733518D01*
X27785000Y5866482D01*
X32215000Y5866482D01*
X32215000Y5733518D01*
X32240940Y5603110D01*
X32291823Y5480268D01*
X32365693Y5369713D01*
X32459713Y5275693D01*
X32570268Y5201823D01*
X32693110Y5150940D01*
X32823518Y5125000D01*
X32956482Y5125000D01*
X33086890Y5150940D01*
X33209732Y5201823D01*
X33320287Y5275693D01*
X33414307Y5369713D01*
X33488177Y5480268D01*
X33516791Y5549347D01*
X33557991Y5413824D01*
X33634316Y5271239D01*
X33736991Y5146284D01*
X33862071Y5043761D01*
X34004749Y4967609D01*
X34159542Y4920756D01*
X34190448Y4915235D01*
X34319500Y4998750D01*
X34319500Y6279500D01*
X34320500Y6279500D01*
X34320500Y4998750D01*
X34449552Y4915235D01*
X34480458Y4920756D01*
X34635251Y4967609D01*
X34777929Y5043761D01*
X34903009Y5146284D01*
X35005684Y5271239D01*
X35082009Y5413824D01*
X35129050Y5568560D01*
X35145000Y5729500D01*
X35145000Y6279500D01*
X34320500Y6279500D01*
X34319500Y6279500D01*
X33495000Y6279500D01*
X33495000Y6103260D01*
X33488177Y6119732D01*
X33414307Y6230287D01*
X33320287Y6324307D01*
X33209732Y6398177D01*
X33086890Y6449060D01*
X32956482Y6475000D01*
X32823518Y6475000D01*
X32693110Y6449060D01*
X32570268Y6398177D01*
X32459713Y6324307D01*
X32365693Y6230287D01*
X32291823Y6119732D01*
X32240940Y5996890D01*
X32215000Y5866482D01*
X27785000Y5866482D01*
X27759060Y5996890D01*
X27708177Y6119732D01*
X27634307Y6230287D01*
X27540287Y6324307D01*
X27429732Y6398177D01*
X27306890Y6449060D01*
X27176482Y6475000D01*
X27043518Y6475000D01*
X26913110Y6449060D01*
X26790268Y6398177D01*
X26679713Y6324307D01*
X26585693Y6230287D01*
X26511823Y6119732D01*
X26505000Y6103260D01*
X26505000Y6279500D01*
X25680500Y6279500D01*
X25679500Y6279500D01*
X24855000Y6279500D01*
X21900000Y6279500D01*
X21900000Y6341870D01*
X21925907Y6359181D01*
X22040819Y6474093D01*
X22131106Y6609216D01*
X22193296Y6759356D01*
X22207447Y6830500D01*
X24855000Y6830500D01*
X24855000Y6280500D01*
X25679500Y6280500D01*
X25679500Y7561250D01*
X25680500Y7561250D01*
X25680500Y6280500D01*
X26505000Y6280500D01*
X26505000Y6830500D01*
X33495000Y6830500D01*
X33495000Y6280500D01*
X34319500Y6280500D01*
X34319500Y7561250D01*
X34320500Y7561250D01*
X34320500Y6280500D01*
X35145000Y6280500D01*
X35145000Y6830500D01*
X35129050Y6991440D01*
X35082009Y7146176D01*
X35005684Y7288761D01*
X34903009Y7413716D01*
X34777929Y7516239D01*
X34635251Y7592391D01*
X34480458Y7639244D01*
X34449552Y7644765D01*
X34320500Y7561250D01*
X34319500Y7561250D01*
X34190448Y7644765D01*
X34159542Y7639244D01*
X34004749Y7592391D01*
X33862071Y7516239D01*
X33736991Y7413716D01*
X33634316Y7288761D01*
X33557991Y7146176D01*
X33510950Y6991440D01*
X33495000Y6830500D01*
X26505000Y6830500D01*
X26489050Y6991440D01*
X26442009Y7146176D01*
X26365684Y7288761D01*
X26263009Y7413716D01*
X26137929Y7516239D01*
X25995251Y7592391D01*
X25840458Y7639244D01*
X25809552Y7644765D01*
X25680500Y7561250D01*
X25679500Y7561250D01*
X25550448Y7644765D01*
X25519542Y7639244D01*
X25364749Y7592391D01*
X25222071Y7516239D01*
X25096991Y7413716D01*
X24994316Y7288761D01*
X24917991Y7146176D01*
X24870950Y6991440D01*
X24855000Y6830500D01*
X22207447Y6830500D01*
X22225000Y6918745D01*
X22225000Y7081255D01*
X22193296Y7240644D01*
X22131106Y7390784D01*
X22040819Y7525907D01*
X21925907Y7640819D01*
X21790784Y7731106D01*
X21640644Y7793296D01*
X21481255Y7825000D01*
X21318745Y7825000D01*
X21159356Y7793296D01*
X21009216Y7731106D01*
X20874093Y7640819D01*
X20759181Y7525907D01*
X20668894Y7390784D01*
X20606704Y7240644D01*
X20575000Y7081255D01*
X20575000Y6918745D01*
X20606704Y6759356D01*
X20668894Y6609216D01*
X20759181Y6474093D01*
X20874093Y6359181D01*
X20900000Y6341870D01*
X20900001Y2524570D01*
X20897581Y2500000D01*
X20907235Y2401983D01*
X20926947Y2337002D01*
X20935826Y2307733D01*
X20982255Y2220871D01*
X21044737Y2144736D01*
X21063819Y2129076D01*
X22644085Y548809D01*
X22659746Y529726D01*
X22735881Y467244D01*
X22822743Y420815D01*
X22875953Y404674D01*
X22891362Y400000D01*
X4019563Y400000D01*
X3301131Y470443D01*
X2628877Y673408D01*
X2008850Y1003082D01*
X1464668Y1446907D01*
X1017054Y1987979D01*
X683061Y2605687D01*
X475409Y3276502D01*
X400025Y3993730D01*
X400000Y4000813D01*
X400000Y4194521D01*
X2025000Y4194521D01*
X2025000Y3805479D01*
X2100898Y3423914D01*
X2249778Y3064487D01*
X2465917Y2741011D01*
X2741011Y2465917D01*
X3064487Y2249778D01*
X3423914Y2100898D01*
X3805479Y2025000D01*
X4194521Y2025000D01*
X4576086Y2100898D01*
X4935513Y2249778D01*
X5258989Y2465917D01*
X5534083Y2741011D01*
X5750222Y3064487D01*
X5899102Y3423914D01*
X5975000Y3805479D01*
X5975000Y4194521D01*
X5899102Y4576086D01*
X5750222Y4935513D01*
X5534083Y5258989D01*
X5258989Y5534083D01*
X4935513Y5750222D01*
X4576086Y5899102D01*
X4194521Y5975000D01*
X3805479Y5975000D01*
X3423914Y5899102D01*
X3064487Y5750222D01*
X2741011Y5534083D01*
X2465917Y5258989D01*
X2249778Y4935513D01*
X2100898Y4576086D01*
X2025000Y4194521D01*
X400000Y4194521D01*
X400000Y10581255D01*
X25875000Y10581255D01*
X25875000Y10418745D01*
X25906704Y10259356D01*
X25968894Y10109216D01*
X26059181Y9974093D01*
X26174093Y9859181D01*
X26309216Y9768894D01*
X26459356Y9706704D01*
X26618745Y9675000D01*
X26781255Y9675000D01*
X26940644Y9706704D01*
X27090784Y9768894D01*
X27225907Y9859181D01*
X27340819Y9974093D01*
X27431106Y10109216D01*
X27474403Y10213743D01*
X28785662Y11525001D01*
X32450736Y11525001D01*
X32609816Y11365921D01*
X32459658Y11365921D01*
X32300269Y11334217D01*
X32150129Y11272027D01*
X32015006Y11181740D01*
X31900094Y11066828D01*
X31809807Y10931705D01*
X31747617Y10781565D01*
X31715913Y10622176D01*
X31715913Y10459666D01*
X31747617Y10300277D01*
X31809807Y10150137D01*
X31823828Y10129153D01*
X31707741Y10013066D01*
X31647691Y10025010D01*
X31485181Y10025010D01*
X31325792Y9993306D01*
X31175652Y9931116D01*
X31040529Y9840829D01*
X30974700Y9775000D01*
X30474834Y9775000D01*
X30440819Y9825907D01*
X30325907Y9940819D01*
X30190784Y10031106D01*
X30040644Y10093296D01*
X29881255Y10125000D01*
X29718745Y10125000D01*
X29559356Y10093296D01*
X29409216Y10031106D01*
X29274093Y9940819D01*
X29159181Y9825907D01*
X29068894Y9690784D01*
X29006704Y9540644D01*
X28975000Y9381255D01*
X28975000Y9218745D01*
X29006704Y9059356D01*
X29068894Y8909216D01*
X29091757Y8875000D01*
X28291726Y8875000D01*
X28275907Y8890819D01*
X28140784Y8981106D01*
X27990644Y9043296D01*
X27831255Y9075000D01*
X27668745Y9075000D01*
X27509356Y9043296D01*
X27359216Y8981106D01*
X27224093Y8890819D01*
X27109181Y8775907D01*
X27018894Y8640784D01*
X26956704Y8490644D01*
X26925000Y8331255D01*
X26925000Y8168745D01*
X26956704Y8009356D01*
X27018894Y7859216D01*
X27109181Y7724093D01*
X27224093Y7609181D01*
X27359216Y7518894D01*
X27509356Y7456704D01*
X27668745Y7425000D01*
X27831255Y7425000D01*
X27990644Y7456704D01*
X28140784Y7518894D01*
X28275907Y7609181D01*
X28291726Y7625000D01*
X31958274Y7625000D01*
X31974093Y7609181D01*
X32109216Y7518894D01*
X32259356Y7456704D01*
X32418745Y7425000D01*
X32581255Y7425000D01*
X32740644Y7456704D01*
X32890784Y7518894D01*
X33025907Y7609181D01*
X33140819Y7724093D01*
X33231106Y7859216D01*
X33293296Y8009356D01*
X33325000Y8168745D01*
X33325000Y8331255D01*
X33293296Y8490644D01*
X33231106Y8640784D01*
X33140819Y8775907D01*
X33025907Y8890819D01*
X32890784Y8981106D01*
X32740644Y9043296D01*
X32581255Y9075000D01*
X32418745Y9075000D01*
X32381249Y9067542D01*
X32391436Y9118755D01*
X32391436Y9281265D01*
X32379492Y9341315D01*
X32788805Y9750627D01*
X32931697Y9809815D01*
X33066820Y9900102D01*
X33181732Y10015014D01*
X33272019Y10150137D01*
X33334209Y10300277D01*
X33365913Y10459666D01*
X33365913Y10609824D01*
X34844308Y9131428D01*
X34806704Y9040644D01*
X34775000Y8881255D01*
X34775000Y8718745D01*
X34806704Y8559356D01*
X34868894Y8409216D01*
X34959181Y8274093D01*
X35074093Y8159181D01*
X35209216Y8068894D01*
X35359356Y8006704D01*
X35518745Y7975000D01*
X35681255Y7975000D01*
X35840644Y8006704D01*
X35990784Y8068894D01*
X36125907Y8159181D01*
X36240819Y8274093D01*
X36331106Y8409216D01*
X36393296Y8559356D01*
X36425000Y8718745D01*
X36425000Y8881255D01*
X36393296Y9040644D01*
X36350000Y9145170D01*
X36350000Y9399568D01*
X36353627Y9436396D01*
X36350000Y9473224D01*
X36350000Y9473231D01*
X36339147Y9583422D01*
X36296261Y9724797D01*
X36226619Y9855089D01*
X36211606Y9873382D01*
X36156376Y9940680D01*
X36156374Y9940682D01*
X36132895Y9969291D01*
X36104287Y9992769D01*
X33317774Y12779281D01*
X33294290Y12807896D01*
X33180088Y12901620D01*
X33049796Y12971262D01*
X32908421Y13014148D01*
X32798230Y13025001D01*
X32798222Y13025001D01*
X32761395Y13028628D01*
X32724568Y13025001D01*
X28511817Y13025001D01*
X28475000Y13028627D01*
X28438183Y13025001D01*
X28438166Y13025001D01*
X28327975Y13014148D01*
X28186600Y12971262D01*
X28056308Y12901620D01*
X28056306Y12901619D01*
X28056307Y12901619D01*
X27970716Y12831377D01*
X27970709Y12831370D01*
X27942106Y12807896D01*
X27918631Y12779292D01*
X26413743Y11274403D01*
X26309216Y11231106D01*
X26174093Y11140819D01*
X26059181Y11025907D01*
X25968894Y10890784D01*
X25906704Y10740644D01*
X25875000Y10581255D01*
X400000Y10581255D01*
X400000Y23181255D01*
X13574999Y23181255D01*
X13574999Y23018745D01*
X13606703Y22859356D01*
X13668893Y22709216D01*
X13759180Y22574093D01*
X13874092Y22459181D01*
X13900000Y22441870D01*
X13899999Y17824561D01*
X13897580Y17800001D01*
X13899999Y17775442D01*
X13907234Y17701985D01*
X13935824Y17607735D01*
X13982253Y17520872D01*
X14044735Y17444737D01*
X14063823Y17429072D01*
X15329075Y16163819D01*
X15344736Y16144736D01*
X15420871Y16082254D01*
X15507733Y16035825D01*
X15560943Y16019684D01*
X15601982Y16007235D01*
X15699999Y15997581D01*
X15724559Y16000000D01*
X19541870Y16000000D01*
X19559181Y15974093D01*
X19674093Y15859181D01*
X19809216Y15768894D01*
X19959356Y15706704D01*
X20118745Y15675000D01*
X20281255Y15675000D01*
X20440644Y15706704D01*
X20590784Y15768894D01*
X20725907Y15859181D01*
X20840819Y15974093D01*
X20931106Y16109216D01*
X20993296Y16259356D01*
X21025000Y16418745D01*
X21025000Y16581255D01*
X20993296Y16740644D01*
X20931106Y16890784D01*
X20840819Y17025907D01*
X20725907Y17140819D01*
X20590784Y17231106D01*
X20440644Y17293296D01*
X20281255Y17325000D01*
X20118745Y17325000D01*
X19959356Y17293296D01*
X19809216Y17231106D01*
X19674093Y17140819D01*
X19559181Y17025907D01*
X19541870Y17000000D01*
X15907106Y17000000D01*
X14899999Y18007106D01*
X14899999Y18062664D01*
X14959181Y17974093D01*
X15074093Y17859181D01*
X15209216Y17768894D01*
X15359356Y17706704D01*
X15518745Y17675000D01*
X15681255Y17675000D01*
X15840644Y17706704D01*
X15990784Y17768894D01*
X16125907Y17859181D01*
X16240819Y17974093D01*
X16258130Y18000000D01*
X19641870Y18000000D01*
X19659181Y17974093D01*
X19774093Y17859181D01*
X19909216Y17768894D01*
X20059356Y17706704D01*
X20218745Y17675000D01*
X20381255Y17675000D01*
X20540644Y17706704D01*
X20690784Y17768894D01*
X20825907Y17859181D01*
X20940819Y17974093D01*
X21031106Y18109216D01*
X21093296Y18259356D01*
X21125000Y18418745D01*
X21125000Y18581255D01*
X21093296Y18740644D01*
X21031106Y18890784D01*
X20940819Y19025907D01*
X20825907Y19140819D01*
X20690784Y19231106D01*
X20540644Y19293296D01*
X20381255Y19325000D01*
X20218745Y19325000D01*
X20059356Y19293296D01*
X19909216Y19231106D01*
X19774093Y19140819D01*
X19659181Y19025907D01*
X19641870Y19000000D01*
X16258130Y19000000D01*
X16240819Y19025907D01*
X16125907Y19140819D01*
X15990784Y19231106D01*
X15840644Y19293296D01*
X15681255Y19325000D01*
X15518745Y19325000D01*
X15359356Y19293296D01*
X15209216Y19231106D01*
X15074093Y19140819D01*
X14959181Y19025907D01*
X14899999Y18937336D01*
X14899999Y22441870D01*
X14925906Y22459181D01*
X15040818Y22574093D01*
X15131105Y22709216D01*
X15193295Y22859356D01*
X15224999Y23018745D01*
X15224999Y23181255D01*
X15193295Y23340644D01*
X15131105Y23490784D01*
X15040818Y23625907D01*
X14925906Y23740819D01*
X14790783Y23831106D01*
X14640643Y23893296D01*
X14481254Y23925000D01*
X14318744Y23925000D01*
X14159355Y23893296D01*
X14009215Y23831106D01*
X13874092Y23740819D01*
X13759180Y23625907D01*
X13668893Y23490784D01*
X13606703Y23340644D01*
X13574999Y23181255D01*
X400000Y23181255D01*
X400000Y34881255D01*
X12675000Y34881255D01*
X12675000Y34718745D01*
X12706704Y34559356D01*
X12750000Y34454830D01*
X12750001Y26936837D01*
X12746373Y26900000D01*
X12760853Y26752975D01*
X12803739Y26611600D01*
X12817348Y26586140D01*
X12873382Y26481307D01*
X12914258Y26431500D01*
X12943624Y26395717D01*
X12943627Y26395714D01*
X12967106Y26367105D01*
X12995715Y26343626D01*
X15125598Y24213742D01*
X15168894Y24109216D01*
X15259181Y23974093D01*
X15374093Y23859181D01*
X15509216Y23768894D01*
X15659356Y23706704D01*
X15818745Y23675000D01*
X15981255Y23675000D01*
X16140644Y23706704D01*
X16290784Y23768894D01*
X16425907Y23859181D01*
X16540819Y23974093D01*
X16631106Y24109216D01*
X16693296Y24259356D01*
X16725000Y24418745D01*
X16725000Y24581255D01*
X16693296Y24740644D01*
X16631106Y24890784D01*
X16540819Y25025907D01*
X16425907Y25140819D01*
X16290784Y25231106D01*
X16186258Y25274402D01*
X14250000Y27210659D01*
X14250000Y28581255D01*
X16875000Y28581255D01*
X16875000Y28418745D01*
X16906704Y28259356D01*
X16968894Y28109216D01*
X17059181Y27974093D01*
X17174093Y27859181D01*
X17309216Y27768894D01*
X17459356Y27706704D01*
X17618745Y27675000D01*
X17781255Y27675000D01*
X17811816Y27681079D01*
X19400000Y26092893D01*
X19400001Y21158130D01*
X19374093Y21140819D01*
X19259181Y21025907D01*
X19168894Y20890784D01*
X19106704Y20740644D01*
X19075000Y20581255D01*
X19075000Y20418745D01*
X19106704Y20259356D01*
X19168894Y20109216D01*
X19259181Y19974093D01*
X19374093Y19859181D01*
X19509216Y19768894D01*
X19659356Y19706704D01*
X19818745Y19675000D01*
X19981255Y19675000D01*
X20140644Y19706704D01*
X20290784Y19768894D01*
X20425907Y19859181D01*
X20540819Y19974093D01*
X20631106Y20109216D01*
X20693296Y20259356D01*
X20725000Y20418745D01*
X20725000Y20581255D01*
X20693296Y20740644D01*
X20631106Y20890784D01*
X20540819Y21025907D01*
X20425907Y21140819D01*
X20400000Y21158130D01*
X20400000Y26275440D01*
X20402419Y26300000D01*
X20392765Y26398017D01*
X20382608Y26431500D01*
X20364175Y26492267D01*
X20317746Y26579129D01*
X20255264Y26655264D01*
X20236187Y26670920D01*
X18518921Y28388184D01*
X18525000Y28418745D01*
X18525000Y28581255D01*
X18493296Y28740644D01*
X18431106Y28890784D01*
X18340819Y29025907D01*
X18225907Y29140819D01*
X18090784Y29231106D01*
X17940644Y29293296D01*
X17781255Y29325000D01*
X17618745Y29325000D01*
X17459356Y29293296D01*
X17309216Y29231106D01*
X17174093Y29140819D01*
X17059181Y29025907D01*
X16968894Y28890784D01*
X16906704Y28740644D01*
X16875000Y28581255D01*
X14250000Y28581255D01*
X14250000Y34454830D01*
X14293296Y34559356D01*
X14325000Y34718745D01*
X14325000Y34881255D01*
X14293296Y35040644D01*
X14231106Y35190784D01*
X14140819Y35325907D01*
X14025907Y35440819D01*
X13890784Y35531106D01*
X13740644Y35593296D01*
X13581255Y35625000D01*
X13418745Y35625000D01*
X13259356Y35593296D01*
X13109216Y35531106D01*
X12974093Y35440819D01*
X12859181Y35325907D01*
X12768894Y35190784D01*
X12706704Y35040644D01*
X12675000Y34881255D01*
X400000Y34881255D01*
X400000Y39081255D01*
X6075000Y39081255D01*
X6075000Y38918745D01*
X6106704Y38759356D01*
X6168894Y38609216D01*
X6259181Y38474093D01*
X6374093Y38359181D01*
X6509216Y38268894D01*
X6659356Y38206704D01*
X6818745Y38175000D01*
X6981255Y38175000D01*
X7140644Y38206704D01*
X7290784Y38268894D01*
X7425907Y38359181D01*
X7540819Y38474093D01*
X7558130Y38500000D01*
X20271891Y38500000D01*
X15438818Y33666925D01*
X15419736Y33651265D01*
X15357254Y33575130D01*
X15310825Y33488268D01*
X15282234Y33394018D01*
X15272580Y33296001D01*
X15275000Y33271431D01*
X15274999Y32349562D01*
X15272580Y32325001D01*
X15279063Y32259181D01*
X15282234Y32226985D01*
X15310824Y32132735D01*
X15357253Y32045872D01*
X15419735Y31969737D01*
X15438823Y31954072D01*
X18781079Y28611815D01*
X18775000Y28581255D01*
X18775000Y28418745D01*
X18806704Y28259356D01*
X18868894Y28109216D01*
X18959181Y27974093D01*
X19074093Y27859181D01*
X19209216Y27768894D01*
X19359356Y27706704D01*
X19518745Y27675000D01*
X19681255Y27675000D01*
X19840644Y27706704D01*
X19990784Y27768894D01*
X20125907Y27859181D01*
X20240819Y27974093D01*
X20331106Y28109216D01*
X20393296Y28259356D01*
X20422227Y28404804D01*
X20457733Y28385825D01*
X20551983Y28357235D01*
X20650000Y28347581D01*
X20674560Y28350000D01*
X36642895Y28350000D01*
X39374990Y25617903D01*
X39374991Y23158130D01*
X39349083Y23140819D01*
X39234171Y23025907D01*
X39143884Y22890784D01*
X39081694Y22740644D01*
X39049990Y22581255D01*
X39049990Y22418745D01*
X39055831Y22389379D01*
X39044737Y22380274D01*
X38982255Y22304139D01*
X38966680Y22275000D01*
X38935826Y22217277D01*
X38907235Y22123027D01*
X38897581Y22025010D01*
X38900001Y22000440D01*
X38900000Y7007107D01*
X36911816Y5018921D01*
X36881255Y5025000D01*
X36718745Y5025000D01*
X36559356Y4993296D01*
X36409216Y4931106D01*
X36274093Y4840819D01*
X36159181Y4725907D01*
X36141870Y4700000D01*
X23558130Y4700000D01*
X23540819Y4725907D01*
X23425907Y4840819D01*
X23290784Y4931106D01*
X23140644Y4993296D01*
X22981255Y5025000D01*
X22818745Y5025000D01*
X22659356Y4993296D01*
X22509216Y4931106D01*
X22374093Y4840819D01*
X22259181Y4725907D01*
X22168894Y4590784D01*
X22106704Y4440644D01*
X22075000Y4281255D01*
X22075000Y4118745D01*
X22106704Y3959356D01*
X22168894Y3809216D01*
X22259181Y3674093D01*
X22374093Y3559181D01*
X22509216Y3468894D01*
X22659356Y3406704D01*
X22818745Y3375000D01*
X22981255Y3375000D01*
X23140644Y3406704D01*
X23290784Y3468894D01*
X23425907Y3559181D01*
X23540819Y3674093D01*
X23558130Y3700000D01*
X36141870Y3700000D01*
X36159181Y3674093D01*
X36274093Y3559181D01*
X36409216Y3468894D01*
X36559356Y3406704D01*
X36718745Y3375000D01*
X36881255Y3375000D01*
X37040644Y3406704D01*
X37190784Y3468894D01*
X37325907Y3559181D01*
X37440819Y3674093D01*
X37531106Y3809216D01*
X37593296Y3959356D01*
X37625000Y4118745D01*
X37625000Y4194521D01*
X54025000Y4194521D01*
X54025000Y3805479D01*
X54100898Y3423914D01*
X54249778Y3064487D01*
X54465917Y2741011D01*
X54741011Y2465917D01*
X55064487Y2249778D01*
X55423914Y2100898D01*
X55805479Y2025000D01*
X56194521Y2025000D01*
X56576086Y2100898D01*
X56935513Y2249778D01*
X57258989Y2465917D01*
X57534083Y2741011D01*
X57750222Y3064487D01*
X57899102Y3423914D01*
X57975000Y3805479D01*
X57975000Y4194521D01*
X57899102Y4576086D01*
X57750222Y4935513D01*
X57534083Y5258989D01*
X57258989Y5534083D01*
X56935513Y5750222D01*
X56576086Y5899102D01*
X56194521Y5975000D01*
X55805479Y5975000D01*
X55423914Y5899102D01*
X55064487Y5750222D01*
X54741011Y5534083D01*
X54465917Y5258989D01*
X54249778Y4935513D01*
X54100898Y4576086D01*
X54025000Y4194521D01*
X37625000Y4194521D01*
X37625000Y4281255D01*
X37618921Y4311816D01*
X39736187Y6429080D01*
X39755264Y6444736D01*
X39817746Y6520871D01*
X39864175Y6607733D01*
X39892765Y6701983D01*
X39900000Y6775440D01*
X39900000Y6775449D01*
X39902418Y6799999D01*
X39900000Y6824549D01*
X39900000Y13433274D01*
X39974093Y13359181D01*
X40109216Y13268894D01*
X40259356Y13206704D01*
X40418745Y13175000D01*
X40581255Y13175000D01*
X40740644Y13206704D01*
X40890784Y13268894D01*
X41025907Y13359181D01*
X41140819Y13474093D01*
X41231106Y13609216D01*
X41293296Y13759356D01*
X41325000Y13918745D01*
X41325000Y14081255D01*
X41318921Y14111814D01*
X41320919Y14113812D01*
X41320928Y14113823D01*
X43536181Y16329075D01*
X43555264Y16344736D01*
X43617746Y16420871D01*
X43664175Y16507733D01*
X43692765Y16601983D01*
X43700000Y16675440D01*
X43702419Y16700000D01*
X43700000Y16724560D01*
X43700000Y21050000D01*
X51697581Y21050000D01*
X51700001Y21025430D01*
X51700000Y13024560D01*
X51697581Y13000000D01*
X51707235Y12901983D01*
X51715908Y12873393D01*
X51735825Y12807734D01*
X51782254Y12720871D01*
X51844736Y12644736D01*
X51863824Y12629071D01*
X52129071Y12363824D01*
X52144736Y12344736D01*
X52220871Y12282254D01*
X52307733Y12235825D01*
X52401983Y12207235D01*
X52439510Y12203539D01*
X52459185Y12174093D01*
X52574097Y12059181D01*
X52709220Y11968894D01*
X52859360Y11906704D01*
X53018749Y11875000D01*
X53181259Y11875000D01*
X53340648Y11906704D01*
X53490788Y11968894D01*
X53625911Y12059181D01*
X53740823Y12174093D01*
X53831110Y12309216D01*
X53893300Y12459356D01*
X53925004Y12618745D01*
X53925004Y12781255D01*
X53893300Y12940644D01*
X53831110Y13090784D01*
X53740823Y13225907D01*
X53666728Y13300002D01*
X53740819Y13374093D01*
X53831106Y13509216D01*
X53893296Y13659356D01*
X53925000Y13818745D01*
X53925000Y13981255D01*
X53893296Y14140644D01*
X53831106Y14290784D01*
X53740819Y14425907D01*
X53625907Y14540819D01*
X53600000Y14558130D01*
X53600000Y19442895D01*
X54738185Y20581079D01*
X54768745Y20575000D01*
X54931255Y20575000D01*
X55090644Y20606704D01*
X55240784Y20668894D01*
X55375907Y20759181D01*
X55490819Y20874093D01*
X55581106Y21009216D01*
X55643296Y21159356D01*
X55675000Y21318745D01*
X55675000Y21481255D01*
X55643296Y21640644D01*
X55581106Y21790784D01*
X55490819Y21925907D01*
X55375907Y22040819D01*
X55240784Y22131106D01*
X55090644Y22193296D01*
X54931255Y22225000D01*
X54768745Y22225000D01*
X54609356Y22193296D01*
X54459216Y22131106D01*
X54324093Y22040819D01*
X54258182Y21974908D01*
X54281106Y22009216D01*
X54343296Y22159356D01*
X54375000Y22318745D01*
X54375000Y22481255D01*
X54343296Y22640644D01*
X54281106Y22790784D01*
X54190819Y22925907D01*
X54075907Y23040819D01*
X53940784Y23131106D01*
X53790644Y23193296D01*
X53631255Y23225000D01*
X53468745Y23225000D01*
X53309356Y23193296D01*
X53159216Y23131106D01*
X53024093Y23040819D01*
X52909181Y22925907D01*
X52818894Y22790784D01*
X52756704Y22640644D01*
X52725000Y22481255D01*
X52725000Y22318745D01*
X52731079Y22288185D01*
X51863819Y21420924D01*
X51844737Y21405264D01*
X51782255Y21329129D01*
X51763102Y21293296D01*
X51735826Y21242267D01*
X51707235Y21148017D01*
X51697581Y21050000D01*
X43700000Y21050000D01*
X43700000Y26111836D01*
X43702419Y26136396D01*
X43692765Y26234413D01*
X43690234Y26242756D01*
X43664175Y26328663D01*
X43617746Y26415525D01*
X43555264Y26491660D01*
X43536187Y26507316D01*
X41207325Y28836176D01*
X41191660Y28855264D01*
X41115525Y28917746D01*
X41028663Y28964175D01*
X40934413Y28992765D01*
X40860956Y29000000D01*
X40857931Y29000298D01*
X40840819Y29025907D01*
X40725907Y29140819D01*
X40590784Y29231106D01*
X40440644Y29293296D01*
X40281255Y29325000D01*
X40118745Y29325000D01*
X39959356Y29293296D01*
X39874999Y29258354D01*
X39874999Y36736843D01*
X39877418Y36761403D01*
X39867764Y36859420D01*
X39839174Y36953669D01*
X39839174Y36953670D01*
X39792745Y37040532D01*
X39730263Y37116667D01*
X39711186Y37132323D01*
X38224945Y38618563D01*
X38356152Y38618563D01*
X38515541Y38650267D01*
X38665681Y38712457D01*
X38800804Y38802744D01*
X38915716Y38917656D01*
X39006003Y39052779D01*
X39056842Y39175515D01*
X51268542Y26963813D01*
X51284198Y26944736D01*
X51360333Y26882254D01*
X51447195Y26835825D01*
X51541445Y26807235D01*
X51614902Y26800000D01*
X51614911Y26800000D01*
X51639461Y26797582D01*
X51664011Y26800000D01*
X54091870Y26800000D01*
X54109181Y26774093D01*
X54224093Y26659181D01*
X54359216Y26568894D01*
X54509356Y26506704D01*
X54668745Y26475000D01*
X54831255Y26475000D01*
X54990644Y26506704D01*
X55140784Y26568894D01*
X55275907Y26659181D01*
X55390819Y26774093D01*
X55481106Y26909216D01*
X55543296Y27059356D01*
X55575000Y27218745D01*
X55575000Y27381255D01*
X55543296Y27540644D01*
X55481106Y27690784D01*
X55390819Y27825907D01*
X55275907Y27940819D01*
X55140784Y28031106D01*
X54990644Y28093296D01*
X54831255Y28125000D01*
X54668745Y28125000D01*
X54509356Y28093296D01*
X54359216Y28031106D01*
X54224093Y27940819D01*
X54109181Y27825907D01*
X54091870Y27800000D01*
X51846569Y27800000D01*
X48046582Y31599986D01*
X48941870Y31599986D01*
X48959181Y31574079D01*
X49074093Y31459167D01*
X49209216Y31368880D01*
X49359356Y31306690D01*
X49518745Y31274986D01*
X49681255Y31274986D01*
X49840644Y31306690D01*
X49990784Y31368880D01*
X50125907Y31459167D01*
X50240819Y31574079D01*
X50331106Y31709202D01*
X50393296Y31859342D01*
X50425000Y32018731D01*
X50425000Y32181241D01*
X50393296Y32340630D01*
X50331106Y32490770D01*
X50240819Y32625893D01*
X50125907Y32740805D01*
X49990784Y32831092D01*
X49840644Y32893282D01*
X49681255Y32924986D01*
X49518745Y32924986D01*
X49359356Y32893282D01*
X49209216Y32831092D01*
X49074093Y32740805D01*
X48959181Y32625893D01*
X48941870Y32599986D01*
X48107121Y32599986D01*
X39370929Y41336176D01*
X39355264Y41355264D01*
X39279129Y41417746D01*
X39192267Y41464175D01*
X39098017Y41492765D01*
X39024560Y41500000D01*
X39000000Y41502419D01*
X38975440Y41500000D01*
X28024557Y41500000D01*
X27999999Y41502419D01*
X27975441Y41500000D01*
X27975440Y41500000D01*
X27901983Y41492765D01*
X27807733Y41464175D01*
X27720871Y41417746D01*
X27644736Y41355264D01*
X27629075Y41336181D01*
X25792895Y39500000D01*
X7558130Y39500000D01*
X7540819Y39525907D01*
X7425907Y39640819D01*
X7290784Y39731106D01*
X7140644Y39793296D01*
X6981255Y39825000D01*
X6818745Y39825000D01*
X6659356Y39793296D01*
X6509216Y39731106D01*
X6374093Y39640819D01*
X6259181Y39525907D01*
X6168894Y39390784D01*
X6106704Y39240644D01*
X6075000Y39081255D01*
X400000Y39081255D01*
X400000Y51980437D01*
X420991Y52194521D01*
X2025000Y52194521D01*
X2025000Y51805479D01*
X2100898Y51423914D01*
X2249778Y51064487D01*
X2465917Y50741011D01*
X2741011Y50465917D01*
X3064487Y50249778D01*
X3423914Y50100898D01*
X3805479Y50025000D01*
X4194521Y50025000D01*
X4576086Y50100898D01*
X4935513Y50249778D01*
X5258989Y50465917D01*
X5534083Y50741011D01*
X5750222Y51064487D01*
X5899102Y51423914D01*
X5975000Y51805479D01*
X5975000Y52194521D01*
X47025000Y52194521D01*
X47025000Y51805479D01*
X47100898Y51423914D01*
X47249778Y51064487D01*
X47465917Y50741011D01*
X47741011Y50465917D01*
X48064487Y50249778D01*
X48423914Y50100898D01*
X48805479Y50025000D01*
X49194521Y50025000D01*
X49576086Y50100898D01*
X49935513Y50249778D01*
X50258989Y50465917D01*
X50534083Y50741011D01*
X50750222Y51064487D01*
X50899102Y51423914D01*
X50975000Y51805479D01*
X50975000Y52194521D01*
X50899102Y52576086D01*
X50750222Y52935513D01*
X50534083Y53258989D01*
X50258989Y53534083D01*
X49935513Y53750222D01*
X49576086Y53899102D01*
X49194521Y53975000D01*
X48805479Y53975000D01*
X48423914Y53899102D01*
X48064487Y53750222D01*
X47741011Y53534083D01*
X47465917Y53258989D01*
X47249778Y52935513D01*
X47100898Y52576086D01*
X47025000Y52194521D01*
X5975000Y52194521D01*
X5899102Y52576086D01*
X5750222Y52935513D01*
X5534083Y53258989D01*
X5258989Y53534083D01*
X4935513Y53750222D01*
X4576086Y53899102D01*
X4194521Y53975000D01*
X3805479Y53975000D01*
X3423914Y53899102D01*
X3064487Y53750222D01*
X2741011Y53534083D01*
X2465917Y53258989D01*
X2249778Y52935513D01*
X2100898Y52576086D01*
X2025000Y52194521D01*
X420991Y52194521D01*
X470443Y52698869D01*
X673408Y53371123D01*
X1003079Y53991145D01*
X1446908Y54535333D01*
X1478607Y54561557D01*
X21325000Y54561557D01*
X21325000Y54438443D01*
X21349019Y54317694D01*
X21396132Y54203952D01*
X21464531Y54101586D01*
X21551586Y54014531D01*
X21653952Y53946132D01*
X21767694Y53899019D01*
X21888443Y53875000D01*
X22011557Y53875000D01*
X22132306Y53899019D01*
X22246048Y53946132D01*
X22348414Y54014531D01*
X22435469Y54101586D01*
X22503868Y54203952D01*
X22550981Y54317694D01*
X22575000Y54438443D01*
X22575000Y54561557D01*
X37325000Y54561557D01*
X37325000Y54438443D01*
X37349019Y54317694D01*
X37396132Y54203952D01*
X37464531Y54101586D01*
X37551586Y54014531D01*
X37653952Y53946132D01*
X37767694Y53899019D01*
X37888443Y53875000D01*
X38011557Y53875000D01*
X38132306Y53899019D01*
X38246048Y53946132D01*
X38348414Y54014531D01*
X38435469Y54101586D01*
X38503868Y54203952D01*
X38550981Y54317694D01*
X38575000Y54438443D01*
X38575000Y54561557D01*
X38550981Y54682306D01*
X38503868Y54796048D01*
X38435469Y54898414D01*
X38348414Y54985469D01*
X38246048Y55053868D01*
X38132306Y55100981D01*
X38011557Y55125000D01*
X37888443Y55125000D01*
X37767694Y55100981D01*
X37653952Y55053868D01*
X37551586Y54985469D01*
X37464531Y54898414D01*
X37396132Y54796048D01*
X37349019Y54682306D01*
X37325000Y54561557D01*
X22575000Y54561557D01*
X22550981Y54682306D01*
X22503868Y54796048D01*
X22435469Y54898414D01*
X22348414Y54985469D01*
X22246048Y55053868D01*
X22132306Y55100981D01*
X22011557Y55125000D01*
X21888443Y55125000D01*
X21767694Y55100981D01*
X21653952Y55053868D01*
X21551586Y54985469D01*
X21464531Y54898414D01*
X21396132Y54796048D01*
X21349019Y54682306D01*
X21325000Y54561557D01*
X1478607Y54561557D01*
X1987979Y54982946D01*
X2605688Y55316940D01*
X3276506Y55524592D01*
X3993730Y55599975D01*
X4000813Y55600000D01*
X55980437Y55600000D01*
X56698869Y55529557D01*
G37*
%TD.AperFunction*%
%TD*%
M02*
