M48
; DRILL file {KiCad 5.1.9-73d0e3b20d~88~ubuntu20.04.1} date Mon Apr 26 18:42:56 2021
; FORMAT={-:-/ absolute / metric / decimal}
; #@! TF.CreationDate,2021-04-26T18:42:56+02:00
; #@! TF.GenerationSoftware,Kicad,Pcbnew,5.1.9-73d0e3b20d~88~ubuntu20.04.1
FMAT,2
METRIC
T1C0.400
T2C0.600
T3C0.400
T4C0.600
T5C3.200
%
G90
G05
T1
X1.5Y8.25
X3.5Y41.0
X3.5Y28.5
X6.9Y39.0
X7.75Y1.25
X8.5Y48.5
X8.5Y33.5
X8.5Y21.0
X13.5Y34.8
X14.4Y23.1
X15.6Y18.5
X15.9Y24.5
X16.0Y48.5
X16.0Y28.0
X16.6Y32.9
X17.7Y28.5
X19.5Y31.5
X19.6Y28.5
X19.9Y20.5
X20.2Y16.5
X20.3Y18.5
X21.4Y7.0
X22.0Y12.0
X22.9Y4.2
X23.5Y6.0
X24.5Y54.475
X26.7Y10.5
X27.75Y8.25
X29.0Y39.5
X29.8Y9.3
X31.1Y44.1
X31.566Y9.2
X32.5Y8.25
X32.541Y10.541
X34.5Y39.25
X35.6Y8.8
X36.0Y6.0
X36.15Y39.35
X36.7Y1.7
X36.8Y4.2
X38.275Y39.444
X38.3Y12.7
X38.5Y8.5
X39.2Y54.4
X39.875Y22.5
X40.2Y28.5
X40.5Y16.5
X40.5Y15.3
X40.5Y14.0
X41.325Y18.538
X41.662Y26.488
X43.5Y48.5
X46.0Y23.5
X46.3Y19.4
X49.6Y32.1
X51.0Y3.5
X53.1Y13.9
X53.1Y12.7
X53.55Y22.4
X54.75Y27.3
X54.85Y21.4
X55.0Y13.0
X56.0Y53.5
X56.0Y33.5
T3
X21.95Y54.5
X37.95Y54.5
T4
X27.11Y5.8
X32.89Y5.8
T5
X4.0Y52.0
X4.0Y4.0
X49.0Y52.0
X56.0Y4.0
T2
G00X25.68Y5.73
M15
G01X25.68Y6.83
M16
G05
G00X25.68Y1.71
M15
G01X25.68Y2.51
M16
G05
G00X34.32Y5.73
M15
G01X34.32Y6.83
M16
G05
G00X34.32Y1.71
M15
G01X34.32Y2.51
M16
G05
T0
M30
